G04 #@! TF.GenerationSoftware,KiCad,Pcbnew,(5.1.2)-1*
G04 #@! TF.CreationDate,2020-05-07T10:56:56-05:00*
G04 #@! TF.ProjectId,EMI_sensor_control_Rev2.0,454d495f-7365-46e7-936f-725f636f6e74,rev?*
G04 #@! TF.SameCoordinates,Original*
G04 #@! TF.FileFunction,Paste,Bot*
G04 #@! TF.FilePolarity,Positive*
%FSLAX46Y46*%
G04 Gerber Fmt 4.6, Leading zero omitted, Abs format (unit mm)*
G04 Created by KiCad (PCBNEW (5.1.2)-1) date 2020-05-07 10:56:56*
%MOMM*%
%LPD*%
G04 APERTURE LIST*
%ADD10C,0.100000*%
%ADD11C,2.500000*%
%ADD12C,0.950000*%
%ADD13C,1.150000*%
%ADD14R,4.000000X3.850000*%
G04 APERTURE END LIST*
D10*
G36*
X99272904Y-97455604D02*
G01*
X99297173Y-97459204D01*
X99320971Y-97465165D01*
X99344071Y-97473430D01*
X99366249Y-97483920D01*
X99387293Y-97496533D01*
X99406998Y-97511147D01*
X99425177Y-97527623D01*
X99441653Y-97545802D01*
X99456267Y-97565507D01*
X99468880Y-97586551D01*
X99479370Y-97608729D01*
X99487635Y-97631829D01*
X99493596Y-97655627D01*
X99497196Y-97679896D01*
X99498400Y-97704400D01*
X99498400Y-99704400D01*
X99497196Y-99728904D01*
X99493596Y-99753173D01*
X99487635Y-99776971D01*
X99479370Y-99800071D01*
X99468880Y-99822249D01*
X99456267Y-99843293D01*
X99441653Y-99862998D01*
X99425177Y-99881177D01*
X99406998Y-99897653D01*
X99387293Y-99912267D01*
X99366249Y-99924880D01*
X99344071Y-99935370D01*
X99320971Y-99943635D01*
X99297173Y-99949596D01*
X99272904Y-99953196D01*
X99248400Y-99954400D01*
X95748400Y-99954400D01*
X95723896Y-99953196D01*
X95699627Y-99949596D01*
X95675829Y-99943635D01*
X95652729Y-99935370D01*
X95630551Y-99924880D01*
X95609507Y-99912267D01*
X95589802Y-99897653D01*
X95571623Y-99881177D01*
X95555147Y-99862998D01*
X95540533Y-99843293D01*
X95527920Y-99822249D01*
X95517430Y-99800071D01*
X95509165Y-99776971D01*
X95503204Y-99753173D01*
X95499604Y-99728904D01*
X95498400Y-99704400D01*
X95498400Y-97704400D01*
X95499604Y-97679896D01*
X95503204Y-97655627D01*
X95509165Y-97631829D01*
X95517430Y-97608729D01*
X95527920Y-97586551D01*
X95540533Y-97565507D01*
X95555147Y-97545802D01*
X95571623Y-97527623D01*
X95589802Y-97511147D01*
X95609507Y-97496533D01*
X95630551Y-97483920D01*
X95652729Y-97473430D01*
X95675829Y-97465165D01*
X95699627Y-97459204D01*
X95723896Y-97455604D01*
X95748400Y-97454400D01*
X99248400Y-97454400D01*
X99272904Y-97455604D01*
X99272904Y-97455604D01*
G37*
D11*
X97498400Y-98704400D03*
D10*
G36*
X107272904Y-97455604D02*
G01*
X107297173Y-97459204D01*
X107320971Y-97465165D01*
X107344071Y-97473430D01*
X107366249Y-97483920D01*
X107387293Y-97496533D01*
X107406998Y-97511147D01*
X107425177Y-97527623D01*
X107441653Y-97545802D01*
X107456267Y-97565507D01*
X107468880Y-97586551D01*
X107479370Y-97608729D01*
X107487635Y-97631829D01*
X107493596Y-97655627D01*
X107497196Y-97679896D01*
X107498400Y-97704400D01*
X107498400Y-99704400D01*
X107497196Y-99728904D01*
X107493596Y-99753173D01*
X107487635Y-99776971D01*
X107479370Y-99800071D01*
X107468880Y-99822249D01*
X107456267Y-99843293D01*
X107441653Y-99862998D01*
X107425177Y-99881177D01*
X107406998Y-99897653D01*
X107387293Y-99912267D01*
X107366249Y-99924880D01*
X107344071Y-99935370D01*
X107320971Y-99943635D01*
X107297173Y-99949596D01*
X107272904Y-99953196D01*
X107248400Y-99954400D01*
X103748400Y-99954400D01*
X103723896Y-99953196D01*
X103699627Y-99949596D01*
X103675829Y-99943635D01*
X103652729Y-99935370D01*
X103630551Y-99924880D01*
X103609507Y-99912267D01*
X103589802Y-99897653D01*
X103571623Y-99881177D01*
X103555147Y-99862998D01*
X103540533Y-99843293D01*
X103527920Y-99822249D01*
X103517430Y-99800071D01*
X103509165Y-99776971D01*
X103503204Y-99753173D01*
X103499604Y-99728904D01*
X103498400Y-99704400D01*
X103498400Y-97704400D01*
X103499604Y-97679896D01*
X103503204Y-97655627D01*
X103509165Y-97631829D01*
X103517430Y-97608729D01*
X103527920Y-97586551D01*
X103540533Y-97565507D01*
X103555147Y-97545802D01*
X103571623Y-97527623D01*
X103589802Y-97511147D01*
X103609507Y-97496533D01*
X103630551Y-97483920D01*
X103652729Y-97473430D01*
X103675829Y-97465165D01*
X103699627Y-97459204D01*
X103723896Y-97455604D01*
X103748400Y-97454400D01*
X107248400Y-97454400D01*
X107272904Y-97455604D01*
X107272904Y-97455604D01*
G37*
D11*
X105498400Y-98704400D03*
D10*
G36*
X134044504Y-84958804D02*
G01*
X134068773Y-84962404D01*
X134092571Y-84968365D01*
X134115671Y-84976630D01*
X134137849Y-84987120D01*
X134158893Y-84999733D01*
X134178598Y-85014347D01*
X134196777Y-85030823D01*
X134213253Y-85049002D01*
X134227867Y-85068707D01*
X134240480Y-85089751D01*
X134250970Y-85111929D01*
X134259235Y-85135029D01*
X134265196Y-85158827D01*
X134268796Y-85183096D01*
X134270000Y-85207600D01*
X134270000Y-87207600D01*
X134268796Y-87232104D01*
X134265196Y-87256373D01*
X134259235Y-87280171D01*
X134250970Y-87303271D01*
X134240480Y-87325449D01*
X134227867Y-87346493D01*
X134213253Y-87366198D01*
X134196777Y-87384377D01*
X134178598Y-87400853D01*
X134158893Y-87415467D01*
X134137849Y-87428080D01*
X134115671Y-87438570D01*
X134092571Y-87446835D01*
X134068773Y-87452796D01*
X134044504Y-87456396D01*
X134020000Y-87457600D01*
X130520000Y-87457600D01*
X130495496Y-87456396D01*
X130471227Y-87452796D01*
X130447429Y-87446835D01*
X130424329Y-87438570D01*
X130402151Y-87428080D01*
X130381107Y-87415467D01*
X130361402Y-87400853D01*
X130343223Y-87384377D01*
X130326747Y-87366198D01*
X130312133Y-87346493D01*
X130299520Y-87325449D01*
X130289030Y-87303271D01*
X130280765Y-87280171D01*
X130274804Y-87256373D01*
X130271204Y-87232104D01*
X130270000Y-87207600D01*
X130270000Y-85207600D01*
X130271204Y-85183096D01*
X130274804Y-85158827D01*
X130280765Y-85135029D01*
X130289030Y-85111929D01*
X130299520Y-85089751D01*
X130312133Y-85068707D01*
X130326747Y-85049002D01*
X130343223Y-85030823D01*
X130361402Y-85014347D01*
X130381107Y-84999733D01*
X130402151Y-84987120D01*
X130424329Y-84976630D01*
X130447429Y-84968365D01*
X130471227Y-84962404D01*
X130495496Y-84958804D01*
X130520000Y-84957600D01*
X134020000Y-84957600D01*
X134044504Y-84958804D01*
X134044504Y-84958804D01*
G37*
D11*
X132270000Y-86207600D03*
D10*
G36*
X126044504Y-84958804D02*
G01*
X126068773Y-84962404D01*
X126092571Y-84968365D01*
X126115671Y-84976630D01*
X126137849Y-84987120D01*
X126158893Y-84999733D01*
X126178598Y-85014347D01*
X126196777Y-85030823D01*
X126213253Y-85049002D01*
X126227867Y-85068707D01*
X126240480Y-85089751D01*
X126250970Y-85111929D01*
X126259235Y-85135029D01*
X126265196Y-85158827D01*
X126268796Y-85183096D01*
X126270000Y-85207600D01*
X126270000Y-87207600D01*
X126268796Y-87232104D01*
X126265196Y-87256373D01*
X126259235Y-87280171D01*
X126250970Y-87303271D01*
X126240480Y-87325449D01*
X126227867Y-87346493D01*
X126213253Y-87366198D01*
X126196777Y-87384377D01*
X126178598Y-87400853D01*
X126158893Y-87415467D01*
X126137849Y-87428080D01*
X126115671Y-87438570D01*
X126092571Y-87446835D01*
X126068773Y-87452796D01*
X126044504Y-87456396D01*
X126020000Y-87457600D01*
X122520000Y-87457600D01*
X122495496Y-87456396D01*
X122471227Y-87452796D01*
X122447429Y-87446835D01*
X122424329Y-87438570D01*
X122402151Y-87428080D01*
X122381107Y-87415467D01*
X122361402Y-87400853D01*
X122343223Y-87384377D01*
X122326747Y-87366198D01*
X122312133Y-87346493D01*
X122299520Y-87325449D01*
X122289030Y-87303271D01*
X122280765Y-87280171D01*
X122274804Y-87256373D01*
X122271204Y-87232104D01*
X122270000Y-87207600D01*
X122270000Y-85207600D01*
X122271204Y-85183096D01*
X122274804Y-85158827D01*
X122280765Y-85135029D01*
X122289030Y-85111929D01*
X122299520Y-85089751D01*
X122312133Y-85068707D01*
X122326747Y-85049002D01*
X122343223Y-85030823D01*
X122361402Y-85014347D01*
X122381107Y-84999733D01*
X122402151Y-84987120D01*
X122424329Y-84976630D01*
X122447429Y-84968365D01*
X122471227Y-84962404D01*
X122495496Y-84958804D01*
X122520000Y-84957600D01*
X126020000Y-84957600D01*
X126044504Y-84958804D01*
X126044504Y-84958804D01*
G37*
D11*
X124270000Y-86207600D03*
D10*
G36*
X109887179Y-84848144D02*
G01*
X109910234Y-84851563D01*
X109932843Y-84857227D01*
X109954787Y-84865079D01*
X109975857Y-84875044D01*
X109995848Y-84887026D01*
X110014568Y-84900910D01*
X110031838Y-84916562D01*
X110047490Y-84933832D01*
X110061374Y-84952552D01*
X110073356Y-84972543D01*
X110083321Y-84993613D01*
X110091173Y-85015557D01*
X110096837Y-85038166D01*
X110100256Y-85061221D01*
X110101400Y-85084500D01*
X110101400Y-85659500D01*
X110100256Y-85682779D01*
X110096837Y-85705834D01*
X110091173Y-85728443D01*
X110083321Y-85750387D01*
X110073356Y-85771457D01*
X110061374Y-85791448D01*
X110047490Y-85810168D01*
X110031838Y-85827438D01*
X110014568Y-85843090D01*
X109995848Y-85856974D01*
X109975857Y-85868956D01*
X109954787Y-85878921D01*
X109932843Y-85886773D01*
X109910234Y-85892437D01*
X109887179Y-85895856D01*
X109863900Y-85897000D01*
X109388900Y-85897000D01*
X109365621Y-85895856D01*
X109342566Y-85892437D01*
X109319957Y-85886773D01*
X109298013Y-85878921D01*
X109276943Y-85868956D01*
X109256952Y-85856974D01*
X109238232Y-85843090D01*
X109220962Y-85827438D01*
X109205310Y-85810168D01*
X109191426Y-85791448D01*
X109179444Y-85771457D01*
X109169479Y-85750387D01*
X109161627Y-85728443D01*
X109155963Y-85705834D01*
X109152544Y-85682779D01*
X109151400Y-85659500D01*
X109151400Y-85084500D01*
X109152544Y-85061221D01*
X109155963Y-85038166D01*
X109161627Y-85015557D01*
X109169479Y-84993613D01*
X109179444Y-84972543D01*
X109191426Y-84952552D01*
X109205310Y-84933832D01*
X109220962Y-84916562D01*
X109238232Y-84900910D01*
X109256952Y-84887026D01*
X109276943Y-84875044D01*
X109298013Y-84865079D01*
X109319957Y-84857227D01*
X109342566Y-84851563D01*
X109365621Y-84848144D01*
X109388900Y-84847000D01*
X109863900Y-84847000D01*
X109887179Y-84848144D01*
X109887179Y-84848144D01*
G37*
D12*
X109626400Y-85372000D03*
D10*
G36*
X109887179Y-86598144D02*
G01*
X109910234Y-86601563D01*
X109932843Y-86607227D01*
X109954787Y-86615079D01*
X109975857Y-86625044D01*
X109995848Y-86637026D01*
X110014568Y-86650910D01*
X110031838Y-86666562D01*
X110047490Y-86683832D01*
X110061374Y-86702552D01*
X110073356Y-86722543D01*
X110083321Y-86743613D01*
X110091173Y-86765557D01*
X110096837Y-86788166D01*
X110100256Y-86811221D01*
X110101400Y-86834500D01*
X110101400Y-87409500D01*
X110100256Y-87432779D01*
X110096837Y-87455834D01*
X110091173Y-87478443D01*
X110083321Y-87500387D01*
X110073356Y-87521457D01*
X110061374Y-87541448D01*
X110047490Y-87560168D01*
X110031838Y-87577438D01*
X110014568Y-87593090D01*
X109995848Y-87606974D01*
X109975857Y-87618956D01*
X109954787Y-87628921D01*
X109932843Y-87636773D01*
X109910234Y-87642437D01*
X109887179Y-87645856D01*
X109863900Y-87647000D01*
X109388900Y-87647000D01*
X109365621Y-87645856D01*
X109342566Y-87642437D01*
X109319957Y-87636773D01*
X109298013Y-87628921D01*
X109276943Y-87618956D01*
X109256952Y-87606974D01*
X109238232Y-87593090D01*
X109220962Y-87577438D01*
X109205310Y-87560168D01*
X109191426Y-87541448D01*
X109179444Y-87521457D01*
X109169479Y-87500387D01*
X109161627Y-87478443D01*
X109155963Y-87455834D01*
X109152544Y-87432779D01*
X109151400Y-87409500D01*
X109151400Y-86834500D01*
X109152544Y-86811221D01*
X109155963Y-86788166D01*
X109161627Y-86765557D01*
X109169479Y-86743613D01*
X109179444Y-86722543D01*
X109191426Y-86702552D01*
X109205310Y-86683832D01*
X109220962Y-86666562D01*
X109238232Y-86650910D01*
X109256952Y-86637026D01*
X109276943Y-86625044D01*
X109298013Y-86615079D01*
X109319957Y-86607227D01*
X109342566Y-86601563D01*
X109365621Y-86598144D01*
X109388900Y-86597000D01*
X109863900Y-86597000D01*
X109887179Y-86598144D01*
X109887179Y-86598144D01*
G37*
D12*
X109626400Y-87122000D03*
D10*
G36*
X114255979Y-84848144D02*
G01*
X114279034Y-84851563D01*
X114301643Y-84857227D01*
X114323587Y-84865079D01*
X114344657Y-84875044D01*
X114364648Y-84887026D01*
X114383368Y-84900910D01*
X114400638Y-84916562D01*
X114416290Y-84933832D01*
X114430174Y-84952552D01*
X114442156Y-84972543D01*
X114452121Y-84993613D01*
X114459973Y-85015557D01*
X114465637Y-85038166D01*
X114469056Y-85061221D01*
X114470200Y-85084500D01*
X114470200Y-85659500D01*
X114469056Y-85682779D01*
X114465637Y-85705834D01*
X114459973Y-85728443D01*
X114452121Y-85750387D01*
X114442156Y-85771457D01*
X114430174Y-85791448D01*
X114416290Y-85810168D01*
X114400638Y-85827438D01*
X114383368Y-85843090D01*
X114364648Y-85856974D01*
X114344657Y-85868956D01*
X114323587Y-85878921D01*
X114301643Y-85886773D01*
X114279034Y-85892437D01*
X114255979Y-85895856D01*
X114232700Y-85897000D01*
X113757700Y-85897000D01*
X113734421Y-85895856D01*
X113711366Y-85892437D01*
X113688757Y-85886773D01*
X113666813Y-85878921D01*
X113645743Y-85868956D01*
X113625752Y-85856974D01*
X113607032Y-85843090D01*
X113589762Y-85827438D01*
X113574110Y-85810168D01*
X113560226Y-85791448D01*
X113548244Y-85771457D01*
X113538279Y-85750387D01*
X113530427Y-85728443D01*
X113524763Y-85705834D01*
X113521344Y-85682779D01*
X113520200Y-85659500D01*
X113520200Y-85084500D01*
X113521344Y-85061221D01*
X113524763Y-85038166D01*
X113530427Y-85015557D01*
X113538279Y-84993613D01*
X113548244Y-84972543D01*
X113560226Y-84952552D01*
X113574110Y-84933832D01*
X113589762Y-84916562D01*
X113607032Y-84900910D01*
X113625752Y-84887026D01*
X113645743Y-84875044D01*
X113666813Y-84865079D01*
X113688757Y-84857227D01*
X113711366Y-84851563D01*
X113734421Y-84848144D01*
X113757700Y-84847000D01*
X114232700Y-84847000D01*
X114255979Y-84848144D01*
X114255979Y-84848144D01*
G37*
D12*
X113995200Y-85372000D03*
D10*
G36*
X114255979Y-86598144D02*
G01*
X114279034Y-86601563D01*
X114301643Y-86607227D01*
X114323587Y-86615079D01*
X114344657Y-86625044D01*
X114364648Y-86637026D01*
X114383368Y-86650910D01*
X114400638Y-86666562D01*
X114416290Y-86683832D01*
X114430174Y-86702552D01*
X114442156Y-86722543D01*
X114452121Y-86743613D01*
X114459973Y-86765557D01*
X114465637Y-86788166D01*
X114469056Y-86811221D01*
X114470200Y-86834500D01*
X114470200Y-87409500D01*
X114469056Y-87432779D01*
X114465637Y-87455834D01*
X114459973Y-87478443D01*
X114452121Y-87500387D01*
X114442156Y-87521457D01*
X114430174Y-87541448D01*
X114416290Y-87560168D01*
X114400638Y-87577438D01*
X114383368Y-87593090D01*
X114364648Y-87606974D01*
X114344657Y-87618956D01*
X114323587Y-87628921D01*
X114301643Y-87636773D01*
X114279034Y-87642437D01*
X114255979Y-87645856D01*
X114232700Y-87647000D01*
X113757700Y-87647000D01*
X113734421Y-87645856D01*
X113711366Y-87642437D01*
X113688757Y-87636773D01*
X113666813Y-87628921D01*
X113645743Y-87618956D01*
X113625752Y-87606974D01*
X113607032Y-87593090D01*
X113589762Y-87577438D01*
X113574110Y-87560168D01*
X113560226Y-87541448D01*
X113548244Y-87521457D01*
X113538279Y-87500387D01*
X113530427Y-87478443D01*
X113524763Y-87455834D01*
X113521344Y-87432779D01*
X113520200Y-87409500D01*
X113520200Y-86834500D01*
X113521344Y-86811221D01*
X113524763Y-86788166D01*
X113530427Y-86765557D01*
X113538279Y-86743613D01*
X113548244Y-86722543D01*
X113560226Y-86702552D01*
X113574110Y-86683832D01*
X113589762Y-86666562D01*
X113607032Y-86650910D01*
X113625752Y-86637026D01*
X113645743Y-86625044D01*
X113666813Y-86615079D01*
X113688757Y-86607227D01*
X113711366Y-86601563D01*
X113734421Y-86598144D01*
X113757700Y-86597000D01*
X114232700Y-86597000D01*
X114255979Y-86598144D01*
X114255979Y-86598144D01*
G37*
D12*
X113995200Y-87122000D03*
D10*
G36*
X111512779Y-86598144D02*
G01*
X111535834Y-86601563D01*
X111558443Y-86607227D01*
X111580387Y-86615079D01*
X111601457Y-86625044D01*
X111621448Y-86637026D01*
X111640168Y-86650910D01*
X111657438Y-86666562D01*
X111673090Y-86683832D01*
X111686974Y-86702552D01*
X111698956Y-86722543D01*
X111708921Y-86743613D01*
X111716773Y-86765557D01*
X111722437Y-86788166D01*
X111725856Y-86811221D01*
X111727000Y-86834500D01*
X111727000Y-87409500D01*
X111725856Y-87432779D01*
X111722437Y-87455834D01*
X111716773Y-87478443D01*
X111708921Y-87500387D01*
X111698956Y-87521457D01*
X111686974Y-87541448D01*
X111673090Y-87560168D01*
X111657438Y-87577438D01*
X111640168Y-87593090D01*
X111621448Y-87606974D01*
X111601457Y-87618956D01*
X111580387Y-87628921D01*
X111558443Y-87636773D01*
X111535834Y-87642437D01*
X111512779Y-87645856D01*
X111489500Y-87647000D01*
X111014500Y-87647000D01*
X110991221Y-87645856D01*
X110968166Y-87642437D01*
X110945557Y-87636773D01*
X110923613Y-87628921D01*
X110902543Y-87618956D01*
X110882552Y-87606974D01*
X110863832Y-87593090D01*
X110846562Y-87577438D01*
X110830910Y-87560168D01*
X110817026Y-87541448D01*
X110805044Y-87521457D01*
X110795079Y-87500387D01*
X110787227Y-87478443D01*
X110781563Y-87455834D01*
X110778144Y-87432779D01*
X110777000Y-87409500D01*
X110777000Y-86834500D01*
X110778144Y-86811221D01*
X110781563Y-86788166D01*
X110787227Y-86765557D01*
X110795079Y-86743613D01*
X110805044Y-86722543D01*
X110817026Y-86702552D01*
X110830910Y-86683832D01*
X110846562Y-86666562D01*
X110863832Y-86650910D01*
X110882552Y-86637026D01*
X110902543Y-86625044D01*
X110923613Y-86615079D01*
X110945557Y-86607227D01*
X110968166Y-86601563D01*
X110991221Y-86598144D01*
X111014500Y-86597000D01*
X111489500Y-86597000D01*
X111512779Y-86598144D01*
X111512779Y-86598144D01*
G37*
D12*
X111252000Y-87122000D03*
D10*
G36*
X111512779Y-84848144D02*
G01*
X111535834Y-84851563D01*
X111558443Y-84857227D01*
X111580387Y-84865079D01*
X111601457Y-84875044D01*
X111621448Y-84887026D01*
X111640168Y-84900910D01*
X111657438Y-84916562D01*
X111673090Y-84933832D01*
X111686974Y-84952552D01*
X111698956Y-84972543D01*
X111708921Y-84993613D01*
X111716773Y-85015557D01*
X111722437Y-85038166D01*
X111725856Y-85061221D01*
X111727000Y-85084500D01*
X111727000Y-85659500D01*
X111725856Y-85682779D01*
X111722437Y-85705834D01*
X111716773Y-85728443D01*
X111708921Y-85750387D01*
X111698956Y-85771457D01*
X111686974Y-85791448D01*
X111673090Y-85810168D01*
X111657438Y-85827438D01*
X111640168Y-85843090D01*
X111621448Y-85856974D01*
X111601457Y-85868956D01*
X111580387Y-85878921D01*
X111558443Y-85886773D01*
X111535834Y-85892437D01*
X111512779Y-85895856D01*
X111489500Y-85897000D01*
X111014500Y-85897000D01*
X110991221Y-85895856D01*
X110968166Y-85892437D01*
X110945557Y-85886773D01*
X110923613Y-85878921D01*
X110902543Y-85868956D01*
X110882552Y-85856974D01*
X110863832Y-85843090D01*
X110846562Y-85827438D01*
X110830910Y-85810168D01*
X110817026Y-85791448D01*
X110805044Y-85771457D01*
X110795079Y-85750387D01*
X110787227Y-85728443D01*
X110781563Y-85705834D01*
X110778144Y-85682779D01*
X110777000Y-85659500D01*
X110777000Y-85084500D01*
X110778144Y-85061221D01*
X110781563Y-85038166D01*
X110787227Y-85015557D01*
X110795079Y-84993613D01*
X110805044Y-84972543D01*
X110817026Y-84952552D01*
X110830910Y-84933832D01*
X110846562Y-84916562D01*
X110863832Y-84900910D01*
X110882552Y-84887026D01*
X110902543Y-84875044D01*
X110923613Y-84865079D01*
X110945557Y-84857227D01*
X110968166Y-84851563D01*
X110991221Y-84848144D01*
X111014500Y-84847000D01*
X111489500Y-84847000D01*
X111512779Y-84848144D01*
X111512779Y-84848144D01*
G37*
D12*
X111252000Y-85372000D03*
D10*
G36*
X116491179Y-84848144D02*
G01*
X116514234Y-84851563D01*
X116536843Y-84857227D01*
X116558787Y-84865079D01*
X116579857Y-84875044D01*
X116599848Y-84887026D01*
X116618568Y-84900910D01*
X116635838Y-84916562D01*
X116651490Y-84933832D01*
X116665374Y-84952552D01*
X116677356Y-84972543D01*
X116687321Y-84993613D01*
X116695173Y-85015557D01*
X116700837Y-85038166D01*
X116704256Y-85061221D01*
X116705400Y-85084500D01*
X116705400Y-85659500D01*
X116704256Y-85682779D01*
X116700837Y-85705834D01*
X116695173Y-85728443D01*
X116687321Y-85750387D01*
X116677356Y-85771457D01*
X116665374Y-85791448D01*
X116651490Y-85810168D01*
X116635838Y-85827438D01*
X116618568Y-85843090D01*
X116599848Y-85856974D01*
X116579857Y-85868956D01*
X116558787Y-85878921D01*
X116536843Y-85886773D01*
X116514234Y-85892437D01*
X116491179Y-85895856D01*
X116467900Y-85897000D01*
X115992900Y-85897000D01*
X115969621Y-85895856D01*
X115946566Y-85892437D01*
X115923957Y-85886773D01*
X115902013Y-85878921D01*
X115880943Y-85868956D01*
X115860952Y-85856974D01*
X115842232Y-85843090D01*
X115824962Y-85827438D01*
X115809310Y-85810168D01*
X115795426Y-85791448D01*
X115783444Y-85771457D01*
X115773479Y-85750387D01*
X115765627Y-85728443D01*
X115759963Y-85705834D01*
X115756544Y-85682779D01*
X115755400Y-85659500D01*
X115755400Y-85084500D01*
X115756544Y-85061221D01*
X115759963Y-85038166D01*
X115765627Y-85015557D01*
X115773479Y-84993613D01*
X115783444Y-84972543D01*
X115795426Y-84952552D01*
X115809310Y-84933832D01*
X115824962Y-84916562D01*
X115842232Y-84900910D01*
X115860952Y-84887026D01*
X115880943Y-84875044D01*
X115902013Y-84865079D01*
X115923957Y-84857227D01*
X115946566Y-84851563D01*
X115969621Y-84848144D01*
X115992900Y-84847000D01*
X116467900Y-84847000D01*
X116491179Y-84848144D01*
X116491179Y-84848144D01*
G37*
D12*
X116230400Y-85372000D03*
D10*
G36*
X116491179Y-86598144D02*
G01*
X116514234Y-86601563D01*
X116536843Y-86607227D01*
X116558787Y-86615079D01*
X116579857Y-86625044D01*
X116599848Y-86637026D01*
X116618568Y-86650910D01*
X116635838Y-86666562D01*
X116651490Y-86683832D01*
X116665374Y-86702552D01*
X116677356Y-86722543D01*
X116687321Y-86743613D01*
X116695173Y-86765557D01*
X116700837Y-86788166D01*
X116704256Y-86811221D01*
X116705400Y-86834500D01*
X116705400Y-87409500D01*
X116704256Y-87432779D01*
X116700837Y-87455834D01*
X116695173Y-87478443D01*
X116687321Y-87500387D01*
X116677356Y-87521457D01*
X116665374Y-87541448D01*
X116651490Y-87560168D01*
X116635838Y-87577438D01*
X116618568Y-87593090D01*
X116599848Y-87606974D01*
X116579857Y-87618956D01*
X116558787Y-87628921D01*
X116536843Y-87636773D01*
X116514234Y-87642437D01*
X116491179Y-87645856D01*
X116467900Y-87647000D01*
X115992900Y-87647000D01*
X115969621Y-87645856D01*
X115946566Y-87642437D01*
X115923957Y-87636773D01*
X115902013Y-87628921D01*
X115880943Y-87618956D01*
X115860952Y-87606974D01*
X115842232Y-87593090D01*
X115824962Y-87577438D01*
X115809310Y-87560168D01*
X115795426Y-87541448D01*
X115783444Y-87521457D01*
X115773479Y-87500387D01*
X115765627Y-87478443D01*
X115759963Y-87455834D01*
X115756544Y-87432779D01*
X115755400Y-87409500D01*
X115755400Y-86834500D01*
X115756544Y-86811221D01*
X115759963Y-86788166D01*
X115765627Y-86765557D01*
X115773479Y-86743613D01*
X115783444Y-86722543D01*
X115795426Y-86702552D01*
X115809310Y-86683832D01*
X115824962Y-86666562D01*
X115842232Y-86650910D01*
X115860952Y-86637026D01*
X115880943Y-86625044D01*
X115902013Y-86615079D01*
X115923957Y-86607227D01*
X115946566Y-86601563D01*
X115969621Y-86598144D01*
X115992900Y-86597000D01*
X116467900Y-86597000D01*
X116491179Y-86598144D01*
X116491179Y-86598144D01*
G37*
D12*
X116230400Y-87122000D03*
D10*
G36*
X119295705Y-81459204D02*
G01*
X119319973Y-81462804D01*
X119343772Y-81468765D01*
X119366871Y-81477030D01*
X119389050Y-81487520D01*
X119410093Y-81500132D01*
X119429799Y-81514747D01*
X119447977Y-81531223D01*
X119464453Y-81549401D01*
X119479068Y-81569107D01*
X119491680Y-81590150D01*
X119502170Y-81612329D01*
X119510435Y-81635428D01*
X119516396Y-81659227D01*
X119519996Y-81683495D01*
X119521200Y-81707999D01*
X119521200Y-82358001D01*
X119519996Y-82382505D01*
X119516396Y-82406773D01*
X119510435Y-82430572D01*
X119502170Y-82453671D01*
X119491680Y-82475850D01*
X119479068Y-82496893D01*
X119464453Y-82516599D01*
X119447977Y-82534777D01*
X119429799Y-82551253D01*
X119410093Y-82565868D01*
X119389050Y-82578480D01*
X119366871Y-82588970D01*
X119343772Y-82597235D01*
X119319973Y-82603196D01*
X119295705Y-82606796D01*
X119271201Y-82608000D01*
X118371199Y-82608000D01*
X118346695Y-82606796D01*
X118322427Y-82603196D01*
X118298628Y-82597235D01*
X118275529Y-82588970D01*
X118253350Y-82578480D01*
X118232307Y-82565868D01*
X118212601Y-82551253D01*
X118194423Y-82534777D01*
X118177947Y-82516599D01*
X118163332Y-82496893D01*
X118150720Y-82475850D01*
X118140230Y-82453671D01*
X118131965Y-82430572D01*
X118126004Y-82406773D01*
X118122404Y-82382505D01*
X118121200Y-82358001D01*
X118121200Y-81707999D01*
X118122404Y-81683495D01*
X118126004Y-81659227D01*
X118131965Y-81635428D01*
X118140230Y-81612329D01*
X118150720Y-81590150D01*
X118163332Y-81569107D01*
X118177947Y-81549401D01*
X118194423Y-81531223D01*
X118212601Y-81514747D01*
X118232307Y-81500132D01*
X118253350Y-81487520D01*
X118275529Y-81477030D01*
X118298628Y-81468765D01*
X118322427Y-81462804D01*
X118346695Y-81459204D01*
X118371199Y-81458000D01*
X119271201Y-81458000D01*
X119295705Y-81459204D01*
X119295705Y-81459204D01*
G37*
D13*
X118821200Y-82033000D03*
D10*
G36*
X119295705Y-83509204D02*
G01*
X119319973Y-83512804D01*
X119343772Y-83518765D01*
X119366871Y-83527030D01*
X119389050Y-83537520D01*
X119410093Y-83550132D01*
X119429799Y-83564747D01*
X119447977Y-83581223D01*
X119464453Y-83599401D01*
X119479068Y-83619107D01*
X119491680Y-83640150D01*
X119502170Y-83662329D01*
X119510435Y-83685428D01*
X119516396Y-83709227D01*
X119519996Y-83733495D01*
X119521200Y-83757999D01*
X119521200Y-84408001D01*
X119519996Y-84432505D01*
X119516396Y-84456773D01*
X119510435Y-84480572D01*
X119502170Y-84503671D01*
X119491680Y-84525850D01*
X119479068Y-84546893D01*
X119464453Y-84566599D01*
X119447977Y-84584777D01*
X119429799Y-84601253D01*
X119410093Y-84615868D01*
X119389050Y-84628480D01*
X119366871Y-84638970D01*
X119343772Y-84647235D01*
X119319973Y-84653196D01*
X119295705Y-84656796D01*
X119271201Y-84658000D01*
X118371199Y-84658000D01*
X118346695Y-84656796D01*
X118322427Y-84653196D01*
X118298628Y-84647235D01*
X118275529Y-84638970D01*
X118253350Y-84628480D01*
X118232307Y-84615868D01*
X118212601Y-84601253D01*
X118194423Y-84584777D01*
X118177947Y-84566599D01*
X118163332Y-84546893D01*
X118150720Y-84525850D01*
X118140230Y-84503671D01*
X118131965Y-84480572D01*
X118126004Y-84456773D01*
X118122404Y-84432505D01*
X118121200Y-84408001D01*
X118121200Y-83757999D01*
X118122404Y-83733495D01*
X118126004Y-83709227D01*
X118131965Y-83685428D01*
X118140230Y-83662329D01*
X118150720Y-83640150D01*
X118163332Y-83619107D01*
X118177947Y-83599401D01*
X118194423Y-83581223D01*
X118212601Y-83564747D01*
X118232307Y-83550132D01*
X118253350Y-83537520D01*
X118275529Y-83527030D01*
X118298628Y-83518765D01*
X118322427Y-83512804D01*
X118346695Y-83509204D01*
X118371199Y-83508000D01*
X119271201Y-83508000D01*
X119295705Y-83509204D01*
X119295705Y-83509204D01*
G37*
D13*
X118821200Y-84083000D03*
D14*
X101854000Y-124544300D03*
X101854000Y-132194300D03*
D10*
G36*
X121101105Y-85254804D02*
G01*
X121125373Y-85258404D01*
X121149172Y-85264365D01*
X121172271Y-85272630D01*
X121194450Y-85283120D01*
X121215493Y-85295732D01*
X121235199Y-85310347D01*
X121253377Y-85326823D01*
X121269853Y-85345001D01*
X121284468Y-85364707D01*
X121297080Y-85385750D01*
X121307570Y-85407929D01*
X121315835Y-85431028D01*
X121321796Y-85454827D01*
X121325396Y-85479095D01*
X121326600Y-85503599D01*
X121326600Y-86403601D01*
X121325396Y-86428105D01*
X121321796Y-86452373D01*
X121315835Y-86476172D01*
X121307570Y-86499271D01*
X121297080Y-86521450D01*
X121284468Y-86542493D01*
X121269853Y-86562199D01*
X121253377Y-86580377D01*
X121235199Y-86596853D01*
X121215493Y-86611468D01*
X121194450Y-86624080D01*
X121172271Y-86634570D01*
X121149172Y-86642835D01*
X121125373Y-86648796D01*
X121101105Y-86652396D01*
X121076601Y-86653600D01*
X120426599Y-86653600D01*
X120402095Y-86652396D01*
X120377827Y-86648796D01*
X120354028Y-86642835D01*
X120330929Y-86634570D01*
X120308750Y-86624080D01*
X120287707Y-86611468D01*
X120268001Y-86596853D01*
X120249823Y-86580377D01*
X120233347Y-86562199D01*
X120218732Y-86542493D01*
X120206120Y-86521450D01*
X120195630Y-86499271D01*
X120187365Y-86476172D01*
X120181404Y-86452373D01*
X120177804Y-86428105D01*
X120176600Y-86403601D01*
X120176600Y-85503599D01*
X120177804Y-85479095D01*
X120181404Y-85454827D01*
X120187365Y-85431028D01*
X120195630Y-85407929D01*
X120206120Y-85385750D01*
X120218732Y-85364707D01*
X120233347Y-85345001D01*
X120249823Y-85326823D01*
X120268001Y-85310347D01*
X120287707Y-85295732D01*
X120308750Y-85283120D01*
X120330929Y-85272630D01*
X120354028Y-85264365D01*
X120377827Y-85258404D01*
X120402095Y-85254804D01*
X120426599Y-85253600D01*
X121076601Y-85253600D01*
X121101105Y-85254804D01*
X121101105Y-85254804D01*
G37*
D13*
X120751600Y-85953600D03*
D10*
G36*
X119051105Y-85254804D02*
G01*
X119075373Y-85258404D01*
X119099172Y-85264365D01*
X119122271Y-85272630D01*
X119144450Y-85283120D01*
X119165493Y-85295732D01*
X119185199Y-85310347D01*
X119203377Y-85326823D01*
X119219853Y-85345001D01*
X119234468Y-85364707D01*
X119247080Y-85385750D01*
X119257570Y-85407929D01*
X119265835Y-85431028D01*
X119271796Y-85454827D01*
X119275396Y-85479095D01*
X119276600Y-85503599D01*
X119276600Y-86403601D01*
X119275396Y-86428105D01*
X119271796Y-86452373D01*
X119265835Y-86476172D01*
X119257570Y-86499271D01*
X119247080Y-86521450D01*
X119234468Y-86542493D01*
X119219853Y-86562199D01*
X119203377Y-86580377D01*
X119185199Y-86596853D01*
X119165493Y-86611468D01*
X119144450Y-86624080D01*
X119122271Y-86634570D01*
X119099172Y-86642835D01*
X119075373Y-86648796D01*
X119051105Y-86652396D01*
X119026601Y-86653600D01*
X118376599Y-86653600D01*
X118352095Y-86652396D01*
X118327827Y-86648796D01*
X118304028Y-86642835D01*
X118280929Y-86634570D01*
X118258750Y-86624080D01*
X118237707Y-86611468D01*
X118218001Y-86596853D01*
X118199823Y-86580377D01*
X118183347Y-86562199D01*
X118168732Y-86542493D01*
X118156120Y-86521450D01*
X118145630Y-86499271D01*
X118137365Y-86476172D01*
X118131404Y-86452373D01*
X118127804Y-86428105D01*
X118126600Y-86403601D01*
X118126600Y-85503599D01*
X118127804Y-85479095D01*
X118131404Y-85454827D01*
X118137365Y-85431028D01*
X118145630Y-85407929D01*
X118156120Y-85385750D01*
X118168732Y-85364707D01*
X118183347Y-85345001D01*
X118199823Y-85326823D01*
X118218001Y-85310347D01*
X118237707Y-85295732D01*
X118258750Y-85283120D01*
X118280929Y-85272630D01*
X118304028Y-85264365D01*
X118327827Y-85258404D01*
X118352095Y-85254804D01*
X118376599Y-85253600D01*
X119026601Y-85253600D01*
X119051105Y-85254804D01*
X119051105Y-85254804D01*
G37*
D13*
X118701600Y-85953600D03*
M02*
