M48
; DRILL file {KiCad (5.1.2)-1} date 5/7/2020 10:56:53 AM
; FORMAT={-:-/ absolute / inch / decimal}
; #@! TF.CreationDate,2020-05-07T10:56:53-05:00
; #@! TF.GenerationSoftware,Kicad,Pcbnew,(5.1.2)-1
; #@! TF.FileFunction,Plated,1,4,PTH
FMAT,2
INCH
T1C0.0079
T2C0.0157
T3C0.0197
T4C0.0315
T5C0.0394
T6C0.0591
T7C0.1063
T8C0.1201
%
G90
G05
T1
X4.7481Y-2.6331
X4.7656Y-2.1944
X4.7656Y-2.235
X4.7656Y-2.2756
X5.6331Y-2.2119
X5.6331Y-2.2525
X5.6331Y-2.2931
X3.8906Y-5.4548
X3.8906Y-5.4942
X3.93Y-5.4548
X3.93Y-5.4942
X3.9694Y-5.4548
X3.9694Y-5.4942
X4.7481Y-2.5519
X4.7481Y-2.5925
X5.3356Y-2.5944
X5.3356Y-2.635
X5.3356Y-2.6756
T2
X1.965Y-3.765
X1.965Y-3.825
X2.045Y-3.765
X2.045Y-3.825
X2.205Y-3.76
X2.205Y-3.83
X2.285Y-3.76
X2.285Y-3.83
X2.675Y-3.325
X2.675Y-3.36
X2.705Y-3.345
X2.74Y-3.325
X2.74Y-3.36
X2.904Y-4.623
X2.949Y-5.447
X3.154Y-4.274
X3.161Y-2.147
X3.161Y-5.369
X3.162Y-2.486
X3.174Y-4.16
X3.206Y-5.322
X3.249Y-5.369
X3.258Y-4.225
X3.297Y-4.331
X3.3255Y-2.4865
X3.328Y-2.142
X3.334Y-5.322
X3.365Y-2.96
X3.4Y-4.522
X3.453Y-4.508
X3.494Y-2.145
X3.509Y-4.491
X3.634Y-4.485
X3.665Y-2.495
X3.667Y-2.144
X3.683Y-5.602
X3.73Y-4.391
X3.775Y-5.249
X3.78Y-5.035
X3.78Y-5.1
X3.78Y-5.165
X3.786Y-3.884
X3.799Y-5.676
X3.82Y-5.0
X3.82Y-5.205
X3.835Y-5.57
X3.8385Y-3.886
X3.858Y-4.263
X3.875Y-5.79
X3.893Y-3.887
X3.91Y-5.325
X3.95Y-5.805
X3.96Y-5.63
X3.962Y-4.861
X3.962Y-4.946
X3.991Y-5.23
X4.0Y-5.508
X4.019Y-5.264
X4.02Y-5.558
X4.035Y-2.295
X4.042Y-5.23
X4.055Y-5.85
X4.056Y-4.861
X4.056Y-4.946
X4.06Y-5.64
X4.073Y-2.28
X4.073Y-5.368
X4.086Y-3.656
X4.091Y-3.825
X4.098Y-2.424
X4.1Y-3.885
X4.12Y-5.655
X4.125Y-5.8
X4.147Y-2.425
X4.155Y-4.527
X4.1577Y-3.8817
X4.1596Y-4.5706
X4.16Y-3.819
X4.16Y-4.61
X4.171Y-3.616
X4.172Y-2.13
X4.191Y-3.398
X4.192Y-3.516
X4.195Y-4.165
X4.199Y-2.28
X4.201Y-4.451
X4.21Y-3.885
X4.222Y-3.776
X4.2251Y-2.471
X4.245Y-4.165
X4.248Y-2.424
X4.2505Y-2.7615
X4.2522Y-2.8021
X4.2586Y-2.2784
X4.2594Y-2.8483
X4.277Y-3.585
X4.277Y-3.634
X4.277Y-3.681
X4.278Y-3.732
X4.295Y-4.165
X4.2998Y-4.534
X4.31Y-4.07
X4.31Y-4.135
X4.315Y-4.62
X4.315Y-4.67
X4.316Y-3.3611
X4.316Y-3.43
X4.3193Y-3.5639
X4.3196Y-3.7697
X4.32Y-3.633
X4.32Y-3.734
X4.321Y-3.681
X4.3346Y-2.429
X4.345Y-3.86
X4.35Y-4.165
X4.358Y-3.585
X4.358Y-3.633
X4.358Y-3.681
X4.358Y-3.734
X4.3674Y-3.7721
X4.369Y-4.467
X4.38Y-3.3611
X4.38Y-3.43
X4.38Y-4.62
X4.38Y-4.67
X4.3897Y-2.499
X4.39Y-4.165
X4.399Y-3.632
X4.399Y-3.68
X4.399Y-3.735
X4.4151Y-3.5674
X4.4195Y-3.7695
X4.43Y-4.165
X4.4351Y-3.4711
X4.438Y-3.637
X4.438Y-3.684
X4.439Y-3.735
X4.445Y-5.585
X4.45Y-2.325
X4.465Y-4.525
X4.4669Y-3.8765
X4.48Y-3.595
X4.481Y-3.636
X4.481Y-3.737
X4.482Y-3.684
X4.488Y-3.3611
X4.488Y-3.43
X4.505Y-2.475
X4.505Y-2.62
X4.518Y-3.594
X4.519Y-3.636
X4.519Y-3.684
X4.519Y-3.737
X4.5221Y-3.8722
X4.524Y-4.158
X4.525Y-2.115
X4.525Y-2.255
X4.538Y-5.117
X4.5469Y-3.31
X4.556Y-4.562
X4.56Y-3.592
X4.56Y-3.635
X4.56Y-3.683
X4.56Y-3.738
X4.5695Y-3.7695
X4.576Y-3.3611
X4.576Y-3.43
X4.59Y-4.15
X4.5932Y-4.5896
X4.605Y-3.636
X4.605Y-3.683
X4.606Y-3.593
X4.606Y-3.734
X4.62Y-2.515
X4.62Y-2.58
X4.632Y-3.472
X4.64Y-2.72
X4.6447Y-3.5643
X4.645Y-2.155
X4.645Y-2.22
X4.648Y-3.635
X4.648Y-3.736
X4.649Y-3.683
X4.655Y-2.35
X4.67Y-4.17
X4.677Y-3.189
X4.684Y-3.594
X4.686Y-3.635
X4.686Y-3.683
X4.686Y-3.736
X4.695Y-2.52
X4.71Y-2.16
X4.7193Y-3.8593
X4.726Y-3.595
X4.727Y-3.634
X4.727Y-3.682
X4.727Y-3.737
X4.74Y-4.762
X4.7443Y-3.5639
X4.747Y-5.668
X4.7472Y-3.7671
X4.754Y-3.384
X4.7652Y-5.0668
X4.775Y-3.593
X4.775Y-3.633
X4.775Y-3.68
X4.776Y-3.731
X4.7908Y-4.7181
X4.8011Y-2.7039
X4.8101Y-2.6701
X4.82Y-2.3525
X4.829Y-4.674
X4.835Y-3.796
X4.841Y-5.048
X4.8596Y-2.6654
X4.864Y-3.558
X4.865Y-3.36
X4.8662Y-2.2937
X4.868Y-4.718
X4.875Y-2.115
X4.8816Y-2.5
X4.884Y-3.93
X4.8912Y-5.0426
X4.892Y-4.81
X4.8951Y-4.9435
X4.91Y-3.195
X4.919Y-4.716
X4.92Y-2.3475
X4.9211Y-3.4769
X4.925Y-2.7307
X4.945Y-3.425
X4.955Y-3.37
X4.96Y-3.555
X4.965Y-2.115
X4.975Y-4.3841
X5.082Y-4.2699
X5.0925Y-2.512
X5.093Y-2.653
X5.107Y-5.771
X5.121Y-5.495
X5.154Y-3.396
X5.1669Y-2.6671
X5.204Y-4.3565
X5.208Y-3.397
X5.21Y-2.545
X5.215Y-2.625
X5.225Y-2.775
X5.229Y-5.783
X5.241Y-5.342
X5.26Y-3.397
X5.282Y-2.56
X5.285Y-2.515
X5.311Y-5.616
X5.39Y-2.13
X5.39Y-2.27
X5.424Y-3.9684
X5.4701Y-3.9416
X5.5075Y-2.2325
X5.509Y-3.954
X5.51Y-2.165
X5.5167Y-4.1001
X5.517Y-2.496
X5.5381Y-2.3575
X5.569Y-3.9684
X5.58Y-2.18
X5.5819Y-4.741
X5.6002Y-3.6026
X5.603Y-3.669
X5.64Y-4.38
X5.645Y-2.34
X5.663Y-4.3408
X5.664Y-4.1479
X5.67Y-2.59
X5.675Y-2.44
X5.675Y-2.505
X5.694Y-4.871
X5.695Y-2.16
X5.7Y-2.33
X5.7012Y-3.8168
X5.706Y-4.153
X5.72Y-4.425
X5.7234Y-4.0556
X5.729Y-3.789
X5.73Y-2.62
X5.7508Y-3.9847
X5.773Y-3.79
X5.787Y-4.575
X5.79Y-4.523
X5.7932Y-4.0318
X5.83Y-2.365
X5.84Y-2.44
X5.84Y-2.51
X5.844Y-4.406
X5.85Y-4.566
X5.855Y-2.605
X5.865Y-3.095
X5.865Y-3.24
X5.882Y-5.3635
X5.892Y-3.824
X5.908Y-3.621
X5.914Y-3.772
X5.915Y-3.52
X5.918Y-4.348
X5.92Y-2.605
X5.922Y-4.0656
X5.926Y-3.9836
X5.944Y-4.126
X5.944Y-4.254
X5.9482Y-4.5922
X5.9534Y-3.8851
X5.962Y-3.4454
X5.968Y-4.3132
X5.971Y-3.621
X5.982Y-5.5565
X5.985Y-3.13
X5.985Y-3.2
X5.989Y-5.363
X5.9951Y-4.2829
X6.0Y-2.81
X6.009Y-3.9836
X6.0134Y-4.368
X6.014Y-3.473
X6.015Y-4.135
X6.016Y-3.266
X6.017Y-3.324
X6.018Y-4.658
X6.038Y-4.514
X6.045Y-3.17
X6.06Y-3.8851
X6.06Y-4.351
X6.065Y-2.835
X6.065Y-4.127
X6.085Y-3.235
X6.088Y-4.662
X6.0886Y-4.3781
X6.1048Y-4.4901
X6.135Y-3.18
X6.136Y-3.266
X6.137Y-3.323
X6.1375Y-2.9525
X6.138Y-3.092
X6.14Y-4.512
X6.156Y-4.652
X6.16Y-2.24
X6.1605Y-4.71
X6.165Y-3.126
X6.169Y-3.192
X6.1768Y-4.1708
X6.1968Y-2.77
X6.205Y-2.835
X6.2156Y-4.655
X6.2566Y-4.3768
X6.2606Y-3.984
X6.274Y-4.156
X6.278Y-4.652
X6.304Y-4.512
X6.315Y-4.855
X6.3157Y-3.956
X6.335Y-2.315
X6.3451Y-3.9822
X6.3471Y-4.19
X6.348Y-4.668
X6.3787Y-4.3726
X6.385Y-2.71
X6.3883Y-4.1533
X6.3889Y-4.0261
X6.392Y-4.196
X6.3996Y-4.5184
X6.4Y-4.94
X6.41Y-3.065
X6.41Y-3.205
X6.4174Y-3.9092
X6.42Y-3.5
X6.451Y-4.484
X6.472Y-4.392
X6.526Y-3.878
X6.533Y-4.014
X6.542Y-4.626
X6.5424Y-4.3682
X6.546Y-2.462
X6.555Y-3.6805
X6.558Y-4.2821
X6.558Y-4.556
X6.5697Y-2.3733
X6.5861Y-4.2112
X6.5866Y-2.5585
X6.59Y-3.995
X6.595Y-4.07
X6.596Y-2.4896
X6.6Y-4.37
X6.6095Y-2.5265
X6.62Y-4.5
X6.6243Y-4.1099
X6.64Y-4.21
X6.642Y-2.386
X6.6567Y-2.715
X6.672Y-3.924
X6.674Y-3.866
X6.6924Y-2.5324
X6.7119Y-2.765
X6.724Y-2.5898
X6.725Y-2.9
X6.75Y-4.515
X6.772Y-4.112
X6.78Y-3.186
X6.782Y-3.304
X6.8Y-5.532
X6.81Y-2.886
X6.818Y-2.422
X6.8223Y-2.3829
X6.832Y-3.14
X6.832Y-3.348
X6.85Y-5.055
X6.86Y-2.62
X6.874Y-3.412
X6.89Y-2.888
X6.892Y-5.452
X6.894Y-2.18
X6.9Y-2.5171
X6.915Y-2.703
X6.915Y-4.35
X6.9171Y-2.5526
X6.922Y-2.592
X6.938Y-2.4896
X6.9627Y-2.5913
X6.97Y-2.888
X6.972Y-2.178
X6.9808Y-2.4443
X6.988Y-3.312
X7.0018Y-5.404
X7.019Y-2.4347
X7.0212Y-2.5916
X7.0259Y-5.226
X7.04Y-5.838
X7.0498Y-2.5024
X7.05Y-2.182
X7.05Y-2.886
X7.054Y-2.342
X7.06Y-4.4
X7.07Y-3.36
X7.076Y-2.7
X7.0895Y-5.4871
X7.092Y-5.144
X7.094Y-5.448
X7.1174Y-5.5736
X7.125Y-4.04
X7.128Y-2.888
X7.1402Y-5.6711
X7.152Y-5.544
X7.1655Y-5.3166
X7.168Y-5.838
X7.17Y-2.492
X7.172Y-5.144
X7.1787Y-5.4208
X7.18Y-3.232
X7.2178Y-5.4165
X7.226Y-3.55
X7.232Y-3.188
X7.232Y-3.304
X7.244Y-5.84
X7.2461Y-5.4862
X7.25Y-3.0831
X7.252Y-5.144
X7.26Y-5.622
X7.268Y-5.312
X7.284Y-3.35
X7.285Y-3.905
X7.285Y-3.95
X7.286Y-3.232
X7.3132Y-5.6308
X7.322Y-5.838
X7.325Y-3.905
X7.325Y-3.95
X7.345Y-2.305
X7.345Y-2.38
X7.345Y-2.46
X7.345Y-2.585
X7.345Y-2.66
X7.374Y-5.4433
X7.374Y-5.4826
X7.374Y-5.522
X7.4Y-5.84
X7.425Y-3.0831
X7.504Y-5.426
X7.544Y-5.262
X7.544Y-5.34
X7.546Y-5.552
X7.546Y-5.628
X7.56Y-4.14
X7.585Y-3.985
X7.634Y-5.428
X7.638Y-5.468
X7.77Y-2.935
X7.8Y-3.03
X7.85Y-3.1106
X7.9Y-3.0
X7.924Y-4.95
X7.9246Y-2.9693
X7.942Y-5.002
X7.942Y-5.08
X7.95Y-3.236
X7.97Y-3.0
X7.9882Y-5.2086
X8.042Y-2.874
X8.064Y-3.396
X8.066Y-3.442
X8.0722Y-2.9362
X8.088Y-5.158
X8.105Y-4.25
X8.106Y-5.0607
X8.19Y-4.42
X8.23Y-5.098
X8.235Y-3.26
X8.242Y-3.036
X8.26Y-2.912
X8.262Y-3.426
X8.2738Y-5.0226
X8.286Y-4.596
X8.2914Y-5.0578
X8.336Y-4.596
X8.365Y-4.34
X8.402Y-5.222
X8.405Y-3.195
X8.4097Y-5.0787
X8.412Y-5.118
X8.415Y-3.64
X8.445Y-3.555
X8.495Y-3.76
X8.54Y-2.955
X8.54Y-4.14
X8.56Y-3.07
X8.565Y-3.505
X8.565Y-3.675
X8.565Y-4.495
X8.5951Y-4.5951
X8.615Y-3.97
X8.615Y-4.14
X8.622Y-4.994
X8.63Y-2.815
X8.644Y-3.89
X8.65Y-4.35
X8.6778Y-3.7355
X8.69Y-2.99
X8.706Y-3.774
X8.71Y-4.525
X8.7633Y-2.8867
X8.778Y-4.446
X8.814Y-3.956
X8.815Y-3.825
X8.912Y-3.754
T3
X9.3978Y-2.2475
X9.4211Y-2.1911
X9.4211Y-2.3039
X9.4775Y-2.1678
X9.4775Y-2.3272
X9.5339Y-2.1911
X9.5339Y-2.3039
X9.5572Y-2.2475
X1.9153Y-2.2475
X1.9386Y-2.1911
X1.9386Y-2.3039
X1.995Y-2.1678
X1.995Y-2.3272
X2.0514Y-2.1911
X2.0514Y-2.3039
X2.0747Y-2.2475
X1.9178Y-5.79
X1.9411Y-5.7336
X1.9411Y-5.8464
X1.9975Y-5.7103
X1.9975Y-5.8697
X2.0539Y-5.7336
X2.0539Y-5.8464
X2.0772Y-5.79
X9.3978Y-5.79
X9.4211Y-5.7336
X9.4211Y-5.8464
X9.4775Y-5.7103
X9.4775Y-5.8697
X9.5339Y-5.7336
X9.5339Y-5.8464
X9.5572Y-5.79
T4
X5.2045Y-4.9895
X5.2045Y-5.1895
X5.3045Y-5.0895
T5
X2.3681Y-4.7514
X2.3681Y-4.8605
X2.3681Y-4.9695
X2.3681Y-5.0786
X2.4799Y-4.6969
X2.4799Y-4.8059
X2.4799Y-4.915
X2.4799Y-5.0241
X2.4799Y-5.1331
T6
X9.375Y-3.261
X9.375Y-3.461
X9.475Y-3.361
X9.575Y-3.261
X9.575Y-3.461
X9.374Y-4.58
X9.374Y-4.78
X9.474Y-4.68
X9.574Y-4.58
X9.574Y-4.78
X1.899Y-2.601
X1.899Y-2.801
X1.999Y-2.701
X2.099Y-2.601
X2.099Y-2.801
T7
X1.995Y-2.2475
X1.9975Y-5.79
X9.4775Y-5.79
X9.4775Y-2.2475
T8
X2.424Y-4.4231
X2.424Y-5.4069
T0
M30
