G04 #@! TF.GenerationSoftware,KiCad,Pcbnew,(5.1.2)-1*
G04 #@! TF.CreationDate,2020-05-07T10:56:56-05:00*
G04 #@! TF.ProjectId,EMI_sensor_control_Rev2.0,454d495f-7365-46e7-936f-725f636f6e74,rev?*
G04 #@! TF.SameCoordinates,Original*
G04 #@! TF.FileFunction,Copper,L3,Inr*
G04 #@! TF.FilePolarity,Positive*
%FSLAX46Y46*%
G04 Gerber Fmt 4.6, Leading zero omitted, Abs format (unit mm)*
G04 Created by KiCad (PCBNEW (5.1.2)-1) date 2020-05-07 10:56:56*
%MOMM*%
%LPD*%
G04 APERTURE LIST*
%ADD10C,2.250000*%
%ADD11C,0.800000*%
%ADD12C,5.400000*%
%ADD13C,2.000000*%
%ADD14C,3.500000*%
%ADD15C,1.440000*%
%ADD16C,0.500000*%
%ADD17C,1.500000*%
%ADD18C,0.200000*%
%ADD19C,0.750000*%
%ADD20C,0.250000*%
%ADD21C,0.254000*%
G04 APERTURE END LIST*
D10*
X50774600Y-68605400D03*
X53314600Y-66065400D03*
X48234600Y-66065400D03*
X48234600Y-71145400D03*
X53314600Y-71145400D03*
X238125000Y-82829400D03*
X243205000Y-82829400D03*
X243205000Y-87909400D03*
X238125000Y-87909400D03*
X240665000Y-85369400D03*
X240639600Y-118872000D03*
X238099600Y-121412000D03*
X243179600Y-121412000D03*
X243179600Y-116332000D03*
X238099600Y-116332000D03*
D11*
X52168391Y-145634109D03*
X50736500Y-145041000D03*
X49304609Y-145634109D03*
X48711500Y-147066000D03*
X49304609Y-148497891D03*
X50736500Y-149091000D03*
X52168391Y-148497891D03*
X52761500Y-147066000D03*
D12*
X50736500Y-147066000D03*
X240728500Y-147066000D03*
D11*
X242753500Y-147066000D03*
X242160391Y-148497891D03*
X240728500Y-149091000D03*
X239296609Y-148497891D03*
X238703500Y-147066000D03*
X239296609Y-145634109D03*
X240728500Y-145041000D03*
X242160391Y-145634109D03*
X242160391Y-55654609D03*
X240728500Y-55061500D03*
X239296609Y-55654609D03*
X238703500Y-57086500D03*
X239296609Y-58518391D03*
X240728500Y-59111500D03*
X242160391Y-58518391D03*
X242753500Y-57086500D03*
D12*
X240728500Y-57086500D03*
X50673000Y-57086500D03*
D11*
X52698000Y-57086500D03*
X52104891Y-58518391D03*
X50673000Y-59111500D03*
X49241109Y-58518391D03*
X48648000Y-57086500D03*
X49241109Y-55654609D03*
X50673000Y-55061500D03*
X52104891Y-55654609D03*
D13*
X62989600Y-130381000D03*
X60149600Y-128996000D03*
X62989600Y-127611000D03*
X60149600Y-126226000D03*
X62989600Y-124841000D03*
X60149600Y-123456000D03*
X62989600Y-122071000D03*
X60149600Y-120686000D03*
X62989600Y-119301000D03*
D14*
X61569600Y-112346000D03*
X61569600Y-137336000D03*
D15*
X132194300Y-126733300D03*
X134734300Y-129273300D03*
X132194300Y-131813300D03*
D16*
X121046500Y-57799000D03*
X121046500Y-56769000D03*
X121046500Y-55739000D03*
X135524500Y-65899000D03*
X135524500Y-66929000D03*
X135524500Y-67959000D03*
X143081000Y-58243500D03*
X143081000Y-57213500D03*
X143081000Y-56183500D03*
X120602000Y-64819500D03*
X120602000Y-65849500D03*
X120602000Y-66879500D03*
X98822000Y-139552300D03*
X98822000Y-138552300D03*
X99822000Y-139552300D03*
X99822000Y-138552300D03*
X100822000Y-139552300D03*
X100822000Y-138552300D03*
D11*
X186055000Y-100330000D03*
X185039000Y-100330000D03*
X186055000Y-99187000D03*
X185039000Y-99187000D03*
X58039000Y-97282000D03*
X58039000Y-95504000D03*
X56007000Y-95504000D03*
X56007000Y-97282000D03*
X51943000Y-97155000D03*
X49911000Y-97155000D03*
X49911000Y-95631000D03*
X51943000Y-95631000D03*
X152831800Y-84429600D03*
X152806400Y-82956400D03*
X156591000Y-79400400D03*
X155905200Y-78536800D03*
X133604000Y-86283800D03*
X132283200Y-86283800D03*
X130911600Y-86258400D03*
X98882200Y-98729800D03*
X96164400Y-98653600D03*
X121285000Y-91262200D03*
X120040400Y-91313000D03*
X118973600Y-91287600D03*
X116992400Y-91262200D03*
X115824000Y-91236800D03*
X114757200Y-91287600D03*
X113792000Y-91313000D03*
X121285000Y-93472000D03*
X121285000Y-92278200D03*
X121310400Y-94767400D03*
X118059200Y-94894400D03*
X119024400Y-92329000D03*
X116967000Y-93548200D03*
X119024400Y-94894400D03*
X120065800Y-94919800D03*
X116967000Y-92354400D03*
X118084600Y-93548200D03*
X119024400Y-93548200D03*
X120065800Y-92303600D03*
X116992400Y-94843600D03*
X118059200Y-92329000D03*
X120065800Y-93522800D03*
X113817400Y-94919800D03*
X114782600Y-92354400D03*
X112725200Y-93573600D03*
X114782600Y-94919800D03*
X115824000Y-94945200D03*
X112725200Y-92379800D03*
X113842800Y-93573600D03*
X114782600Y-93573600D03*
X115824000Y-92329000D03*
X112750600Y-94869000D03*
X113817400Y-92354400D03*
X115824000Y-93548200D03*
X111734600Y-92252800D03*
X111734600Y-93472000D03*
X111734600Y-94869000D03*
X110693200Y-94843600D03*
X110693200Y-93497400D03*
X110693200Y-92278200D03*
X110693200Y-91059000D03*
X109728000Y-92278200D03*
X109753400Y-93497400D03*
X109728000Y-94843600D03*
X108661200Y-94792800D03*
X108635800Y-93497400D03*
X108635800Y-92303600D03*
X108635800Y-91059000D03*
X109626400Y-85372000D03*
X111252000Y-85372000D03*
X113995200Y-85372000D03*
X116230400Y-85372000D03*
X219710000Y-110490000D03*
X217551000Y-114173000D03*
X221234000Y-114935000D03*
X205867000Y-107950000D03*
X216916000Y-105156000D03*
X218821000Y-105156000D03*
X218821000Y-100838000D03*
X217551000Y-93345000D03*
X214503000Y-90297000D03*
X217551000Y-89027000D03*
X213487000Y-81153000D03*
X216916000Y-75057000D03*
X219202000Y-71501000D03*
X220726000Y-75946000D03*
X197358000Y-74549000D03*
X200660000Y-76200000D03*
X201930000Y-82194400D03*
X210601471Y-128468000D03*
X201726800Y-129032000D03*
X201726800Y-127050800D03*
X191617600Y-133654800D03*
X191617600Y-135636000D03*
X184049741Y-139348623D03*
X209854800Y-87020400D03*
X179064658Y-63560634D03*
X180781252Y-141569776D03*
X184404000Y-142798800D03*
X172720000Y-140512800D03*
X178816000Y-148285200D03*
X182067200Y-148285200D03*
X185978800Y-148285200D03*
X187960000Y-148336000D03*
X191668400Y-141020800D03*
X191668400Y-142951200D03*
X190601600Y-137820400D03*
X183333232Y-137579744D03*
X180136800Y-130657600D03*
X182168800Y-130657600D03*
X184200800Y-130657600D03*
X183540400Y-90170000D03*
X183692800Y-80975200D03*
X185064400Y-82092800D03*
X182372000Y-82092800D03*
X174599600Y-86664800D03*
X173532800Y-79756000D03*
X172212000Y-80924400D03*
X175818800Y-65836800D03*
X178339080Y-65827884D03*
X181051200Y-73355200D03*
X179070000Y-73304400D03*
X175006000Y-73355200D03*
X172974000Y-73304400D03*
X178281704Y-61841229D03*
X179070000Y-55422800D03*
X177088800Y-55321200D03*
X175107600Y-55372000D03*
X168706800Y-60604400D03*
X161239200Y-118567200D03*
X159461200Y-118160800D03*
X166573200Y-115722400D03*
X166166800Y-117500400D03*
X164388800Y-111556800D03*
X169519600Y-98196400D03*
X169468800Y-99669600D03*
X163002616Y-99292612D03*
X156362400Y-118160800D03*
X154635200Y-118414800D03*
X152857200Y-118313200D03*
X148590000Y-115976400D03*
X150317200Y-110439200D03*
X116065300Y-95746548D03*
X112255301Y-95746548D03*
X120579557Y-95684158D03*
X109710221Y-90521811D03*
X112142390Y-90611513D03*
X117652800Y-88188800D03*
X117975810Y-90532681D03*
X120505220Y-90521811D03*
X124996642Y-88312766D03*
X125984000Y-90297000D03*
X119871400Y-98027119D03*
X106451400Y-86309200D03*
X105943400Y-91846400D03*
X103784400Y-92862400D03*
X97498400Y-98704400D03*
X112650661Y-88165077D03*
X124053600Y-99822000D03*
X114909600Y-105613200D03*
X110931269Y-95812163D03*
X110363000Y-98044000D03*
X109718335Y-95749766D03*
X124236800Y-128082676D03*
X151215099Y-98682389D03*
X151663400Y-91973400D03*
X150063200Y-91973400D03*
X104089200Y-61569600D03*
X105333800Y-61595000D03*
X107899200Y-61569600D03*
X146634200Y-96266000D03*
X93548200Y-142290800D03*
X102108000Y-141173200D03*
X101600000Y-139903200D03*
X112903000Y-141859000D03*
X115265200Y-129971800D03*
X130073400Y-139573000D03*
X133121400Y-135686800D03*
X110972600Y-113461800D03*
X123647200Y-119837200D03*
X124256800Y-122174000D03*
X124942600Y-119786400D03*
X121686800Y-119840770D03*
X93141800Y-54457600D03*
X88747600Y-54483000D03*
X84531200Y-54406800D03*
X80289400Y-54533800D03*
X118795800Y-81000600D03*
X83743800Y-110007400D03*
X80111600Y-108559600D03*
X80619600Y-105664000D03*
X73761600Y-117424200D03*
X74904600Y-138353800D03*
X82524600Y-136372600D03*
X141780200Y-120421400D03*
X144627600Y-123723400D03*
X152120600Y-136220200D03*
X151942800Y-141135100D03*
X134162800Y-65024000D03*
X140131800Y-63398400D03*
X129349500Y-63804800D03*
X129362200Y-67386200D03*
X119253000Y-64008000D03*
X118237000Y-59690000D03*
X114427000Y-62865000D03*
X114427000Y-66548000D03*
X114935000Y-53721000D03*
X114935000Y-57277000D03*
X119634000Y-54864000D03*
X123825000Y-53721000D03*
X126111000Y-53721000D03*
X136906000Y-57658000D03*
X136906000Y-54102000D03*
X148082000Y-60071000D03*
X148336000Y-61976000D03*
X148336000Y-63754000D03*
X148716500Y-66167000D03*
X150368000Y-66167000D03*
X144780000Y-59182000D03*
X98425000Y-147066000D03*
X100330000Y-147447000D03*
X102997000Y-148590000D03*
X104775000Y-147320000D03*
X145288000Y-112395000D03*
X96012000Y-131191000D03*
X97028000Y-132207000D03*
X96012000Y-129540000D03*
X96012000Y-127889000D03*
X97028000Y-127000000D03*
X192659000Y-101219000D03*
X212471000Y-110236000D03*
X148971000Y-78613000D03*
X148971000Y-82296000D03*
X154559000Y-82169000D03*
X157607000Y-72009000D03*
X154051000Y-72009000D03*
X162814000Y-77851000D03*
X162814000Y-81407000D03*
X186563000Y-58547000D03*
X186563000Y-60452000D03*
X186563000Y-62484000D03*
X186563000Y-65659000D03*
X186563000Y-67564000D03*
X123993000Y-63500000D03*
X117856000Y-69088000D03*
X132715000Y-70485000D03*
X155062821Y-114047572D03*
X156464000Y-56896000D03*
X168148000Y-114300000D03*
X167640000Y-110998000D03*
X97409000Y-141478000D03*
X99314000Y-135255000D03*
X134899400Y-142646400D03*
X96494600Y-144170400D03*
X139954000Y-54991000D03*
X132461000Y-66675000D03*
X132334000Y-64643000D03*
X117983000Y-56388000D03*
X117983000Y-54737000D03*
X117348000Y-63881000D03*
X68707000Y-84963000D03*
X69596000Y-85344000D03*
X67945000Y-85344000D03*
X69596000Y-84455000D03*
X67945000Y-84455000D03*
X106934000Y-98679000D03*
X104140000Y-98679000D03*
X105664000Y-97002600D03*
X103911400Y-97155000D03*
X105606600Y-98596200D03*
X106476800Y-89306400D03*
X122809000Y-96418400D03*
X123545600Y-90373200D03*
X107238800Y-95910400D03*
X132816600Y-146888200D03*
X129717800Y-146583400D03*
X120396000Y-120954800D03*
X93091000Y-63373000D03*
X117348000Y-65532000D03*
X139890500Y-56705500D03*
X140666500Y-59880500D03*
X160909000Y-58801000D03*
X104648000Y-143637000D03*
X103124000Y-143256000D03*
X102082600Y-133705600D03*
X102666800Y-132842000D03*
X101371400Y-132842000D03*
X100634800Y-125628400D03*
X103022400Y-125628400D03*
X103022400Y-123469400D03*
X100634800Y-123469400D03*
X95885000Y-133324600D03*
X103454200Y-136347200D03*
X114860300Y-98354846D03*
X113460300Y-98463100D03*
X115490220Y-84074000D03*
X124714000Y-81153000D03*
X111252000Y-118618000D03*
X111252000Y-117348000D03*
X109601000Y-117348000D03*
X125603000Y-86995000D03*
X123571000Y-85344000D03*
X125857000Y-85598000D03*
X109474000Y-103378000D03*
X109474000Y-105029000D03*
X109626400Y-87122000D03*
X111252000Y-87122000D03*
X113995200Y-87122000D03*
X116230400Y-87122000D03*
X120751600Y-85953600D03*
X106553000Y-105791000D03*
X109215800Y-115163600D03*
X105664000Y-117094000D03*
X107823000Y-105791000D03*
X109093000Y-105791000D03*
X110490000Y-105791000D03*
X111506000Y-105791000D03*
X112522000Y-105791000D03*
X116586000Y-105410000D03*
X118618000Y-105918000D03*
X113411000Y-114935000D03*
X109601000Y-118618000D03*
X187299600Y-138258794D03*
X183997600Y-148336000D03*
X175640900Y-68656100D03*
X177038000Y-73355200D03*
X162549156Y-114768529D03*
X166176841Y-110952576D03*
X165760400Y-98501200D03*
X153365200Y-114655600D03*
X155956000Y-114604800D03*
X148437600Y-111912400D03*
X149656800Y-97129600D03*
X150215600Y-95808800D03*
X121036800Y-128696000D03*
X82753200Y-107315000D03*
X80289400Y-136372600D03*
X122428000Y-59753500D03*
X124968000Y-59626500D03*
X123602750Y-58261250D03*
X169081000Y-68961000D03*
X162179000Y-68834000D03*
X102489000Y-58293000D03*
X113030000Y-59055000D03*
X160401000Y-123317000D03*
X162560000Y-125476000D03*
X204825600Y-86258400D03*
X204876400Y-87426800D03*
X172262800Y-83921600D03*
X173532800Y-85039200D03*
X177495200Y-84124800D03*
X170815000Y-73660000D03*
X157399002Y-70358000D03*
X184607200Y-134924800D03*
X185013600Y-85090000D03*
X183692800Y-83921600D03*
X179578000Y-85344000D03*
X179171600Y-59486800D03*
X160121600Y-114604800D03*
X167513000Y-103378000D03*
X173990000Y-128397000D03*
X217424000Y-77978000D03*
X198120000Y-76962000D03*
X202438000Y-76200000D03*
X210464400Y-116738400D03*
X211734400Y-116738400D03*
X218316000Y-116716000D03*
X210154930Y-127573236D03*
X205892400Y-128543000D03*
X155892500Y-74993500D03*
X220415230Y-94882460D03*
X192024000Y-105156000D03*
X149402800Y-136232900D03*
X152019000Y-81280000D03*
X152019000Y-79502000D03*
X222587141Y-73322859D03*
X222961200Y-112928400D03*
X179324000Y-111760000D03*
X208026000Y-112268000D03*
X223901000Y-97155000D03*
X145542000Y-66548000D03*
X144018000Y-65786000D03*
X144145000Y-63627000D03*
X144145000Y-61976000D03*
X155879800Y-84404200D03*
X155854400Y-82956400D03*
X156692600Y-81076800D03*
X155829000Y-80772000D03*
X144653000Y-54864000D03*
X141732000Y-55372000D03*
X143383000Y-59436000D03*
X153543000Y-80518000D03*
X184150000Y-78312000D03*
X188595000Y-78312000D03*
X209169000Y-82804000D03*
X182118000Y-63296800D03*
X181362283Y-144047033D03*
X185754700Y-143022900D03*
X179730400Y-68580000D03*
X125095000Y-69360000D03*
X121947000Y-68680000D03*
X122176250Y-67820250D03*
X123435000Y-67700000D03*
X152400000Y-71374000D03*
X150241000Y-89408000D03*
X163068000Y-88900000D03*
X180975000Y-102616000D03*
X209804000Y-73964800D03*
X199390000Y-79008000D03*
X209346800Y-77114400D03*
X201284696Y-75419130D03*
X213664800Y-129997200D03*
X209042000Y-129489200D03*
X213606078Y-128998923D03*
X201269600Y-125730000D03*
X156475510Y-119634000D03*
X157875510Y-118237000D03*
X122656600Y-118719600D03*
X103454200Y-57912000D03*
X107316500Y-62763400D03*
X105968800Y-54102000D03*
X108004732Y-71173432D03*
X139928600Y-100431600D03*
X144932400Y-105486200D03*
X107963025Y-70141775D03*
X106654600Y-57912000D03*
X143864973Y-105357923D03*
X138940130Y-100116678D03*
X108189118Y-72347768D03*
X108169025Y-57870776D03*
X110099221Y-61696600D03*
X111499222Y-63474600D03*
X86360000Y-114858800D03*
X152276024Y-108785176D03*
X87705875Y-114502875D03*
X151587982Y-109555974D03*
X89127950Y-114070750D03*
X150977600Y-108051600D03*
X143840200Y-110255974D03*
X141452600Y-100798400D03*
X140124830Y-104143580D03*
X132181600Y-110655984D03*
X81432400Y-135178800D03*
X92303600Y-113919000D03*
X94742000Y-111531400D03*
X97993200Y-108280200D03*
X151434800Y-87514200D03*
X152755600Y-88214200D03*
X129082800Y-108455964D03*
X126365000Y-111355984D03*
X84683600Y-135178800D03*
X106705400Y-113055400D03*
X143256000Y-111252000D03*
X156889875Y-105938125D03*
X120573800Y-143967200D03*
X134239000Y-63881000D03*
X131239708Y-67743357D03*
X85471000Y-75184000D03*
X100584000Y-143002000D03*
X175641000Y-110490000D03*
X171450000Y-114681000D03*
X213741000Y-92456000D03*
X215773000Y-95504000D03*
X221132400Y-95859600D03*
X226364800Y-95351600D03*
X204266800Y-72999600D03*
X205033453Y-74579053D03*
X223875600Y-100482400D03*
X219557600Y-98806000D03*
X193903600Y-137871200D03*
X187299600Y-139258797D03*
X194005200Y-138887200D03*
X187299600Y-140258800D03*
X175056800Y-138480800D03*
X180187600Y-138379200D03*
X205435200Y-131013200D03*
X218998800Y-126847600D03*
X202900585Y-132299061D03*
X213410800Y-132638800D03*
X158917392Y-111169649D03*
X152781000Y-105029000D03*
X144809492Y-96947708D03*
X142245510Y-91505000D03*
X84467700Y-63157100D03*
X163855400Y-113893600D03*
X154051000Y-104825800D03*
X150520400Y-101182400D03*
X145516600Y-96240600D03*
X142316200Y-93192600D03*
X80314800Y-63144400D03*
X162279225Y-102261775D03*
X145375270Y-103011200D03*
X166497000Y-93484700D03*
X160418000Y-100482400D03*
X147146052Y-102408948D03*
X168258446Y-104391200D03*
X172008800Y-104444800D03*
X146070125Y-101211190D03*
X161165982Y-101148531D03*
X165938200Y-101955600D03*
X159360250Y-105561750D03*
X137769600Y-100798400D03*
X124336800Y-125564298D03*
X151083074Y-116640675D03*
X152739850Y-110946313D03*
X122961400Y-128219200D03*
X166268400Y-62534800D03*
X177311961Y-62085363D03*
X176225200Y-63234800D03*
X167538400Y-63234800D03*
X173287631Y-60524915D03*
X166871093Y-60280999D03*
X173177200Y-61518800D03*
X150418800Y-103265500D03*
X152628600Y-101182400D03*
X153924000Y-98682389D03*
X175260000Y-63934800D03*
X167298440Y-64986827D03*
X167881227Y-64174201D03*
X169987610Y-64323610D03*
X175694399Y-64835522D03*
X170789600Y-65781000D03*
X181660800Y-140817600D03*
X178456851Y-132740400D03*
X176853526Y-65818787D03*
X174244000Y-66548000D03*
X170481000Y-70231000D03*
X167386000Y-101473000D03*
X166573200Y-108765500D03*
X180073956Y-139372723D03*
X177846631Y-137261600D03*
X150977600Y-104800400D03*
X167286150Y-106965489D03*
X162356800Y-106578400D03*
X161215662Y-106427212D03*
X168656700Y-106933299D03*
X182004500Y-135042052D03*
X162263425Y-105495075D03*
X159018000Y-101193600D03*
X182339130Y-137688215D03*
X154649303Y-111203833D03*
X146989800Y-116205000D03*
X116668348Y-116574800D03*
X105654821Y-116093571D03*
X162018000Y-111063000D03*
X105537000Y-114985800D03*
X115722400Y-115874800D03*
X147066000Y-114884200D03*
X153924000Y-110515400D03*
D17*
X117348000Y-65532000D02*
X116782315Y-65532000D01*
X116782315Y-65532000D02*
X116448314Y-65197999D01*
X116782315Y-63881000D02*
X115465316Y-65197999D01*
X117348000Y-63881000D02*
X116782315Y-63881000D01*
X112467399Y-64824601D02*
X108500226Y-68791774D01*
X115465316Y-65197999D02*
X115091918Y-64824601D01*
X115091918Y-64824601D02*
X112467399Y-64824601D01*
X108500226Y-68791774D02*
X99229226Y-68791774D01*
X112849223Y-64122601D02*
X111947824Y-65024000D01*
X117983000Y-56388000D02*
X112849223Y-61521777D01*
X112849223Y-61521777D02*
X112849223Y-64122601D01*
X111947824Y-65024000D02*
X99441000Y-65024000D01*
X132334000Y-64643000D02*
X132334000Y-66548000D01*
X137113997Y-59008001D02*
X138984999Y-59008001D01*
X132334000Y-64643000D02*
X132334000Y-63787998D01*
X138984999Y-57611001D02*
X139890500Y-56705500D01*
X138984999Y-59008001D02*
X138984999Y-57611001D01*
X139890500Y-55054500D02*
X139954000Y-54991000D01*
X139890500Y-56705500D02*
X139890500Y-55054500D01*
X138984999Y-59008001D02*
X139794001Y-59008001D01*
X139794001Y-59008001D02*
X140666500Y-59880500D01*
X103505000Y-143637000D02*
X103124000Y-143256000D01*
X104648000Y-143637000D02*
X103505000Y-143637000D01*
X68707000Y-126788202D02*
X68707000Y-85528685D01*
X90715799Y-148797001D02*
X68707000Y-126788202D01*
X68707000Y-85528685D02*
X68707000Y-84963000D01*
X100978001Y-148797001D02*
X90715799Y-148797001D01*
X101680001Y-148095001D02*
X100978001Y-148797001D01*
X101680001Y-144699999D02*
X101680001Y-148095001D01*
X103124000Y-143256000D02*
X101680001Y-144699999D01*
D18*
X129317801Y-146183401D02*
X129717800Y-146583400D01*
X126371401Y-143237001D02*
X129317801Y-146183401D01*
X105047999Y-143237001D02*
X126371401Y-143237001D01*
X104648000Y-143637000D02*
X105047999Y-143237001D01*
X132511800Y-146583400D02*
X132816600Y-146888200D01*
X129717800Y-146583400D02*
X132511800Y-146583400D01*
X120396000Y-127889000D02*
X104648000Y-143637000D01*
X120396000Y-120954800D02*
X120396000Y-127889000D01*
D17*
X106476800Y-88631400D02*
X98109400Y-80264000D01*
X106476800Y-89306400D02*
X106476800Y-88631400D01*
X98109400Y-80264000D02*
X94615000Y-80264000D01*
X94615000Y-85953600D02*
X94615000Y-80264000D01*
X96139000Y-81788000D02*
X94615000Y-80264000D01*
X105606600Y-98596200D02*
X96139000Y-89128600D01*
X94615000Y-89154000D02*
X94615000Y-80264000D01*
X104140000Y-98679000D02*
X94615000Y-89154000D01*
X105918000Y-98679000D02*
X96139000Y-88900000D01*
X106934000Y-98679000D02*
X105918000Y-98679000D01*
X96139000Y-89128600D02*
X96139000Y-88900000D01*
X96139000Y-88900000D02*
X96139000Y-81788000D01*
X113678222Y-80264000D02*
X94615000Y-80264000D01*
X119002801Y-85588579D02*
X113678222Y-80264000D01*
X119002801Y-88836801D02*
X119002801Y-85588579D01*
X122009201Y-88836801D02*
X119002801Y-88836801D01*
X123545600Y-90373200D02*
X122009201Y-88836801D01*
X122809000Y-91109800D02*
X123545600Y-90373200D01*
X122809000Y-96418400D02*
X122809000Y-91109800D01*
X104571800Y-95910400D02*
X104343200Y-95681800D01*
X107238800Y-95910400D02*
X104571800Y-95910400D01*
X105664000Y-97002600D02*
X104343200Y-95681800D01*
X104343200Y-95681800D02*
X94615000Y-85953600D01*
X117983000Y-56388000D02*
X117983000Y-54737000D01*
X127113999Y-59008001D02*
X137113997Y-59008001D01*
X121619997Y-53513999D02*
X127113999Y-59008001D01*
X118952001Y-53513999D02*
X121619997Y-53513999D01*
X118382999Y-54083001D02*
X118952001Y-53513999D01*
X118382999Y-54337001D02*
X118382999Y-54083001D01*
X117983000Y-54737000D02*
X118382999Y-54337001D01*
X127113999Y-59422999D02*
X132334000Y-64643000D01*
X127113999Y-59008001D02*
X127113999Y-59422999D01*
D18*
X140353999Y-54591001D02*
X143655999Y-54591001D01*
X139954000Y-54991000D02*
X140353999Y-54591001D01*
X143655999Y-54591001D02*
X145161000Y-53086000D01*
X145161000Y-53086000D02*
X149860000Y-53086000D01*
X149860000Y-53086000D02*
X156718000Y-59944000D01*
X159766000Y-59944000D02*
X160909000Y-58801000D01*
X156718000Y-59944000D02*
X159766000Y-59944000D01*
D19*
X149815601Y-95408801D02*
X150215600Y-95808800D01*
X126070001Y-60728501D02*
X126070001Y-71663201D01*
X124968000Y-59626500D02*
X126070001Y-60728501D01*
X148043900Y-95516700D02*
X149656800Y-97129600D01*
X148043900Y-93637100D02*
X148043900Y-95516700D01*
X148043900Y-93637100D02*
X149815601Y-95408801D01*
X126070001Y-71663201D02*
X148043900Y-93637100D01*
X148037601Y-112312399D02*
X148437600Y-111912400D01*
X146979999Y-113370001D02*
X148037601Y-112312399D01*
X143930999Y-113370001D02*
X146979999Y-113370001D01*
X142280999Y-111720001D02*
X143930999Y-113370001D01*
X142280999Y-110783999D02*
X142280999Y-111720001D01*
X142787999Y-110276999D02*
X142280999Y-110783999D01*
X142787999Y-97526199D02*
X142787999Y-110276999D01*
X145048599Y-95265599D02*
X142787999Y-97526199D01*
X147792799Y-95265599D02*
X145048599Y-95265599D01*
X148043900Y-95516700D02*
X147792799Y-95265599D01*
X153365200Y-115221285D02*
X153365200Y-114655600D01*
X153365200Y-115801551D02*
X153365200Y-115221285D01*
X151551075Y-117615676D02*
X153365200Y-115801551D01*
X142280999Y-112939201D02*
X146957474Y-117615676D01*
X142280999Y-111720001D02*
X142280999Y-112939201D01*
X152111722Y-117615676D02*
X152633398Y-117094000D01*
X151551075Y-117615676D02*
X152111722Y-117615676D01*
X153466800Y-117094000D02*
X155956000Y-114604800D01*
X152633398Y-117094000D02*
X153466800Y-117094000D01*
X160223685Y-117094000D02*
X162549156Y-114768529D01*
X153466800Y-117094000D02*
X160223685Y-117094000D01*
X166176841Y-111518261D02*
X166176841Y-110952576D01*
X166176841Y-113015161D02*
X166176841Y-111518261D01*
X162098002Y-117094000D02*
X166176841Y-113015161D01*
X160223685Y-117094000D02*
X162098002Y-117094000D01*
X121436799Y-128296001D02*
X121036800Y-128696000D01*
X122625125Y-127107675D02*
X121436799Y-128296001D01*
X128112525Y-127107675D02*
X122625125Y-127107675D01*
X142280999Y-112939201D02*
X128112525Y-127107675D01*
X141828597Y-112486799D02*
X142280999Y-112939201D01*
X80289400Y-136372600D02*
X80289400Y-134878798D01*
X83318885Y-107315000D02*
X82753200Y-107315000D01*
X91968602Y-107315000D02*
X83318885Y-107315000D01*
X96734001Y-112080399D02*
X91968602Y-107315000D01*
X96734001Y-112080399D02*
X96734001Y-114133001D01*
X105029000Y-122428000D02*
X117602000Y-122428000D01*
X127289201Y-112486799D02*
X127924201Y-112486799D01*
X117602000Y-122174000D02*
X127289201Y-112486799D01*
X117602000Y-122428000D02*
X117602000Y-122174000D01*
X127924201Y-112486799D02*
X141828597Y-112486799D01*
X98567099Y-115966099D02*
X98234500Y-115633500D01*
X96734001Y-114133001D02*
X98234500Y-115633500D01*
X98806000Y-116205000D02*
X99314000Y-116713000D01*
X98234500Y-115633500D02*
X98806000Y-116205000D01*
X98328198Y-116840000D02*
X97106599Y-118061599D01*
X99441000Y-116840000D02*
X98328198Y-116840000D01*
X80289400Y-134878798D02*
X97106599Y-118061599D01*
X99441000Y-116840000D02*
X105029000Y-122428000D01*
X98806000Y-116205000D02*
X99441000Y-116840000D01*
X169081000Y-68961000D02*
X162306000Y-68961000D01*
X162306000Y-68961000D02*
X162179000Y-68834000D01*
D18*
X103561198Y-59055000D02*
X113030000Y-59055000D01*
X102489000Y-58293000D02*
X103251000Y-59055000D01*
X103251000Y-59055000D02*
X103561198Y-59055000D01*
D19*
X165194715Y-98501200D02*
X165760400Y-98501200D01*
X164116882Y-98501200D02*
X165194715Y-98501200D01*
X161424482Y-95808800D02*
X164116882Y-98501200D01*
X150215600Y-95808800D02*
X161424482Y-95808800D01*
X156464000Y-123317000D02*
X160401000Y-123317000D01*
X150762676Y-117615676D02*
X156464000Y-123317000D01*
X150762676Y-117615676D02*
X151551075Y-117615676D01*
X146957474Y-117615676D02*
X150762676Y-117615676D01*
X186899601Y-137858795D02*
X187299600Y-138258794D01*
X185645549Y-136604743D02*
X186899601Y-137858795D01*
X180754741Y-136604743D02*
X185645549Y-136604743D01*
X169625998Y-125476000D02*
X180754741Y-136604743D01*
X162560000Y-125476000D02*
X169625998Y-125476000D01*
D20*
X184397599Y-147936001D02*
X183997600Y-148336000D01*
X186479701Y-145853899D02*
X184397599Y-147936001D01*
X186479701Y-139005694D02*
X186479701Y-145853899D01*
X187226601Y-138258794D02*
X186479701Y-139005694D01*
X187299600Y-138258794D02*
X187226601Y-138258794D01*
D17*
X170815000Y-73660000D02*
X167513000Y-70358000D01*
X167513000Y-70358000D02*
X157399002Y-70358000D01*
D19*
X160521599Y-114204801D02*
X160121600Y-114604800D01*
X162993001Y-111733399D02*
X160521599Y-114204801D01*
X162993001Y-107897999D02*
X162993001Y-111733399D01*
X167513000Y-103378000D02*
X162993001Y-107897999D01*
X184207201Y-134524801D02*
X184607200Y-134924800D01*
X181447799Y-131765399D02*
X184207201Y-134524801D01*
X177358399Y-131765399D02*
X181447799Y-131765399D01*
X173990000Y-128397000D02*
X177358399Y-131765399D01*
D17*
X197554315Y-76962000D02*
X198120000Y-76962000D01*
X161954502Y-74993500D02*
X163923002Y-76962000D01*
X155892500Y-74993500D02*
X161954502Y-74993500D01*
X202837999Y-74974431D02*
X202837999Y-75800001D01*
X201932697Y-74069129D02*
X202837999Y-74974431D01*
X202837999Y-75800001D02*
X202438000Y-76200000D01*
X200636695Y-74069129D02*
X201932697Y-74069129D01*
X198519999Y-76185825D02*
X200636695Y-74069129D01*
X198519999Y-76562001D02*
X198519999Y-76185825D01*
X198120000Y-76962000D02*
X198519999Y-76562001D01*
X217024001Y-77578001D02*
X217424000Y-77978000D01*
X215210399Y-75764399D02*
X217024001Y-77578001D01*
X208698799Y-75764399D02*
X215210399Y-75764399D01*
X208263198Y-76200000D02*
X208698799Y-75764399D01*
X202438000Y-76200000D02*
X208263198Y-76200000D01*
D19*
X220415230Y-80969230D02*
X220415230Y-94882460D01*
X217424000Y-77978000D02*
X220415230Y-80969230D01*
X218715999Y-116316001D02*
X218316000Y-116716000D01*
X218715999Y-116009999D02*
X218715999Y-116316001D01*
X220685001Y-114040997D02*
X218715999Y-116009999D01*
X220685001Y-98490399D02*
X220685001Y-114040997D01*
X220157399Y-97962797D02*
X220685001Y-98490399D01*
X220157399Y-95140291D02*
X220157399Y-97962797D01*
X220415230Y-94882460D02*
X220157399Y-95140291D01*
X210486800Y-116716000D02*
X210464400Y-116738400D01*
X218316000Y-116716000D02*
X210486800Y-116716000D01*
X187030001Y-100162001D02*
X192024000Y-105156000D01*
X186944000Y-76962000D02*
X187030001Y-77048001D01*
D17*
X186944000Y-76962000D02*
X197554315Y-76962000D01*
X163923002Y-76962000D02*
X186944000Y-76962000D01*
D19*
X184063999Y-108463003D02*
X172766002Y-119761000D01*
X184063999Y-94447001D02*
X184063999Y-108463003D01*
X187030001Y-91480999D02*
X184063999Y-94447001D01*
X187030001Y-91480999D02*
X187030001Y-100162001D01*
X187030001Y-77048001D02*
X187030001Y-91480999D01*
X172766002Y-119761000D02*
X165874700Y-119761000D01*
X165874700Y-119761000D02*
X149402800Y-136232900D01*
X210464400Y-127263766D02*
X210154930Y-127573236D01*
X210464400Y-116738400D02*
X210464400Y-127263766D01*
X206862164Y-127573236D02*
X205892400Y-128543000D01*
X210154930Y-127573236D02*
X206862164Y-127573236D01*
X152019000Y-79502000D02*
X152019000Y-81280000D01*
X169987601Y-97221399D02*
X179324000Y-106557798D01*
X164180597Y-97221399D02*
X169987601Y-97221399D01*
X151619001Y-84659803D02*
X164180597Y-97221399D01*
X152019000Y-81280000D02*
X151619001Y-81679999D01*
X151619001Y-81679999D02*
X151619001Y-84659803D01*
X179324000Y-106557798D02*
X179324000Y-111760000D01*
D18*
X143333500Y-56183500D02*
X143081000Y-56183500D01*
X144653000Y-54864000D02*
X143333500Y-56183500D01*
X143431000Y-57213500D02*
X143875500Y-56769000D01*
X143081000Y-57213500D02*
X143431000Y-57213500D01*
X142760290Y-56892790D02*
X142236790Y-56892790D01*
X143081000Y-57213500D02*
X142760290Y-56892790D01*
D19*
X153543000Y-74549000D02*
X145542000Y-66548000D01*
X153543000Y-80518000D02*
X153543000Y-74549000D01*
X155575000Y-80518000D02*
X155829000Y-80772000D01*
X153543000Y-80518000D02*
X155575000Y-80518000D01*
X156387800Y-80772000D02*
X156692600Y-81076800D01*
X155829000Y-80772000D02*
X156387800Y-80772000D01*
X155829000Y-82931000D02*
X155854400Y-82956400D01*
X155829000Y-80772000D02*
X155829000Y-82931000D01*
X155854400Y-84378800D02*
X155879800Y-84404200D01*
X155854400Y-82956400D02*
X155854400Y-84378800D01*
X164465998Y-78312000D02*
X184150000Y-78312000D01*
X156692600Y-81076800D02*
X161701198Y-81076800D01*
X161701198Y-81076800D02*
X164465998Y-78312000D01*
X204397999Y-78032999D02*
X209169000Y-82804000D01*
X198921999Y-78032999D02*
X204397999Y-78032999D01*
X188595000Y-78312000D02*
X198642998Y-78312000D01*
X198642998Y-78312000D02*
X198921999Y-78032999D01*
X179330401Y-68180001D02*
X179730400Y-68580000D01*
X178831499Y-67681099D02*
X179330401Y-68180001D01*
X156092901Y-67681099D02*
X178831499Y-67681099D01*
X152400000Y-71374000D02*
X156092901Y-67681099D01*
X182118000Y-64394598D02*
X182118000Y-63296800D01*
X178831499Y-67681099D02*
X182118000Y-64394598D01*
D18*
X150977600Y-108051600D02*
X146064200Y-108051600D01*
X146064200Y-108051600D02*
X146044574Y-108051600D01*
X146044574Y-108051600D02*
X143840200Y-110255974D01*
X141452600Y-100798400D02*
X141452600Y-102815810D01*
X141452600Y-102815810D02*
X140124830Y-104143580D01*
X156712036Y-105938125D02*
X156889875Y-105938125D01*
X151437762Y-111212399D02*
X156712036Y-105938125D01*
X143861286Y-111212399D02*
X151437762Y-111212399D01*
X143256000Y-111252000D02*
X143821685Y-111252000D01*
X143821685Y-111252000D02*
X143861286Y-111212399D01*
X175641000Y-110490000D02*
X171450000Y-114681000D01*
X145265393Y-96947708D02*
X144809492Y-96947708D01*
X152781000Y-105029000D02*
X152781000Y-104463315D01*
X152781000Y-104463315D02*
X145265393Y-96947708D01*
X150520400Y-101182400D02*
X145578600Y-96240600D01*
X145578600Y-96240600D02*
X145516600Y-96240600D01*
X161960224Y-102961776D02*
X159360250Y-105561750D01*
X165938200Y-101955600D02*
X164932024Y-102961776D01*
X164932024Y-102961776D02*
X161960224Y-102961776D01*
X152628600Y-101182400D02*
X152628600Y-99977789D01*
X152628600Y-99977789D02*
X153924000Y-98682389D01*
X155049302Y-110803834D02*
X154649303Y-111203833D01*
X155383488Y-110469648D02*
X155049302Y-110803834D01*
X159253393Y-110469648D02*
X155383488Y-110469648D01*
X159846745Y-111063000D02*
X159253393Y-110469648D01*
X162018000Y-111063000D02*
X159846745Y-111063000D01*
D21*
G36*
X101854000Y-65095468D02*
G01*
X101854000Y-74496006D01*
X89736785Y-86487000D01*
X67310000Y-86487000D01*
X67310000Y-75082061D01*
X84436000Y-75082061D01*
X84436000Y-75285939D01*
X84475774Y-75485898D01*
X84553795Y-75674256D01*
X84667063Y-75843774D01*
X84811226Y-75987937D01*
X84980744Y-76101205D01*
X85169102Y-76179226D01*
X85369061Y-76219000D01*
X85572939Y-76219000D01*
X85772898Y-76179226D01*
X85961256Y-76101205D01*
X86130774Y-75987937D01*
X86274937Y-75843774D01*
X86388205Y-75674256D01*
X86466226Y-75485898D01*
X86506000Y-75285939D01*
X86506000Y-75082061D01*
X86466226Y-74882102D01*
X86388205Y-74693744D01*
X86274937Y-74524226D01*
X86130774Y-74380063D01*
X85961256Y-74266795D01*
X85772898Y-74188774D01*
X85572939Y-74149000D01*
X85369061Y-74149000D01*
X85169102Y-74188774D01*
X84980744Y-74266795D01*
X84811226Y-74380063D01*
X84667063Y-74524226D01*
X84553795Y-74693744D01*
X84475774Y-74882102D01*
X84436000Y-75082061D01*
X67310000Y-75082061D01*
X67310000Y-65609550D01*
X71913274Y-63245706D01*
X79279800Y-63175213D01*
X79279800Y-63246339D01*
X79319574Y-63446298D01*
X79397595Y-63634656D01*
X79510863Y-63804174D01*
X79655026Y-63948337D01*
X79824544Y-64061605D01*
X80012902Y-64139626D01*
X80212861Y-64179400D01*
X80416739Y-64179400D01*
X80616698Y-64139626D01*
X80805056Y-64061605D01*
X80974574Y-63948337D01*
X81118737Y-63804174D01*
X81232005Y-63634656D01*
X81310026Y-63446298D01*
X81349800Y-63246339D01*
X81349800Y-63155404D01*
X83432700Y-63135472D01*
X83432700Y-63259039D01*
X83472474Y-63458998D01*
X83550495Y-63647356D01*
X83663763Y-63816874D01*
X83807926Y-63961037D01*
X83977444Y-64074305D01*
X84165802Y-64152326D01*
X84365761Y-64192100D01*
X84569639Y-64192100D01*
X84769598Y-64152326D01*
X84957956Y-64074305D01*
X85127474Y-63961037D01*
X85271637Y-63816874D01*
X85384905Y-63647356D01*
X85462926Y-63458998D01*
X85502700Y-63259039D01*
X85502700Y-63115664D01*
X98390026Y-62992340D01*
X101854000Y-65095468D01*
X101854000Y-65095468D01*
G37*
X101854000Y-65095468D02*
X101854000Y-74496006D01*
X89736785Y-86487000D01*
X67310000Y-86487000D01*
X67310000Y-75082061D01*
X84436000Y-75082061D01*
X84436000Y-75285939D01*
X84475774Y-75485898D01*
X84553795Y-75674256D01*
X84667063Y-75843774D01*
X84811226Y-75987937D01*
X84980744Y-76101205D01*
X85169102Y-76179226D01*
X85369061Y-76219000D01*
X85572939Y-76219000D01*
X85772898Y-76179226D01*
X85961256Y-76101205D01*
X86130774Y-75987937D01*
X86274937Y-75843774D01*
X86388205Y-75674256D01*
X86466226Y-75485898D01*
X86506000Y-75285939D01*
X86506000Y-75082061D01*
X86466226Y-74882102D01*
X86388205Y-74693744D01*
X86274937Y-74524226D01*
X86130774Y-74380063D01*
X85961256Y-74266795D01*
X85772898Y-74188774D01*
X85572939Y-74149000D01*
X85369061Y-74149000D01*
X85169102Y-74188774D01*
X84980744Y-74266795D01*
X84811226Y-74380063D01*
X84667063Y-74524226D01*
X84553795Y-74693744D01*
X84475774Y-74882102D01*
X84436000Y-75082061D01*
X67310000Y-75082061D01*
X67310000Y-65609550D01*
X71913274Y-63245706D01*
X79279800Y-63175213D01*
X79279800Y-63246339D01*
X79319574Y-63446298D01*
X79397595Y-63634656D01*
X79510863Y-63804174D01*
X79655026Y-63948337D01*
X79824544Y-64061605D01*
X80012902Y-64139626D01*
X80212861Y-64179400D01*
X80416739Y-64179400D01*
X80616698Y-64139626D01*
X80805056Y-64061605D01*
X80974574Y-63948337D01*
X81118737Y-63804174D01*
X81232005Y-63634656D01*
X81310026Y-63446298D01*
X81349800Y-63246339D01*
X81349800Y-63155404D01*
X83432700Y-63135472D01*
X83432700Y-63259039D01*
X83472474Y-63458998D01*
X83550495Y-63647356D01*
X83663763Y-63816874D01*
X83807926Y-63961037D01*
X83977444Y-64074305D01*
X84165802Y-64152326D01*
X84365761Y-64192100D01*
X84569639Y-64192100D01*
X84769598Y-64152326D01*
X84957956Y-64074305D01*
X85127474Y-63961037D01*
X85271637Y-63816874D01*
X85384905Y-63647356D01*
X85462926Y-63458998D01*
X85502700Y-63259039D01*
X85502700Y-63115664D01*
X98390026Y-62992340D01*
X101854000Y-65095468D01*
G36*
X125738903Y-59591591D02*
G01*
X125749039Y-59694506D01*
X125828235Y-59955580D01*
X125956842Y-60196187D01*
X126129919Y-60407080D01*
X126182763Y-60450448D01*
X126619000Y-60886685D01*
X126619000Y-61341000D01*
X121666000Y-61341000D01*
X121666000Y-58431079D01*
X121733924Y-58363155D01*
X121830777Y-58218205D01*
X121897490Y-58057145D01*
X121931500Y-57886165D01*
X121931500Y-57711835D01*
X121897490Y-57540855D01*
X121840803Y-57404000D01*
X123551312Y-57404000D01*
X125738903Y-59591591D01*
X125738903Y-59591591D01*
G37*
X125738903Y-59591591D02*
X125749039Y-59694506D01*
X125828235Y-59955580D01*
X125956842Y-60196187D01*
X126129919Y-60407080D01*
X126182763Y-60450448D01*
X126619000Y-60886685D01*
X126619000Y-61341000D01*
X121666000Y-61341000D01*
X121666000Y-58431079D01*
X121733924Y-58363155D01*
X121830777Y-58218205D01*
X121897490Y-58057145D01*
X121931500Y-57886165D01*
X121931500Y-57711835D01*
X121897490Y-57540855D01*
X121840803Y-57404000D01*
X123551312Y-57404000D01*
X125738903Y-59591591D01*
G36*
X125060002Y-70358000D02*
G01*
X121285000Y-70358000D01*
X121285000Y-67448079D01*
X121289424Y-67443655D01*
X121386277Y-67298705D01*
X121452990Y-67137645D01*
X121487000Y-66966665D01*
X121487000Y-66802000D01*
X125060002Y-66802000D01*
X125060002Y-70358000D01*
X125060002Y-70358000D01*
G37*
X125060002Y-70358000D02*
X121285000Y-70358000D01*
X121285000Y-67448079D01*
X121289424Y-67443655D01*
X121386277Y-67298705D01*
X121452990Y-67137645D01*
X121487000Y-66966665D01*
X121487000Y-66802000D01*
X125060002Y-66802000D01*
X125060002Y-70358000D01*
G36*
X148590440Y-59165945D02*
G01*
X148572256Y-59153795D01*
X148383898Y-59075774D01*
X148183939Y-59036000D01*
X147980061Y-59036000D01*
X147780102Y-59075774D01*
X147591744Y-59153795D01*
X147422226Y-59267063D01*
X147278063Y-59411226D01*
X147164795Y-59580744D01*
X147086774Y-59769102D01*
X147047000Y-59969061D01*
X147047000Y-60172939D01*
X147086774Y-60372898D01*
X147164795Y-60561256D01*
X147278063Y-60730774D01*
X147422226Y-60874937D01*
X147591744Y-60988205D01*
X147780102Y-61066226D01*
X147822116Y-61074583D01*
X147676226Y-61172063D01*
X147532063Y-61316226D01*
X147418795Y-61485744D01*
X147340774Y-61674102D01*
X147301000Y-61874061D01*
X147301000Y-62077939D01*
X147340774Y-62277898D01*
X147418795Y-62466256D01*
X147532063Y-62635774D01*
X147676226Y-62779937D01*
X147803532Y-62865000D01*
X147676226Y-62950063D01*
X147532063Y-63094226D01*
X147418795Y-63263744D01*
X147340774Y-63452102D01*
X147301000Y-63652061D01*
X147301000Y-63855939D01*
X147340774Y-64055898D01*
X147418795Y-64244256D01*
X147532063Y-64413774D01*
X147676226Y-64557937D01*
X147845744Y-64671205D01*
X148034102Y-64749226D01*
X148234061Y-64789000D01*
X148414719Y-64789000D01*
X148402602Y-65176744D01*
X148226244Y-65249795D01*
X148056726Y-65363063D01*
X147912563Y-65507226D01*
X147799295Y-65676744D01*
X147721274Y-65865102D01*
X147681500Y-66065061D01*
X147681500Y-66268939D01*
X147721274Y-66468898D01*
X147799295Y-66657256D01*
X147912563Y-66826774D01*
X148056726Y-66970937D01*
X148226244Y-67084205D01*
X148341502Y-67131947D01*
X148339907Y-67183000D01*
X141478000Y-67183000D01*
X141478000Y-61006214D01*
X141650581Y-60864581D01*
X141823656Y-60653688D01*
X141952264Y-60413080D01*
X142031460Y-60152007D01*
X142058200Y-59880500D01*
X142031460Y-59608992D01*
X141952264Y-59347919D01*
X141823656Y-59107312D01*
X141693952Y-58949267D01*
X141584349Y-58839664D01*
X142658784Y-58839664D01*
X142662826Y-59028327D01*
X142823974Y-59094828D01*
X142994998Y-59128613D01*
X143169328Y-59128384D01*
X143340264Y-59094149D01*
X143374275Y-59080061D01*
X143745000Y-59080061D01*
X143745000Y-59283939D01*
X143784774Y-59483898D01*
X143862795Y-59672256D01*
X143976063Y-59841774D01*
X144120226Y-59985937D01*
X144289744Y-60099205D01*
X144478102Y-60177226D01*
X144678061Y-60217000D01*
X144881939Y-60217000D01*
X145081898Y-60177226D01*
X145270256Y-60099205D01*
X145439774Y-59985937D01*
X145583937Y-59841774D01*
X145697205Y-59672256D01*
X145775226Y-59483898D01*
X145815000Y-59283939D01*
X145815000Y-59080061D01*
X145775226Y-58880102D01*
X145697205Y-58691744D01*
X145583937Y-58522226D01*
X145439774Y-58378063D01*
X145270256Y-58264795D01*
X145081898Y-58186774D01*
X144881939Y-58147000D01*
X144678061Y-58147000D01*
X144478102Y-58186774D01*
X144289744Y-58264795D01*
X144120226Y-58378063D01*
X143976063Y-58522226D01*
X143862795Y-58691744D01*
X143784774Y-58880102D01*
X143745000Y-59080061D01*
X143374275Y-59080061D01*
X143499174Y-59028327D01*
X143503216Y-58839664D01*
X143081000Y-58417448D01*
X142658784Y-58839664D01*
X141584349Y-58839664D01*
X141478000Y-58733315D01*
X141478000Y-56097498D01*
X142195887Y-56097498D01*
X142196116Y-56271828D01*
X142230351Y-56442764D01*
X142296173Y-56601674D01*
X142433126Y-56604608D01*
X142362813Y-56674921D01*
X142386392Y-56698500D01*
X142362813Y-56722079D01*
X142433126Y-56792392D01*
X142296173Y-56795326D01*
X142229672Y-56956474D01*
X142195887Y-57127498D01*
X142196116Y-57301828D01*
X142230351Y-57472764D01*
X142296173Y-57631674D01*
X142433126Y-57634608D01*
X142362813Y-57704921D01*
X142386392Y-57728500D01*
X142362813Y-57752079D01*
X142433126Y-57822392D01*
X142296173Y-57825326D01*
X142229672Y-57986474D01*
X142195887Y-58157498D01*
X142196116Y-58331828D01*
X142230351Y-58502764D01*
X142296173Y-58661674D01*
X142484836Y-58665716D01*
X142907052Y-58243500D01*
X142890081Y-58226529D01*
X143018027Y-58098583D01*
X143143808Y-58098418D01*
X143271919Y-58226529D01*
X143254948Y-58243500D01*
X143677164Y-58665716D01*
X143865827Y-58661674D01*
X143932328Y-58500526D01*
X143966113Y-58329502D01*
X143965884Y-58155172D01*
X143931649Y-57984236D01*
X143865827Y-57825326D01*
X143728874Y-57822392D01*
X143799187Y-57752079D01*
X143775608Y-57728500D01*
X143799187Y-57704921D01*
X143728874Y-57634608D01*
X143865827Y-57631674D01*
X143932328Y-57470526D01*
X143966113Y-57299502D01*
X143965884Y-57125172D01*
X143931649Y-56954236D01*
X143865827Y-56795326D01*
X143728874Y-56792392D01*
X143799187Y-56722079D01*
X143775608Y-56698500D01*
X143799187Y-56674921D01*
X143728874Y-56604608D01*
X143865827Y-56601674D01*
X143932328Y-56440526D01*
X143966113Y-56269502D01*
X143965884Y-56095172D01*
X143931649Y-55924236D01*
X143865827Y-55765326D01*
X143677164Y-55761284D01*
X143254948Y-56183500D01*
X143271919Y-56200471D01*
X143143973Y-56328417D01*
X143018192Y-56328582D01*
X142890081Y-56200471D01*
X142907052Y-56183500D01*
X142484836Y-55761284D01*
X142296173Y-55765326D01*
X142229672Y-55926474D01*
X142195887Y-56097498D01*
X141478000Y-56097498D01*
X141478000Y-55326001D01*
X142855938Y-55326001D01*
X142821736Y-55332851D01*
X142662826Y-55398673D01*
X142658784Y-55587336D01*
X143081000Y-56009552D01*
X143503216Y-55587336D01*
X143499174Y-55398673D01*
X143338026Y-55332172D01*
X143306788Y-55326001D01*
X143619894Y-55326001D01*
X143655999Y-55329557D01*
X143692104Y-55326001D01*
X143800084Y-55315366D01*
X143938632Y-55273338D01*
X143991649Y-55245000D01*
X148712969Y-55245000D01*
X148590440Y-59165945D01*
X148590440Y-59165945D01*
G37*
X148590440Y-59165945D02*
X148572256Y-59153795D01*
X148383898Y-59075774D01*
X148183939Y-59036000D01*
X147980061Y-59036000D01*
X147780102Y-59075774D01*
X147591744Y-59153795D01*
X147422226Y-59267063D01*
X147278063Y-59411226D01*
X147164795Y-59580744D01*
X147086774Y-59769102D01*
X147047000Y-59969061D01*
X147047000Y-60172939D01*
X147086774Y-60372898D01*
X147164795Y-60561256D01*
X147278063Y-60730774D01*
X147422226Y-60874937D01*
X147591744Y-60988205D01*
X147780102Y-61066226D01*
X147822116Y-61074583D01*
X147676226Y-61172063D01*
X147532063Y-61316226D01*
X147418795Y-61485744D01*
X147340774Y-61674102D01*
X147301000Y-61874061D01*
X147301000Y-62077939D01*
X147340774Y-62277898D01*
X147418795Y-62466256D01*
X147532063Y-62635774D01*
X147676226Y-62779937D01*
X147803532Y-62865000D01*
X147676226Y-62950063D01*
X147532063Y-63094226D01*
X147418795Y-63263744D01*
X147340774Y-63452102D01*
X147301000Y-63652061D01*
X147301000Y-63855939D01*
X147340774Y-64055898D01*
X147418795Y-64244256D01*
X147532063Y-64413774D01*
X147676226Y-64557937D01*
X147845744Y-64671205D01*
X148034102Y-64749226D01*
X148234061Y-64789000D01*
X148414719Y-64789000D01*
X148402602Y-65176744D01*
X148226244Y-65249795D01*
X148056726Y-65363063D01*
X147912563Y-65507226D01*
X147799295Y-65676744D01*
X147721274Y-65865102D01*
X147681500Y-66065061D01*
X147681500Y-66268939D01*
X147721274Y-66468898D01*
X147799295Y-66657256D01*
X147912563Y-66826774D01*
X148056726Y-66970937D01*
X148226244Y-67084205D01*
X148341502Y-67131947D01*
X148339907Y-67183000D01*
X141478000Y-67183000D01*
X141478000Y-61006214D01*
X141650581Y-60864581D01*
X141823656Y-60653688D01*
X141952264Y-60413080D01*
X142031460Y-60152007D01*
X142058200Y-59880500D01*
X142031460Y-59608992D01*
X141952264Y-59347919D01*
X141823656Y-59107312D01*
X141693952Y-58949267D01*
X141584349Y-58839664D01*
X142658784Y-58839664D01*
X142662826Y-59028327D01*
X142823974Y-59094828D01*
X142994998Y-59128613D01*
X143169328Y-59128384D01*
X143340264Y-59094149D01*
X143374275Y-59080061D01*
X143745000Y-59080061D01*
X143745000Y-59283939D01*
X143784774Y-59483898D01*
X143862795Y-59672256D01*
X143976063Y-59841774D01*
X144120226Y-59985937D01*
X144289744Y-60099205D01*
X144478102Y-60177226D01*
X144678061Y-60217000D01*
X144881939Y-60217000D01*
X145081898Y-60177226D01*
X145270256Y-60099205D01*
X145439774Y-59985937D01*
X145583937Y-59841774D01*
X145697205Y-59672256D01*
X145775226Y-59483898D01*
X145815000Y-59283939D01*
X145815000Y-59080061D01*
X145775226Y-58880102D01*
X145697205Y-58691744D01*
X145583937Y-58522226D01*
X145439774Y-58378063D01*
X145270256Y-58264795D01*
X145081898Y-58186774D01*
X144881939Y-58147000D01*
X144678061Y-58147000D01*
X144478102Y-58186774D01*
X144289744Y-58264795D01*
X144120226Y-58378063D01*
X143976063Y-58522226D01*
X143862795Y-58691744D01*
X143784774Y-58880102D01*
X143745000Y-59080061D01*
X143374275Y-59080061D01*
X143499174Y-59028327D01*
X143503216Y-58839664D01*
X143081000Y-58417448D01*
X142658784Y-58839664D01*
X141584349Y-58839664D01*
X141478000Y-58733315D01*
X141478000Y-56097498D01*
X142195887Y-56097498D01*
X142196116Y-56271828D01*
X142230351Y-56442764D01*
X142296173Y-56601674D01*
X142433126Y-56604608D01*
X142362813Y-56674921D01*
X142386392Y-56698500D01*
X142362813Y-56722079D01*
X142433126Y-56792392D01*
X142296173Y-56795326D01*
X142229672Y-56956474D01*
X142195887Y-57127498D01*
X142196116Y-57301828D01*
X142230351Y-57472764D01*
X142296173Y-57631674D01*
X142433126Y-57634608D01*
X142362813Y-57704921D01*
X142386392Y-57728500D01*
X142362813Y-57752079D01*
X142433126Y-57822392D01*
X142296173Y-57825326D01*
X142229672Y-57986474D01*
X142195887Y-58157498D01*
X142196116Y-58331828D01*
X142230351Y-58502764D01*
X142296173Y-58661674D01*
X142484836Y-58665716D01*
X142907052Y-58243500D01*
X142890081Y-58226529D01*
X143018027Y-58098583D01*
X143143808Y-58098418D01*
X143271919Y-58226529D01*
X143254948Y-58243500D01*
X143677164Y-58665716D01*
X143865827Y-58661674D01*
X143932328Y-58500526D01*
X143966113Y-58329502D01*
X143965884Y-58155172D01*
X143931649Y-57984236D01*
X143865827Y-57825326D01*
X143728874Y-57822392D01*
X143799187Y-57752079D01*
X143775608Y-57728500D01*
X143799187Y-57704921D01*
X143728874Y-57634608D01*
X143865827Y-57631674D01*
X143932328Y-57470526D01*
X143966113Y-57299502D01*
X143965884Y-57125172D01*
X143931649Y-56954236D01*
X143865827Y-56795326D01*
X143728874Y-56792392D01*
X143799187Y-56722079D01*
X143775608Y-56698500D01*
X143799187Y-56674921D01*
X143728874Y-56604608D01*
X143865827Y-56601674D01*
X143932328Y-56440526D01*
X143966113Y-56269502D01*
X143965884Y-56095172D01*
X143931649Y-55924236D01*
X143865827Y-55765326D01*
X143677164Y-55761284D01*
X143254948Y-56183500D01*
X143271919Y-56200471D01*
X143143973Y-56328417D01*
X143018192Y-56328582D01*
X142890081Y-56200471D01*
X142907052Y-56183500D01*
X142484836Y-55761284D01*
X142296173Y-55765326D01*
X142229672Y-55926474D01*
X142195887Y-56097498D01*
X141478000Y-56097498D01*
X141478000Y-55326001D01*
X142855938Y-55326001D01*
X142821736Y-55332851D01*
X142662826Y-55398673D01*
X142658784Y-55587336D01*
X143081000Y-56009552D01*
X143503216Y-55587336D01*
X143499174Y-55398673D01*
X143338026Y-55332172D01*
X143306788Y-55326001D01*
X143619894Y-55326001D01*
X143655999Y-55329557D01*
X143692104Y-55326001D01*
X143800084Y-55315366D01*
X143938632Y-55273338D01*
X143991649Y-55245000D01*
X148712969Y-55245000D01*
X148590440Y-59165945D01*
G36*
X143271919Y-57196529D02*
G01*
X143254948Y-57213500D01*
X143271919Y-57230471D01*
X143143973Y-57358417D01*
X143018192Y-57358582D01*
X142890081Y-57230471D01*
X142907052Y-57213500D01*
X142890081Y-57196529D01*
X143018027Y-57068583D01*
X143143808Y-57068418D01*
X143271919Y-57196529D01*
X143271919Y-57196529D01*
G37*
X143271919Y-57196529D02*
X143254948Y-57213500D01*
X143271919Y-57230471D01*
X143143973Y-57358417D01*
X143018192Y-57358582D01*
X142890081Y-57230471D01*
X142907052Y-57213500D01*
X142890081Y-57196529D01*
X143018027Y-57068583D01*
X143143808Y-57068418D01*
X143271919Y-57196529D01*
G36*
X113914374Y-105311302D02*
G01*
X113874600Y-105511261D01*
X113874600Y-105715139D01*
X113914374Y-105915098D01*
X113992395Y-106103456D01*
X114105663Y-106272974D01*
X114249826Y-106417137D01*
X114419344Y-106530405D01*
X114607702Y-106608426D01*
X114807661Y-106648200D01*
X115011539Y-106648200D01*
X115211498Y-106608426D01*
X115399856Y-106530405D01*
X115569374Y-106417137D01*
X115713537Y-106272974D01*
X115826805Y-106103456D01*
X115904826Y-105915098D01*
X115944600Y-105715139D01*
X115944600Y-105511261D01*
X115904826Y-105311302D01*
X115840497Y-105156000D01*
X118491000Y-105156000D01*
X118491000Y-119856645D01*
X117570645Y-120777000D01*
X105410000Y-120777000D01*
X105410000Y-117100150D01*
X105552882Y-117128571D01*
X105756760Y-117128571D01*
X105956719Y-117088797D01*
X106145077Y-117010776D01*
X106314595Y-116897508D01*
X106458758Y-116753345D01*
X106572026Y-116583827D01*
X106650047Y-116395469D01*
X106689821Y-116195510D01*
X106689821Y-115991632D01*
X106650047Y-115791673D01*
X106642255Y-115772861D01*
X114687400Y-115772861D01*
X114687400Y-115976739D01*
X114727174Y-116176698D01*
X114805195Y-116365056D01*
X114918463Y-116534574D01*
X115062626Y-116678737D01*
X115232144Y-116792005D01*
X115420502Y-116870026D01*
X115620461Y-116909800D01*
X115686833Y-116909800D01*
X115751143Y-117065056D01*
X115864411Y-117234574D01*
X116008574Y-117378737D01*
X116178092Y-117492005D01*
X116366450Y-117570026D01*
X116566409Y-117609800D01*
X116770287Y-117609800D01*
X116970246Y-117570026D01*
X117158604Y-117492005D01*
X117328122Y-117378737D01*
X117472285Y-117234574D01*
X117585553Y-117065056D01*
X117663574Y-116876698D01*
X117703348Y-116676739D01*
X117703348Y-116472861D01*
X117663574Y-116272902D01*
X117585553Y-116084544D01*
X117472285Y-115915026D01*
X117328122Y-115770863D01*
X117158604Y-115657595D01*
X116970246Y-115579574D01*
X116770287Y-115539800D01*
X116703915Y-115539800D01*
X116639605Y-115384544D01*
X116526337Y-115215026D01*
X116382174Y-115070863D01*
X116212656Y-114957595D01*
X116024298Y-114879574D01*
X115824339Y-114839800D01*
X115620461Y-114839800D01*
X115420502Y-114879574D01*
X115232144Y-114957595D01*
X115062626Y-115070863D01*
X114918463Y-115215026D01*
X114805195Y-115384544D01*
X114727174Y-115572902D01*
X114687400Y-115772861D01*
X106642255Y-115772861D01*
X106572026Y-115603315D01*
X106466753Y-115445762D01*
X106532226Y-115287698D01*
X106572000Y-115087739D01*
X106572000Y-114883861D01*
X106532226Y-114683902D01*
X106454205Y-114495544D01*
X106340937Y-114326026D01*
X106196774Y-114181863D01*
X106027256Y-114068595D01*
X105838898Y-113990574D01*
X105638939Y-113950800D01*
X105435061Y-113950800D01*
X105410000Y-113955785D01*
X105410000Y-112953461D01*
X105670400Y-112953461D01*
X105670400Y-113157339D01*
X105710174Y-113357298D01*
X105788195Y-113545656D01*
X105901463Y-113715174D01*
X106045626Y-113859337D01*
X106215144Y-113972605D01*
X106403502Y-114050626D01*
X106603461Y-114090400D01*
X106807339Y-114090400D01*
X107007298Y-114050626D01*
X107195656Y-113972605D01*
X107365174Y-113859337D01*
X107509337Y-113715174D01*
X107622605Y-113545656D01*
X107699564Y-113359861D01*
X109937600Y-113359861D01*
X109937600Y-113563739D01*
X109977374Y-113763698D01*
X110055395Y-113952056D01*
X110168663Y-114121574D01*
X110312826Y-114265737D01*
X110482344Y-114379005D01*
X110670702Y-114457026D01*
X110870661Y-114496800D01*
X111074539Y-114496800D01*
X111274498Y-114457026D01*
X111462856Y-114379005D01*
X111632374Y-114265737D01*
X111776537Y-114121574D01*
X111889805Y-113952056D01*
X111967826Y-113763698D01*
X112007600Y-113563739D01*
X112007600Y-113359861D01*
X111967826Y-113159902D01*
X111889805Y-112971544D01*
X111776537Y-112802026D01*
X111632374Y-112657863D01*
X111462856Y-112544595D01*
X111274498Y-112466574D01*
X111074539Y-112426800D01*
X110870661Y-112426800D01*
X110670702Y-112466574D01*
X110482344Y-112544595D01*
X110312826Y-112657863D01*
X110168663Y-112802026D01*
X110055395Y-112971544D01*
X109977374Y-113159902D01*
X109937600Y-113359861D01*
X107699564Y-113359861D01*
X107700626Y-113357298D01*
X107740400Y-113157339D01*
X107740400Y-112953461D01*
X107700626Y-112753502D01*
X107622605Y-112565144D01*
X107509337Y-112395626D01*
X107365174Y-112251463D01*
X107195656Y-112138195D01*
X107007298Y-112060174D01*
X106807339Y-112020400D01*
X106603461Y-112020400D01*
X106403502Y-112060174D01*
X106215144Y-112138195D01*
X106045626Y-112251463D01*
X105901463Y-112395626D01*
X105788195Y-112565144D01*
X105710174Y-112753502D01*
X105670400Y-112953461D01*
X105410000Y-112953461D01*
X105410000Y-105156000D01*
X113978703Y-105156000D01*
X113914374Y-105311302D01*
X113914374Y-105311302D01*
G37*
X113914374Y-105311302D02*
X113874600Y-105511261D01*
X113874600Y-105715139D01*
X113914374Y-105915098D01*
X113992395Y-106103456D01*
X114105663Y-106272974D01*
X114249826Y-106417137D01*
X114419344Y-106530405D01*
X114607702Y-106608426D01*
X114807661Y-106648200D01*
X115011539Y-106648200D01*
X115211498Y-106608426D01*
X115399856Y-106530405D01*
X115569374Y-106417137D01*
X115713537Y-106272974D01*
X115826805Y-106103456D01*
X115904826Y-105915098D01*
X115944600Y-105715139D01*
X115944600Y-105511261D01*
X115904826Y-105311302D01*
X115840497Y-105156000D01*
X118491000Y-105156000D01*
X118491000Y-119856645D01*
X117570645Y-120777000D01*
X105410000Y-120777000D01*
X105410000Y-117100150D01*
X105552882Y-117128571D01*
X105756760Y-117128571D01*
X105956719Y-117088797D01*
X106145077Y-117010776D01*
X106314595Y-116897508D01*
X106458758Y-116753345D01*
X106572026Y-116583827D01*
X106650047Y-116395469D01*
X106689821Y-116195510D01*
X106689821Y-115991632D01*
X106650047Y-115791673D01*
X106642255Y-115772861D01*
X114687400Y-115772861D01*
X114687400Y-115976739D01*
X114727174Y-116176698D01*
X114805195Y-116365056D01*
X114918463Y-116534574D01*
X115062626Y-116678737D01*
X115232144Y-116792005D01*
X115420502Y-116870026D01*
X115620461Y-116909800D01*
X115686833Y-116909800D01*
X115751143Y-117065056D01*
X115864411Y-117234574D01*
X116008574Y-117378737D01*
X116178092Y-117492005D01*
X116366450Y-117570026D01*
X116566409Y-117609800D01*
X116770287Y-117609800D01*
X116970246Y-117570026D01*
X117158604Y-117492005D01*
X117328122Y-117378737D01*
X117472285Y-117234574D01*
X117585553Y-117065056D01*
X117663574Y-116876698D01*
X117703348Y-116676739D01*
X117703348Y-116472861D01*
X117663574Y-116272902D01*
X117585553Y-116084544D01*
X117472285Y-115915026D01*
X117328122Y-115770863D01*
X117158604Y-115657595D01*
X116970246Y-115579574D01*
X116770287Y-115539800D01*
X116703915Y-115539800D01*
X116639605Y-115384544D01*
X116526337Y-115215026D01*
X116382174Y-115070863D01*
X116212656Y-114957595D01*
X116024298Y-114879574D01*
X115824339Y-114839800D01*
X115620461Y-114839800D01*
X115420502Y-114879574D01*
X115232144Y-114957595D01*
X115062626Y-115070863D01*
X114918463Y-115215026D01*
X114805195Y-115384544D01*
X114727174Y-115572902D01*
X114687400Y-115772861D01*
X106642255Y-115772861D01*
X106572026Y-115603315D01*
X106466753Y-115445762D01*
X106532226Y-115287698D01*
X106572000Y-115087739D01*
X106572000Y-114883861D01*
X106532226Y-114683902D01*
X106454205Y-114495544D01*
X106340937Y-114326026D01*
X106196774Y-114181863D01*
X106027256Y-114068595D01*
X105838898Y-113990574D01*
X105638939Y-113950800D01*
X105435061Y-113950800D01*
X105410000Y-113955785D01*
X105410000Y-112953461D01*
X105670400Y-112953461D01*
X105670400Y-113157339D01*
X105710174Y-113357298D01*
X105788195Y-113545656D01*
X105901463Y-113715174D01*
X106045626Y-113859337D01*
X106215144Y-113972605D01*
X106403502Y-114050626D01*
X106603461Y-114090400D01*
X106807339Y-114090400D01*
X107007298Y-114050626D01*
X107195656Y-113972605D01*
X107365174Y-113859337D01*
X107509337Y-113715174D01*
X107622605Y-113545656D01*
X107699564Y-113359861D01*
X109937600Y-113359861D01*
X109937600Y-113563739D01*
X109977374Y-113763698D01*
X110055395Y-113952056D01*
X110168663Y-114121574D01*
X110312826Y-114265737D01*
X110482344Y-114379005D01*
X110670702Y-114457026D01*
X110870661Y-114496800D01*
X111074539Y-114496800D01*
X111274498Y-114457026D01*
X111462856Y-114379005D01*
X111632374Y-114265737D01*
X111776537Y-114121574D01*
X111889805Y-113952056D01*
X111967826Y-113763698D01*
X112007600Y-113563739D01*
X112007600Y-113359861D01*
X111967826Y-113159902D01*
X111889805Y-112971544D01*
X111776537Y-112802026D01*
X111632374Y-112657863D01*
X111462856Y-112544595D01*
X111274498Y-112466574D01*
X111074539Y-112426800D01*
X110870661Y-112426800D01*
X110670702Y-112466574D01*
X110482344Y-112544595D01*
X110312826Y-112657863D01*
X110168663Y-112802026D01*
X110055395Y-112971544D01*
X109977374Y-113159902D01*
X109937600Y-113359861D01*
X107699564Y-113359861D01*
X107700626Y-113357298D01*
X107740400Y-113157339D01*
X107740400Y-112953461D01*
X107700626Y-112753502D01*
X107622605Y-112565144D01*
X107509337Y-112395626D01*
X107365174Y-112251463D01*
X107195656Y-112138195D01*
X107007298Y-112060174D01*
X106807339Y-112020400D01*
X106603461Y-112020400D01*
X106403502Y-112060174D01*
X106215144Y-112138195D01*
X106045626Y-112251463D01*
X105901463Y-112395626D01*
X105788195Y-112565144D01*
X105710174Y-112753502D01*
X105670400Y-112953461D01*
X105410000Y-112953461D01*
X105410000Y-105156000D01*
X113978703Y-105156000D01*
X113914374Y-105311302D01*
M02*
