G04 #@! TF.GenerationSoftware,KiCad,Pcbnew,(5.1.2)-1*
G04 #@! TF.CreationDate,2020-05-07T10:56:56-05:00*
G04 #@! TF.ProjectId,EMI_sensor_control_Rev2.0,454d495f-7365-46e7-936f-725f636f6e74,rev?*
G04 #@! TF.SameCoordinates,Original*
G04 #@! TF.FileFunction,Copper,L4,Bot*
G04 #@! TF.FilePolarity,Positive*
%FSLAX46Y46*%
G04 Gerber Fmt 4.6, Leading zero omitted, Abs format (unit mm)*
G04 Created by KiCad (PCBNEW (5.1.2)-1) date 2020-05-07 10:56:56*
%MOMM*%
%LPD*%
G04 APERTURE LIST*
%ADD10C,2.250000*%
%ADD11C,0.100000*%
%ADD12C,2.500000*%
%ADD13C,0.950000*%
%ADD14C,1.150000*%
%ADD15C,0.800000*%
%ADD16C,5.400000*%
%ADD17C,2.000000*%
%ADD18C,3.500000*%
%ADD19R,4.000000X3.850000*%
%ADD20C,1.440000*%
%ADD21C,0.500000*%
%ADD22C,1.500000*%
%ADD23C,0.750000*%
%ADD24C,0.250000*%
%ADD25C,0.200000*%
%ADD26C,1.500000*%
%ADD27C,0.254000*%
G04 APERTURE END LIST*
D10*
X50774600Y-68605400D03*
X53314600Y-66065400D03*
X48234600Y-66065400D03*
X48234600Y-71145400D03*
X53314600Y-71145400D03*
X238125000Y-82829400D03*
X243205000Y-82829400D03*
X243205000Y-87909400D03*
X238125000Y-87909400D03*
X240665000Y-85369400D03*
X240639600Y-118872000D03*
X238099600Y-121412000D03*
X243179600Y-121412000D03*
X243179600Y-116332000D03*
X238099600Y-116332000D03*
D11*
G36*
X99272904Y-97455604D02*
G01*
X99297173Y-97459204D01*
X99320971Y-97465165D01*
X99344071Y-97473430D01*
X99366249Y-97483920D01*
X99387293Y-97496533D01*
X99406998Y-97511147D01*
X99425177Y-97527623D01*
X99441653Y-97545802D01*
X99456267Y-97565507D01*
X99468880Y-97586551D01*
X99479370Y-97608729D01*
X99487635Y-97631829D01*
X99493596Y-97655627D01*
X99497196Y-97679896D01*
X99498400Y-97704400D01*
X99498400Y-99704400D01*
X99497196Y-99728904D01*
X99493596Y-99753173D01*
X99487635Y-99776971D01*
X99479370Y-99800071D01*
X99468880Y-99822249D01*
X99456267Y-99843293D01*
X99441653Y-99862998D01*
X99425177Y-99881177D01*
X99406998Y-99897653D01*
X99387293Y-99912267D01*
X99366249Y-99924880D01*
X99344071Y-99935370D01*
X99320971Y-99943635D01*
X99297173Y-99949596D01*
X99272904Y-99953196D01*
X99248400Y-99954400D01*
X95748400Y-99954400D01*
X95723896Y-99953196D01*
X95699627Y-99949596D01*
X95675829Y-99943635D01*
X95652729Y-99935370D01*
X95630551Y-99924880D01*
X95609507Y-99912267D01*
X95589802Y-99897653D01*
X95571623Y-99881177D01*
X95555147Y-99862998D01*
X95540533Y-99843293D01*
X95527920Y-99822249D01*
X95517430Y-99800071D01*
X95509165Y-99776971D01*
X95503204Y-99753173D01*
X95499604Y-99728904D01*
X95498400Y-99704400D01*
X95498400Y-97704400D01*
X95499604Y-97679896D01*
X95503204Y-97655627D01*
X95509165Y-97631829D01*
X95517430Y-97608729D01*
X95527920Y-97586551D01*
X95540533Y-97565507D01*
X95555147Y-97545802D01*
X95571623Y-97527623D01*
X95589802Y-97511147D01*
X95609507Y-97496533D01*
X95630551Y-97483920D01*
X95652729Y-97473430D01*
X95675829Y-97465165D01*
X95699627Y-97459204D01*
X95723896Y-97455604D01*
X95748400Y-97454400D01*
X99248400Y-97454400D01*
X99272904Y-97455604D01*
X99272904Y-97455604D01*
G37*
D12*
X97498400Y-98704400D03*
D11*
G36*
X107272904Y-97455604D02*
G01*
X107297173Y-97459204D01*
X107320971Y-97465165D01*
X107344071Y-97473430D01*
X107366249Y-97483920D01*
X107387293Y-97496533D01*
X107406998Y-97511147D01*
X107425177Y-97527623D01*
X107441653Y-97545802D01*
X107456267Y-97565507D01*
X107468880Y-97586551D01*
X107479370Y-97608729D01*
X107487635Y-97631829D01*
X107493596Y-97655627D01*
X107497196Y-97679896D01*
X107498400Y-97704400D01*
X107498400Y-99704400D01*
X107497196Y-99728904D01*
X107493596Y-99753173D01*
X107487635Y-99776971D01*
X107479370Y-99800071D01*
X107468880Y-99822249D01*
X107456267Y-99843293D01*
X107441653Y-99862998D01*
X107425177Y-99881177D01*
X107406998Y-99897653D01*
X107387293Y-99912267D01*
X107366249Y-99924880D01*
X107344071Y-99935370D01*
X107320971Y-99943635D01*
X107297173Y-99949596D01*
X107272904Y-99953196D01*
X107248400Y-99954400D01*
X103748400Y-99954400D01*
X103723896Y-99953196D01*
X103699627Y-99949596D01*
X103675829Y-99943635D01*
X103652729Y-99935370D01*
X103630551Y-99924880D01*
X103609507Y-99912267D01*
X103589802Y-99897653D01*
X103571623Y-99881177D01*
X103555147Y-99862998D01*
X103540533Y-99843293D01*
X103527920Y-99822249D01*
X103517430Y-99800071D01*
X103509165Y-99776971D01*
X103503204Y-99753173D01*
X103499604Y-99728904D01*
X103498400Y-99704400D01*
X103498400Y-97704400D01*
X103499604Y-97679896D01*
X103503204Y-97655627D01*
X103509165Y-97631829D01*
X103517430Y-97608729D01*
X103527920Y-97586551D01*
X103540533Y-97565507D01*
X103555147Y-97545802D01*
X103571623Y-97527623D01*
X103589802Y-97511147D01*
X103609507Y-97496533D01*
X103630551Y-97483920D01*
X103652729Y-97473430D01*
X103675829Y-97465165D01*
X103699627Y-97459204D01*
X103723896Y-97455604D01*
X103748400Y-97454400D01*
X107248400Y-97454400D01*
X107272904Y-97455604D01*
X107272904Y-97455604D01*
G37*
D12*
X105498400Y-98704400D03*
D11*
G36*
X134044504Y-84958804D02*
G01*
X134068773Y-84962404D01*
X134092571Y-84968365D01*
X134115671Y-84976630D01*
X134137849Y-84987120D01*
X134158893Y-84999733D01*
X134178598Y-85014347D01*
X134196777Y-85030823D01*
X134213253Y-85049002D01*
X134227867Y-85068707D01*
X134240480Y-85089751D01*
X134250970Y-85111929D01*
X134259235Y-85135029D01*
X134265196Y-85158827D01*
X134268796Y-85183096D01*
X134270000Y-85207600D01*
X134270000Y-87207600D01*
X134268796Y-87232104D01*
X134265196Y-87256373D01*
X134259235Y-87280171D01*
X134250970Y-87303271D01*
X134240480Y-87325449D01*
X134227867Y-87346493D01*
X134213253Y-87366198D01*
X134196777Y-87384377D01*
X134178598Y-87400853D01*
X134158893Y-87415467D01*
X134137849Y-87428080D01*
X134115671Y-87438570D01*
X134092571Y-87446835D01*
X134068773Y-87452796D01*
X134044504Y-87456396D01*
X134020000Y-87457600D01*
X130520000Y-87457600D01*
X130495496Y-87456396D01*
X130471227Y-87452796D01*
X130447429Y-87446835D01*
X130424329Y-87438570D01*
X130402151Y-87428080D01*
X130381107Y-87415467D01*
X130361402Y-87400853D01*
X130343223Y-87384377D01*
X130326747Y-87366198D01*
X130312133Y-87346493D01*
X130299520Y-87325449D01*
X130289030Y-87303271D01*
X130280765Y-87280171D01*
X130274804Y-87256373D01*
X130271204Y-87232104D01*
X130270000Y-87207600D01*
X130270000Y-85207600D01*
X130271204Y-85183096D01*
X130274804Y-85158827D01*
X130280765Y-85135029D01*
X130289030Y-85111929D01*
X130299520Y-85089751D01*
X130312133Y-85068707D01*
X130326747Y-85049002D01*
X130343223Y-85030823D01*
X130361402Y-85014347D01*
X130381107Y-84999733D01*
X130402151Y-84987120D01*
X130424329Y-84976630D01*
X130447429Y-84968365D01*
X130471227Y-84962404D01*
X130495496Y-84958804D01*
X130520000Y-84957600D01*
X134020000Y-84957600D01*
X134044504Y-84958804D01*
X134044504Y-84958804D01*
G37*
D12*
X132270000Y-86207600D03*
D11*
G36*
X126044504Y-84958804D02*
G01*
X126068773Y-84962404D01*
X126092571Y-84968365D01*
X126115671Y-84976630D01*
X126137849Y-84987120D01*
X126158893Y-84999733D01*
X126178598Y-85014347D01*
X126196777Y-85030823D01*
X126213253Y-85049002D01*
X126227867Y-85068707D01*
X126240480Y-85089751D01*
X126250970Y-85111929D01*
X126259235Y-85135029D01*
X126265196Y-85158827D01*
X126268796Y-85183096D01*
X126270000Y-85207600D01*
X126270000Y-87207600D01*
X126268796Y-87232104D01*
X126265196Y-87256373D01*
X126259235Y-87280171D01*
X126250970Y-87303271D01*
X126240480Y-87325449D01*
X126227867Y-87346493D01*
X126213253Y-87366198D01*
X126196777Y-87384377D01*
X126178598Y-87400853D01*
X126158893Y-87415467D01*
X126137849Y-87428080D01*
X126115671Y-87438570D01*
X126092571Y-87446835D01*
X126068773Y-87452796D01*
X126044504Y-87456396D01*
X126020000Y-87457600D01*
X122520000Y-87457600D01*
X122495496Y-87456396D01*
X122471227Y-87452796D01*
X122447429Y-87446835D01*
X122424329Y-87438570D01*
X122402151Y-87428080D01*
X122381107Y-87415467D01*
X122361402Y-87400853D01*
X122343223Y-87384377D01*
X122326747Y-87366198D01*
X122312133Y-87346493D01*
X122299520Y-87325449D01*
X122289030Y-87303271D01*
X122280765Y-87280171D01*
X122274804Y-87256373D01*
X122271204Y-87232104D01*
X122270000Y-87207600D01*
X122270000Y-85207600D01*
X122271204Y-85183096D01*
X122274804Y-85158827D01*
X122280765Y-85135029D01*
X122289030Y-85111929D01*
X122299520Y-85089751D01*
X122312133Y-85068707D01*
X122326747Y-85049002D01*
X122343223Y-85030823D01*
X122361402Y-85014347D01*
X122381107Y-84999733D01*
X122402151Y-84987120D01*
X122424329Y-84976630D01*
X122447429Y-84968365D01*
X122471227Y-84962404D01*
X122495496Y-84958804D01*
X122520000Y-84957600D01*
X126020000Y-84957600D01*
X126044504Y-84958804D01*
X126044504Y-84958804D01*
G37*
D12*
X124270000Y-86207600D03*
D11*
G36*
X109887179Y-84848144D02*
G01*
X109910234Y-84851563D01*
X109932843Y-84857227D01*
X109954787Y-84865079D01*
X109975857Y-84875044D01*
X109995848Y-84887026D01*
X110014568Y-84900910D01*
X110031838Y-84916562D01*
X110047490Y-84933832D01*
X110061374Y-84952552D01*
X110073356Y-84972543D01*
X110083321Y-84993613D01*
X110091173Y-85015557D01*
X110096837Y-85038166D01*
X110100256Y-85061221D01*
X110101400Y-85084500D01*
X110101400Y-85659500D01*
X110100256Y-85682779D01*
X110096837Y-85705834D01*
X110091173Y-85728443D01*
X110083321Y-85750387D01*
X110073356Y-85771457D01*
X110061374Y-85791448D01*
X110047490Y-85810168D01*
X110031838Y-85827438D01*
X110014568Y-85843090D01*
X109995848Y-85856974D01*
X109975857Y-85868956D01*
X109954787Y-85878921D01*
X109932843Y-85886773D01*
X109910234Y-85892437D01*
X109887179Y-85895856D01*
X109863900Y-85897000D01*
X109388900Y-85897000D01*
X109365621Y-85895856D01*
X109342566Y-85892437D01*
X109319957Y-85886773D01*
X109298013Y-85878921D01*
X109276943Y-85868956D01*
X109256952Y-85856974D01*
X109238232Y-85843090D01*
X109220962Y-85827438D01*
X109205310Y-85810168D01*
X109191426Y-85791448D01*
X109179444Y-85771457D01*
X109169479Y-85750387D01*
X109161627Y-85728443D01*
X109155963Y-85705834D01*
X109152544Y-85682779D01*
X109151400Y-85659500D01*
X109151400Y-85084500D01*
X109152544Y-85061221D01*
X109155963Y-85038166D01*
X109161627Y-85015557D01*
X109169479Y-84993613D01*
X109179444Y-84972543D01*
X109191426Y-84952552D01*
X109205310Y-84933832D01*
X109220962Y-84916562D01*
X109238232Y-84900910D01*
X109256952Y-84887026D01*
X109276943Y-84875044D01*
X109298013Y-84865079D01*
X109319957Y-84857227D01*
X109342566Y-84851563D01*
X109365621Y-84848144D01*
X109388900Y-84847000D01*
X109863900Y-84847000D01*
X109887179Y-84848144D01*
X109887179Y-84848144D01*
G37*
D13*
X109626400Y-85372000D03*
D11*
G36*
X109887179Y-86598144D02*
G01*
X109910234Y-86601563D01*
X109932843Y-86607227D01*
X109954787Y-86615079D01*
X109975857Y-86625044D01*
X109995848Y-86637026D01*
X110014568Y-86650910D01*
X110031838Y-86666562D01*
X110047490Y-86683832D01*
X110061374Y-86702552D01*
X110073356Y-86722543D01*
X110083321Y-86743613D01*
X110091173Y-86765557D01*
X110096837Y-86788166D01*
X110100256Y-86811221D01*
X110101400Y-86834500D01*
X110101400Y-87409500D01*
X110100256Y-87432779D01*
X110096837Y-87455834D01*
X110091173Y-87478443D01*
X110083321Y-87500387D01*
X110073356Y-87521457D01*
X110061374Y-87541448D01*
X110047490Y-87560168D01*
X110031838Y-87577438D01*
X110014568Y-87593090D01*
X109995848Y-87606974D01*
X109975857Y-87618956D01*
X109954787Y-87628921D01*
X109932843Y-87636773D01*
X109910234Y-87642437D01*
X109887179Y-87645856D01*
X109863900Y-87647000D01*
X109388900Y-87647000D01*
X109365621Y-87645856D01*
X109342566Y-87642437D01*
X109319957Y-87636773D01*
X109298013Y-87628921D01*
X109276943Y-87618956D01*
X109256952Y-87606974D01*
X109238232Y-87593090D01*
X109220962Y-87577438D01*
X109205310Y-87560168D01*
X109191426Y-87541448D01*
X109179444Y-87521457D01*
X109169479Y-87500387D01*
X109161627Y-87478443D01*
X109155963Y-87455834D01*
X109152544Y-87432779D01*
X109151400Y-87409500D01*
X109151400Y-86834500D01*
X109152544Y-86811221D01*
X109155963Y-86788166D01*
X109161627Y-86765557D01*
X109169479Y-86743613D01*
X109179444Y-86722543D01*
X109191426Y-86702552D01*
X109205310Y-86683832D01*
X109220962Y-86666562D01*
X109238232Y-86650910D01*
X109256952Y-86637026D01*
X109276943Y-86625044D01*
X109298013Y-86615079D01*
X109319957Y-86607227D01*
X109342566Y-86601563D01*
X109365621Y-86598144D01*
X109388900Y-86597000D01*
X109863900Y-86597000D01*
X109887179Y-86598144D01*
X109887179Y-86598144D01*
G37*
D13*
X109626400Y-87122000D03*
D11*
G36*
X114255979Y-84848144D02*
G01*
X114279034Y-84851563D01*
X114301643Y-84857227D01*
X114323587Y-84865079D01*
X114344657Y-84875044D01*
X114364648Y-84887026D01*
X114383368Y-84900910D01*
X114400638Y-84916562D01*
X114416290Y-84933832D01*
X114430174Y-84952552D01*
X114442156Y-84972543D01*
X114452121Y-84993613D01*
X114459973Y-85015557D01*
X114465637Y-85038166D01*
X114469056Y-85061221D01*
X114470200Y-85084500D01*
X114470200Y-85659500D01*
X114469056Y-85682779D01*
X114465637Y-85705834D01*
X114459973Y-85728443D01*
X114452121Y-85750387D01*
X114442156Y-85771457D01*
X114430174Y-85791448D01*
X114416290Y-85810168D01*
X114400638Y-85827438D01*
X114383368Y-85843090D01*
X114364648Y-85856974D01*
X114344657Y-85868956D01*
X114323587Y-85878921D01*
X114301643Y-85886773D01*
X114279034Y-85892437D01*
X114255979Y-85895856D01*
X114232700Y-85897000D01*
X113757700Y-85897000D01*
X113734421Y-85895856D01*
X113711366Y-85892437D01*
X113688757Y-85886773D01*
X113666813Y-85878921D01*
X113645743Y-85868956D01*
X113625752Y-85856974D01*
X113607032Y-85843090D01*
X113589762Y-85827438D01*
X113574110Y-85810168D01*
X113560226Y-85791448D01*
X113548244Y-85771457D01*
X113538279Y-85750387D01*
X113530427Y-85728443D01*
X113524763Y-85705834D01*
X113521344Y-85682779D01*
X113520200Y-85659500D01*
X113520200Y-85084500D01*
X113521344Y-85061221D01*
X113524763Y-85038166D01*
X113530427Y-85015557D01*
X113538279Y-84993613D01*
X113548244Y-84972543D01*
X113560226Y-84952552D01*
X113574110Y-84933832D01*
X113589762Y-84916562D01*
X113607032Y-84900910D01*
X113625752Y-84887026D01*
X113645743Y-84875044D01*
X113666813Y-84865079D01*
X113688757Y-84857227D01*
X113711366Y-84851563D01*
X113734421Y-84848144D01*
X113757700Y-84847000D01*
X114232700Y-84847000D01*
X114255979Y-84848144D01*
X114255979Y-84848144D01*
G37*
D13*
X113995200Y-85372000D03*
D11*
G36*
X114255979Y-86598144D02*
G01*
X114279034Y-86601563D01*
X114301643Y-86607227D01*
X114323587Y-86615079D01*
X114344657Y-86625044D01*
X114364648Y-86637026D01*
X114383368Y-86650910D01*
X114400638Y-86666562D01*
X114416290Y-86683832D01*
X114430174Y-86702552D01*
X114442156Y-86722543D01*
X114452121Y-86743613D01*
X114459973Y-86765557D01*
X114465637Y-86788166D01*
X114469056Y-86811221D01*
X114470200Y-86834500D01*
X114470200Y-87409500D01*
X114469056Y-87432779D01*
X114465637Y-87455834D01*
X114459973Y-87478443D01*
X114452121Y-87500387D01*
X114442156Y-87521457D01*
X114430174Y-87541448D01*
X114416290Y-87560168D01*
X114400638Y-87577438D01*
X114383368Y-87593090D01*
X114364648Y-87606974D01*
X114344657Y-87618956D01*
X114323587Y-87628921D01*
X114301643Y-87636773D01*
X114279034Y-87642437D01*
X114255979Y-87645856D01*
X114232700Y-87647000D01*
X113757700Y-87647000D01*
X113734421Y-87645856D01*
X113711366Y-87642437D01*
X113688757Y-87636773D01*
X113666813Y-87628921D01*
X113645743Y-87618956D01*
X113625752Y-87606974D01*
X113607032Y-87593090D01*
X113589762Y-87577438D01*
X113574110Y-87560168D01*
X113560226Y-87541448D01*
X113548244Y-87521457D01*
X113538279Y-87500387D01*
X113530427Y-87478443D01*
X113524763Y-87455834D01*
X113521344Y-87432779D01*
X113520200Y-87409500D01*
X113520200Y-86834500D01*
X113521344Y-86811221D01*
X113524763Y-86788166D01*
X113530427Y-86765557D01*
X113538279Y-86743613D01*
X113548244Y-86722543D01*
X113560226Y-86702552D01*
X113574110Y-86683832D01*
X113589762Y-86666562D01*
X113607032Y-86650910D01*
X113625752Y-86637026D01*
X113645743Y-86625044D01*
X113666813Y-86615079D01*
X113688757Y-86607227D01*
X113711366Y-86601563D01*
X113734421Y-86598144D01*
X113757700Y-86597000D01*
X114232700Y-86597000D01*
X114255979Y-86598144D01*
X114255979Y-86598144D01*
G37*
D13*
X113995200Y-87122000D03*
D11*
G36*
X111512779Y-86598144D02*
G01*
X111535834Y-86601563D01*
X111558443Y-86607227D01*
X111580387Y-86615079D01*
X111601457Y-86625044D01*
X111621448Y-86637026D01*
X111640168Y-86650910D01*
X111657438Y-86666562D01*
X111673090Y-86683832D01*
X111686974Y-86702552D01*
X111698956Y-86722543D01*
X111708921Y-86743613D01*
X111716773Y-86765557D01*
X111722437Y-86788166D01*
X111725856Y-86811221D01*
X111727000Y-86834500D01*
X111727000Y-87409500D01*
X111725856Y-87432779D01*
X111722437Y-87455834D01*
X111716773Y-87478443D01*
X111708921Y-87500387D01*
X111698956Y-87521457D01*
X111686974Y-87541448D01*
X111673090Y-87560168D01*
X111657438Y-87577438D01*
X111640168Y-87593090D01*
X111621448Y-87606974D01*
X111601457Y-87618956D01*
X111580387Y-87628921D01*
X111558443Y-87636773D01*
X111535834Y-87642437D01*
X111512779Y-87645856D01*
X111489500Y-87647000D01*
X111014500Y-87647000D01*
X110991221Y-87645856D01*
X110968166Y-87642437D01*
X110945557Y-87636773D01*
X110923613Y-87628921D01*
X110902543Y-87618956D01*
X110882552Y-87606974D01*
X110863832Y-87593090D01*
X110846562Y-87577438D01*
X110830910Y-87560168D01*
X110817026Y-87541448D01*
X110805044Y-87521457D01*
X110795079Y-87500387D01*
X110787227Y-87478443D01*
X110781563Y-87455834D01*
X110778144Y-87432779D01*
X110777000Y-87409500D01*
X110777000Y-86834500D01*
X110778144Y-86811221D01*
X110781563Y-86788166D01*
X110787227Y-86765557D01*
X110795079Y-86743613D01*
X110805044Y-86722543D01*
X110817026Y-86702552D01*
X110830910Y-86683832D01*
X110846562Y-86666562D01*
X110863832Y-86650910D01*
X110882552Y-86637026D01*
X110902543Y-86625044D01*
X110923613Y-86615079D01*
X110945557Y-86607227D01*
X110968166Y-86601563D01*
X110991221Y-86598144D01*
X111014500Y-86597000D01*
X111489500Y-86597000D01*
X111512779Y-86598144D01*
X111512779Y-86598144D01*
G37*
D13*
X111252000Y-87122000D03*
D11*
G36*
X111512779Y-84848144D02*
G01*
X111535834Y-84851563D01*
X111558443Y-84857227D01*
X111580387Y-84865079D01*
X111601457Y-84875044D01*
X111621448Y-84887026D01*
X111640168Y-84900910D01*
X111657438Y-84916562D01*
X111673090Y-84933832D01*
X111686974Y-84952552D01*
X111698956Y-84972543D01*
X111708921Y-84993613D01*
X111716773Y-85015557D01*
X111722437Y-85038166D01*
X111725856Y-85061221D01*
X111727000Y-85084500D01*
X111727000Y-85659500D01*
X111725856Y-85682779D01*
X111722437Y-85705834D01*
X111716773Y-85728443D01*
X111708921Y-85750387D01*
X111698956Y-85771457D01*
X111686974Y-85791448D01*
X111673090Y-85810168D01*
X111657438Y-85827438D01*
X111640168Y-85843090D01*
X111621448Y-85856974D01*
X111601457Y-85868956D01*
X111580387Y-85878921D01*
X111558443Y-85886773D01*
X111535834Y-85892437D01*
X111512779Y-85895856D01*
X111489500Y-85897000D01*
X111014500Y-85897000D01*
X110991221Y-85895856D01*
X110968166Y-85892437D01*
X110945557Y-85886773D01*
X110923613Y-85878921D01*
X110902543Y-85868956D01*
X110882552Y-85856974D01*
X110863832Y-85843090D01*
X110846562Y-85827438D01*
X110830910Y-85810168D01*
X110817026Y-85791448D01*
X110805044Y-85771457D01*
X110795079Y-85750387D01*
X110787227Y-85728443D01*
X110781563Y-85705834D01*
X110778144Y-85682779D01*
X110777000Y-85659500D01*
X110777000Y-85084500D01*
X110778144Y-85061221D01*
X110781563Y-85038166D01*
X110787227Y-85015557D01*
X110795079Y-84993613D01*
X110805044Y-84972543D01*
X110817026Y-84952552D01*
X110830910Y-84933832D01*
X110846562Y-84916562D01*
X110863832Y-84900910D01*
X110882552Y-84887026D01*
X110902543Y-84875044D01*
X110923613Y-84865079D01*
X110945557Y-84857227D01*
X110968166Y-84851563D01*
X110991221Y-84848144D01*
X111014500Y-84847000D01*
X111489500Y-84847000D01*
X111512779Y-84848144D01*
X111512779Y-84848144D01*
G37*
D13*
X111252000Y-85372000D03*
D11*
G36*
X116491179Y-84848144D02*
G01*
X116514234Y-84851563D01*
X116536843Y-84857227D01*
X116558787Y-84865079D01*
X116579857Y-84875044D01*
X116599848Y-84887026D01*
X116618568Y-84900910D01*
X116635838Y-84916562D01*
X116651490Y-84933832D01*
X116665374Y-84952552D01*
X116677356Y-84972543D01*
X116687321Y-84993613D01*
X116695173Y-85015557D01*
X116700837Y-85038166D01*
X116704256Y-85061221D01*
X116705400Y-85084500D01*
X116705400Y-85659500D01*
X116704256Y-85682779D01*
X116700837Y-85705834D01*
X116695173Y-85728443D01*
X116687321Y-85750387D01*
X116677356Y-85771457D01*
X116665374Y-85791448D01*
X116651490Y-85810168D01*
X116635838Y-85827438D01*
X116618568Y-85843090D01*
X116599848Y-85856974D01*
X116579857Y-85868956D01*
X116558787Y-85878921D01*
X116536843Y-85886773D01*
X116514234Y-85892437D01*
X116491179Y-85895856D01*
X116467900Y-85897000D01*
X115992900Y-85897000D01*
X115969621Y-85895856D01*
X115946566Y-85892437D01*
X115923957Y-85886773D01*
X115902013Y-85878921D01*
X115880943Y-85868956D01*
X115860952Y-85856974D01*
X115842232Y-85843090D01*
X115824962Y-85827438D01*
X115809310Y-85810168D01*
X115795426Y-85791448D01*
X115783444Y-85771457D01*
X115773479Y-85750387D01*
X115765627Y-85728443D01*
X115759963Y-85705834D01*
X115756544Y-85682779D01*
X115755400Y-85659500D01*
X115755400Y-85084500D01*
X115756544Y-85061221D01*
X115759963Y-85038166D01*
X115765627Y-85015557D01*
X115773479Y-84993613D01*
X115783444Y-84972543D01*
X115795426Y-84952552D01*
X115809310Y-84933832D01*
X115824962Y-84916562D01*
X115842232Y-84900910D01*
X115860952Y-84887026D01*
X115880943Y-84875044D01*
X115902013Y-84865079D01*
X115923957Y-84857227D01*
X115946566Y-84851563D01*
X115969621Y-84848144D01*
X115992900Y-84847000D01*
X116467900Y-84847000D01*
X116491179Y-84848144D01*
X116491179Y-84848144D01*
G37*
D13*
X116230400Y-85372000D03*
D11*
G36*
X116491179Y-86598144D02*
G01*
X116514234Y-86601563D01*
X116536843Y-86607227D01*
X116558787Y-86615079D01*
X116579857Y-86625044D01*
X116599848Y-86637026D01*
X116618568Y-86650910D01*
X116635838Y-86666562D01*
X116651490Y-86683832D01*
X116665374Y-86702552D01*
X116677356Y-86722543D01*
X116687321Y-86743613D01*
X116695173Y-86765557D01*
X116700837Y-86788166D01*
X116704256Y-86811221D01*
X116705400Y-86834500D01*
X116705400Y-87409500D01*
X116704256Y-87432779D01*
X116700837Y-87455834D01*
X116695173Y-87478443D01*
X116687321Y-87500387D01*
X116677356Y-87521457D01*
X116665374Y-87541448D01*
X116651490Y-87560168D01*
X116635838Y-87577438D01*
X116618568Y-87593090D01*
X116599848Y-87606974D01*
X116579857Y-87618956D01*
X116558787Y-87628921D01*
X116536843Y-87636773D01*
X116514234Y-87642437D01*
X116491179Y-87645856D01*
X116467900Y-87647000D01*
X115992900Y-87647000D01*
X115969621Y-87645856D01*
X115946566Y-87642437D01*
X115923957Y-87636773D01*
X115902013Y-87628921D01*
X115880943Y-87618956D01*
X115860952Y-87606974D01*
X115842232Y-87593090D01*
X115824962Y-87577438D01*
X115809310Y-87560168D01*
X115795426Y-87541448D01*
X115783444Y-87521457D01*
X115773479Y-87500387D01*
X115765627Y-87478443D01*
X115759963Y-87455834D01*
X115756544Y-87432779D01*
X115755400Y-87409500D01*
X115755400Y-86834500D01*
X115756544Y-86811221D01*
X115759963Y-86788166D01*
X115765627Y-86765557D01*
X115773479Y-86743613D01*
X115783444Y-86722543D01*
X115795426Y-86702552D01*
X115809310Y-86683832D01*
X115824962Y-86666562D01*
X115842232Y-86650910D01*
X115860952Y-86637026D01*
X115880943Y-86625044D01*
X115902013Y-86615079D01*
X115923957Y-86607227D01*
X115946566Y-86601563D01*
X115969621Y-86598144D01*
X115992900Y-86597000D01*
X116467900Y-86597000D01*
X116491179Y-86598144D01*
X116491179Y-86598144D01*
G37*
D13*
X116230400Y-87122000D03*
D11*
G36*
X119295705Y-81459204D02*
G01*
X119319973Y-81462804D01*
X119343772Y-81468765D01*
X119366871Y-81477030D01*
X119389050Y-81487520D01*
X119410093Y-81500132D01*
X119429799Y-81514747D01*
X119447977Y-81531223D01*
X119464453Y-81549401D01*
X119479068Y-81569107D01*
X119491680Y-81590150D01*
X119502170Y-81612329D01*
X119510435Y-81635428D01*
X119516396Y-81659227D01*
X119519996Y-81683495D01*
X119521200Y-81707999D01*
X119521200Y-82358001D01*
X119519996Y-82382505D01*
X119516396Y-82406773D01*
X119510435Y-82430572D01*
X119502170Y-82453671D01*
X119491680Y-82475850D01*
X119479068Y-82496893D01*
X119464453Y-82516599D01*
X119447977Y-82534777D01*
X119429799Y-82551253D01*
X119410093Y-82565868D01*
X119389050Y-82578480D01*
X119366871Y-82588970D01*
X119343772Y-82597235D01*
X119319973Y-82603196D01*
X119295705Y-82606796D01*
X119271201Y-82608000D01*
X118371199Y-82608000D01*
X118346695Y-82606796D01*
X118322427Y-82603196D01*
X118298628Y-82597235D01*
X118275529Y-82588970D01*
X118253350Y-82578480D01*
X118232307Y-82565868D01*
X118212601Y-82551253D01*
X118194423Y-82534777D01*
X118177947Y-82516599D01*
X118163332Y-82496893D01*
X118150720Y-82475850D01*
X118140230Y-82453671D01*
X118131965Y-82430572D01*
X118126004Y-82406773D01*
X118122404Y-82382505D01*
X118121200Y-82358001D01*
X118121200Y-81707999D01*
X118122404Y-81683495D01*
X118126004Y-81659227D01*
X118131965Y-81635428D01*
X118140230Y-81612329D01*
X118150720Y-81590150D01*
X118163332Y-81569107D01*
X118177947Y-81549401D01*
X118194423Y-81531223D01*
X118212601Y-81514747D01*
X118232307Y-81500132D01*
X118253350Y-81487520D01*
X118275529Y-81477030D01*
X118298628Y-81468765D01*
X118322427Y-81462804D01*
X118346695Y-81459204D01*
X118371199Y-81458000D01*
X119271201Y-81458000D01*
X119295705Y-81459204D01*
X119295705Y-81459204D01*
G37*
D14*
X118821200Y-82033000D03*
D11*
G36*
X119295705Y-83509204D02*
G01*
X119319973Y-83512804D01*
X119343772Y-83518765D01*
X119366871Y-83527030D01*
X119389050Y-83537520D01*
X119410093Y-83550132D01*
X119429799Y-83564747D01*
X119447977Y-83581223D01*
X119464453Y-83599401D01*
X119479068Y-83619107D01*
X119491680Y-83640150D01*
X119502170Y-83662329D01*
X119510435Y-83685428D01*
X119516396Y-83709227D01*
X119519996Y-83733495D01*
X119521200Y-83757999D01*
X119521200Y-84408001D01*
X119519996Y-84432505D01*
X119516396Y-84456773D01*
X119510435Y-84480572D01*
X119502170Y-84503671D01*
X119491680Y-84525850D01*
X119479068Y-84546893D01*
X119464453Y-84566599D01*
X119447977Y-84584777D01*
X119429799Y-84601253D01*
X119410093Y-84615868D01*
X119389050Y-84628480D01*
X119366871Y-84638970D01*
X119343772Y-84647235D01*
X119319973Y-84653196D01*
X119295705Y-84656796D01*
X119271201Y-84658000D01*
X118371199Y-84658000D01*
X118346695Y-84656796D01*
X118322427Y-84653196D01*
X118298628Y-84647235D01*
X118275529Y-84638970D01*
X118253350Y-84628480D01*
X118232307Y-84615868D01*
X118212601Y-84601253D01*
X118194423Y-84584777D01*
X118177947Y-84566599D01*
X118163332Y-84546893D01*
X118150720Y-84525850D01*
X118140230Y-84503671D01*
X118131965Y-84480572D01*
X118126004Y-84456773D01*
X118122404Y-84432505D01*
X118121200Y-84408001D01*
X118121200Y-83757999D01*
X118122404Y-83733495D01*
X118126004Y-83709227D01*
X118131965Y-83685428D01*
X118140230Y-83662329D01*
X118150720Y-83640150D01*
X118163332Y-83619107D01*
X118177947Y-83599401D01*
X118194423Y-83581223D01*
X118212601Y-83564747D01*
X118232307Y-83550132D01*
X118253350Y-83537520D01*
X118275529Y-83527030D01*
X118298628Y-83518765D01*
X118322427Y-83512804D01*
X118346695Y-83509204D01*
X118371199Y-83508000D01*
X119271201Y-83508000D01*
X119295705Y-83509204D01*
X119295705Y-83509204D01*
G37*
D14*
X118821200Y-84083000D03*
D15*
X52168391Y-145634109D03*
X50736500Y-145041000D03*
X49304609Y-145634109D03*
X48711500Y-147066000D03*
X49304609Y-148497891D03*
X50736500Y-149091000D03*
X52168391Y-148497891D03*
X52761500Y-147066000D03*
D16*
X50736500Y-147066000D03*
X240728500Y-147066000D03*
D15*
X242753500Y-147066000D03*
X242160391Y-148497891D03*
X240728500Y-149091000D03*
X239296609Y-148497891D03*
X238703500Y-147066000D03*
X239296609Y-145634109D03*
X240728500Y-145041000D03*
X242160391Y-145634109D03*
X242160391Y-55654609D03*
X240728500Y-55061500D03*
X239296609Y-55654609D03*
X238703500Y-57086500D03*
X239296609Y-58518391D03*
X240728500Y-59111500D03*
X242160391Y-58518391D03*
X242753500Y-57086500D03*
D16*
X240728500Y-57086500D03*
X50673000Y-57086500D03*
D15*
X52698000Y-57086500D03*
X52104891Y-58518391D03*
X50673000Y-59111500D03*
X49241109Y-58518391D03*
X48648000Y-57086500D03*
X49241109Y-55654609D03*
X50673000Y-55061500D03*
X52104891Y-55654609D03*
D17*
X62989600Y-130381000D03*
X60149600Y-128996000D03*
X62989600Y-127611000D03*
X60149600Y-126226000D03*
X62989600Y-124841000D03*
X60149600Y-123456000D03*
X62989600Y-122071000D03*
X60149600Y-120686000D03*
X62989600Y-119301000D03*
D18*
X61569600Y-112346000D03*
X61569600Y-137336000D03*
D19*
X101854000Y-124544300D03*
X101854000Y-132194300D03*
D11*
G36*
X121101105Y-85254804D02*
G01*
X121125373Y-85258404D01*
X121149172Y-85264365D01*
X121172271Y-85272630D01*
X121194450Y-85283120D01*
X121215493Y-85295732D01*
X121235199Y-85310347D01*
X121253377Y-85326823D01*
X121269853Y-85345001D01*
X121284468Y-85364707D01*
X121297080Y-85385750D01*
X121307570Y-85407929D01*
X121315835Y-85431028D01*
X121321796Y-85454827D01*
X121325396Y-85479095D01*
X121326600Y-85503599D01*
X121326600Y-86403601D01*
X121325396Y-86428105D01*
X121321796Y-86452373D01*
X121315835Y-86476172D01*
X121307570Y-86499271D01*
X121297080Y-86521450D01*
X121284468Y-86542493D01*
X121269853Y-86562199D01*
X121253377Y-86580377D01*
X121235199Y-86596853D01*
X121215493Y-86611468D01*
X121194450Y-86624080D01*
X121172271Y-86634570D01*
X121149172Y-86642835D01*
X121125373Y-86648796D01*
X121101105Y-86652396D01*
X121076601Y-86653600D01*
X120426599Y-86653600D01*
X120402095Y-86652396D01*
X120377827Y-86648796D01*
X120354028Y-86642835D01*
X120330929Y-86634570D01*
X120308750Y-86624080D01*
X120287707Y-86611468D01*
X120268001Y-86596853D01*
X120249823Y-86580377D01*
X120233347Y-86562199D01*
X120218732Y-86542493D01*
X120206120Y-86521450D01*
X120195630Y-86499271D01*
X120187365Y-86476172D01*
X120181404Y-86452373D01*
X120177804Y-86428105D01*
X120176600Y-86403601D01*
X120176600Y-85503599D01*
X120177804Y-85479095D01*
X120181404Y-85454827D01*
X120187365Y-85431028D01*
X120195630Y-85407929D01*
X120206120Y-85385750D01*
X120218732Y-85364707D01*
X120233347Y-85345001D01*
X120249823Y-85326823D01*
X120268001Y-85310347D01*
X120287707Y-85295732D01*
X120308750Y-85283120D01*
X120330929Y-85272630D01*
X120354028Y-85264365D01*
X120377827Y-85258404D01*
X120402095Y-85254804D01*
X120426599Y-85253600D01*
X121076601Y-85253600D01*
X121101105Y-85254804D01*
X121101105Y-85254804D01*
G37*
D14*
X120751600Y-85953600D03*
D11*
G36*
X119051105Y-85254804D02*
G01*
X119075373Y-85258404D01*
X119099172Y-85264365D01*
X119122271Y-85272630D01*
X119144450Y-85283120D01*
X119165493Y-85295732D01*
X119185199Y-85310347D01*
X119203377Y-85326823D01*
X119219853Y-85345001D01*
X119234468Y-85364707D01*
X119247080Y-85385750D01*
X119257570Y-85407929D01*
X119265835Y-85431028D01*
X119271796Y-85454827D01*
X119275396Y-85479095D01*
X119276600Y-85503599D01*
X119276600Y-86403601D01*
X119275396Y-86428105D01*
X119271796Y-86452373D01*
X119265835Y-86476172D01*
X119257570Y-86499271D01*
X119247080Y-86521450D01*
X119234468Y-86542493D01*
X119219853Y-86562199D01*
X119203377Y-86580377D01*
X119185199Y-86596853D01*
X119165493Y-86611468D01*
X119144450Y-86624080D01*
X119122271Y-86634570D01*
X119099172Y-86642835D01*
X119075373Y-86648796D01*
X119051105Y-86652396D01*
X119026601Y-86653600D01*
X118376599Y-86653600D01*
X118352095Y-86652396D01*
X118327827Y-86648796D01*
X118304028Y-86642835D01*
X118280929Y-86634570D01*
X118258750Y-86624080D01*
X118237707Y-86611468D01*
X118218001Y-86596853D01*
X118199823Y-86580377D01*
X118183347Y-86562199D01*
X118168732Y-86542493D01*
X118156120Y-86521450D01*
X118145630Y-86499271D01*
X118137365Y-86476172D01*
X118131404Y-86452373D01*
X118127804Y-86428105D01*
X118126600Y-86403601D01*
X118126600Y-85503599D01*
X118127804Y-85479095D01*
X118131404Y-85454827D01*
X118137365Y-85431028D01*
X118145630Y-85407929D01*
X118156120Y-85385750D01*
X118168732Y-85364707D01*
X118183347Y-85345001D01*
X118199823Y-85326823D01*
X118218001Y-85310347D01*
X118237707Y-85295732D01*
X118258750Y-85283120D01*
X118280929Y-85272630D01*
X118304028Y-85264365D01*
X118327827Y-85258404D01*
X118352095Y-85254804D01*
X118376599Y-85253600D01*
X119026601Y-85253600D01*
X119051105Y-85254804D01*
X119051105Y-85254804D01*
G37*
D14*
X118701600Y-85953600D03*
D20*
X132194300Y-126733300D03*
X134734300Y-129273300D03*
X132194300Y-131813300D03*
D11*
G36*
X121183752Y-55489602D02*
G01*
X121195886Y-55491402D01*
X121207786Y-55494382D01*
X121219335Y-55498515D01*
X121230425Y-55503760D01*
X121240946Y-55510066D01*
X121250799Y-55517374D01*
X121259888Y-55525612D01*
X121268126Y-55534701D01*
X121275434Y-55544554D01*
X121281740Y-55555075D01*
X121286985Y-55566165D01*
X121291118Y-55577714D01*
X121294098Y-55589614D01*
X121295898Y-55601748D01*
X121296500Y-55614000D01*
X121296500Y-57924000D01*
X121295898Y-57936252D01*
X121294098Y-57948386D01*
X121291118Y-57960286D01*
X121286985Y-57971835D01*
X121281740Y-57982925D01*
X121275434Y-57993446D01*
X121268126Y-58003299D01*
X121259888Y-58012388D01*
X121250799Y-58020626D01*
X121240946Y-58027934D01*
X121230425Y-58034240D01*
X121219335Y-58039485D01*
X121207786Y-58043618D01*
X121195886Y-58046598D01*
X121183752Y-58048398D01*
X121171500Y-58049000D01*
X120921500Y-58049000D01*
X120909248Y-58048398D01*
X120897114Y-58046598D01*
X120885214Y-58043618D01*
X120873665Y-58039485D01*
X120862575Y-58034240D01*
X120852054Y-58027934D01*
X120842201Y-58020626D01*
X120833112Y-58012388D01*
X120824874Y-58003299D01*
X120817566Y-57993446D01*
X120811260Y-57982925D01*
X120806015Y-57971835D01*
X120801882Y-57960286D01*
X120798902Y-57948386D01*
X120797102Y-57936252D01*
X120796500Y-57924000D01*
X120796500Y-55614000D01*
X120797102Y-55601748D01*
X120798902Y-55589614D01*
X120801882Y-55577714D01*
X120806015Y-55566165D01*
X120811260Y-55555075D01*
X120817566Y-55544554D01*
X120824874Y-55534701D01*
X120833112Y-55525612D01*
X120842201Y-55517374D01*
X120852054Y-55510066D01*
X120862575Y-55503760D01*
X120873665Y-55498515D01*
X120885214Y-55494382D01*
X120897114Y-55491402D01*
X120909248Y-55489602D01*
X120921500Y-55489000D01*
X121171500Y-55489000D01*
X121183752Y-55489602D01*
X121183752Y-55489602D01*
G37*
D21*
X121046500Y-56769000D03*
X121046500Y-57799000D03*
X121046500Y-56769000D03*
X121046500Y-55739000D03*
X135524500Y-65899000D03*
X135524500Y-66929000D03*
X135524500Y-67959000D03*
D11*
G36*
X135661752Y-65649602D02*
G01*
X135673886Y-65651402D01*
X135685786Y-65654382D01*
X135697335Y-65658515D01*
X135708425Y-65663760D01*
X135718946Y-65670066D01*
X135728799Y-65677374D01*
X135737888Y-65685612D01*
X135746126Y-65694701D01*
X135753434Y-65704554D01*
X135759740Y-65715075D01*
X135764985Y-65726165D01*
X135769118Y-65737714D01*
X135772098Y-65749614D01*
X135773898Y-65761748D01*
X135774500Y-65774000D01*
X135774500Y-68084000D01*
X135773898Y-68096252D01*
X135772098Y-68108386D01*
X135769118Y-68120286D01*
X135764985Y-68131835D01*
X135759740Y-68142925D01*
X135753434Y-68153446D01*
X135746126Y-68163299D01*
X135737888Y-68172388D01*
X135728799Y-68180626D01*
X135718946Y-68187934D01*
X135708425Y-68194240D01*
X135697335Y-68199485D01*
X135685786Y-68203618D01*
X135673886Y-68206598D01*
X135661752Y-68208398D01*
X135649500Y-68209000D01*
X135399500Y-68209000D01*
X135387248Y-68208398D01*
X135375114Y-68206598D01*
X135363214Y-68203618D01*
X135351665Y-68199485D01*
X135340575Y-68194240D01*
X135330054Y-68187934D01*
X135320201Y-68180626D01*
X135311112Y-68172388D01*
X135302874Y-68163299D01*
X135295566Y-68153446D01*
X135289260Y-68142925D01*
X135284015Y-68131835D01*
X135279882Y-68120286D01*
X135276902Y-68108386D01*
X135275102Y-68096252D01*
X135274500Y-68084000D01*
X135274500Y-65774000D01*
X135275102Y-65761748D01*
X135276902Y-65749614D01*
X135279882Y-65737714D01*
X135284015Y-65726165D01*
X135289260Y-65715075D01*
X135295566Y-65704554D01*
X135302874Y-65694701D01*
X135311112Y-65685612D01*
X135320201Y-65677374D01*
X135330054Y-65670066D01*
X135340575Y-65663760D01*
X135351665Y-65658515D01*
X135363214Y-65654382D01*
X135375114Y-65651402D01*
X135387248Y-65649602D01*
X135399500Y-65649000D01*
X135649500Y-65649000D01*
X135661752Y-65649602D01*
X135661752Y-65649602D01*
G37*
D21*
X135524500Y-66929000D03*
D11*
G36*
X143218252Y-55934102D02*
G01*
X143230386Y-55935902D01*
X143242286Y-55938882D01*
X143253835Y-55943015D01*
X143264925Y-55948260D01*
X143275446Y-55954566D01*
X143285299Y-55961874D01*
X143294388Y-55970112D01*
X143302626Y-55979201D01*
X143309934Y-55989054D01*
X143316240Y-55999575D01*
X143321485Y-56010665D01*
X143325618Y-56022214D01*
X143328598Y-56034114D01*
X143330398Y-56046248D01*
X143331000Y-56058500D01*
X143331000Y-58368500D01*
X143330398Y-58380752D01*
X143328598Y-58392886D01*
X143325618Y-58404786D01*
X143321485Y-58416335D01*
X143316240Y-58427425D01*
X143309934Y-58437946D01*
X143302626Y-58447799D01*
X143294388Y-58456888D01*
X143285299Y-58465126D01*
X143275446Y-58472434D01*
X143264925Y-58478740D01*
X143253835Y-58483985D01*
X143242286Y-58488118D01*
X143230386Y-58491098D01*
X143218252Y-58492898D01*
X143206000Y-58493500D01*
X142956000Y-58493500D01*
X142943748Y-58492898D01*
X142931614Y-58491098D01*
X142919714Y-58488118D01*
X142908165Y-58483985D01*
X142897075Y-58478740D01*
X142886554Y-58472434D01*
X142876701Y-58465126D01*
X142867612Y-58456888D01*
X142859374Y-58447799D01*
X142852066Y-58437946D01*
X142845760Y-58427425D01*
X142840515Y-58416335D01*
X142836382Y-58404786D01*
X142833402Y-58392886D01*
X142831602Y-58380752D01*
X142831000Y-58368500D01*
X142831000Y-56058500D01*
X142831602Y-56046248D01*
X142833402Y-56034114D01*
X142836382Y-56022214D01*
X142840515Y-56010665D01*
X142845760Y-55999575D01*
X142852066Y-55989054D01*
X142859374Y-55979201D01*
X142867612Y-55970112D01*
X142876701Y-55961874D01*
X142886554Y-55954566D01*
X142897075Y-55948260D01*
X142908165Y-55943015D01*
X142919714Y-55938882D01*
X142931614Y-55935902D01*
X142943748Y-55934102D01*
X142956000Y-55933500D01*
X143206000Y-55933500D01*
X143218252Y-55934102D01*
X143218252Y-55934102D01*
G37*
D21*
X143081000Y-57213500D03*
X143081000Y-58243500D03*
X143081000Y-57213500D03*
X143081000Y-56183500D03*
X120602000Y-64819500D03*
X120602000Y-65849500D03*
X120602000Y-66879500D03*
D11*
G36*
X120739252Y-64570102D02*
G01*
X120751386Y-64571902D01*
X120763286Y-64574882D01*
X120774835Y-64579015D01*
X120785925Y-64584260D01*
X120796446Y-64590566D01*
X120806299Y-64597874D01*
X120815388Y-64606112D01*
X120823626Y-64615201D01*
X120830934Y-64625054D01*
X120837240Y-64635575D01*
X120842485Y-64646665D01*
X120846618Y-64658214D01*
X120849598Y-64670114D01*
X120851398Y-64682248D01*
X120852000Y-64694500D01*
X120852000Y-67004500D01*
X120851398Y-67016752D01*
X120849598Y-67028886D01*
X120846618Y-67040786D01*
X120842485Y-67052335D01*
X120837240Y-67063425D01*
X120830934Y-67073946D01*
X120823626Y-67083799D01*
X120815388Y-67092888D01*
X120806299Y-67101126D01*
X120796446Y-67108434D01*
X120785925Y-67114740D01*
X120774835Y-67119985D01*
X120763286Y-67124118D01*
X120751386Y-67127098D01*
X120739252Y-67128898D01*
X120727000Y-67129500D01*
X120477000Y-67129500D01*
X120464748Y-67128898D01*
X120452614Y-67127098D01*
X120440714Y-67124118D01*
X120429165Y-67119985D01*
X120418075Y-67114740D01*
X120407554Y-67108434D01*
X120397701Y-67101126D01*
X120388612Y-67092888D01*
X120380374Y-67083799D01*
X120373066Y-67073946D01*
X120366760Y-67063425D01*
X120361515Y-67052335D01*
X120357382Y-67040786D01*
X120354402Y-67028886D01*
X120352602Y-67016752D01*
X120352000Y-67004500D01*
X120352000Y-64694500D01*
X120352602Y-64682248D01*
X120354402Y-64670114D01*
X120357382Y-64658214D01*
X120361515Y-64646665D01*
X120366760Y-64635575D01*
X120373066Y-64625054D01*
X120380374Y-64615201D01*
X120388612Y-64606112D01*
X120397701Y-64597874D01*
X120407554Y-64590566D01*
X120418075Y-64584260D01*
X120429165Y-64579015D01*
X120440714Y-64574882D01*
X120452614Y-64571902D01*
X120464748Y-64570102D01*
X120477000Y-64569500D01*
X120727000Y-64569500D01*
X120739252Y-64570102D01*
X120739252Y-64570102D01*
G37*
D21*
X120602000Y-65849500D03*
X98822000Y-139552300D03*
X98822000Y-138552300D03*
X99822000Y-139552300D03*
X99822000Y-138552300D03*
X100822000Y-139552300D03*
X100822000Y-138552300D03*
D11*
G36*
X100846504Y-138303504D02*
G01*
X100870773Y-138307104D01*
X100894571Y-138313065D01*
X100917671Y-138321330D01*
X100939849Y-138331820D01*
X100960893Y-138344433D01*
X100980598Y-138359047D01*
X100998777Y-138375523D01*
X101015253Y-138393702D01*
X101029867Y-138413407D01*
X101042480Y-138434451D01*
X101052970Y-138456629D01*
X101061235Y-138479729D01*
X101067196Y-138503527D01*
X101070796Y-138527796D01*
X101072000Y-138552300D01*
X101072000Y-139552300D01*
X101070796Y-139576804D01*
X101067196Y-139601073D01*
X101061235Y-139624871D01*
X101052970Y-139647971D01*
X101042480Y-139670149D01*
X101029867Y-139691193D01*
X101015253Y-139710898D01*
X100998777Y-139729077D01*
X100980598Y-139745553D01*
X100960893Y-139760167D01*
X100939849Y-139772780D01*
X100917671Y-139783270D01*
X100894571Y-139791535D01*
X100870773Y-139797496D01*
X100846504Y-139801096D01*
X100822000Y-139802300D01*
X98822000Y-139802300D01*
X98797496Y-139801096D01*
X98773227Y-139797496D01*
X98749429Y-139791535D01*
X98726329Y-139783270D01*
X98704151Y-139772780D01*
X98683107Y-139760167D01*
X98663402Y-139745553D01*
X98645223Y-139729077D01*
X98628747Y-139710898D01*
X98614133Y-139691193D01*
X98601520Y-139670149D01*
X98591030Y-139647971D01*
X98582765Y-139624871D01*
X98576804Y-139601073D01*
X98573204Y-139576804D01*
X98572000Y-139552300D01*
X98572000Y-138552300D01*
X98573204Y-138527796D01*
X98576804Y-138503527D01*
X98582765Y-138479729D01*
X98591030Y-138456629D01*
X98601520Y-138434451D01*
X98614133Y-138413407D01*
X98628747Y-138393702D01*
X98645223Y-138375523D01*
X98663402Y-138359047D01*
X98683107Y-138344433D01*
X98704151Y-138331820D01*
X98726329Y-138321330D01*
X98749429Y-138313065D01*
X98773227Y-138307104D01*
X98797496Y-138303504D01*
X98822000Y-138302300D01*
X100822000Y-138302300D01*
X100846504Y-138303504D01*
X100846504Y-138303504D01*
G37*
D22*
X99822000Y-139052300D03*
D15*
X186055000Y-100330000D03*
X185039000Y-100330000D03*
X186055000Y-99187000D03*
X185039000Y-99187000D03*
X58039000Y-97282000D03*
X58039000Y-95504000D03*
X56007000Y-95504000D03*
X56007000Y-97282000D03*
X51943000Y-97155000D03*
X49911000Y-97155000D03*
X49911000Y-95631000D03*
X51943000Y-95631000D03*
X152831800Y-84429600D03*
X152806400Y-82956400D03*
X156591000Y-79400400D03*
X155905200Y-78536800D03*
X133604000Y-86283800D03*
X132283200Y-86283800D03*
X130911600Y-86258400D03*
X98882200Y-98729800D03*
X96164400Y-98653600D03*
X121285000Y-91262200D03*
X120040400Y-91313000D03*
X118973600Y-91287600D03*
X116992400Y-91262200D03*
X115824000Y-91236800D03*
X114757200Y-91287600D03*
X113792000Y-91313000D03*
X121285000Y-93472000D03*
X121285000Y-92278200D03*
X121310400Y-94767400D03*
X118059200Y-94894400D03*
X119024400Y-92329000D03*
X116967000Y-93548200D03*
X119024400Y-94894400D03*
X120065800Y-94919800D03*
X116967000Y-92354400D03*
X118084600Y-93548200D03*
X119024400Y-93548200D03*
X120065800Y-92303600D03*
X116992400Y-94843600D03*
X118059200Y-92329000D03*
X120065800Y-93522800D03*
X113817400Y-94919800D03*
X114782600Y-92354400D03*
X112725200Y-93573600D03*
X114782600Y-94919800D03*
X115824000Y-94945200D03*
X112725200Y-92379800D03*
X113842800Y-93573600D03*
X114782600Y-93573600D03*
X115824000Y-92329000D03*
X112750600Y-94869000D03*
X113817400Y-92354400D03*
X115824000Y-93548200D03*
X111734600Y-92252800D03*
X111734600Y-93472000D03*
X111734600Y-94869000D03*
X110693200Y-94843600D03*
X110693200Y-93497400D03*
X110693200Y-92278200D03*
X110693200Y-91059000D03*
X109728000Y-92278200D03*
X109753400Y-93497400D03*
X109728000Y-94843600D03*
X108661200Y-94792800D03*
X108635800Y-93497400D03*
X108635800Y-92303600D03*
X108635800Y-91059000D03*
X109626400Y-85372000D03*
X111252000Y-85372000D03*
X113995200Y-85372000D03*
X116230400Y-85372000D03*
X219710000Y-110490000D03*
X217551000Y-114173000D03*
X221234000Y-114935000D03*
X205867000Y-107950000D03*
X216916000Y-105156000D03*
X218821000Y-105156000D03*
X218821000Y-100838000D03*
X217551000Y-93345000D03*
X214503000Y-90297000D03*
X217551000Y-89027000D03*
X213487000Y-81153000D03*
X216916000Y-75057000D03*
X219202000Y-71501000D03*
X220726000Y-75946000D03*
X197358000Y-74549000D03*
X200660000Y-76200000D03*
X201930000Y-82194400D03*
X210601471Y-128468000D03*
X201726800Y-129032000D03*
X201726800Y-127050800D03*
X191617600Y-133654800D03*
X191617600Y-135636000D03*
X184049741Y-139348623D03*
X209854800Y-87020400D03*
X179064658Y-63560634D03*
X180781252Y-141569776D03*
X184404000Y-142798800D03*
X172720000Y-140512800D03*
X178816000Y-148285200D03*
X182067200Y-148285200D03*
X185978800Y-148285200D03*
X187960000Y-148336000D03*
X191668400Y-141020800D03*
X191668400Y-142951200D03*
X190601600Y-137820400D03*
X183333232Y-137579744D03*
X180136800Y-130657600D03*
X182168800Y-130657600D03*
X184200800Y-130657600D03*
X183540400Y-90170000D03*
X183692800Y-80975200D03*
X185064400Y-82092800D03*
X182372000Y-82092800D03*
X174599600Y-86664800D03*
X173532800Y-79756000D03*
X172212000Y-80924400D03*
X175818800Y-65836800D03*
X178339080Y-65827884D03*
X181051200Y-73355200D03*
X179070000Y-73304400D03*
X175006000Y-73355200D03*
X172974000Y-73304400D03*
X178281704Y-61841229D03*
X179070000Y-55422800D03*
X177088800Y-55321200D03*
X175107600Y-55372000D03*
X168706800Y-60604400D03*
X161239200Y-118567200D03*
X159461200Y-118160800D03*
X166573200Y-115722400D03*
X166166800Y-117500400D03*
X164388800Y-111556800D03*
X169519600Y-98196400D03*
X169468800Y-99669600D03*
X163002616Y-99292612D03*
X156362400Y-118160800D03*
X154635200Y-118414800D03*
X152857200Y-118313200D03*
X148590000Y-115976400D03*
X150317200Y-110439200D03*
X116065300Y-95746548D03*
X112255301Y-95746548D03*
X120579557Y-95684158D03*
X109710221Y-90521811D03*
X112142390Y-90611513D03*
X117652800Y-88188800D03*
X117975810Y-90532681D03*
X120505220Y-90521811D03*
X124996642Y-88312766D03*
X125984000Y-90297000D03*
X119871400Y-98027119D03*
X106451400Y-86309200D03*
X105943400Y-91846400D03*
X103784400Y-92862400D03*
X97498400Y-98704400D03*
X112650661Y-88165077D03*
X124053600Y-99822000D03*
X114909600Y-105613200D03*
X110931269Y-95812163D03*
X110363000Y-98044000D03*
X109718335Y-95749766D03*
X124236800Y-128082676D03*
X151215099Y-98682389D03*
X151663400Y-91973400D03*
X150063200Y-91973400D03*
X104089200Y-61569600D03*
X105333800Y-61595000D03*
X107899200Y-61569600D03*
X146634200Y-96266000D03*
X93548200Y-142290800D03*
X102108000Y-141173200D03*
X101600000Y-139903200D03*
X112903000Y-141859000D03*
X115265200Y-129971800D03*
X130073400Y-139573000D03*
X133121400Y-135686800D03*
X110972600Y-113461800D03*
X123647200Y-119837200D03*
X124256800Y-122174000D03*
X124942600Y-119786400D03*
X121686800Y-119840770D03*
X93141800Y-54457600D03*
X88747600Y-54483000D03*
X84531200Y-54406800D03*
X80289400Y-54533800D03*
X118795800Y-81000600D03*
X83743800Y-110007400D03*
X80111600Y-108559600D03*
X80619600Y-105664000D03*
X73761600Y-117424200D03*
X74904600Y-138353800D03*
X82524600Y-136372600D03*
X141780200Y-120421400D03*
X144627600Y-123723400D03*
X152120600Y-136220200D03*
X151942800Y-141135100D03*
X134162800Y-65024000D03*
X140131800Y-63398400D03*
X129349500Y-63804800D03*
X129362200Y-67386200D03*
X119253000Y-64008000D03*
X118237000Y-59690000D03*
X114427000Y-62865000D03*
X114427000Y-66548000D03*
X114935000Y-53721000D03*
X114935000Y-57277000D03*
X119634000Y-54864000D03*
X123825000Y-53721000D03*
X126111000Y-53721000D03*
X136906000Y-57658000D03*
X136906000Y-54102000D03*
X148082000Y-60071000D03*
X148336000Y-61976000D03*
X148336000Y-63754000D03*
X148716500Y-66167000D03*
X150368000Y-66167000D03*
X144780000Y-59182000D03*
X98425000Y-147066000D03*
X100330000Y-147447000D03*
X102997000Y-148590000D03*
X104775000Y-147320000D03*
X145288000Y-112395000D03*
X96012000Y-131191000D03*
X97028000Y-132207000D03*
X96012000Y-129540000D03*
X96012000Y-127889000D03*
X97028000Y-127000000D03*
X192659000Y-101219000D03*
X212471000Y-110236000D03*
X148971000Y-78613000D03*
X148971000Y-82296000D03*
X154559000Y-82169000D03*
X157607000Y-72009000D03*
X154051000Y-72009000D03*
X162814000Y-77851000D03*
X162814000Y-81407000D03*
X186563000Y-58547000D03*
X186563000Y-60452000D03*
X186563000Y-62484000D03*
X186563000Y-65659000D03*
X186563000Y-67564000D03*
X123993000Y-63500000D03*
X117856000Y-69088000D03*
X132715000Y-70485000D03*
X155062821Y-114047572D03*
X156464000Y-56896000D03*
X168148000Y-114300000D03*
X167640000Y-110998000D03*
X97409000Y-141478000D03*
X99314000Y-135255000D03*
X134899400Y-142646400D03*
X96494600Y-144170400D03*
X139954000Y-54991000D03*
X132461000Y-66675000D03*
X132334000Y-64643000D03*
X117983000Y-56388000D03*
X117983000Y-54737000D03*
X117348000Y-63881000D03*
X68707000Y-84963000D03*
X69596000Y-85344000D03*
X67945000Y-85344000D03*
X69596000Y-84455000D03*
X67945000Y-84455000D03*
X106934000Y-98679000D03*
X104140000Y-98679000D03*
X105664000Y-97002600D03*
X103911400Y-97155000D03*
X105606600Y-98596200D03*
X106476800Y-89306400D03*
X122809000Y-96418400D03*
X123545600Y-90373200D03*
X107238800Y-95910400D03*
X132816600Y-146888200D03*
X129717800Y-146583400D03*
X120396000Y-120954800D03*
X93091000Y-63373000D03*
X117348000Y-65532000D03*
X139890500Y-56705500D03*
X140666500Y-59880500D03*
X160909000Y-58801000D03*
X104648000Y-143637000D03*
X103124000Y-143256000D03*
X102082600Y-133705600D03*
X102666800Y-132842000D03*
X101371400Y-132842000D03*
X100634800Y-125628400D03*
X103022400Y-125628400D03*
X103022400Y-123469400D03*
X100634800Y-123469400D03*
X95885000Y-133324600D03*
X103454200Y-136347200D03*
X114860300Y-98354846D03*
X113460300Y-98463100D03*
X115490220Y-84074000D03*
X124714000Y-81153000D03*
X111252000Y-118618000D03*
X111252000Y-117348000D03*
X109601000Y-117348000D03*
X125603000Y-86995000D03*
X123571000Y-85344000D03*
X125857000Y-85598000D03*
X109474000Y-103378000D03*
X109474000Y-105029000D03*
X109626400Y-87122000D03*
X111252000Y-87122000D03*
X113995200Y-87122000D03*
X116230400Y-87122000D03*
X120751600Y-85953600D03*
X106553000Y-105791000D03*
X109215800Y-115163600D03*
X105664000Y-117094000D03*
X107823000Y-105791000D03*
X109093000Y-105791000D03*
X110490000Y-105791000D03*
X111506000Y-105791000D03*
X112522000Y-105791000D03*
X116586000Y-105410000D03*
X118618000Y-105918000D03*
X113411000Y-114935000D03*
X109601000Y-118618000D03*
X187299600Y-138258794D03*
X183997600Y-148336000D03*
X175640900Y-68656100D03*
X177038000Y-73355200D03*
X162549156Y-114768529D03*
X166176841Y-110952576D03*
X165760400Y-98501200D03*
X153365200Y-114655600D03*
X155956000Y-114604800D03*
X148437600Y-111912400D03*
X149656800Y-97129600D03*
X150215600Y-95808800D03*
X121036800Y-128696000D03*
X82753200Y-107315000D03*
X80289400Y-136372600D03*
X122428000Y-59753500D03*
X124968000Y-59626500D03*
X123602750Y-58261250D03*
X169081000Y-68961000D03*
X162179000Y-68834000D03*
X102489000Y-58293000D03*
X113030000Y-59055000D03*
X160401000Y-123317000D03*
X162560000Y-125476000D03*
X204825600Y-86258400D03*
X204876400Y-87426800D03*
X172262800Y-83921600D03*
X173532800Y-85039200D03*
X177495200Y-84124800D03*
X170815000Y-73660000D03*
X157399002Y-70358000D03*
X184607200Y-134924800D03*
X185013600Y-85090000D03*
X183692800Y-83921600D03*
X179578000Y-85344000D03*
X179171600Y-59486800D03*
X160121600Y-114604800D03*
X167513000Y-103378000D03*
X173990000Y-128397000D03*
X217424000Y-77978000D03*
X198120000Y-76962000D03*
X202438000Y-76200000D03*
X210464400Y-116738400D03*
X211734400Y-116738400D03*
X218316000Y-116716000D03*
X210154930Y-127573236D03*
X205892400Y-128543000D03*
X155892500Y-74993500D03*
X220415230Y-94882460D03*
X192024000Y-105156000D03*
X149402800Y-136232900D03*
X152019000Y-81280000D03*
X152019000Y-79502000D03*
X222587141Y-73322859D03*
X222961200Y-112928400D03*
X179324000Y-111760000D03*
X208026000Y-112268000D03*
X223901000Y-97155000D03*
X145542000Y-66548000D03*
X144018000Y-65786000D03*
X144145000Y-63627000D03*
X144145000Y-61976000D03*
X155879800Y-84404200D03*
X155854400Y-82956400D03*
X156692600Y-81076800D03*
X155829000Y-80772000D03*
X144653000Y-54864000D03*
X141732000Y-55372000D03*
X143383000Y-59436000D03*
X153543000Y-80518000D03*
X184150000Y-78312000D03*
X188595000Y-78312000D03*
X209169000Y-82804000D03*
X182118000Y-63296800D03*
X181362283Y-144047033D03*
X185754700Y-143022900D03*
X179730400Y-68580000D03*
X125095000Y-69360000D03*
X121947000Y-68680000D03*
X122176250Y-67820250D03*
X123435000Y-67700000D03*
X152400000Y-71374000D03*
X150241000Y-89408000D03*
X163068000Y-88900000D03*
X180975000Y-102616000D03*
X209804000Y-73964800D03*
X199390000Y-79008000D03*
X209346800Y-77114400D03*
X201284696Y-75419130D03*
X213664800Y-129997200D03*
X209042000Y-129489200D03*
X213606078Y-128998923D03*
X201269600Y-125730000D03*
X156475510Y-119634000D03*
X157875510Y-118237000D03*
X122656600Y-118719600D03*
X103454200Y-57912000D03*
X107316500Y-62763400D03*
X105968800Y-54102000D03*
X108004732Y-71173432D03*
X139928600Y-100431600D03*
X144932400Y-105486200D03*
X107963025Y-70141775D03*
X106654600Y-57912000D03*
X143864973Y-105357923D03*
X138940130Y-100116678D03*
X108189118Y-72347768D03*
X108169025Y-57870776D03*
X110099221Y-61696600D03*
X111499222Y-63474600D03*
X86360000Y-114858800D03*
X152276024Y-108785176D03*
X87705875Y-114502875D03*
X151587982Y-109555974D03*
X89127950Y-114070750D03*
X150977600Y-108051600D03*
X143840200Y-110255974D03*
X141452600Y-100798400D03*
X140124830Y-104143580D03*
X132181600Y-110655984D03*
X81432400Y-135178800D03*
X92303600Y-113919000D03*
X94742000Y-111531400D03*
X97993200Y-108280200D03*
X151434800Y-87514200D03*
X152755600Y-88214200D03*
X129082800Y-108455964D03*
X126365000Y-111355984D03*
X84683600Y-135178800D03*
X106705400Y-113055400D03*
X143256000Y-111252000D03*
X156889875Y-105938125D03*
X120573800Y-143967200D03*
X134239000Y-63881000D03*
X131239708Y-67743357D03*
X85471000Y-75184000D03*
X100584000Y-143002000D03*
X175641000Y-110490000D03*
X171450000Y-114681000D03*
X213741000Y-92456000D03*
X215773000Y-95504000D03*
X221132400Y-95859600D03*
X226364800Y-95351600D03*
X204266800Y-72999600D03*
X205033453Y-74579053D03*
X223875600Y-100482400D03*
X219557600Y-98806000D03*
X193903600Y-137871200D03*
X187299600Y-139258797D03*
X194005200Y-138887200D03*
X187299600Y-140258800D03*
X175056800Y-138480800D03*
X180187600Y-138379200D03*
X205435200Y-131013200D03*
X218998800Y-126847600D03*
X202900585Y-132299061D03*
X213410800Y-132638800D03*
X158917392Y-111169649D03*
X152781000Y-105029000D03*
X144809492Y-96947708D03*
X142245510Y-91505000D03*
X84467700Y-63157100D03*
X163855400Y-113893600D03*
X154051000Y-104825800D03*
X150520400Y-101182400D03*
X145516600Y-96240600D03*
X142316200Y-93192600D03*
X80314800Y-63144400D03*
X162279225Y-102261775D03*
X145375270Y-103011200D03*
X166497000Y-93484700D03*
X160418000Y-100482400D03*
X147146052Y-102408948D03*
X168258446Y-104391200D03*
X172008800Y-104444800D03*
X146070125Y-101211190D03*
X161165982Y-101148531D03*
X165938200Y-101955600D03*
X159360250Y-105561750D03*
X137769600Y-100798400D03*
X124336800Y-125564298D03*
X151083074Y-116640675D03*
X152739850Y-110946313D03*
X122961400Y-128219200D03*
X166268400Y-62534800D03*
X177311961Y-62085363D03*
X176225200Y-63234800D03*
X167538400Y-63234800D03*
X173287631Y-60524915D03*
X166871093Y-60280999D03*
X173177200Y-61518800D03*
X150418800Y-103265500D03*
X152628600Y-101182400D03*
X153924000Y-98682389D03*
X175260000Y-63934800D03*
X167298440Y-64986827D03*
X167881227Y-64174201D03*
X169987610Y-64323610D03*
X175694399Y-64835522D03*
X170789600Y-65781000D03*
X181660800Y-140817600D03*
X178456851Y-132740400D03*
X176853526Y-65818787D03*
X174244000Y-66548000D03*
X170481000Y-70231000D03*
X167386000Y-101473000D03*
X166573200Y-108765500D03*
X180073956Y-139372723D03*
X177846631Y-137261600D03*
X150977600Y-104800400D03*
X167286150Y-106965489D03*
X162356800Y-106578400D03*
X161215662Y-106427212D03*
X168656700Y-106933299D03*
X182004500Y-135042052D03*
X162263425Y-105495075D03*
X159018000Y-101193600D03*
X182339130Y-137688215D03*
X154649303Y-111203833D03*
X146989800Y-116205000D03*
X116668348Y-116574800D03*
X105654821Y-116093571D03*
X162018000Y-111063000D03*
X105537000Y-114985800D03*
X115722400Y-115874800D03*
X147066000Y-114884200D03*
X153924000Y-110515400D03*
D23*
X53314600Y-66065400D02*
X53314600Y-71145400D01*
X243205000Y-82829400D02*
X238125000Y-82829400D01*
X243205000Y-87909400D02*
X238125000Y-87909400D01*
D24*
X118821200Y-82033000D02*
X118821200Y-81026000D01*
X118821200Y-81026000D02*
X118795800Y-81000600D01*
D25*
X97409000Y-137160000D02*
X97409000Y-138023600D01*
X99314000Y-135255000D02*
X97409000Y-137160000D01*
X97409000Y-137551622D02*
X97409000Y-138023600D01*
X97409000Y-138023600D02*
X97409000Y-141478000D01*
X120909801Y-144667201D02*
X97118401Y-144667201D01*
X134899400Y-142646400D02*
X122930602Y-142646400D01*
X122930602Y-142646400D02*
X120909801Y-144667201D01*
X97118401Y-144667201D02*
X96621600Y-144170400D01*
X96621600Y-144170400D02*
X96494600Y-144170400D01*
D23*
X105664000Y-98538800D02*
X105606600Y-98596200D01*
X105664000Y-97002600D02*
X105664000Y-98538800D01*
X105498400Y-98704400D02*
X105460800Y-98704400D01*
X105460800Y-98704400D02*
X103911400Y-97155000D01*
X105606600Y-98596200D02*
X105498400Y-98704400D01*
D25*
X101661999Y-134554999D02*
X103454200Y-136347200D01*
X95885000Y-133324600D02*
X97115399Y-134554999D01*
X97115399Y-134554999D02*
X101661999Y-134554999D01*
X114860300Y-98354846D02*
X113568554Y-98354846D01*
X113568554Y-98354846D02*
X113460300Y-98463100D01*
D24*
X115890219Y-83674001D02*
X115890219Y-82610781D01*
X115490220Y-84074000D02*
X115890219Y-83674001D01*
X115890219Y-82610781D02*
X118237000Y-80264000D01*
X118237000Y-80264000D02*
X123825000Y-80264000D01*
X123825000Y-80264000D02*
X124714000Y-81153000D01*
D23*
X121005600Y-86207600D02*
X120751600Y-85953600D01*
X124270000Y-86207600D02*
X121005600Y-86207600D01*
X123571000Y-85344000D02*
X123571000Y-87503000D01*
X123571000Y-87503000D02*
X122682000Y-88392000D01*
X126002999Y-87394999D02*
X126002999Y-88283999D01*
X125603000Y-86995000D02*
X126002999Y-87394999D01*
X122170000Y-86207600D02*
X121539000Y-86838600D01*
X124270000Y-86207600D02*
X122170000Y-86207600D01*
X122170000Y-86207600D02*
X120904000Y-87473600D01*
D24*
X118821200Y-85834000D02*
X118701600Y-85953600D01*
X118821200Y-84083000D02*
X118821200Y-85834000D01*
D23*
X175640900Y-68656100D02*
X169385900Y-68656100D01*
X169385900Y-68656100D02*
X169081000Y-68961000D01*
X124968000Y-60301500D02*
X124968000Y-59626500D01*
X124968000Y-64435002D02*
X124968000Y-60301500D01*
X129915997Y-69382999D02*
X124968000Y-64435002D01*
X161630001Y-69382999D02*
X129915997Y-69382999D01*
X162179000Y-68834000D02*
X161630001Y-69382999D01*
D25*
X113519306Y-59055000D02*
X113030000Y-59055000D01*
X113592153Y-58982153D02*
X113519306Y-59055000D01*
X122428000Y-59753500D02*
X121656653Y-58982153D01*
X121656653Y-58982153D02*
X113592153Y-58982153D01*
D23*
X175640900Y-71958100D02*
X177038000Y-73355200D01*
X175640900Y-68656100D02*
X175640900Y-71958100D01*
D26*
X173380400Y-85039200D02*
X172262800Y-83921600D01*
X173532800Y-85039200D02*
X173380400Y-85039200D01*
X172466000Y-84124800D02*
X172262800Y-83921600D01*
X177495200Y-84124800D02*
X172466000Y-84124800D01*
X172262800Y-83921600D02*
X170815000Y-82473800D01*
X170815000Y-82473800D02*
X170815000Y-73660000D01*
D23*
X204310715Y-87426800D02*
X204876400Y-87426800D01*
X182452998Y-84124800D02*
X185754998Y-87426800D01*
X177495200Y-84124800D02*
X182452998Y-84124800D01*
X203638201Y-86658399D02*
X202869800Y-87426800D01*
X204425601Y-86658399D02*
X203638201Y-86658399D01*
X204825600Y-86258400D02*
X204425601Y-86658399D01*
X185754998Y-87426800D02*
X202869800Y-87426800D01*
X202869800Y-87426800D02*
X204310715Y-87426800D01*
X179578000Y-85344000D02*
X179578000Y-91313000D01*
X179578000Y-91313000D02*
X167513000Y-103378000D01*
X160121600Y-114604800D02*
X173913800Y-128397000D01*
X173913800Y-128397000D02*
X173990000Y-128397000D01*
X179171600Y-60052485D02*
X179171600Y-59486800D01*
X179256705Y-60137590D02*
X179171600Y-60052485D01*
X179256705Y-61878507D02*
X179256705Y-60137590D01*
X186039401Y-68661203D02*
X179256705Y-61878507D01*
X186039401Y-82560801D02*
X186039401Y-68661203D01*
X184678602Y-83921600D02*
X186039401Y-82560801D01*
X183692800Y-83921600D02*
X184678602Y-83921600D01*
X208686400Y-112928400D02*
X222961200Y-112928400D01*
X208026000Y-112268000D02*
X208686400Y-112928400D01*
X224850601Y-98104601D02*
X223901000Y-97155000D01*
X222961200Y-112928400D02*
X224850601Y-111038999D01*
X224850601Y-111038999D02*
X224850601Y-98104601D01*
X222987140Y-73722858D02*
X222587141Y-73322859D01*
X227339801Y-78075519D02*
X222987140Y-73722858D01*
X227339801Y-95819601D02*
X227339801Y-78075519D01*
X225054801Y-98104601D02*
X227339801Y-95819601D01*
X224850601Y-98104601D02*
X225054801Y-98104601D01*
X150241000Y-89408000D02*
X162560000Y-89408000D01*
X162560000Y-89408000D02*
X163068000Y-88900000D01*
X185754700Y-142457215D02*
X185754700Y-143022900D01*
X185754700Y-134629298D02*
X185754700Y-142457215D01*
X181700799Y-131632601D02*
X182758003Y-131632601D01*
X181193799Y-131125601D02*
X181700799Y-131632601D01*
X182758003Y-131632601D02*
X185754700Y-134629298D01*
X181193799Y-103400484D02*
X181193799Y-131125601D01*
X180975000Y-103181685D02*
X181193799Y-103400484D01*
X180975000Y-102616000D02*
X180975000Y-103181685D01*
X184730567Y-144047033D02*
X181362283Y-144047033D01*
X185754700Y-143022900D02*
X184730567Y-144047033D01*
D24*
X208526202Y-79008000D02*
X199390000Y-79008000D01*
X210203999Y-77330203D02*
X208526202Y-79008000D01*
X210203999Y-74364799D02*
X210203999Y-77330203D01*
X209804000Y-73964800D02*
X210203999Y-74364799D01*
X201712999Y-75847433D02*
X201284696Y-75419130D01*
X201712999Y-76548001D02*
X201712999Y-75847433D01*
X209346800Y-77114400D02*
X202279398Y-77114400D01*
X202279398Y-77114400D02*
X201712999Y-76548001D01*
X213664800Y-129997200D02*
X209550000Y-129997200D01*
X209550000Y-129997200D02*
X209042000Y-129489200D01*
X201001799Y-125997801D02*
X201269600Y-125730000D01*
X201001799Y-129380001D02*
X201001799Y-125997801D01*
X213606078Y-128998923D02*
X214171763Y-128998923D01*
X214171763Y-128998923D02*
X214389801Y-129216961D01*
X214389801Y-129216961D02*
X214389801Y-130345201D01*
X214389801Y-130345201D02*
X212996801Y-131738201D01*
X212996801Y-131738201D02*
X203359999Y-131738201D01*
X203359999Y-131738201D02*
X201001799Y-129380001D01*
D25*
X156475510Y-119634000D02*
X156478510Y-119634000D01*
X156478510Y-119634000D02*
X157875510Y-118237000D01*
X134734300Y-127763698D02*
X125690202Y-118719600D01*
X134734300Y-129273300D02*
X134734300Y-127763698D01*
X125690202Y-118719600D02*
X122656600Y-118719600D01*
X106033801Y-61480701D02*
X107316500Y-62763400D01*
X103454200Y-57912000D02*
X106033801Y-60491601D01*
X106033801Y-60491601D02*
X106033801Y-61480701D01*
X107354601Y-58046303D02*
X108999211Y-59690912D01*
X105968800Y-54102000D02*
X107354601Y-55487801D01*
X107354601Y-55487801D02*
X107354601Y-58046303D01*
X108999211Y-59690912D02*
X108999211Y-70178953D01*
X108999211Y-70178953D02*
X108004732Y-71173432D01*
X139928600Y-100431600D02*
X144932400Y-105435400D01*
X144932400Y-105435400D02*
X144932400Y-105486200D01*
X108599201Y-59856601D02*
X106654600Y-57912000D01*
X107963025Y-70141775D02*
X108599201Y-69505599D01*
X108599201Y-69505599D02*
X108599201Y-59856601D01*
X143864973Y-105357923D02*
X138940130Y-100433080D01*
X138940130Y-100433080D02*
X138940130Y-100116678D01*
X109399221Y-59100972D02*
X108169025Y-57870776D01*
X108189118Y-72347768D02*
X109399221Y-71137665D01*
X109399221Y-71137665D02*
X109399221Y-59100972D01*
X110099221Y-61696600D02*
X111499222Y-63096601D01*
X111499222Y-63096601D02*
X111499222Y-63474600D01*
X91672488Y-109546312D02*
X86360000Y-114858800D01*
X152276024Y-108785176D02*
X148173388Y-108785176D01*
X148173388Y-108785176D02*
X147802600Y-109155964D01*
X92062836Y-109155964D02*
X86360000Y-114858800D01*
X147802600Y-109155964D02*
X92062836Y-109155964D01*
X92652776Y-109555974D02*
X87705875Y-114502875D01*
X151587982Y-109555974D02*
X92652776Y-109555974D01*
X93242716Y-109955984D02*
X89127950Y-114070750D01*
X142974525Y-109955984D02*
X142672416Y-109955984D01*
X143274515Y-110255974D02*
X142974525Y-109955984D01*
X143840200Y-110255974D02*
X143274515Y-110255974D01*
X142860184Y-109955984D02*
X142672416Y-109955984D01*
X142672416Y-109955984D02*
X93242716Y-109955984D01*
X132181600Y-110655984D02*
X93661616Y-110655984D01*
X93661616Y-110655984D02*
X81432400Y-122885200D01*
X81432400Y-122885200D02*
X81432400Y-135178800D01*
X92303600Y-113919000D02*
X94691200Y-111531400D01*
X94691200Y-111531400D02*
X94742000Y-111531400D01*
X97993200Y-108280200D02*
X98806000Y-107467400D01*
X98806000Y-107467400D02*
X129057400Y-107467400D01*
X129057400Y-107467400D02*
X149010600Y-87514200D01*
X149010600Y-87514200D02*
X151434800Y-87514200D01*
X129082800Y-108449198D02*
X129082800Y-108455964D01*
X152755600Y-88214200D02*
X149317798Y-88214200D01*
X149317798Y-88214200D02*
X129082800Y-108449198D01*
X126365000Y-111355984D02*
X97305016Y-111355984D01*
X97305016Y-111355984D02*
X84683600Y-123977400D01*
X84683600Y-123977400D02*
X84683600Y-135178800D01*
X141852599Y-112655401D02*
X143256000Y-111252000D01*
X106705400Y-113055400D02*
X107105399Y-112655401D01*
X107105399Y-112655401D02*
X141852599Y-112655401D01*
X131474301Y-127453299D02*
X128527901Y-127453299D01*
X132194300Y-126733300D02*
X131474301Y-127453299D01*
X128527901Y-127453299D02*
X120573800Y-135407400D01*
X120573800Y-135407400D02*
X120573800Y-143967200D01*
X134239000Y-63881000D02*
X131239708Y-66880292D01*
X131239708Y-66880292D02*
X131239708Y-67743357D01*
X79589399Y-124162503D02*
X79589399Y-140549399D01*
X85471000Y-75184000D02*
X85471000Y-118280902D01*
X85471000Y-118280902D02*
X79589399Y-124162503D01*
X100572801Y-142990801D02*
X100584000Y-143002000D01*
X79589399Y-140549399D02*
X82030801Y-142990801D01*
X82030801Y-142990801D02*
X100572801Y-142990801D01*
D24*
X213741000Y-92456000D02*
X213741000Y-93472000D01*
X213741000Y-93472000D02*
X215773000Y-95504000D01*
X221132400Y-95859600D02*
X225856800Y-95859600D01*
X225856800Y-95859600D02*
X226364800Y-95351600D01*
X204266800Y-72999600D02*
X204266800Y-73812400D01*
X204266800Y-73812400D02*
X205033453Y-74579053D01*
X221234000Y-100482400D02*
X219557600Y-98806000D01*
X223875600Y-100482400D02*
X221234000Y-100482400D01*
X187865285Y-139258797D02*
X187881282Y-139242800D01*
X187299600Y-139258797D02*
X187865285Y-139258797D01*
X192532000Y-139242800D02*
X193903600Y-137871200D01*
X187881282Y-139242800D02*
X192532000Y-139242800D01*
X192633600Y-140258800D02*
X194005200Y-138887200D01*
X187299600Y-140258800D02*
X192633600Y-140258800D01*
D25*
X175056800Y-138480800D02*
X180086000Y-138480800D01*
X180086000Y-138480800D02*
X180187600Y-138379200D01*
D24*
X205435200Y-131013200D02*
X209600800Y-126847600D01*
X209600800Y-126847600D02*
X218998800Y-126847600D01*
X202900585Y-132299061D02*
X213071061Y-132299061D01*
X213071061Y-132299061D02*
X213410800Y-132638800D01*
D25*
X158917392Y-111169649D02*
X152781000Y-105033257D01*
X152781000Y-105033257D02*
X152781000Y-105029000D01*
X94358369Y-73047769D02*
X84467700Y-63157100D01*
X142245510Y-91505000D02*
X123788279Y-73047769D01*
X123788279Y-73047769D02*
X94358369Y-73047769D01*
X163855400Y-113893600D02*
X154787600Y-104825800D01*
X154787600Y-104825800D02*
X154051000Y-104825800D01*
X142316200Y-92626915D02*
X123781085Y-74091800D01*
X142316200Y-93192600D02*
X142316200Y-92626915D01*
X123781085Y-74091800D02*
X91262200Y-74091800D01*
X91262200Y-74091800D02*
X80314800Y-63144400D01*
X162279225Y-100741924D02*
X160919690Y-99382389D01*
X162279225Y-102261775D02*
X162279225Y-100741924D01*
X145370124Y-103006054D02*
X145375270Y-103011200D01*
X145370124Y-100875189D02*
X145370124Y-103006054D01*
X160919690Y-99382389D02*
X146862924Y-99382389D01*
X146862924Y-99382389D02*
X145370124Y-100875189D01*
X160919690Y-99382389D02*
X160919690Y-99062010D01*
X160919690Y-99062010D02*
X166497000Y-93484700D01*
X160418000Y-100482400D02*
X149072600Y-100482400D01*
X149072600Y-100482400D02*
X147146052Y-102408948D01*
X168258446Y-104391200D02*
X171955200Y-104391200D01*
X171955200Y-104391200D02*
X172008800Y-104444800D01*
X147778112Y-101211190D02*
X148906911Y-100082390D01*
X146070125Y-101211190D02*
X147778112Y-101211190D01*
X148906911Y-100082390D02*
X152882600Y-100082390D01*
X161165982Y-100194380D02*
X161165982Y-101148531D01*
X160754001Y-99782399D02*
X161165982Y-100194380D01*
X152882600Y-100082390D02*
X153182591Y-99782399D01*
X153182591Y-99782399D02*
X160754001Y-99782399D01*
X147354203Y-104100399D02*
X145130202Y-106324400D01*
X159360250Y-105561750D02*
X157898899Y-104100399D01*
X157898899Y-104100399D02*
X147354203Y-104100399D01*
X145130202Y-106324400D02*
X143295600Y-106324400D01*
X143295600Y-106324400D02*
X137769600Y-100798400D01*
X151083074Y-116640675D02*
X151083074Y-112603089D01*
X151083074Y-112603089D02*
X152739850Y-110946313D01*
X124336800Y-126843800D02*
X124336800Y-125564298D01*
X122961400Y-128219200D02*
X124336800Y-126843800D01*
X166268400Y-62534800D02*
X176862524Y-62534800D01*
X176862524Y-62534800D02*
X177311961Y-62085363D01*
X176225200Y-63234800D02*
X167538400Y-63234800D01*
X167247693Y-59904399D02*
X166871093Y-60280999D01*
X173287631Y-60524915D02*
X172667115Y-59904399D01*
X172667115Y-59904399D02*
X167247693Y-59904399D01*
X173177200Y-61518800D02*
X168503600Y-61518800D01*
X150418800Y-103265500D02*
X152501900Y-101182400D01*
X152501900Y-101182400D02*
X152628600Y-101182400D01*
X154489685Y-98682389D02*
X164617400Y-88554674D01*
X153924000Y-98682389D02*
X154489685Y-98682389D01*
X166248398Y-61518800D02*
X168503600Y-61518800D01*
X164617400Y-63149798D02*
X166248398Y-61518800D01*
X164617400Y-88554674D02*
X164617400Y-63149798D01*
X167335613Y-65024000D02*
X167298440Y-64986827D01*
X168097200Y-65024000D02*
X167335613Y-65024000D01*
X174694315Y-63934800D02*
X174394325Y-63634810D01*
X175260000Y-63934800D02*
X174694315Y-63934800D01*
X174394325Y-63634810D02*
X172280390Y-63634810D01*
X172280390Y-63634810D02*
X170891589Y-65023611D01*
X170891589Y-65023611D02*
X168097589Y-65023611D01*
X168097589Y-65023611D02*
X168097200Y-65024000D01*
X167881227Y-64174201D02*
X169838201Y-64174201D01*
X169838201Y-64174201D02*
X169987610Y-64323610D01*
X175694399Y-64835522D02*
X171735078Y-64835522D01*
X171735078Y-64835522D02*
X170789600Y-65781000D01*
X178456851Y-135046750D02*
X178456851Y-132740400D01*
X181660800Y-140817600D02*
X181660800Y-138250699D01*
X181660800Y-138250699D02*
X178456851Y-135046750D01*
X174255199Y-66536801D02*
X174244000Y-66548000D01*
X176853526Y-65818787D02*
X176135512Y-66536801D01*
X176135512Y-66536801D02*
X174255199Y-66536801D01*
X170481000Y-70231000D02*
X167386000Y-73326000D01*
X167386000Y-73326000D02*
X167386000Y-101473000D01*
X180887601Y-138043199D02*
X178937602Y-136093200D01*
X180887601Y-138715201D02*
X180887601Y-138043199D01*
X180523601Y-139079201D02*
X180887601Y-138715201D01*
X180073956Y-139372723D02*
X180367478Y-139079201D01*
X180367478Y-139079201D02*
X180523601Y-139079201D01*
X178937602Y-136093200D02*
X178257200Y-136093200D01*
X178257200Y-136093200D02*
X175310800Y-133146800D01*
X175310800Y-117503100D02*
X166573200Y-108765500D01*
X175310800Y-133146800D02*
X175310800Y-117503100D01*
X160161201Y-115680403D02*
X150977600Y-106496802D01*
X177846631Y-137261600D02*
X160161201Y-119576170D01*
X160161201Y-119576170D02*
X160161201Y-115680403D01*
X150977600Y-106496802D02*
X150977600Y-104800400D01*
X166720465Y-106965489D02*
X166701154Y-106984800D01*
X167286150Y-106965489D02*
X166720465Y-106965489D01*
X166701154Y-106984800D02*
X162763200Y-106984800D01*
X162763200Y-106984800D02*
X162356800Y-106578400D01*
X167924509Y-107665490D02*
X168656700Y-106933299D01*
X161215662Y-106427212D02*
X162453940Y-107665490D01*
X162453940Y-107665490D02*
X167924509Y-107665490D01*
X168254478Y-105495075D02*
X162263425Y-105495075D01*
X175710810Y-112951407D02*
X168254478Y-105495075D01*
X182004500Y-135042052D02*
X175710810Y-128748362D01*
X175710810Y-128748362D02*
X175710810Y-112951407D01*
X159018000Y-101193600D02*
X162915600Y-105091200D01*
X168416302Y-105091200D02*
X176110820Y-112785718D01*
X162915600Y-105091200D02*
X168416302Y-105091200D01*
X182339130Y-135743424D02*
X182339130Y-137688215D01*
X182704501Y-135378053D02*
X182339130Y-135743424D01*
X182704501Y-134706051D02*
X182704501Y-135378053D01*
X176110820Y-112785718D02*
X176110820Y-128112370D01*
X176110820Y-128112370D02*
X182704501Y-134706051D01*
X148125476Y-117340676D02*
X146989800Y-116205000D01*
X151419075Y-117340676D02*
X148125476Y-117340676D01*
X151783075Y-116976676D02*
X151419075Y-117340676D01*
X154649303Y-111203833D02*
X151783075Y-114070061D01*
X151783075Y-114070061D02*
X151783075Y-116976676D01*
X116102663Y-116574800D02*
X116668348Y-116574800D01*
X105654821Y-116093571D02*
X106136051Y-116574801D01*
X106136051Y-116574801D02*
X116102663Y-116574800D01*
X105537000Y-114985800D02*
X106426000Y-115874800D01*
X106426000Y-115874800D02*
X115722400Y-115874800D01*
X153654912Y-110246312D02*
X153924000Y-110515400D01*
X147066000Y-114884200D02*
X151703888Y-110246312D01*
X151703888Y-110246312D02*
X153654912Y-110246312D01*
D27*
G36*
X184275843Y-87376000D02*
G01*
X179197000Y-87376000D01*
X179197000Y-85134800D01*
X182034643Y-85134800D01*
X184275843Y-87376000D01*
X184275843Y-87376000D01*
G37*
X184275843Y-87376000D02*
X179197000Y-87376000D01*
X179197000Y-85134800D01*
X182034643Y-85134800D01*
X184275843Y-87376000D01*
G36*
X185547000Y-85790447D02*
G01*
X183449553Y-83693000D01*
X185547000Y-83693000D01*
X185547000Y-85790447D01*
X185547000Y-85790447D01*
G37*
X185547000Y-85790447D02*
X183449553Y-83693000D01*
X185547000Y-83693000D01*
X185547000Y-85790447D01*
G36*
X117505592Y-85330345D02*
G01*
X117488528Y-85503599D01*
X117488528Y-86403601D01*
X117505592Y-86576855D01*
X117556128Y-86743451D01*
X117638195Y-86896987D01*
X117748638Y-87031562D01*
X117883213Y-87142005D01*
X118036749Y-87224072D01*
X118203345Y-87274608D01*
X118376599Y-87291672D01*
X119026601Y-87291672D01*
X119199855Y-87274608D01*
X119366451Y-87224072D01*
X119519987Y-87142005D01*
X119654562Y-87031562D01*
X119659942Y-87025006D01*
X119725415Y-87104785D01*
X119822106Y-87184137D01*
X119932420Y-87243102D01*
X120052118Y-87279412D01*
X120176600Y-87291672D01*
X120465850Y-87288600D01*
X120624600Y-87129850D01*
X120624600Y-86080600D01*
X120604600Y-86080600D01*
X120604600Y-85826600D01*
X120624600Y-85826600D01*
X120624600Y-85806600D01*
X120878600Y-85806600D01*
X120878600Y-85826600D01*
X120898600Y-85826600D01*
X120898600Y-86080600D01*
X120878600Y-86080600D01*
X120878600Y-87129850D01*
X121037350Y-87288600D01*
X121326600Y-87291672D01*
X121451082Y-87279412D01*
X121570780Y-87243102D01*
X121632717Y-87209996D01*
X121631928Y-87457600D01*
X121644188Y-87582082D01*
X121680498Y-87701780D01*
X121739463Y-87812094D01*
X121818815Y-87908785D01*
X121915506Y-87988137D01*
X122025820Y-88047102D01*
X122145518Y-88083412D01*
X122270000Y-88095672D01*
X123984250Y-88092600D01*
X123985384Y-88091466D01*
X123961642Y-88210827D01*
X123961642Y-88414705D01*
X124001416Y-88614664D01*
X124079437Y-88803022D01*
X124192705Y-88972540D01*
X124336868Y-89116703D01*
X124506386Y-89229971D01*
X124694744Y-89307992D01*
X124894703Y-89347766D01*
X125098581Y-89347766D01*
X125298540Y-89307992D01*
X125486898Y-89229971D01*
X125656416Y-89116703D01*
X125800579Y-88972540D01*
X125913847Y-88803022D01*
X125991868Y-88614664D01*
X126031642Y-88414705D01*
X126031642Y-88210827D01*
X126008643Y-88095204D01*
X126270000Y-88095672D01*
X126394482Y-88083412D01*
X126514180Y-88047102D01*
X126624494Y-87988137D01*
X126721185Y-87908785D01*
X126746000Y-87878548D01*
X126746000Y-89595289D01*
X126643774Y-89493063D01*
X126474256Y-89379795D01*
X126285898Y-89301774D01*
X126085939Y-89262000D01*
X125882061Y-89262000D01*
X125682102Y-89301774D01*
X125493744Y-89379795D01*
X125324226Y-89493063D01*
X125180063Y-89637226D01*
X125066795Y-89806744D01*
X124988774Y-89995102D01*
X124949000Y-90195061D01*
X124949000Y-90398939D01*
X124988774Y-90598898D01*
X125066795Y-90787256D01*
X125180063Y-90956774D01*
X125324226Y-91100937D01*
X125493744Y-91214205D01*
X125682102Y-91292226D01*
X125882061Y-91332000D01*
X126085939Y-91332000D01*
X126285898Y-91292226D01*
X126474256Y-91214205D01*
X126643774Y-91100937D01*
X126746000Y-90998711D01*
X126746000Y-105919924D01*
X115833819Y-106086522D01*
X115904826Y-105915098D01*
X115944600Y-105715139D01*
X115944600Y-105511261D01*
X115904826Y-105311302D01*
X115826805Y-105122944D01*
X115713537Y-104953426D01*
X115569374Y-104809263D01*
X115399856Y-104695995D01*
X115211498Y-104617974D01*
X115011539Y-104578200D01*
X114807661Y-104578200D01*
X114607702Y-104617974D01*
X114419344Y-104695995D01*
X114249826Y-104809263D01*
X114105663Y-104953426D01*
X113992395Y-105122944D01*
X113914374Y-105311302D01*
X113874600Y-105511261D01*
X113874600Y-105715139D01*
X113914374Y-105915098D01*
X113992395Y-106103456D01*
X113999790Y-106114523D01*
X110235044Y-106172000D01*
X105410000Y-106172000D01*
X105410000Y-100592472D01*
X107248400Y-100592472D01*
X107421654Y-100575408D01*
X107588250Y-100524872D01*
X107741786Y-100442805D01*
X107876362Y-100332362D01*
X107986805Y-100197786D01*
X108068872Y-100044250D01*
X108119408Y-99877654D01*
X108134929Y-99720061D01*
X123018600Y-99720061D01*
X123018600Y-99923939D01*
X123058374Y-100123898D01*
X123136395Y-100312256D01*
X123249663Y-100481774D01*
X123393826Y-100625937D01*
X123563344Y-100739205D01*
X123751702Y-100817226D01*
X123951661Y-100857000D01*
X124155539Y-100857000D01*
X124355498Y-100817226D01*
X124543856Y-100739205D01*
X124713374Y-100625937D01*
X124857537Y-100481774D01*
X124970805Y-100312256D01*
X125048826Y-100123898D01*
X125088600Y-99923939D01*
X125088600Y-99720061D01*
X125048826Y-99520102D01*
X124970805Y-99331744D01*
X124857537Y-99162226D01*
X124713374Y-99018063D01*
X124543856Y-98904795D01*
X124355498Y-98826774D01*
X124155539Y-98787000D01*
X123951661Y-98787000D01*
X123751702Y-98826774D01*
X123563344Y-98904795D01*
X123393826Y-99018063D01*
X123249663Y-99162226D01*
X123136395Y-99331744D01*
X123058374Y-99520102D01*
X123018600Y-99720061D01*
X108134929Y-99720061D01*
X108136472Y-99704400D01*
X108136472Y-97942061D01*
X109328000Y-97942061D01*
X109328000Y-98145939D01*
X109367774Y-98345898D01*
X109445795Y-98534256D01*
X109559063Y-98703774D01*
X109703226Y-98847937D01*
X109872744Y-98961205D01*
X110061102Y-99039226D01*
X110261061Y-99079000D01*
X110464939Y-99079000D01*
X110664898Y-99039226D01*
X110853256Y-98961205D01*
X111022774Y-98847937D01*
X111166937Y-98703774D01*
X111280205Y-98534256D01*
X111351903Y-98361161D01*
X112425300Y-98361161D01*
X112425300Y-98565039D01*
X112465074Y-98764998D01*
X112543095Y-98953356D01*
X112656363Y-99122874D01*
X112800526Y-99267037D01*
X112970044Y-99380305D01*
X113158402Y-99458326D01*
X113358361Y-99498100D01*
X113562239Y-99498100D01*
X113762198Y-99458326D01*
X113950556Y-99380305D01*
X114120074Y-99267037D01*
X114217192Y-99169919D01*
X114370044Y-99272051D01*
X114558402Y-99350072D01*
X114758361Y-99389846D01*
X114962239Y-99389846D01*
X115162198Y-99350072D01*
X115350556Y-99272051D01*
X115520074Y-99158783D01*
X115664237Y-99014620D01*
X115777505Y-98845102D01*
X115855526Y-98656744D01*
X115895300Y-98456785D01*
X115895300Y-98252907D01*
X115855526Y-98052948D01*
X115802603Y-97925180D01*
X118836400Y-97925180D01*
X118836400Y-98129058D01*
X118876174Y-98329017D01*
X118954195Y-98517375D01*
X119067463Y-98686893D01*
X119211626Y-98831056D01*
X119381144Y-98944324D01*
X119569502Y-99022345D01*
X119769461Y-99062119D01*
X119973339Y-99062119D01*
X120173298Y-99022345D01*
X120361656Y-98944324D01*
X120531174Y-98831056D01*
X120675337Y-98686893D01*
X120788605Y-98517375D01*
X120866626Y-98329017D01*
X120906400Y-98129058D01*
X120906400Y-97925180D01*
X120866626Y-97725221D01*
X120788605Y-97536863D01*
X120675337Y-97367345D01*
X120531174Y-97223182D01*
X120361656Y-97109914D01*
X120173298Y-97031893D01*
X119973339Y-96992119D01*
X119769461Y-96992119D01*
X119569502Y-97031893D01*
X119381144Y-97109914D01*
X119211626Y-97223182D01*
X119067463Y-97367345D01*
X118954195Y-97536863D01*
X118876174Y-97725221D01*
X118836400Y-97925180D01*
X115802603Y-97925180D01*
X115777505Y-97864590D01*
X115664237Y-97695072D01*
X115520074Y-97550909D01*
X115350556Y-97437641D01*
X115162198Y-97359620D01*
X114962239Y-97319846D01*
X114758361Y-97319846D01*
X114558402Y-97359620D01*
X114370044Y-97437641D01*
X114200526Y-97550909D01*
X114131589Y-97619846D01*
X114061232Y-97619846D01*
X113950556Y-97545895D01*
X113762198Y-97467874D01*
X113562239Y-97428100D01*
X113358361Y-97428100D01*
X113158402Y-97467874D01*
X112970044Y-97545895D01*
X112800526Y-97659163D01*
X112656363Y-97803326D01*
X112543095Y-97972844D01*
X112465074Y-98161202D01*
X112425300Y-98361161D01*
X111351903Y-98361161D01*
X111358226Y-98345898D01*
X111398000Y-98145939D01*
X111398000Y-97942061D01*
X111358226Y-97742102D01*
X111280205Y-97553744D01*
X111166937Y-97384226D01*
X111022774Y-97240063D01*
X110853256Y-97126795D01*
X110664898Y-97048774D01*
X110464939Y-97009000D01*
X110261061Y-97009000D01*
X110061102Y-97048774D01*
X109872744Y-97126795D01*
X109703226Y-97240063D01*
X109559063Y-97384226D01*
X109445795Y-97553744D01*
X109367774Y-97742102D01*
X109328000Y-97942061D01*
X108136472Y-97942061D01*
X108136472Y-97704400D01*
X108119408Y-97531146D01*
X108068872Y-97364550D01*
X107986805Y-97211014D01*
X107876362Y-97076438D01*
X107741786Y-96965995D01*
X107590359Y-96885055D01*
X107729056Y-96827605D01*
X107898574Y-96714337D01*
X108042737Y-96570174D01*
X108156005Y-96400656D01*
X108234026Y-96212298D01*
X108273800Y-96012339D01*
X108273800Y-95808461D01*
X108261693Y-95747595D01*
X108359302Y-95788026D01*
X108559261Y-95827800D01*
X108683335Y-95827800D01*
X108683335Y-95851705D01*
X108723109Y-96051664D01*
X108801130Y-96240022D01*
X108914398Y-96409540D01*
X109058561Y-96553703D01*
X109228079Y-96666971D01*
X109416437Y-96744992D01*
X109616396Y-96784766D01*
X109820274Y-96784766D01*
X110020233Y-96744992D01*
X110208591Y-96666971D01*
X110278110Y-96620520D01*
X110441013Y-96729368D01*
X110629371Y-96807389D01*
X110829330Y-96847163D01*
X111033208Y-96847163D01*
X111233167Y-96807389D01*
X111421525Y-96729368D01*
X111591043Y-96616100D01*
X111632172Y-96574971D01*
X111765045Y-96663753D01*
X111953403Y-96741774D01*
X112153362Y-96781548D01*
X112357240Y-96781548D01*
X112557199Y-96741774D01*
X112745557Y-96663753D01*
X112915075Y-96550485D01*
X113059238Y-96406322D01*
X113172506Y-96236804D01*
X113250527Y-96048446D01*
X113290301Y-95848487D01*
X113290301Y-95812387D01*
X113327144Y-95837005D01*
X113515502Y-95915026D01*
X113715461Y-95954800D01*
X113919339Y-95954800D01*
X114119298Y-95915026D01*
X114300000Y-95840176D01*
X114480702Y-95915026D01*
X114680661Y-95954800D01*
X114884539Y-95954800D01*
X115045094Y-95922864D01*
X115070074Y-96048446D01*
X115148095Y-96236804D01*
X115261363Y-96406322D01*
X115405526Y-96550485D01*
X115575044Y-96663753D01*
X115763402Y-96741774D01*
X115963361Y-96781548D01*
X116167239Y-96781548D01*
X116367198Y-96741774D01*
X116555556Y-96663753D01*
X116725074Y-96550485D01*
X116869237Y-96406322D01*
X116982505Y-96236804D01*
X117060526Y-96048446D01*
X117094310Y-95878600D01*
X117094339Y-95878600D01*
X117294298Y-95838826D01*
X117482656Y-95760805D01*
X117487786Y-95757377D01*
X117568944Y-95811605D01*
X117757302Y-95889626D01*
X117957261Y-95929400D01*
X118161139Y-95929400D01*
X118361098Y-95889626D01*
X118541800Y-95814776D01*
X118722502Y-95889626D01*
X118922461Y-95929400D01*
X119126339Y-95929400D01*
X119326298Y-95889626D01*
X119514656Y-95811605D01*
X119526093Y-95803963D01*
X119551486Y-95820930D01*
X119584331Y-95986056D01*
X119662352Y-96174414D01*
X119775620Y-96343932D01*
X119919783Y-96488095D01*
X120089301Y-96601363D01*
X120277659Y-96679384D01*
X120477618Y-96719158D01*
X120681496Y-96719158D01*
X120881455Y-96679384D01*
X121069813Y-96601363D01*
X121239331Y-96488095D01*
X121383494Y-96343932D01*
X121401849Y-96316461D01*
X121774000Y-96316461D01*
X121774000Y-96520339D01*
X121813774Y-96720298D01*
X121891795Y-96908656D01*
X122005063Y-97078174D01*
X122149226Y-97222337D01*
X122318744Y-97335605D01*
X122507102Y-97413626D01*
X122707061Y-97453400D01*
X122910939Y-97453400D01*
X123110898Y-97413626D01*
X123299256Y-97335605D01*
X123468774Y-97222337D01*
X123612937Y-97078174D01*
X123726205Y-96908656D01*
X123804226Y-96720298D01*
X123844000Y-96520339D01*
X123844000Y-96316461D01*
X123804226Y-96116502D01*
X123726205Y-95928144D01*
X123612937Y-95758626D01*
X123468774Y-95614463D01*
X123299256Y-95501195D01*
X123110898Y-95423174D01*
X122910939Y-95383400D01*
X122707061Y-95383400D01*
X122507102Y-95423174D01*
X122318744Y-95501195D01*
X122149226Y-95614463D01*
X122005063Y-95758626D01*
X121891795Y-95928144D01*
X121813774Y-96116502D01*
X121774000Y-96316461D01*
X121401849Y-96316461D01*
X121496762Y-96174414D01*
X121574783Y-95986056D01*
X121614557Y-95786097D01*
X121614557Y-95761690D01*
X121800656Y-95684605D01*
X121970174Y-95571337D01*
X122114337Y-95427174D01*
X122227605Y-95257656D01*
X122305626Y-95069298D01*
X122345400Y-94869339D01*
X122345400Y-94665461D01*
X122305626Y-94465502D01*
X122227605Y-94277144D01*
X122114337Y-94107626D01*
X122108783Y-94102072D01*
X122202205Y-93962256D01*
X122280226Y-93773898D01*
X122320000Y-93573939D01*
X122320000Y-93370061D01*
X122280226Y-93170102D01*
X122202205Y-92981744D01*
X122130948Y-92875100D01*
X122202205Y-92768456D01*
X122280226Y-92580098D01*
X122320000Y-92380139D01*
X122320000Y-92176261D01*
X122280226Y-91976302D01*
X122202205Y-91787944D01*
X122190349Y-91770200D01*
X122202205Y-91752456D01*
X122280226Y-91564098D01*
X122320000Y-91364139D01*
X122320000Y-91160261D01*
X122280226Y-90960302D01*
X122202205Y-90771944D01*
X122088937Y-90602426D01*
X121944774Y-90458263D01*
X121775256Y-90344995D01*
X121597248Y-90271261D01*
X122510600Y-90271261D01*
X122510600Y-90475139D01*
X122550374Y-90675098D01*
X122628395Y-90863456D01*
X122741663Y-91032974D01*
X122885826Y-91177137D01*
X123055344Y-91290405D01*
X123243702Y-91368426D01*
X123443661Y-91408200D01*
X123647539Y-91408200D01*
X123847498Y-91368426D01*
X124035856Y-91290405D01*
X124205374Y-91177137D01*
X124349537Y-91032974D01*
X124462805Y-90863456D01*
X124540826Y-90675098D01*
X124580600Y-90475139D01*
X124580600Y-90271261D01*
X124540826Y-90071302D01*
X124462805Y-89882944D01*
X124349537Y-89713426D01*
X124205374Y-89569263D01*
X124035856Y-89455995D01*
X123847498Y-89377974D01*
X123647539Y-89338200D01*
X123443661Y-89338200D01*
X123243702Y-89377974D01*
X123055344Y-89455995D01*
X122885826Y-89569263D01*
X122741663Y-89713426D01*
X122628395Y-89882944D01*
X122550374Y-90071302D01*
X122510600Y-90271261D01*
X121597248Y-90271261D01*
X121586898Y-90266974D01*
X121506631Y-90251008D01*
X121500446Y-90219913D01*
X121422425Y-90031555D01*
X121309157Y-89862037D01*
X121164994Y-89717874D01*
X120995476Y-89604606D01*
X120807118Y-89526585D01*
X120607159Y-89486811D01*
X120403281Y-89486811D01*
X120203322Y-89526585D01*
X120014964Y-89604606D01*
X119845446Y-89717874D01*
X119701283Y-89862037D01*
X119588015Y-90031555D01*
X119509994Y-90219913D01*
X119478160Y-90379953D01*
X119463856Y-90370395D01*
X119275498Y-90292374D01*
X119075539Y-90252600D01*
X118975376Y-90252600D01*
X118971036Y-90230783D01*
X118893015Y-90042425D01*
X118779747Y-89872907D01*
X118635584Y-89728744D01*
X118466066Y-89615476D01*
X118277708Y-89537455D01*
X118077749Y-89497681D01*
X117873871Y-89497681D01*
X117673912Y-89537455D01*
X117485554Y-89615476D01*
X117316036Y-89728744D01*
X117171873Y-89872907D01*
X117058605Y-90042425D01*
X116982068Y-90227200D01*
X116890461Y-90227200D01*
X116690502Y-90266974D01*
X116502144Y-90344995D01*
X116427207Y-90395066D01*
X116314256Y-90319595D01*
X116125898Y-90241574D01*
X115925939Y-90201800D01*
X115722061Y-90201800D01*
X115522102Y-90241574D01*
X115333744Y-90319595D01*
X115252586Y-90373823D01*
X115247456Y-90370395D01*
X115059098Y-90292374D01*
X114859139Y-90252600D01*
X114655261Y-90252600D01*
X114455302Y-90292374D01*
X114266944Y-90370395D01*
X114249337Y-90382159D01*
X114093898Y-90317774D01*
X113893939Y-90278000D01*
X113690061Y-90278000D01*
X113490102Y-90317774D01*
X113301744Y-90395795D01*
X113172002Y-90482486D01*
X113137616Y-90309615D01*
X113059595Y-90121257D01*
X112946327Y-89951739D01*
X112802164Y-89807576D01*
X112632646Y-89694308D01*
X112444288Y-89616287D01*
X112244329Y-89576513D01*
X112040451Y-89576513D01*
X111840492Y-89616287D01*
X111652134Y-89694308D01*
X111482616Y-89807576D01*
X111338453Y-89951739D01*
X111225185Y-90121257D01*
X111209476Y-90159181D01*
X111183456Y-90141795D01*
X110995098Y-90063774D01*
X110795139Y-90024000D01*
X110622378Y-90024000D01*
X110514158Y-89862037D01*
X110369995Y-89717874D01*
X110200477Y-89604606D01*
X110012119Y-89526585D01*
X109812160Y-89486811D01*
X109608282Y-89486811D01*
X109408323Y-89526585D01*
X109219965Y-89604606D01*
X109050447Y-89717874D01*
X108906284Y-89862037D01*
X108793016Y-90031555D01*
X108791699Y-90034733D01*
X108737739Y-90024000D01*
X108533861Y-90024000D01*
X108333902Y-90063774D01*
X108145544Y-90141795D01*
X107976026Y-90255063D01*
X107831863Y-90399226D01*
X107718595Y-90568744D01*
X107640574Y-90757102D01*
X107600800Y-90957061D01*
X107600800Y-91160939D01*
X107640574Y-91360898D01*
X107718595Y-91549256D01*
X107806824Y-91681300D01*
X107718595Y-91813344D01*
X107640574Y-92001702D01*
X107600800Y-92201661D01*
X107600800Y-92405539D01*
X107640574Y-92605498D01*
X107718595Y-92793856D01*
X107789852Y-92900500D01*
X107718595Y-93007144D01*
X107640574Y-93195502D01*
X107600800Y-93395461D01*
X107600800Y-93599339D01*
X107640574Y-93799298D01*
X107718595Y-93987656D01*
X107831863Y-94157174D01*
X107837417Y-94162728D01*
X107743995Y-94302544D01*
X107665974Y-94490902D01*
X107626200Y-94690861D01*
X107626200Y-94894739D01*
X107638307Y-94955605D01*
X107540698Y-94915174D01*
X107340739Y-94875400D01*
X107136861Y-94875400D01*
X106936902Y-94915174D01*
X106748544Y-94993195D01*
X106579026Y-95106463D01*
X106434863Y-95250626D01*
X106321595Y-95420144D01*
X106243574Y-95608502D01*
X106203800Y-95808461D01*
X106203800Y-96012339D01*
X106228153Y-96134771D01*
X106154256Y-96085395D01*
X105965898Y-96007374D01*
X105765939Y-95967600D01*
X105562061Y-95967600D01*
X105410000Y-95997847D01*
X105410000Y-92734777D01*
X105453144Y-92763605D01*
X105641502Y-92841626D01*
X105841461Y-92881400D01*
X106045339Y-92881400D01*
X106245298Y-92841626D01*
X106433656Y-92763605D01*
X106603174Y-92650337D01*
X106747337Y-92506174D01*
X106860605Y-92336656D01*
X106938626Y-92148298D01*
X106978400Y-91948339D01*
X106978400Y-91744461D01*
X106938626Y-91544502D01*
X106860605Y-91356144D01*
X106747337Y-91186626D01*
X106603174Y-91042463D01*
X106433656Y-90929195D01*
X106245298Y-90851174D01*
X106045339Y-90811400D01*
X105841461Y-90811400D01*
X105641502Y-90851174D01*
X105453144Y-90929195D01*
X105410000Y-90958023D01*
X105410000Y-89204461D01*
X105441800Y-89204461D01*
X105441800Y-89408339D01*
X105481574Y-89608298D01*
X105559595Y-89796656D01*
X105672863Y-89966174D01*
X105817026Y-90110337D01*
X105986544Y-90223605D01*
X106174902Y-90301626D01*
X106374861Y-90341400D01*
X106578739Y-90341400D01*
X106778698Y-90301626D01*
X106967056Y-90223605D01*
X107136574Y-90110337D01*
X107280737Y-89966174D01*
X107394005Y-89796656D01*
X107472026Y-89608298D01*
X107511800Y-89408339D01*
X107511800Y-89204461D01*
X107472026Y-89004502D01*
X107394005Y-88816144D01*
X107280737Y-88646626D01*
X107136574Y-88502463D01*
X106967056Y-88389195D01*
X106778698Y-88311174D01*
X106578739Y-88271400D01*
X106374861Y-88271400D01*
X106174902Y-88311174D01*
X105986544Y-88389195D01*
X105817026Y-88502463D01*
X105672863Y-88646626D01*
X105559595Y-88816144D01*
X105481574Y-89004502D01*
X105441800Y-89204461D01*
X105410000Y-89204461D01*
X105410000Y-87647000D01*
X108513328Y-87647000D01*
X108525588Y-87771482D01*
X108561898Y-87891180D01*
X108620863Y-88001494D01*
X108700215Y-88098185D01*
X108796906Y-88177537D01*
X108907220Y-88236502D01*
X109026918Y-88272812D01*
X109151400Y-88285072D01*
X109340650Y-88282000D01*
X109499400Y-88123250D01*
X109499400Y-87249000D01*
X109753400Y-87249000D01*
X109753400Y-88123250D01*
X109912150Y-88282000D01*
X110101400Y-88285072D01*
X110225882Y-88272812D01*
X110345580Y-88236502D01*
X110439200Y-88186460D01*
X110532820Y-88236502D01*
X110652518Y-88272812D01*
X110777000Y-88285072D01*
X110966250Y-88282000D01*
X111125000Y-88123250D01*
X111125000Y-87249000D01*
X111379000Y-87249000D01*
X111379000Y-88123250D01*
X111537750Y-88282000D01*
X111618904Y-88283317D01*
X111655435Y-88466975D01*
X111733456Y-88655333D01*
X111846724Y-88824851D01*
X111990887Y-88969014D01*
X112160405Y-89082282D01*
X112348763Y-89160303D01*
X112548722Y-89200077D01*
X112752600Y-89200077D01*
X112952559Y-89160303D01*
X113140917Y-89082282D01*
X113310435Y-88969014D01*
X113454598Y-88824851D01*
X113567866Y-88655333D01*
X113645887Y-88466975D01*
X113682594Y-88282436D01*
X113709450Y-88282000D01*
X113868200Y-88123250D01*
X113868200Y-87249000D01*
X114122200Y-87249000D01*
X114122200Y-88123250D01*
X114280950Y-88282000D01*
X114470200Y-88285072D01*
X114594682Y-88272812D01*
X114714380Y-88236502D01*
X114824694Y-88177537D01*
X114921385Y-88098185D01*
X115000737Y-88001494D01*
X115059702Y-87891180D01*
X115096012Y-87771482D01*
X115108272Y-87647000D01*
X115117328Y-87647000D01*
X115129588Y-87771482D01*
X115165898Y-87891180D01*
X115224863Y-88001494D01*
X115304215Y-88098185D01*
X115400906Y-88177537D01*
X115511220Y-88236502D01*
X115630918Y-88272812D01*
X115755400Y-88285072D01*
X115944650Y-88282000D01*
X116103400Y-88123250D01*
X116103400Y-87249000D01*
X116357400Y-87249000D01*
X116357400Y-88123250D01*
X116516150Y-88282000D01*
X116617800Y-88283650D01*
X116617800Y-88290739D01*
X116657574Y-88490698D01*
X116735595Y-88679056D01*
X116848863Y-88848574D01*
X116993026Y-88992737D01*
X117162544Y-89106005D01*
X117350902Y-89184026D01*
X117550861Y-89223800D01*
X117754739Y-89223800D01*
X117954698Y-89184026D01*
X118143056Y-89106005D01*
X118312574Y-88992737D01*
X118456737Y-88848574D01*
X118570005Y-88679056D01*
X118648026Y-88490698D01*
X118687800Y-88290739D01*
X118687800Y-88086861D01*
X118648026Y-87886902D01*
X118570005Y-87698544D01*
X118456737Y-87529026D01*
X118312574Y-87384863D01*
X118143056Y-87271595D01*
X117954698Y-87193574D01*
X117754739Y-87153800D01*
X117550861Y-87153800D01*
X117350902Y-87193574D01*
X117192031Y-87259381D01*
X117181650Y-87249000D01*
X116357400Y-87249000D01*
X116103400Y-87249000D01*
X115279150Y-87249000D01*
X115120400Y-87407750D01*
X115117328Y-87647000D01*
X115108272Y-87647000D01*
X115105200Y-87407750D01*
X114946450Y-87249000D01*
X114122200Y-87249000D01*
X113868200Y-87249000D01*
X113142605Y-87249000D01*
X113140917Y-87247872D01*
X112952559Y-87169851D01*
X112752600Y-87130077D01*
X112548722Y-87130077D01*
X112348763Y-87169851D01*
X112160405Y-87247872D01*
X112158717Y-87249000D01*
X111379000Y-87249000D01*
X111125000Y-87249000D01*
X109753400Y-87249000D01*
X109499400Y-87249000D01*
X108675150Y-87249000D01*
X108516400Y-87407750D01*
X108513328Y-87647000D01*
X105410000Y-87647000D01*
X105410000Y-85469514D01*
X105852927Y-85464303D01*
X105791626Y-85505263D01*
X105647463Y-85649426D01*
X105534195Y-85818944D01*
X105456174Y-86007302D01*
X105416400Y-86207261D01*
X105416400Y-86411139D01*
X105456174Y-86611098D01*
X105534195Y-86799456D01*
X105647463Y-86968974D01*
X105791626Y-87113137D01*
X105961144Y-87226405D01*
X106149502Y-87304426D01*
X106349461Y-87344200D01*
X106553339Y-87344200D01*
X106753298Y-87304426D01*
X106941656Y-87226405D01*
X107111174Y-87113137D01*
X107255337Y-86968974D01*
X107368605Y-86799456D01*
X107446626Y-86611098D01*
X107486400Y-86411139D01*
X107486400Y-86207261D01*
X107446626Y-86007302D01*
X107368605Y-85818944D01*
X107255337Y-85649426D01*
X107111174Y-85505263D01*
X107029163Y-85450465D01*
X108513328Y-85433004D01*
X108513328Y-85659500D01*
X108530152Y-85830316D01*
X108579977Y-85994567D01*
X108660888Y-86145942D01*
X108680499Y-86169839D01*
X108620863Y-86242506D01*
X108561898Y-86352820D01*
X108525588Y-86472518D01*
X108513328Y-86597000D01*
X108516400Y-86836250D01*
X108675150Y-86995000D01*
X109499400Y-86995000D01*
X109499400Y-86975000D01*
X109753400Y-86975000D01*
X109753400Y-86995000D01*
X111125000Y-86995000D01*
X111125000Y-86975000D01*
X111379000Y-86975000D01*
X111379000Y-86995000D01*
X112203250Y-86995000D01*
X112362000Y-86836250D01*
X112365072Y-86597000D01*
X112352812Y-86472518D01*
X112316502Y-86352820D01*
X112257537Y-86242506D01*
X112197901Y-86169839D01*
X112217512Y-86145942D01*
X112298423Y-85994567D01*
X112348248Y-85830316D01*
X112365072Y-85659500D01*
X112365072Y-85387690D01*
X112882128Y-85381607D01*
X112882128Y-85659500D01*
X112898952Y-85830316D01*
X112948777Y-85994567D01*
X113029688Y-86145942D01*
X113049299Y-86169839D01*
X112989663Y-86242506D01*
X112930698Y-86352820D01*
X112894388Y-86472518D01*
X112882128Y-86597000D01*
X112885200Y-86836250D01*
X113043950Y-86995000D01*
X113868200Y-86995000D01*
X113868200Y-86975000D01*
X114122200Y-86975000D01*
X114122200Y-86995000D01*
X114946450Y-86995000D01*
X115105200Y-86836250D01*
X115108272Y-86597000D01*
X115096012Y-86472518D01*
X115059702Y-86352820D01*
X115000737Y-86242506D01*
X114941101Y-86169839D01*
X114960712Y-86145942D01*
X115041623Y-85994567D01*
X115091448Y-85830316D01*
X115108272Y-85659500D01*
X115108272Y-85355417D01*
X115117328Y-85355310D01*
X115117328Y-85659500D01*
X115134152Y-85830316D01*
X115183977Y-85994567D01*
X115264888Y-86145942D01*
X115284499Y-86169839D01*
X115224863Y-86242506D01*
X115165898Y-86352820D01*
X115129588Y-86472518D01*
X115117328Y-86597000D01*
X115120400Y-86836250D01*
X115279150Y-86995000D01*
X116103400Y-86995000D01*
X116103400Y-86975000D01*
X116357400Y-86975000D01*
X116357400Y-86995000D01*
X117181650Y-86995000D01*
X117340400Y-86836250D01*
X117343472Y-86597000D01*
X117331212Y-86472518D01*
X117294902Y-86352820D01*
X117235937Y-86242506D01*
X117176301Y-86169839D01*
X117195912Y-86145942D01*
X117276823Y-85994567D01*
X117326648Y-85830316D01*
X117343472Y-85659500D01*
X117343472Y-85329121D01*
X117506545Y-85327202D01*
X117505592Y-85330345D01*
X117505592Y-85330345D01*
G37*
X117505592Y-85330345D02*
X117488528Y-85503599D01*
X117488528Y-86403601D01*
X117505592Y-86576855D01*
X117556128Y-86743451D01*
X117638195Y-86896987D01*
X117748638Y-87031562D01*
X117883213Y-87142005D01*
X118036749Y-87224072D01*
X118203345Y-87274608D01*
X118376599Y-87291672D01*
X119026601Y-87291672D01*
X119199855Y-87274608D01*
X119366451Y-87224072D01*
X119519987Y-87142005D01*
X119654562Y-87031562D01*
X119659942Y-87025006D01*
X119725415Y-87104785D01*
X119822106Y-87184137D01*
X119932420Y-87243102D01*
X120052118Y-87279412D01*
X120176600Y-87291672D01*
X120465850Y-87288600D01*
X120624600Y-87129850D01*
X120624600Y-86080600D01*
X120604600Y-86080600D01*
X120604600Y-85826600D01*
X120624600Y-85826600D01*
X120624600Y-85806600D01*
X120878600Y-85806600D01*
X120878600Y-85826600D01*
X120898600Y-85826600D01*
X120898600Y-86080600D01*
X120878600Y-86080600D01*
X120878600Y-87129850D01*
X121037350Y-87288600D01*
X121326600Y-87291672D01*
X121451082Y-87279412D01*
X121570780Y-87243102D01*
X121632717Y-87209996D01*
X121631928Y-87457600D01*
X121644188Y-87582082D01*
X121680498Y-87701780D01*
X121739463Y-87812094D01*
X121818815Y-87908785D01*
X121915506Y-87988137D01*
X122025820Y-88047102D01*
X122145518Y-88083412D01*
X122270000Y-88095672D01*
X123984250Y-88092600D01*
X123985384Y-88091466D01*
X123961642Y-88210827D01*
X123961642Y-88414705D01*
X124001416Y-88614664D01*
X124079437Y-88803022D01*
X124192705Y-88972540D01*
X124336868Y-89116703D01*
X124506386Y-89229971D01*
X124694744Y-89307992D01*
X124894703Y-89347766D01*
X125098581Y-89347766D01*
X125298540Y-89307992D01*
X125486898Y-89229971D01*
X125656416Y-89116703D01*
X125800579Y-88972540D01*
X125913847Y-88803022D01*
X125991868Y-88614664D01*
X126031642Y-88414705D01*
X126031642Y-88210827D01*
X126008643Y-88095204D01*
X126270000Y-88095672D01*
X126394482Y-88083412D01*
X126514180Y-88047102D01*
X126624494Y-87988137D01*
X126721185Y-87908785D01*
X126746000Y-87878548D01*
X126746000Y-89595289D01*
X126643774Y-89493063D01*
X126474256Y-89379795D01*
X126285898Y-89301774D01*
X126085939Y-89262000D01*
X125882061Y-89262000D01*
X125682102Y-89301774D01*
X125493744Y-89379795D01*
X125324226Y-89493063D01*
X125180063Y-89637226D01*
X125066795Y-89806744D01*
X124988774Y-89995102D01*
X124949000Y-90195061D01*
X124949000Y-90398939D01*
X124988774Y-90598898D01*
X125066795Y-90787256D01*
X125180063Y-90956774D01*
X125324226Y-91100937D01*
X125493744Y-91214205D01*
X125682102Y-91292226D01*
X125882061Y-91332000D01*
X126085939Y-91332000D01*
X126285898Y-91292226D01*
X126474256Y-91214205D01*
X126643774Y-91100937D01*
X126746000Y-90998711D01*
X126746000Y-105919924D01*
X115833819Y-106086522D01*
X115904826Y-105915098D01*
X115944600Y-105715139D01*
X115944600Y-105511261D01*
X115904826Y-105311302D01*
X115826805Y-105122944D01*
X115713537Y-104953426D01*
X115569374Y-104809263D01*
X115399856Y-104695995D01*
X115211498Y-104617974D01*
X115011539Y-104578200D01*
X114807661Y-104578200D01*
X114607702Y-104617974D01*
X114419344Y-104695995D01*
X114249826Y-104809263D01*
X114105663Y-104953426D01*
X113992395Y-105122944D01*
X113914374Y-105311302D01*
X113874600Y-105511261D01*
X113874600Y-105715139D01*
X113914374Y-105915098D01*
X113992395Y-106103456D01*
X113999790Y-106114523D01*
X110235044Y-106172000D01*
X105410000Y-106172000D01*
X105410000Y-100592472D01*
X107248400Y-100592472D01*
X107421654Y-100575408D01*
X107588250Y-100524872D01*
X107741786Y-100442805D01*
X107876362Y-100332362D01*
X107986805Y-100197786D01*
X108068872Y-100044250D01*
X108119408Y-99877654D01*
X108134929Y-99720061D01*
X123018600Y-99720061D01*
X123018600Y-99923939D01*
X123058374Y-100123898D01*
X123136395Y-100312256D01*
X123249663Y-100481774D01*
X123393826Y-100625937D01*
X123563344Y-100739205D01*
X123751702Y-100817226D01*
X123951661Y-100857000D01*
X124155539Y-100857000D01*
X124355498Y-100817226D01*
X124543856Y-100739205D01*
X124713374Y-100625937D01*
X124857537Y-100481774D01*
X124970805Y-100312256D01*
X125048826Y-100123898D01*
X125088600Y-99923939D01*
X125088600Y-99720061D01*
X125048826Y-99520102D01*
X124970805Y-99331744D01*
X124857537Y-99162226D01*
X124713374Y-99018063D01*
X124543856Y-98904795D01*
X124355498Y-98826774D01*
X124155539Y-98787000D01*
X123951661Y-98787000D01*
X123751702Y-98826774D01*
X123563344Y-98904795D01*
X123393826Y-99018063D01*
X123249663Y-99162226D01*
X123136395Y-99331744D01*
X123058374Y-99520102D01*
X123018600Y-99720061D01*
X108134929Y-99720061D01*
X108136472Y-99704400D01*
X108136472Y-97942061D01*
X109328000Y-97942061D01*
X109328000Y-98145939D01*
X109367774Y-98345898D01*
X109445795Y-98534256D01*
X109559063Y-98703774D01*
X109703226Y-98847937D01*
X109872744Y-98961205D01*
X110061102Y-99039226D01*
X110261061Y-99079000D01*
X110464939Y-99079000D01*
X110664898Y-99039226D01*
X110853256Y-98961205D01*
X111022774Y-98847937D01*
X111166937Y-98703774D01*
X111280205Y-98534256D01*
X111351903Y-98361161D01*
X112425300Y-98361161D01*
X112425300Y-98565039D01*
X112465074Y-98764998D01*
X112543095Y-98953356D01*
X112656363Y-99122874D01*
X112800526Y-99267037D01*
X112970044Y-99380305D01*
X113158402Y-99458326D01*
X113358361Y-99498100D01*
X113562239Y-99498100D01*
X113762198Y-99458326D01*
X113950556Y-99380305D01*
X114120074Y-99267037D01*
X114217192Y-99169919D01*
X114370044Y-99272051D01*
X114558402Y-99350072D01*
X114758361Y-99389846D01*
X114962239Y-99389846D01*
X115162198Y-99350072D01*
X115350556Y-99272051D01*
X115520074Y-99158783D01*
X115664237Y-99014620D01*
X115777505Y-98845102D01*
X115855526Y-98656744D01*
X115895300Y-98456785D01*
X115895300Y-98252907D01*
X115855526Y-98052948D01*
X115802603Y-97925180D01*
X118836400Y-97925180D01*
X118836400Y-98129058D01*
X118876174Y-98329017D01*
X118954195Y-98517375D01*
X119067463Y-98686893D01*
X119211626Y-98831056D01*
X119381144Y-98944324D01*
X119569502Y-99022345D01*
X119769461Y-99062119D01*
X119973339Y-99062119D01*
X120173298Y-99022345D01*
X120361656Y-98944324D01*
X120531174Y-98831056D01*
X120675337Y-98686893D01*
X120788605Y-98517375D01*
X120866626Y-98329017D01*
X120906400Y-98129058D01*
X120906400Y-97925180D01*
X120866626Y-97725221D01*
X120788605Y-97536863D01*
X120675337Y-97367345D01*
X120531174Y-97223182D01*
X120361656Y-97109914D01*
X120173298Y-97031893D01*
X119973339Y-96992119D01*
X119769461Y-96992119D01*
X119569502Y-97031893D01*
X119381144Y-97109914D01*
X119211626Y-97223182D01*
X119067463Y-97367345D01*
X118954195Y-97536863D01*
X118876174Y-97725221D01*
X118836400Y-97925180D01*
X115802603Y-97925180D01*
X115777505Y-97864590D01*
X115664237Y-97695072D01*
X115520074Y-97550909D01*
X115350556Y-97437641D01*
X115162198Y-97359620D01*
X114962239Y-97319846D01*
X114758361Y-97319846D01*
X114558402Y-97359620D01*
X114370044Y-97437641D01*
X114200526Y-97550909D01*
X114131589Y-97619846D01*
X114061232Y-97619846D01*
X113950556Y-97545895D01*
X113762198Y-97467874D01*
X113562239Y-97428100D01*
X113358361Y-97428100D01*
X113158402Y-97467874D01*
X112970044Y-97545895D01*
X112800526Y-97659163D01*
X112656363Y-97803326D01*
X112543095Y-97972844D01*
X112465074Y-98161202D01*
X112425300Y-98361161D01*
X111351903Y-98361161D01*
X111358226Y-98345898D01*
X111398000Y-98145939D01*
X111398000Y-97942061D01*
X111358226Y-97742102D01*
X111280205Y-97553744D01*
X111166937Y-97384226D01*
X111022774Y-97240063D01*
X110853256Y-97126795D01*
X110664898Y-97048774D01*
X110464939Y-97009000D01*
X110261061Y-97009000D01*
X110061102Y-97048774D01*
X109872744Y-97126795D01*
X109703226Y-97240063D01*
X109559063Y-97384226D01*
X109445795Y-97553744D01*
X109367774Y-97742102D01*
X109328000Y-97942061D01*
X108136472Y-97942061D01*
X108136472Y-97704400D01*
X108119408Y-97531146D01*
X108068872Y-97364550D01*
X107986805Y-97211014D01*
X107876362Y-97076438D01*
X107741786Y-96965995D01*
X107590359Y-96885055D01*
X107729056Y-96827605D01*
X107898574Y-96714337D01*
X108042737Y-96570174D01*
X108156005Y-96400656D01*
X108234026Y-96212298D01*
X108273800Y-96012339D01*
X108273800Y-95808461D01*
X108261693Y-95747595D01*
X108359302Y-95788026D01*
X108559261Y-95827800D01*
X108683335Y-95827800D01*
X108683335Y-95851705D01*
X108723109Y-96051664D01*
X108801130Y-96240022D01*
X108914398Y-96409540D01*
X109058561Y-96553703D01*
X109228079Y-96666971D01*
X109416437Y-96744992D01*
X109616396Y-96784766D01*
X109820274Y-96784766D01*
X110020233Y-96744992D01*
X110208591Y-96666971D01*
X110278110Y-96620520D01*
X110441013Y-96729368D01*
X110629371Y-96807389D01*
X110829330Y-96847163D01*
X111033208Y-96847163D01*
X111233167Y-96807389D01*
X111421525Y-96729368D01*
X111591043Y-96616100D01*
X111632172Y-96574971D01*
X111765045Y-96663753D01*
X111953403Y-96741774D01*
X112153362Y-96781548D01*
X112357240Y-96781548D01*
X112557199Y-96741774D01*
X112745557Y-96663753D01*
X112915075Y-96550485D01*
X113059238Y-96406322D01*
X113172506Y-96236804D01*
X113250527Y-96048446D01*
X113290301Y-95848487D01*
X113290301Y-95812387D01*
X113327144Y-95837005D01*
X113515502Y-95915026D01*
X113715461Y-95954800D01*
X113919339Y-95954800D01*
X114119298Y-95915026D01*
X114300000Y-95840176D01*
X114480702Y-95915026D01*
X114680661Y-95954800D01*
X114884539Y-95954800D01*
X115045094Y-95922864D01*
X115070074Y-96048446D01*
X115148095Y-96236804D01*
X115261363Y-96406322D01*
X115405526Y-96550485D01*
X115575044Y-96663753D01*
X115763402Y-96741774D01*
X115963361Y-96781548D01*
X116167239Y-96781548D01*
X116367198Y-96741774D01*
X116555556Y-96663753D01*
X116725074Y-96550485D01*
X116869237Y-96406322D01*
X116982505Y-96236804D01*
X117060526Y-96048446D01*
X117094310Y-95878600D01*
X117094339Y-95878600D01*
X117294298Y-95838826D01*
X117482656Y-95760805D01*
X117487786Y-95757377D01*
X117568944Y-95811605D01*
X117757302Y-95889626D01*
X117957261Y-95929400D01*
X118161139Y-95929400D01*
X118361098Y-95889626D01*
X118541800Y-95814776D01*
X118722502Y-95889626D01*
X118922461Y-95929400D01*
X119126339Y-95929400D01*
X119326298Y-95889626D01*
X119514656Y-95811605D01*
X119526093Y-95803963D01*
X119551486Y-95820930D01*
X119584331Y-95986056D01*
X119662352Y-96174414D01*
X119775620Y-96343932D01*
X119919783Y-96488095D01*
X120089301Y-96601363D01*
X120277659Y-96679384D01*
X120477618Y-96719158D01*
X120681496Y-96719158D01*
X120881455Y-96679384D01*
X121069813Y-96601363D01*
X121239331Y-96488095D01*
X121383494Y-96343932D01*
X121401849Y-96316461D01*
X121774000Y-96316461D01*
X121774000Y-96520339D01*
X121813774Y-96720298D01*
X121891795Y-96908656D01*
X122005063Y-97078174D01*
X122149226Y-97222337D01*
X122318744Y-97335605D01*
X122507102Y-97413626D01*
X122707061Y-97453400D01*
X122910939Y-97453400D01*
X123110898Y-97413626D01*
X123299256Y-97335605D01*
X123468774Y-97222337D01*
X123612937Y-97078174D01*
X123726205Y-96908656D01*
X123804226Y-96720298D01*
X123844000Y-96520339D01*
X123844000Y-96316461D01*
X123804226Y-96116502D01*
X123726205Y-95928144D01*
X123612937Y-95758626D01*
X123468774Y-95614463D01*
X123299256Y-95501195D01*
X123110898Y-95423174D01*
X122910939Y-95383400D01*
X122707061Y-95383400D01*
X122507102Y-95423174D01*
X122318744Y-95501195D01*
X122149226Y-95614463D01*
X122005063Y-95758626D01*
X121891795Y-95928144D01*
X121813774Y-96116502D01*
X121774000Y-96316461D01*
X121401849Y-96316461D01*
X121496762Y-96174414D01*
X121574783Y-95986056D01*
X121614557Y-95786097D01*
X121614557Y-95761690D01*
X121800656Y-95684605D01*
X121970174Y-95571337D01*
X122114337Y-95427174D01*
X122227605Y-95257656D01*
X122305626Y-95069298D01*
X122345400Y-94869339D01*
X122345400Y-94665461D01*
X122305626Y-94465502D01*
X122227605Y-94277144D01*
X122114337Y-94107626D01*
X122108783Y-94102072D01*
X122202205Y-93962256D01*
X122280226Y-93773898D01*
X122320000Y-93573939D01*
X122320000Y-93370061D01*
X122280226Y-93170102D01*
X122202205Y-92981744D01*
X122130948Y-92875100D01*
X122202205Y-92768456D01*
X122280226Y-92580098D01*
X122320000Y-92380139D01*
X122320000Y-92176261D01*
X122280226Y-91976302D01*
X122202205Y-91787944D01*
X122190349Y-91770200D01*
X122202205Y-91752456D01*
X122280226Y-91564098D01*
X122320000Y-91364139D01*
X122320000Y-91160261D01*
X122280226Y-90960302D01*
X122202205Y-90771944D01*
X122088937Y-90602426D01*
X121944774Y-90458263D01*
X121775256Y-90344995D01*
X121597248Y-90271261D01*
X122510600Y-90271261D01*
X122510600Y-90475139D01*
X122550374Y-90675098D01*
X122628395Y-90863456D01*
X122741663Y-91032974D01*
X122885826Y-91177137D01*
X123055344Y-91290405D01*
X123243702Y-91368426D01*
X123443661Y-91408200D01*
X123647539Y-91408200D01*
X123847498Y-91368426D01*
X124035856Y-91290405D01*
X124205374Y-91177137D01*
X124349537Y-91032974D01*
X124462805Y-90863456D01*
X124540826Y-90675098D01*
X124580600Y-90475139D01*
X124580600Y-90271261D01*
X124540826Y-90071302D01*
X124462805Y-89882944D01*
X124349537Y-89713426D01*
X124205374Y-89569263D01*
X124035856Y-89455995D01*
X123847498Y-89377974D01*
X123647539Y-89338200D01*
X123443661Y-89338200D01*
X123243702Y-89377974D01*
X123055344Y-89455995D01*
X122885826Y-89569263D01*
X122741663Y-89713426D01*
X122628395Y-89882944D01*
X122550374Y-90071302D01*
X122510600Y-90271261D01*
X121597248Y-90271261D01*
X121586898Y-90266974D01*
X121506631Y-90251008D01*
X121500446Y-90219913D01*
X121422425Y-90031555D01*
X121309157Y-89862037D01*
X121164994Y-89717874D01*
X120995476Y-89604606D01*
X120807118Y-89526585D01*
X120607159Y-89486811D01*
X120403281Y-89486811D01*
X120203322Y-89526585D01*
X120014964Y-89604606D01*
X119845446Y-89717874D01*
X119701283Y-89862037D01*
X119588015Y-90031555D01*
X119509994Y-90219913D01*
X119478160Y-90379953D01*
X119463856Y-90370395D01*
X119275498Y-90292374D01*
X119075539Y-90252600D01*
X118975376Y-90252600D01*
X118971036Y-90230783D01*
X118893015Y-90042425D01*
X118779747Y-89872907D01*
X118635584Y-89728744D01*
X118466066Y-89615476D01*
X118277708Y-89537455D01*
X118077749Y-89497681D01*
X117873871Y-89497681D01*
X117673912Y-89537455D01*
X117485554Y-89615476D01*
X117316036Y-89728744D01*
X117171873Y-89872907D01*
X117058605Y-90042425D01*
X116982068Y-90227200D01*
X116890461Y-90227200D01*
X116690502Y-90266974D01*
X116502144Y-90344995D01*
X116427207Y-90395066D01*
X116314256Y-90319595D01*
X116125898Y-90241574D01*
X115925939Y-90201800D01*
X115722061Y-90201800D01*
X115522102Y-90241574D01*
X115333744Y-90319595D01*
X115252586Y-90373823D01*
X115247456Y-90370395D01*
X115059098Y-90292374D01*
X114859139Y-90252600D01*
X114655261Y-90252600D01*
X114455302Y-90292374D01*
X114266944Y-90370395D01*
X114249337Y-90382159D01*
X114093898Y-90317774D01*
X113893939Y-90278000D01*
X113690061Y-90278000D01*
X113490102Y-90317774D01*
X113301744Y-90395795D01*
X113172002Y-90482486D01*
X113137616Y-90309615D01*
X113059595Y-90121257D01*
X112946327Y-89951739D01*
X112802164Y-89807576D01*
X112632646Y-89694308D01*
X112444288Y-89616287D01*
X112244329Y-89576513D01*
X112040451Y-89576513D01*
X111840492Y-89616287D01*
X111652134Y-89694308D01*
X111482616Y-89807576D01*
X111338453Y-89951739D01*
X111225185Y-90121257D01*
X111209476Y-90159181D01*
X111183456Y-90141795D01*
X110995098Y-90063774D01*
X110795139Y-90024000D01*
X110622378Y-90024000D01*
X110514158Y-89862037D01*
X110369995Y-89717874D01*
X110200477Y-89604606D01*
X110012119Y-89526585D01*
X109812160Y-89486811D01*
X109608282Y-89486811D01*
X109408323Y-89526585D01*
X109219965Y-89604606D01*
X109050447Y-89717874D01*
X108906284Y-89862037D01*
X108793016Y-90031555D01*
X108791699Y-90034733D01*
X108737739Y-90024000D01*
X108533861Y-90024000D01*
X108333902Y-90063774D01*
X108145544Y-90141795D01*
X107976026Y-90255063D01*
X107831863Y-90399226D01*
X107718595Y-90568744D01*
X107640574Y-90757102D01*
X107600800Y-90957061D01*
X107600800Y-91160939D01*
X107640574Y-91360898D01*
X107718595Y-91549256D01*
X107806824Y-91681300D01*
X107718595Y-91813344D01*
X107640574Y-92001702D01*
X107600800Y-92201661D01*
X107600800Y-92405539D01*
X107640574Y-92605498D01*
X107718595Y-92793856D01*
X107789852Y-92900500D01*
X107718595Y-93007144D01*
X107640574Y-93195502D01*
X107600800Y-93395461D01*
X107600800Y-93599339D01*
X107640574Y-93799298D01*
X107718595Y-93987656D01*
X107831863Y-94157174D01*
X107837417Y-94162728D01*
X107743995Y-94302544D01*
X107665974Y-94490902D01*
X107626200Y-94690861D01*
X107626200Y-94894739D01*
X107638307Y-94955605D01*
X107540698Y-94915174D01*
X107340739Y-94875400D01*
X107136861Y-94875400D01*
X106936902Y-94915174D01*
X106748544Y-94993195D01*
X106579026Y-95106463D01*
X106434863Y-95250626D01*
X106321595Y-95420144D01*
X106243574Y-95608502D01*
X106203800Y-95808461D01*
X106203800Y-96012339D01*
X106228153Y-96134771D01*
X106154256Y-96085395D01*
X105965898Y-96007374D01*
X105765939Y-95967600D01*
X105562061Y-95967600D01*
X105410000Y-95997847D01*
X105410000Y-92734777D01*
X105453144Y-92763605D01*
X105641502Y-92841626D01*
X105841461Y-92881400D01*
X106045339Y-92881400D01*
X106245298Y-92841626D01*
X106433656Y-92763605D01*
X106603174Y-92650337D01*
X106747337Y-92506174D01*
X106860605Y-92336656D01*
X106938626Y-92148298D01*
X106978400Y-91948339D01*
X106978400Y-91744461D01*
X106938626Y-91544502D01*
X106860605Y-91356144D01*
X106747337Y-91186626D01*
X106603174Y-91042463D01*
X106433656Y-90929195D01*
X106245298Y-90851174D01*
X106045339Y-90811400D01*
X105841461Y-90811400D01*
X105641502Y-90851174D01*
X105453144Y-90929195D01*
X105410000Y-90958023D01*
X105410000Y-89204461D01*
X105441800Y-89204461D01*
X105441800Y-89408339D01*
X105481574Y-89608298D01*
X105559595Y-89796656D01*
X105672863Y-89966174D01*
X105817026Y-90110337D01*
X105986544Y-90223605D01*
X106174902Y-90301626D01*
X106374861Y-90341400D01*
X106578739Y-90341400D01*
X106778698Y-90301626D01*
X106967056Y-90223605D01*
X107136574Y-90110337D01*
X107280737Y-89966174D01*
X107394005Y-89796656D01*
X107472026Y-89608298D01*
X107511800Y-89408339D01*
X107511800Y-89204461D01*
X107472026Y-89004502D01*
X107394005Y-88816144D01*
X107280737Y-88646626D01*
X107136574Y-88502463D01*
X106967056Y-88389195D01*
X106778698Y-88311174D01*
X106578739Y-88271400D01*
X106374861Y-88271400D01*
X106174902Y-88311174D01*
X105986544Y-88389195D01*
X105817026Y-88502463D01*
X105672863Y-88646626D01*
X105559595Y-88816144D01*
X105481574Y-89004502D01*
X105441800Y-89204461D01*
X105410000Y-89204461D01*
X105410000Y-87647000D01*
X108513328Y-87647000D01*
X108525588Y-87771482D01*
X108561898Y-87891180D01*
X108620863Y-88001494D01*
X108700215Y-88098185D01*
X108796906Y-88177537D01*
X108907220Y-88236502D01*
X109026918Y-88272812D01*
X109151400Y-88285072D01*
X109340650Y-88282000D01*
X109499400Y-88123250D01*
X109499400Y-87249000D01*
X109753400Y-87249000D01*
X109753400Y-88123250D01*
X109912150Y-88282000D01*
X110101400Y-88285072D01*
X110225882Y-88272812D01*
X110345580Y-88236502D01*
X110439200Y-88186460D01*
X110532820Y-88236502D01*
X110652518Y-88272812D01*
X110777000Y-88285072D01*
X110966250Y-88282000D01*
X111125000Y-88123250D01*
X111125000Y-87249000D01*
X111379000Y-87249000D01*
X111379000Y-88123250D01*
X111537750Y-88282000D01*
X111618904Y-88283317D01*
X111655435Y-88466975D01*
X111733456Y-88655333D01*
X111846724Y-88824851D01*
X111990887Y-88969014D01*
X112160405Y-89082282D01*
X112348763Y-89160303D01*
X112548722Y-89200077D01*
X112752600Y-89200077D01*
X112952559Y-89160303D01*
X113140917Y-89082282D01*
X113310435Y-88969014D01*
X113454598Y-88824851D01*
X113567866Y-88655333D01*
X113645887Y-88466975D01*
X113682594Y-88282436D01*
X113709450Y-88282000D01*
X113868200Y-88123250D01*
X113868200Y-87249000D01*
X114122200Y-87249000D01*
X114122200Y-88123250D01*
X114280950Y-88282000D01*
X114470200Y-88285072D01*
X114594682Y-88272812D01*
X114714380Y-88236502D01*
X114824694Y-88177537D01*
X114921385Y-88098185D01*
X115000737Y-88001494D01*
X115059702Y-87891180D01*
X115096012Y-87771482D01*
X115108272Y-87647000D01*
X115117328Y-87647000D01*
X115129588Y-87771482D01*
X115165898Y-87891180D01*
X115224863Y-88001494D01*
X115304215Y-88098185D01*
X115400906Y-88177537D01*
X115511220Y-88236502D01*
X115630918Y-88272812D01*
X115755400Y-88285072D01*
X115944650Y-88282000D01*
X116103400Y-88123250D01*
X116103400Y-87249000D01*
X116357400Y-87249000D01*
X116357400Y-88123250D01*
X116516150Y-88282000D01*
X116617800Y-88283650D01*
X116617800Y-88290739D01*
X116657574Y-88490698D01*
X116735595Y-88679056D01*
X116848863Y-88848574D01*
X116993026Y-88992737D01*
X117162544Y-89106005D01*
X117350902Y-89184026D01*
X117550861Y-89223800D01*
X117754739Y-89223800D01*
X117954698Y-89184026D01*
X118143056Y-89106005D01*
X118312574Y-88992737D01*
X118456737Y-88848574D01*
X118570005Y-88679056D01*
X118648026Y-88490698D01*
X118687800Y-88290739D01*
X118687800Y-88086861D01*
X118648026Y-87886902D01*
X118570005Y-87698544D01*
X118456737Y-87529026D01*
X118312574Y-87384863D01*
X118143056Y-87271595D01*
X117954698Y-87193574D01*
X117754739Y-87153800D01*
X117550861Y-87153800D01*
X117350902Y-87193574D01*
X117192031Y-87259381D01*
X117181650Y-87249000D01*
X116357400Y-87249000D01*
X116103400Y-87249000D01*
X115279150Y-87249000D01*
X115120400Y-87407750D01*
X115117328Y-87647000D01*
X115108272Y-87647000D01*
X115105200Y-87407750D01*
X114946450Y-87249000D01*
X114122200Y-87249000D01*
X113868200Y-87249000D01*
X113142605Y-87249000D01*
X113140917Y-87247872D01*
X112952559Y-87169851D01*
X112752600Y-87130077D01*
X112548722Y-87130077D01*
X112348763Y-87169851D01*
X112160405Y-87247872D01*
X112158717Y-87249000D01*
X111379000Y-87249000D01*
X111125000Y-87249000D01*
X109753400Y-87249000D01*
X109499400Y-87249000D01*
X108675150Y-87249000D01*
X108516400Y-87407750D01*
X108513328Y-87647000D01*
X105410000Y-87647000D01*
X105410000Y-85469514D01*
X105852927Y-85464303D01*
X105791626Y-85505263D01*
X105647463Y-85649426D01*
X105534195Y-85818944D01*
X105456174Y-86007302D01*
X105416400Y-86207261D01*
X105416400Y-86411139D01*
X105456174Y-86611098D01*
X105534195Y-86799456D01*
X105647463Y-86968974D01*
X105791626Y-87113137D01*
X105961144Y-87226405D01*
X106149502Y-87304426D01*
X106349461Y-87344200D01*
X106553339Y-87344200D01*
X106753298Y-87304426D01*
X106941656Y-87226405D01*
X107111174Y-87113137D01*
X107255337Y-86968974D01*
X107368605Y-86799456D01*
X107446626Y-86611098D01*
X107486400Y-86411139D01*
X107486400Y-86207261D01*
X107446626Y-86007302D01*
X107368605Y-85818944D01*
X107255337Y-85649426D01*
X107111174Y-85505263D01*
X107029163Y-85450465D01*
X108513328Y-85433004D01*
X108513328Y-85659500D01*
X108530152Y-85830316D01*
X108579977Y-85994567D01*
X108660888Y-86145942D01*
X108680499Y-86169839D01*
X108620863Y-86242506D01*
X108561898Y-86352820D01*
X108525588Y-86472518D01*
X108513328Y-86597000D01*
X108516400Y-86836250D01*
X108675150Y-86995000D01*
X109499400Y-86995000D01*
X109499400Y-86975000D01*
X109753400Y-86975000D01*
X109753400Y-86995000D01*
X111125000Y-86995000D01*
X111125000Y-86975000D01*
X111379000Y-86975000D01*
X111379000Y-86995000D01*
X112203250Y-86995000D01*
X112362000Y-86836250D01*
X112365072Y-86597000D01*
X112352812Y-86472518D01*
X112316502Y-86352820D01*
X112257537Y-86242506D01*
X112197901Y-86169839D01*
X112217512Y-86145942D01*
X112298423Y-85994567D01*
X112348248Y-85830316D01*
X112365072Y-85659500D01*
X112365072Y-85387690D01*
X112882128Y-85381607D01*
X112882128Y-85659500D01*
X112898952Y-85830316D01*
X112948777Y-85994567D01*
X113029688Y-86145942D01*
X113049299Y-86169839D01*
X112989663Y-86242506D01*
X112930698Y-86352820D01*
X112894388Y-86472518D01*
X112882128Y-86597000D01*
X112885200Y-86836250D01*
X113043950Y-86995000D01*
X113868200Y-86995000D01*
X113868200Y-86975000D01*
X114122200Y-86975000D01*
X114122200Y-86995000D01*
X114946450Y-86995000D01*
X115105200Y-86836250D01*
X115108272Y-86597000D01*
X115096012Y-86472518D01*
X115059702Y-86352820D01*
X115000737Y-86242506D01*
X114941101Y-86169839D01*
X114960712Y-86145942D01*
X115041623Y-85994567D01*
X115091448Y-85830316D01*
X115108272Y-85659500D01*
X115108272Y-85355417D01*
X115117328Y-85355310D01*
X115117328Y-85659500D01*
X115134152Y-85830316D01*
X115183977Y-85994567D01*
X115264888Y-86145942D01*
X115284499Y-86169839D01*
X115224863Y-86242506D01*
X115165898Y-86352820D01*
X115129588Y-86472518D01*
X115117328Y-86597000D01*
X115120400Y-86836250D01*
X115279150Y-86995000D01*
X116103400Y-86995000D01*
X116103400Y-86975000D01*
X116357400Y-86975000D01*
X116357400Y-86995000D01*
X117181650Y-86995000D01*
X117340400Y-86836250D01*
X117343472Y-86597000D01*
X117331212Y-86472518D01*
X117294902Y-86352820D01*
X117235937Y-86242506D01*
X117176301Y-86169839D01*
X117195912Y-86145942D01*
X117276823Y-85994567D01*
X117326648Y-85830316D01*
X117343472Y-85659500D01*
X117343472Y-85329121D01*
X117506545Y-85327202D01*
X117505592Y-85330345D01*
G36*
X124397000Y-86080600D02*
G01*
X124417000Y-86080600D01*
X124417000Y-86334600D01*
X124397000Y-86334600D01*
X124397000Y-86354600D01*
X124143000Y-86354600D01*
X124143000Y-86334600D01*
X124123000Y-86334600D01*
X124123000Y-86080600D01*
X124143000Y-86080600D01*
X124143000Y-86060600D01*
X124397000Y-86060600D01*
X124397000Y-86080600D01*
X124397000Y-86080600D01*
G37*
X124397000Y-86080600D02*
X124417000Y-86080600D01*
X124417000Y-86334600D01*
X124397000Y-86334600D01*
X124397000Y-86354600D01*
X124143000Y-86354600D01*
X124143000Y-86334600D01*
X124123000Y-86334600D01*
X124123000Y-86080600D01*
X124143000Y-86080600D01*
X124143000Y-86060600D01*
X124397000Y-86060600D01*
X124397000Y-86080600D01*
M02*
