M48
; DRILL file {KiCad (5.1.2)-1} date 8/13/2019 3:02:39 PM
; FORMAT={-:-/ absolute / inch / decimal}
; #@! TF.CreationDate,2019-08-13T15:02:39-05:00
; #@! TF.GenerationSoftware,Kicad,Pcbnew,(5.1.2)-1
; #@! TF.FileFunction,Plated,1,4,PTH
FMAT,2
INCH
T1C0.0079
T2C0.0157
T3C0.0197
T4C0.0236
T5C0.0394
T6C0.0591
T7C0.1063
T8C0.1201
%
G90
G05
T1
X6.4726Y-2.6624
X4.7231Y-4.6114
X6.1974Y-5.0009
X6.238Y-5.0009
X6.2786Y-5.0009
X6.4726Y-2.703
X6.4726Y-2.7436
X6.5556Y-3.0084
X6.5556Y-3.049
X6.5556Y-3.0896
X4.7231Y-4.652
X4.7231Y-4.6926
T2
X2.37Y-3.9125
X2.4575Y-4.0125
X2.5425Y-3.915
X2.6125Y-3.915
X2.695Y-4.0125
X2.8075Y-3.915
X3.3204Y-2.963
X3.48Y-2.93
X3.58Y-2.705
X3.605Y-3.0775
X4.0175Y-5.62
X4.02Y-5.135
X4.1475Y-2.755
X4.1475Y-2.98
X4.3475Y-2.83
X4.3475Y-3.05
X4.3856Y-4.7793
X4.41Y-5.22
X4.432Y-2.194
X4.52Y-5.375
X4.54Y-4.408
X4.558Y-3.32
X4.5582Y-3.5136
X4.6346Y-3.1491
X4.635Y-5.475
X4.64Y-5.4175
X4.728Y-3.002
X4.7455Y-3.362
X4.747Y-3.5595
X4.7485Y-3.8145
X4.7835Y-4.019
X4.79Y-4.988
X4.92Y-2.054
X4.92Y-2.152
X4.92Y-2.204
X4.922Y-4.444
X4.926Y-4.218
X4.933Y-2.964
X4.972Y-2.738
X5.0025Y-2.5675
X5.054Y-4.8
X5.0875Y-3.19
X5.0999Y-2.83
X5.1183Y-3.1573
X5.13Y-2.8775
X5.1525Y-2.83
X5.154Y-4.29
X5.1575Y-5.2635
X5.1575Y-5.3075
X5.1575Y-5.3575
X5.215Y-4.1725
X5.2386Y-2.8084
X5.2725Y-5.135
X5.33Y-4.84
X5.3712Y-5.022
X5.4065Y-2.9635
X5.448Y-4.18
X5.458Y-2.796
X5.494Y-4.028
X5.5Y-5.1718
X5.5301Y-5.7228
X5.54Y-4.762
X5.5475Y-5.3375
X5.5713Y-4.0947
X5.6164Y-4.826
X5.698Y-4.484
X5.704Y-4.1325
X5.712Y-3.908
X5.772Y-5.2492
X5.8065Y-3.1275
X5.8075Y-3.3255
X5.808Y-3.521
X5.854Y-4.068
X5.86Y-3.6895
X5.862Y-3.786
X5.9591Y-4.1323
X5.962Y-3.786
X5.968Y-3.068
X5.98Y-3.264
X5.982Y-3.452
X5.982Y-3.84
X6.094Y-4.588
X6.094Y-4.664
X6.0975Y-4.88
X6.15Y-3.876
X6.15Y-3.932
X6.1503Y-4.4095
X6.168Y-3.328
X6.1816Y-5.3441
X6.248Y-3.278
X6.2564Y-3.45
X6.2678Y-2.893
X6.2807Y-4.0371
X6.3042Y-3.7364
X6.314Y-3.8692
X6.314Y-4.524
X6.326Y-4.37
X6.3593Y-4.002
X6.3776Y-3.7366
X6.3782Y-3.7978
X6.379Y-4.0549
X6.3849Y-4.0939
X6.408Y-3.59
X6.426Y-3.8496
X6.4438Y-4.087
X6.4566Y-3.7348
X6.486Y-3.59
X6.4967Y-4.0891
X6.504Y-4.37
X6.514Y-4.846
X6.5595Y-4.7525
X6.61Y-3.278
X6.612Y-3.454
X6.615Y-2.5418
X6.668Y-4.96
X6.678Y-3.588
X6.6928Y-2.8353
X6.7125Y-4.19
X6.7727Y-3.2923
X6.774Y-3.066
X6.78Y-4.1225
X6.8028Y-3.515
X6.8187Y-3.292
X6.858Y-3.2937
X6.858Y-4.59
X6.8596Y-2.7796
X6.874Y-3.842
X6.886Y-5.042
X6.898Y-2.914
X6.902Y-3.086
X6.904Y-3.814
X6.92Y-2.492
X6.9241Y-4.0921
X6.942Y-3.896
X7.0048Y-3.7048
X7.0393Y-4.2162
X7.064Y-2.864
X7.064Y-2.916
X7.07Y-3.91
X7.076Y-4.62
X7.0812Y-3.7092
X7.084Y-5.35
X7.1023Y-4.2227
X7.108Y-3.7386
X7.135Y-3.2225
X7.137Y-3.4005
X7.1407Y-3.9039
X7.1409Y-3.9981
X7.15Y-3.738
X7.156Y-4.598
X7.1562Y-4.5578
X7.158Y-4.516
X7.168Y-2.862
X7.1755Y-4.3931
X7.193Y-3.2745
X7.195Y-3.3405
X7.2Y-4.5001
X7.205Y-4.5586
X7.2069Y-4.366
X7.223Y-3.6796
X7.2244Y-4.1595
X7.2311Y-2.8465
X7.2423Y-2.954
X7.244Y-3.148
X7.248Y-4.328
X7.253Y-3.2825
X7.2544Y-4.5592
X7.255Y-3.3445
X7.256Y-3.954
X7.2743Y-4.3822
X7.298Y-4.802
X7.3127Y-4.3565
X7.313Y-3.2225
X7.313Y-3.4025
X7.3214Y-2.7895
X7.342Y-2.882
X7.394Y-2.85
X7.4391Y-4.5234
X7.478Y-3.834
X7.4817Y-5.0106
X7.492Y-2.728
X7.499Y-4.4525
X7.5012Y-4.6273
X7.554Y-2.8465
X7.56Y-4.508
X7.5652Y-4.5644
X7.5673Y-4.884
X7.585Y-5.075
X7.592Y-3.982
X7.5973Y-4.9137
X7.6172Y-4.5095
X7.618Y-4.57
X7.646Y-5.256
X7.648Y-2.5695
X7.6575Y-3.1618
X7.676Y-4.628
X7.677Y-4.452
X7.6954Y-3.2146
X7.703Y-3.421
X7.7036Y-3.5024
X7.712Y-4.91
X7.724Y-3.9225
X7.7281Y-4.217
X7.732Y-5.012
X7.7475Y-3.664
X7.7655Y-4.9105
X7.768Y-3.894
X7.7862Y-3.2402
X7.7868Y-3.1588
X7.789Y-5.142
X7.8045Y-3.72
X7.866Y-2.818
X7.906Y-2.878
X7.95Y-5.5025
X7.972Y-4.4824
X7.972Y-4.5218
X7.972Y-4.5612
X7.972Y-4.6005
X7.972Y-4.6399
X7.976Y-4.04
X7.98Y-5.1275
X8.018Y-3.332
X8.0806Y-3.6838
X8.088Y-3.894
X8.128Y-4.636
X8.194Y-4.782
X8.208Y-3.456
X8.208Y-3.59
X8.2256Y-4.862
X8.2259Y-4.8226
X8.2496Y-5.1415
X8.2714Y-3.747
X8.304Y-2.938
X8.304Y-3.076
X8.3182Y-3.393
X8.326Y-4.4542
X8.3404Y-4.6626
X8.3601Y-4.0726
X8.382Y-5.152
X8.4036Y-3.6334
X8.404Y-2.846
X8.4572Y-5.5552
X8.465Y-5.051
X8.466Y-3.634
X8.4814Y-5.1502
X8.51Y-2.65
X8.516Y-2.81
X8.533Y-3.402
X8.538Y-2.242
X8.5547Y-4.6404
X8.5832Y-4.67
X8.6034Y-3.3286
X8.612Y-2.65
X8.666Y-3.896
X8.6838Y-5.0314
X8.716Y-4.075
X8.716Y-4.36
X8.746Y-3.393
X8.77Y-2.562
X8.804Y-2.998
X8.872Y-3.98
X9.0454Y-2.8004
X9.055Y-4.12
X9.0598Y-5.2622
X9.0602Y-5.5424
X9.0656Y-3.4998
X9.1394Y-5.69
X9.2Y-2.38
X9.2008Y-2.3012
X9.342Y-2.438
X9.342Y-2.81
X9.374Y-2.938
X9.3886Y-5.6224
X9.62Y-2.862
T3
X2.3663Y-5.69
X2.3896Y-5.6336
X2.3896Y-5.7464
X2.446Y-5.6103
X2.446Y-5.7697
X2.5024Y-5.6336
X2.5024Y-5.7464
X2.5257Y-5.69
X9.8503Y-5.69
X9.8736Y-5.6336
X9.8736Y-5.7464
X9.93Y-5.6103
X9.93Y-5.7697
X9.9864Y-5.6336
X9.9864Y-5.7464
X10.0097Y-5.69
X9.8503Y-2.146
X9.8736Y-2.0896
X9.8736Y-2.2024
X9.93Y-2.0663
X9.93Y-2.2257
X9.9864Y-2.0896
X9.9864Y-2.2024
X10.0097Y-2.146
X2.3663Y-2.146
X2.3896Y-2.0896
X2.3896Y-2.2024
X2.446Y-2.0663
X2.446Y-2.2257
X2.5024Y-2.0896
X2.5024Y-2.2024
X2.5257Y-2.146
T4
X3.69Y-2.875
X3.765Y-2.815
X3.8525Y-2.7275
X3.9075Y-3.22
X5.4875Y-5.555
X6.17Y-2.545
X6.17Y-2.7225
X6.17Y-3.0375
X6.2975Y-5.4475
T5
X2.8141Y-4.6539
X2.8141Y-4.763
X2.8141Y-4.872
X2.8141Y-4.9811
X2.9259Y-4.5994
X2.9259Y-4.7084
X2.9259Y-4.8175
X2.9259Y-4.9266
X2.9259Y-5.0356
T6
X9.84Y-3.16
X9.84Y-3.36
X9.94Y-3.26
X10.04Y-3.16
X10.04Y-3.36
X2.3104Y-2.5016
X2.3104Y-2.7016
X2.4104Y-2.6016
X2.5104Y-2.5016
X2.5104Y-2.7016
X9.84Y-4.48
X9.84Y-4.68
X9.94Y-4.58
X10.04Y-4.48
X10.04Y-4.68
T7
X9.93Y-5.69
X9.93Y-2.146
X2.446Y-2.146
X2.446Y-5.69
T8
X2.87Y-4.3256
X2.87Y-5.3094
T0
M30
