G04 #@! TF.GenerationSoftware,KiCad,Pcbnew,(5.1.2)-1*
G04 #@! TF.CreationDate,2019-08-13T15:01:43-05:00*
G04 #@! TF.ProjectId,EMI_sensor_control_Rev1.0,454d495f-7365-46e7-936f-725f636f6e74,rev?*
G04 #@! TF.SameCoordinates,Original*
G04 #@! TF.FileFunction,Copper,L2,Inr*
G04 #@! TF.FilePolarity,Positive*
%FSLAX46Y46*%
G04 Gerber Fmt 4.6, Leading zero omitted, Abs format (unit mm)*
G04 Created by KiCad (PCBNEW (5.1.2)-1) date 2019-08-13 15:01:43*
%MOMM*%
%LPD*%
G04 APERTURE LIST*
%ADD10C,0.800000*%
%ADD11C,5.400000*%
%ADD12C,2.250000*%
%ADD13C,2.000000*%
%ADD14C,3.500000*%
%ADD15C,0.500000*%
%ADD16C,1.200000*%
%ADD17C,0.250000*%
%ADD18C,1.000000*%
%ADD19C,0.500000*%
G04 APERTURE END LIST*
D10*
X253653891Y-143094109D03*
X252222000Y-142501000D03*
X250790109Y-143094109D03*
X250197000Y-144526000D03*
X250790109Y-145957891D03*
X252222000Y-146551000D03*
X253653891Y-145957891D03*
X254247000Y-144526000D03*
D11*
X252222000Y-144526000D03*
D10*
X63560291Y-143094109D03*
X62128400Y-142501000D03*
X60696509Y-143094109D03*
X60103400Y-144526000D03*
X60696509Y-145957891D03*
X62128400Y-146551000D03*
X63560291Y-145957891D03*
X64153400Y-144526000D03*
D11*
X62128400Y-144526000D03*
D10*
X253653891Y-53076509D03*
X252222000Y-52483400D03*
X250790109Y-53076509D03*
X250197000Y-54508400D03*
X250790109Y-55940291D03*
X252222000Y-56533400D03*
X253653891Y-55940291D03*
X254247000Y-54508400D03*
D11*
X252222000Y-54508400D03*
X62128400Y-54508400D03*
D10*
X64153400Y-54508400D03*
X63560291Y-55940291D03*
X62128400Y-56533400D03*
X60696509Y-55940291D03*
X60103400Y-54508400D03*
X60696509Y-53076509D03*
X62128400Y-52483400D03*
X63560291Y-53076509D03*
D12*
X249936000Y-113792000D03*
X255016000Y-113792000D03*
X255016000Y-118872000D03*
X249936000Y-118872000D03*
X252476000Y-116332000D03*
X249936000Y-80264000D03*
X255016000Y-80264000D03*
X255016000Y-85344000D03*
X249936000Y-85344000D03*
X252476000Y-82804000D03*
X63764160Y-68620640D03*
X58684160Y-68620640D03*
X58684160Y-63540640D03*
X63764160Y-63540640D03*
X61224160Y-66080640D03*
D13*
X74318000Y-127904500D03*
X71478000Y-126519500D03*
X74318000Y-125134500D03*
X71478000Y-123749500D03*
X74318000Y-122364500D03*
X71478000Y-120979500D03*
X74318000Y-119594500D03*
X71478000Y-118209500D03*
X74318000Y-116824500D03*
D14*
X72898000Y-109869500D03*
X72898000Y-134859500D03*
D15*
X119967000Y-117130800D03*
X119967000Y-118160800D03*
X119967000Y-119190800D03*
X166512500Y-76414600D03*
X166512500Y-77444600D03*
X166512500Y-78474600D03*
X164404300Y-69686200D03*
X164404300Y-68656200D03*
X164404300Y-67626200D03*
X159475200Y-127022600D03*
X158445200Y-127022600D03*
X157415200Y-127022600D03*
D10*
X88392000Y-74422000D03*
X161991040Y-94909640D03*
X163220400Y-97779840D03*
X162006280Y-96464120D03*
X160375600Y-98277680D03*
X163997640Y-94863920D03*
X160126680Y-94904560D03*
X184277000Y-84950300D03*
X182702200Y-83172300D03*
X181229000Y-81851500D03*
X185750200Y-81851500D03*
X184226200Y-83375500D03*
X182753000Y-84848700D03*
X185750200Y-86423500D03*
X181279800Y-86372700D03*
X181767053Y-115768547D03*
X181813200Y-114706400D03*
X192210200Y-124053600D03*
X190474600Y-113093500D03*
X194995800Y-113080800D03*
X190531750Y-117532150D03*
X194970400Y-117551200D03*
X192024000Y-114503200D03*
X193478150Y-114541300D03*
X192156080Y-115935760D03*
X193496499Y-116078701D03*
X197840600Y-130606800D03*
X202488800Y-113853689D03*
X179933600Y-135890000D03*
X195671392Y-88961008D03*
X195655298Y-86894302D03*
X198235400Y-94488000D03*
X196785400Y-93065600D03*
X196189600Y-99632600D03*
X183054838Y-110896610D03*
X197785147Y-80233947D03*
X197769053Y-82300653D03*
X203657200Y-84632800D03*
X194499400Y-80310147D03*
X195462243Y-81649801D03*
X223621600Y-76149200D03*
X216154000Y-67310000D03*
X190296800Y-69291200D03*
X183997600Y-79959200D03*
X179425600Y-74066400D03*
X175209200Y-74015600D03*
X165201600Y-110998000D03*
X160680400Y-110998000D03*
X158699200Y-83261200D03*
X121500900Y-102082600D03*
X115778280Y-89245440D03*
X115773200Y-84328000D03*
X120091200Y-76250800D03*
X138379200Y-106172000D03*
X135382000Y-122936000D03*
X140716000Y-120954800D03*
X144729200Y-113893600D03*
X154787600Y-118465600D03*
X125018800Y-112877600D03*
X115316000Y-111963200D03*
X121666000Y-126695200D03*
X145084800Y-99263200D03*
X126288800Y-69545200D03*
X138633200Y-71018400D03*
X151587200Y-77927200D03*
X125120400Y-107137200D03*
X151942800Y-97536000D03*
X151942800Y-87680800D03*
X151892000Y-82905600D03*
X165455600Y-123088400D03*
X244348000Y-72694800D03*
X237286800Y-71374000D03*
X237286800Y-61925200D03*
X216306400Y-71374000D03*
X159202120Y-73482200D03*
X168021000Y-64561720D03*
X230266240Y-88894920D03*
X232140760Y-144526000D03*
X230129080Y-140776960D03*
X213451440Y-92288360D03*
X211282280Y-86182200D03*
X217288280Y-117866160D03*
X208937647Y-122494825D03*
X220568520Y-127797560D03*
X215427560Y-130815080D03*
X212345640Y-103444040D03*
X136428480Y-127558800D03*
X146608800Y-133329680D03*
X157012640Y-135740140D03*
X140464540Y-145359120D03*
X105346500Y-69977000D03*
X105346500Y-75692000D03*
X131000500Y-136080500D03*
X140906500Y-135572500D03*
X62420500Y-101917500D03*
X68453000Y-101917500D03*
X71310500Y-99441000D03*
X60198000Y-99377500D03*
X66357500Y-99441000D03*
X64579500Y-99441000D03*
X114808000Y-136525000D03*
X102108000Y-130429000D03*
X102044500Y-142748000D03*
X132461000Y-105981500D03*
X169996291Y-72015791D03*
X188954287Y-114893213D03*
X229997000Y-104648000D03*
X180398847Y-107256153D03*
X84338160Y-75260200D03*
X133060440Y-71333360D03*
X142656560Y-122580400D03*
X158912560Y-87630000D03*
X233700320Y-58450480D03*
X124968000Y-55981600D03*
X124968000Y-54660800D03*
X124968000Y-52171600D03*
D16*
X93726000Y-73025000D03*
D10*
X133921500Y-130429000D03*
D16*
X95631000Y-71501000D03*
X97853500Y-69278500D03*
X139382500Y-141097000D03*
X159956500Y-138366500D03*
X99250500Y-81788000D03*
X156718000Y-64643000D03*
X156718000Y-69151500D03*
X156718000Y-77152500D03*
D10*
X220116400Y-98958400D03*
X225348800Y-101092000D03*
X233680000Y-60452000D03*
X222758000Y-65074800D03*
X174233840Y-70601840D03*
X205247240Y-93568520D03*
X210093560Y-95173800D03*
X230118920Y-133659880D03*
X209539840Y-130595200D03*
X229753160Y-71130160D03*
X205435200Y-98907600D03*
X216865200Y-56946800D03*
X210921600Y-78130400D03*
X210921600Y-74625200D03*
X200812400Y-73101200D03*
X208483200Y-91186000D03*
X175768000Y-63296800D03*
X175310800Y-78384400D03*
X238099600Y-74625200D03*
X214812880Y-141102080D03*
X238470440Y-142808960D03*
X211480400Y-113136680D03*
X211846160Y-118430040D03*
X196293740Y-107111800D03*
X183499760Y-105651300D03*
X178798220Y-107091480D03*
X170497500Y-106426000D03*
X154876500Y-123952000D03*
X166610200Y-120713500D03*
X156210000Y-98450400D03*
X164744400Y-91186000D03*
X156667200Y-84531200D03*
X147523200Y-89433400D03*
X147510500Y-84467700D03*
X147485100Y-79438500D03*
X137325100Y-75272900D03*
X125298200Y-75285600D03*
X120535700Y-85394800D03*
X120573800Y-90411300D03*
X120611900Y-96888300D03*
X139547600Y-102311200D03*
X141510742Y-104005658D03*
X128371600Y-121920000D03*
X130911600Y-108966000D03*
X148691600Y-103327200D03*
X148894800Y-96163800D03*
X112014000Y-132588000D03*
X127063500Y-65214500D03*
X130873500Y-71882000D03*
X184302400Y-100431600D03*
X206451200Y-117754400D03*
X202590400Y-102616000D03*
X192836800Y-101142800D03*
X156210000Y-99872800D03*
X160375600Y-114909600D03*
X175871498Y-103939120D03*
X169621200Y-91135200D03*
X167944800Y-87731600D03*
X167894000Y-83261200D03*
X172059600Y-77876400D03*
X208483200Y-87782400D03*
X208127600Y-121462800D03*
X163672520Y-103809800D03*
X154787600Y-116535200D03*
X174904400Y-128066800D03*
X208930240Y-123494800D03*
X218013280Y-118618000D03*
X218526360Y-84546440D03*
X161526200Y-101650800D03*
X162763200Y-91186000D03*
X156217620Y-112001300D03*
X191871600Y-72302200D03*
X186486800Y-73202800D03*
X194259200Y-65264200D03*
X185964599Y-70852200D03*
X179425600Y-72745600D03*
X183954700Y-75031600D03*
X183006575Y-115788869D03*
X197243700Y-124726700D03*
X184262545Y-115803700D03*
X185369200Y-121970800D03*
X192659000Y-128905000D03*
X190035447Y-127270247D03*
X194208400Y-133502400D03*
X182880000Y-114303701D03*
X174193200Y-116586000D03*
X179730400Y-117348000D03*
X192971242Y-124808990D03*
X202488800Y-114853692D03*
X117856000Y-137604500D03*
X130004953Y-80195353D03*
X129221600Y-81026000D03*
X117729000Y-139065000D03*
X139700000Y-131363720D03*
X111394240Y-121394220D03*
X181762400Y-116789200D03*
X117718840Y-79987140D03*
X112572800Y-55727600D03*
X131000500Y-134810500D03*
X131000500Y-133693830D03*
X199796400Y-71577200D03*
X182067200Y-72694800D03*
X169367200Y-125984000D03*
X195884800Y-124714000D03*
X110426500Y-71882000D03*
X129536200Y-71882000D03*
X91567000Y-78168500D03*
X110426500Y-77470000D03*
X130302000Y-73088500D03*
X90932000Y-68707000D03*
X215036400Y-92303600D03*
X213461600Y-72288400D03*
X218744800Y-67310000D03*
X187807600Y-72390000D03*
X183669601Y-72302200D03*
X202692000Y-130238500D03*
X201930000Y-139763500D03*
X221386400Y-103505000D03*
X221386400Y-110744000D03*
X222148400Y-86182200D03*
X216738200Y-86410800D03*
X212902800Y-130860800D03*
X215011000Y-128295400D03*
X196392800Y-127304800D03*
X197307200Y-98907600D03*
X182258574Y-111583967D03*
X202488800Y-117853701D03*
X144881600Y-104966600D03*
X172026580Y-83624420D03*
X184767220Y-111307880D03*
X151361140Y-104960420D03*
X202488800Y-116853698D03*
X173194067Y-83618029D03*
X159530880Y-102542340D03*
X185742580Y-110656200D03*
X181378860Y-101551740D03*
X181373780Y-99159060D03*
X172791670Y-89281550D03*
X202488800Y-115853695D03*
X184099200Y-109931200D03*
X172212000Y-104712600D03*
X162026200Y-102993930D03*
X174193200Y-83659700D03*
X162176263Y-103984768D03*
X177922347Y-94102347D03*
X179862053Y-94213253D03*
X175361600Y-96875600D03*
X180543200Y-94960160D03*
X174599600Y-97586800D03*
X181610000Y-94945200D03*
X176326800Y-98958400D03*
X183464599Y-93463071D03*
X165016626Y-103862731D03*
X151434800Y-96163800D03*
X148844000Y-93713800D03*
X189941200Y-97383600D03*
X179578000Y-99314000D03*
D17*
X140716000Y-120954800D02*
X140716000Y-117906800D01*
X140716000Y-117906800D02*
X144729200Y-113893600D01*
X152298400Y-120954800D02*
X140716000Y-120954800D01*
X154787600Y-118465600D02*
X152298400Y-120954800D01*
X144729200Y-113893600D02*
X154432000Y-113893600D01*
X156623590Y-116085190D02*
X166556401Y-116085191D01*
X154432000Y-113893600D02*
X156623590Y-116085190D01*
X166556401Y-116085191D02*
X171832410Y-121361200D01*
X171832410Y-121361200D02*
X182829200Y-121361200D01*
X216997280Y-85577680D02*
X217563270Y-86143670D01*
X211282280Y-86182200D02*
X211886800Y-85577680D01*
X211886800Y-85577680D02*
X216997280Y-85577680D01*
X217563270Y-86143670D02*
X217563270Y-117591170D01*
X217563270Y-117591170D02*
X217288280Y-117866160D01*
X187001991Y-125533991D02*
X182829200Y-121361200D01*
X195694993Y-125533991D02*
X187001991Y-125533991D01*
X197117801Y-126956799D02*
X195694993Y-125533991D01*
X197117801Y-127186521D02*
X197117801Y-126956799D01*
X208937647Y-122494825D02*
X208857213Y-122494825D01*
X208857213Y-122494825D02*
X208183480Y-123168558D01*
X208183480Y-123168558D02*
X208183480Y-123605150D01*
X208183480Y-123605150D02*
X204171840Y-127616790D01*
X204171840Y-127616790D02*
X197548070Y-127616790D01*
X197548070Y-127616790D02*
X197117801Y-127186521D01*
X188226700Y-115620800D02*
X188954287Y-114893213D01*
X185978800Y-115620800D02*
X188226700Y-115620800D01*
X184302400Y-117297200D02*
X185978800Y-115620800D01*
X182829200Y-121361200D02*
X184302400Y-119888000D01*
X184302400Y-119888000D02*
X184302400Y-117297200D01*
D18*
X99250500Y-78549500D02*
X99250500Y-81788000D01*
X93726000Y-73025000D02*
X99250500Y-78549500D01*
X154949979Y-62874979D02*
X156718000Y-64643000D01*
X97853500Y-69278500D02*
X104257021Y-62874979D01*
X104257021Y-62874979D02*
X154949979Y-62874979D01*
X156718000Y-64643000D02*
X156718000Y-69151500D01*
X156718000Y-69151500D02*
X156718000Y-77152500D01*
D19*
X174233840Y-78565442D02*
X174902799Y-79234401D01*
X174233840Y-70601840D02*
X174233840Y-78565442D01*
X174902799Y-79234401D02*
X175718801Y-79234401D01*
X175718801Y-79234401D02*
X175868792Y-79084410D01*
X175868792Y-79084410D02*
X190763130Y-79084410D01*
X190763130Y-79084410D02*
X205247240Y-93568520D01*
X210093560Y-95173800D02*
X210093560Y-113634520D01*
X210093560Y-113634520D02*
X230118920Y-133659880D01*
X210093560Y-113634520D02*
X210093560Y-130041480D01*
X210093560Y-130041480D02*
X209539840Y-130595200D01*
X223323685Y-65074800D02*
X222758000Y-65074800D01*
X224263485Y-65074800D02*
X223323685Y-65074800D01*
X229753160Y-70564475D02*
X224263485Y-65074800D01*
X229753160Y-71130160D02*
X229753160Y-70564475D01*
X229753160Y-64378840D02*
X233680000Y-60452000D01*
X229753160Y-70564475D02*
X229753160Y-64378840D01*
X209333201Y-90335999D02*
X208883199Y-90786001D01*
X209333201Y-87374399D02*
X209333201Y-90335999D01*
X207935590Y-85976788D02*
X209333201Y-87374399D01*
X208883199Y-90786001D02*
X208483200Y-91186000D01*
X206259190Y-85976788D02*
X207935590Y-85976788D01*
X198666802Y-78384400D02*
X206259190Y-85976788D01*
X198666802Y-78384400D02*
X199339200Y-78384400D01*
X200812400Y-76911200D02*
X200812400Y-73101200D01*
X199339200Y-78384400D02*
X200812400Y-76911200D01*
X210718400Y-78130400D02*
X210921600Y-78130400D01*
X199339200Y-78384400D02*
X210464400Y-78384400D01*
X210464400Y-78384400D02*
X210718400Y-78130400D01*
X210921600Y-78130400D02*
X210921600Y-74625200D01*
X216865200Y-60858400D02*
X216865200Y-56946800D01*
X200812400Y-76911200D02*
X216865200Y-60858400D01*
X214426800Y-74625200D02*
X210921600Y-78130400D01*
X238099600Y-74625200D02*
X214426800Y-74625200D01*
X180319680Y-78384400D02*
X180136800Y-78384400D01*
X180319680Y-78384400D02*
X198666802Y-78384400D01*
X175310800Y-78384400D02*
X180319680Y-78384400D01*
X180136800Y-78384400D02*
X178135280Y-76382880D01*
X178135280Y-65664080D02*
X175768000Y-63296800D01*
X178135280Y-76382880D02*
X178135280Y-65664080D01*
X205835199Y-98507601D02*
X205435200Y-98907600D01*
X207659210Y-96683590D02*
X205835199Y-98507601D01*
X207659210Y-92575675D02*
X207659210Y-96683590D01*
X208483200Y-91751685D02*
X207659210Y-92575675D01*
X208483200Y-91186000D02*
X208483200Y-91751685D01*
X209333201Y-90335999D02*
X211495640Y-92498438D01*
X211495640Y-92498438D02*
X211495640Y-113121440D01*
X211495640Y-113121440D02*
X211480400Y-113136680D01*
X211846160Y-138135360D02*
X214812880Y-141102080D01*
X211846160Y-118430040D02*
X211846160Y-138135360D01*
X216519760Y-142808960D02*
X238470440Y-142808960D01*
X214812880Y-141102080D02*
X216519760Y-142808960D01*
X199352602Y-107111800D02*
X196293740Y-107111800D01*
X205435200Y-98907600D02*
X205435200Y-101029202D01*
X205435200Y-101029202D02*
X199352602Y-107111800D01*
X180238400Y-105651300D02*
X178798220Y-107091480D01*
X183499760Y-105651300D02*
X180238400Y-105651300D01*
X154876500Y-123952000D02*
X163371700Y-123952000D01*
X163371700Y-123952000D02*
X166610200Y-120713500D01*
D17*
X141242058Y-104005658D02*
X141510742Y-104005658D01*
D19*
X128371600Y-111506000D02*
X128371600Y-121920000D01*
X130911600Y-108966000D02*
X128371600Y-111506000D01*
X130911600Y-108966000D02*
X131477285Y-108966000D01*
X139547600Y-107696000D02*
X138277600Y-108966000D01*
X139547600Y-102311200D02*
X139547600Y-107696000D01*
X131477285Y-108966000D02*
X138277600Y-108966000D01*
X146964400Y-108966000D02*
X147523200Y-108966000D01*
X146964400Y-108966000D02*
X147320000Y-108966000D01*
X138277600Y-108966000D02*
X146964400Y-108966000D01*
X148691600Y-107797600D02*
X148691600Y-103327200D01*
X147523200Y-108966000D02*
X148691600Y-107797600D01*
X148691600Y-103327200D02*
X153568400Y-98450400D01*
X155644315Y-98450400D02*
X153568400Y-98450400D01*
X156210000Y-98450400D02*
X155644315Y-98450400D01*
X154889200Y-97129600D02*
X153568400Y-98450400D01*
X154889200Y-86309200D02*
X155041600Y-86156800D01*
X148894800Y-103124000D02*
X148691600Y-103327200D01*
X148894800Y-96163800D02*
X148894800Y-103124000D01*
X135597900Y-75272900D02*
X137325100Y-75272900D01*
X146906715Y-79425800D02*
X131445000Y-79425800D01*
X146919415Y-79438500D02*
X146906715Y-79425800D01*
X147485100Y-79438500D02*
X146919415Y-79438500D01*
X130911600Y-79959200D02*
X131445000Y-79425800D01*
X131445000Y-79425800D02*
X135597900Y-75272900D01*
X132448300Y-84467700D02*
X130911600Y-86004400D01*
X147510500Y-84467700D02*
X132448300Y-84467700D01*
X130911600Y-86004400D02*
X130911600Y-79959200D01*
X132562600Y-89433400D02*
X130911600Y-91084400D01*
X147523200Y-89433400D02*
X132562600Y-89433400D01*
X130911600Y-108966000D02*
X130911600Y-91084400D01*
X130911600Y-91084400D02*
X130911600Y-86004400D01*
X128371600Y-78359000D02*
X128371600Y-78727300D01*
X125298200Y-75285600D02*
X128371600Y-78359000D01*
X126796800Y-85394800D02*
X128371600Y-86969600D01*
X120535700Y-85394800D02*
X126796800Y-85394800D01*
X128371600Y-86969600D02*
X128371600Y-78727300D01*
X126530100Y-90411300D02*
X128371600Y-92252800D01*
X120573800Y-90411300D02*
X126530100Y-90411300D01*
X128371600Y-92252800D02*
X128371600Y-86969600D01*
X127165100Y-96888300D02*
X128371600Y-98094800D01*
X120611900Y-96888300D02*
X127165100Y-96888300D01*
X128371600Y-111506000D02*
X128371600Y-98094800D01*
X128371600Y-98094800D02*
X128371600Y-92252800D01*
X154889200Y-86309200D02*
X156667200Y-84531200D01*
X156440241Y-90335999D02*
X154889200Y-91887040D01*
X163328714Y-90335999D02*
X156440241Y-90335999D01*
X164178715Y-91186000D02*
X163328714Y-90335999D01*
X164744400Y-91186000D02*
X164178715Y-91186000D01*
X154889200Y-97129600D02*
X154889200Y-91887040D01*
X154889200Y-91887040D02*
X154889200Y-86309200D01*
X128371600Y-121920000D02*
X122682000Y-121920000D01*
X122682000Y-121920000D02*
X112014000Y-132588000D01*
X129921000Y-65214500D02*
X127063500Y-65214500D01*
X128371600Y-78359000D02*
X128371600Y-78320900D01*
X128371600Y-78320900D02*
X131762500Y-74930000D01*
X131762500Y-72771000D02*
X130873500Y-71882000D01*
X131762500Y-74930000D02*
X131762500Y-72771000D01*
X131273499Y-66566999D02*
X129921000Y-65214500D01*
X131273499Y-71482001D02*
X131273499Y-66566999D01*
X130873500Y-71882000D02*
X131273499Y-71482001D01*
X183736715Y-100431600D02*
X184302400Y-100431600D01*
X173063602Y-100431600D02*
X183736715Y-100431600D01*
X160375600Y-114909600D02*
X160375600Y-113119602D01*
X156210000Y-99872800D02*
X156210000Y-101041200D01*
X156210000Y-101041200D02*
X160003569Y-104834769D01*
X163189001Y-108020201D02*
X163189001Y-110306201D01*
X160003569Y-104834769D02*
X163189001Y-108020201D01*
X160375600Y-113119602D02*
X163189001Y-110306201D01*
X169956081Y-103539121D02*
X169843801Y-103651401D01*
X175471499Y-103539121D02*
X169956081Y-103539121D01*
X175871498Y-103939120D02*
X175471499Y-103539121D01*
X163189001Y-110306201D02*
X169843801Y-103651401D01*
X169843801Y-103651401D02*
X173063602Y-100431600D01*
X185013600Y-101142800D02*
X192836800Y-101142800D01*
X201117200Y-101142800D02*
X202590400Y-102616000D01*
X192836800Y-101142800D02*
X201117200Y-101142800D01*
X173749599Y-99745603D02*
X173063602Y-100431600D01*
X173749599Y-95263599D02*
X173749599Y-99745603D01*
X169621200Y-91135200D02*
X173749599Y-95263599D01*
X167944800Y-89458800D02*
X167944800Y-87731600D01*
X169621200Y-91135200D02*
X167944800Y-89458800D01*
X167944800Y-83312000D02*
X167894000Y-83261200D01*
X167944800Y-87731600D02*
X167944800Y-83312000D01*
X172059600Y-79095600D02*
X172059600Y-77876400D01*
X167894000Y-83261200D02*
X172059600Y-79095600D01*
X201117200Y-101142800D02*
X201422000Y-101142800D01*
X201422000Y-101142800D02*
X206959200Y-95605600D01*
X206959200Y-89306400D02*
X208483200Y-87782400D01*
X206959200Y-95605600D02*
X206959200Y-89306400D01*
X184759600Y-100888800D02*
X185013600Y-101142800D01*
X184302400Y-100431600D02*
X184759600Y-100888800D01*
X206451200Y-117188715D02*
X206451200Y-117754400D01*
X206451200Y-116558087D02*
X206451200Y-117188715D01*
X202896801Y-113003688D02*
X206451200Y-116558087D01*
X196874488Y-113003688D02*
X202896801Y-113003688D01*
X184759600Y-100888800D02*
X196874488Y-113003688D01*
X208127600Y-121462800D02*
X206451200Y-119786400D01*
X206451200Y-119786400D02*
X206451200Y-117754400D01*
X160411160Y-105242360D02*
X160003569Y-104834769D01*
X162239960Y-105242360D02*
X160411160Y-105242360D01*
X163672520Y-103809800D02*
X162239960Y-105242360D01*
D17*
X174904400Y-128066800D02*
X172974000Y-128066800D01*
X172974000Y-128066800D02*
X167335200Y-122428000D01*
X167335200Y-122428000D02*
X167335200Y-117500400D01*
X166370000Y-116535200D02*
X154787600Y-116535200D01*
X167335200Y-117500400D02*
X166370000Y-116535200D01*
X174904400Y-128066800D02*
X196703802Y-128066800D01*
X196703802Y-128066800D02*
X204358240Y-128066800D01*
X204358240Y-128066800D02*
X208930240Y-123494800D01*
X218013280Y-118618000D02*
X218013280Y-85059520D01*
X218013280Y-85059520D02*
X218526360Y-84546440D01*
X110426500Y-71882000D02*
X110992185Y-71882000D01*
X110992185Y-71882000D02*
X129536200Y-71882000D01*
X110426500Y-77470000D02*
X117411500Y-77470000D01*
X117411500Y-77470000D02*
X121793000Y-73088500D01*
X121793000Y-73088500D02*
X130302000Y-73088500D01*
X110426500Y-77470000D02*
X99695000Y-77470000D01*
X99695000Y-77470000D02*
X90932000Y-68707000D01*
X183716570Y-111307880D02*
X179389849Y-115634601D01*
X184767220Y-111307880D02*
X183716570Y-111307880D01*
X179389849Y-115634601D02*
X160027599Y-115634601D01*
X160027599Y-115634601D02*
X157591760Y-113198762D01*
X157591760Y-113198762D02*
X157591760Y-111191040D01*
X157591760Y-111191040D02*
X151361140Y-104960420D01*
X185742580Y-110656200D02*
X185742580Y-105915460D01*
X185742580Y-105915460D02*
X181378860Y-101551740D01*
X181373780Y-99159060D02*
X173194067Y-90979347D01*
X173194067Y-89683947D02*
X172791670Y-89281550D01*
X173194067Y-90979347D02*
X173194067Y-89683947D01*
M02*
