G04 #@! TF.GenerationSoftware,KiCad,Pcbnew,(5.1.2)-1*
G04 #@! TF.CreationDate,2019-08-13T15:01:43-05:00*
G04 #@! TF.ProjectId,EMI_sensor_control_Rev1.0,454d495f-7365-46e7-936f-725f636f6e74,rev?*
G04 #@! TF.SameCoordinates,Original*
G04 #@! TF.FileFunction,Paste,Bot*
G04 #@! TF.FilePolarity,Positive*
%FSLAX46Y46*%
G04 Gerber Fmt 4.6, Leading zero omitted, Abs format (unit mm)*
G04 Created by KiCad (PCBNEW (5.1.2)-1) date 2019-08-13 15:01:43*
%MOMM*%
%LPD*%
G04 APERTURE LIST*
%ADD10C,0.100000*%
%ADD11C,1.425000*%
%ADD12C,1.150000*%
%ADD13C,0.950000*%
%ADD14C,1.600000*%
%ADD15C,0.590000*%
%ADD16R,1.700000X2.500000*%
%ADD17R,2.006600X5.994400*%
%ADD18C,0.450000*%
%ADD19C,0.650000*%
%ADD20R,1.778000X0.533400*%
G04 APERTURE END LIST*
D10*
G36*
X163710304Y-76707904D02*
G01*
X163734573Y-76711504D01*
X163758371Y-76717465D01*
X163781471Y-76725730D01*
X163803649Y-76736220D01*
X163824693Y-76748833D01*
X163844398Y-76763447D01*
X163862577Y-76779923D01*
X163879053Y-76798102D01*
X163893667Y-76817807D01*
X163906280Y-76838851D01*
X163916770Y-76861029D01*
X163925035Y-76884129D01*
X163930996Y-76907927D01*
X163934596Y-76932196D01*
X163935800Y-76956700D01*
X163935800Y-77881700D01*
X163934596Y-77906204D01*
X163930996Y-77930473D01*
X163925035Y-77954271D01*
X163916770Y-77977371D01*
X163906280Y-77999549D01*
X163893667Y-78020593D01*
X163879053Y-78040298D01*
X163862577Y-78058477D01*
X163844398Y-78074953D01*
X163824693Y-78089567D01*
X163803649Y-78102180D01*
X163781471Y-78112670D01*
X163758371Y-78120935D01*
X163734573Y-78126896D01*
X163710304Y-78130496D01*
X163685800Y-78131700D01*
X161535800Y-78131700D01*
X161511296Y-78130496D01*
X161487027Y-78126896D01*
X161463229Y-78120935D01*
X161440129Y-78112670D01*
X161417951Y-78102180D01*
X161396907Y-78089567D01*
X161377202Y-78074953D01*
X161359023Y-78058477D01*
X161342547Y-78040298D01*
X161327933Y-78020593D01*
X161315320Y-77999549D01*
X161304830Y-77977371D01*
X161296565Y-77954271D01*
X161290604Y-77930473D01*
X161287004Y-77906204D01*
X161285800Y-77881700D01*
X161285800Y-76956700D01*
X161287004Y-76932196D01*
X161290604Y-76907927D01*
X161296565Y-76884129D01*
X161304830Y-76861029D01*
X161315320Y-76838851D01*
X161327933Y-76817807D01*
X161342547Y-76798102D01*
X161359023Y-76779923D01*
X161377202Y-76763447D01*
X161396907Y-76748833D01*
X161417951Y-76736220D01*
X161440129Y-76725730D01*
X161463229Y-76717465D01*
X161487027Y-76711504D01*
X161511296Y-76707904D01*
X161535800Y-76706700D01*
X163685800Y-76706700D01*
X163710304Y-76707904D01*
X163710304Y-76707904D01*
G37*
D11*
X162610800Y-77419200D03*
D10*
G36*
X163710304Y-79682904D02*
G01*
X163734573Y-79686504D01*
X163758371Y-79692465D01*
X163781471Y-79700730D01*
X163803649Y-79711220D01*
X163824693Y-79723833D01*
X163844398Y-79738447D01*
X163862577Y-79754923D01*
X163879053Y-79773102D01*
X163893667Y-79792807D01*
X163906280Y-79813851D01*
X163916770Y-79836029D01*
X163925035Y-79859129D01*
X163930996Y-79882927D01*
X163934596Y-79907196D01*
X163935800Y-79931700D01*
X163935800Y-80856700D01*
X163934596Y-80881204D01*
X163930996Y-80905473D01*
X163925035Y-80929271D01*
X163916770Y-80952371D01*
X163906280Y-80974549D01*
X163893667Y-80995593D01*
X163879053Y-81015298D01*
X163862577Y-81033477D01*
X163844398Y-81049953D01*
X163824693Y-81064567D01*
X163803649Y-81077180D01*
X163781471Y-81087670D01*
X163758371Y-81095935D01*
X163734573Y-81101896D01*
X163710304Y-81105496D01*
X163685800Y-81106700D01*
X161535800Y-81106700D01*
X161511296Y-81105496D01*
X161487027Y-81101896D01*
X161463229Y-81095935D01*
X161440129Y-81087670D01*
X161417951Y-81077180D01*
X161396907Y-81064567D01*
X161377202Y-81049953D01*
X161359023Y-81033477D01*
X161342547Y-81015298D01*
X161327933Y-80995593D01*
X161315320Y-80974549D01*
X161304830Y-80952371D01*
X161296565Y-80929271D01*
X161290604Y-80905473D01*
X161287004Y-80881204D01*
X161285800Y-80856700D01*
X161285800Y-79931700D01*
X161287004Y-79907196D01*
X161290604Y-79882927D01*
X161296565Y-79859129D01*
X161304830Y-79836029D01*
X161315320Y-79813851D01*
X161327933Y-79792807D01*
X161342547Y-79773102D01*
X161359023Y-79754923D01*
X161377202Y-79738447D01*
X161396907Y-79723833D01*
X161417951Y-79711220D01*
X161440129Y-79700730D01*
X161463229Y-79692465D01*
X161487027Y-79686504D01*
X161511296Y-79682904D01*
X161535800Y-79681700D01*
X163685800Y-79681700D01*
X163710304Y-79682904D01*
X163710304Y-79682904D01*
G37*
D11*
X162610800Y-80394200D03*
D10*
G36*
X166488704Y-63268404D02*
G01*
X166512973Y-63272004D01*
X166536771Y-63277965D01*
X166559871Y-63286230D01*
X166582049Y-63296720D01*
X166603093Y-63309333D01*
X166622798Y-63323947D01*
X166640977Y-63340423D01*
X166657453Y-63358602D01*
X166672067Y-63378307D01*
X166684680Y-63399351D01*
X166695170Y-63421529D01*
X166703435Y-63444629D01*
X166709396Y-63468427D01*
X166712996Y-63492696D01*
X166714200Y-63517200D01*
X166714200Y-65667200D01*
X166712996Y-65691704D01*
X166709396Y-65715973D01*
X166703435Y-65739771D01*
X166695170Y-65762871D01*
X166684680Y-65785049D01*
X166672067Y-65806093D01*
X166657453Y-65825798D01*
X166640977Y-65843977D01*
X166622798Y-65860453D01*
X166603093Y-65875067D01*
X166582049Y-65887680D01*
X166559871Y-65898170D01*
X166536771Y-65906435D01*
X166512973Y-65912396D01*
X166488704Y-65915996D01*
X166464200Y-65917200D01*
X165539200Y-65917200D01*
X165514696Y-65915996D01*
X165490427Y-65912396D01*
X165466629Y-65906435D01*
X165443529Y-65898170D01*
X165421351Y-65887680D01*
X165400307Y-65875067D01*
X165380602Y-65860453D01*
X165362423Y-65843977D01*
X165345947Y-65825798D01*
X165331333Y-65806093D01*
X165318720Y-65785049D01*
X165308230Y-65762871D01*
X165299965Y-65739771D01*
X165294004Y-65715973D01*
X165290404Y-65691704D01*
X165289200Y-65667200D01*
X165289200Y-63517200D01*
X165290404Y-63492696D01*
X165294004Y-63468427D01*
X165299965Y-63444629D01*
X165308230Y-63421529D01*
X165318720Y-63399351D01*
X165331333Y-63378307D01*
X165345947Y-63358602D01*
X165362423Y-63340423D01*
X165380602Y-63323947D01*
X165400307Y-63309333D01*
X165421351Y-63296720D01*
X165443529Y-63286230D01*
X165466629Y-63277965D01*
X165490427Y-63272004D01*
X165514696Y-63268404D01*
X165539200Y-63267200D01*
X166464200Y-63267200D01*
X166488704Y-63268404D01*
X166488704Y-63268404D01*
G37*
D11*
X166001700Y-64592200D03*
D10*
G36*
X163513704Y-63268404D02*
G01*
X163537973Y-63272004D01*
X163561771Y-63277965D01*
X163584871Y-63286230D01*
X163607049Y-63296720D01*
X163628093Y-63309333D01*
X163647798Y-63323947D01*
X163665977Y-63340423D01*
X163682453Y-63358602D01*
X163697067Y-63378307D01*
X163709680Y-63399351D01*
X163720170Y-63421529D01*
X163728435Y-63444629D01*
X163734396Y-63468427D01*
X163737996Y-63492696D01*
X163739200Y-63517200D01*
X163739200Y-65667200D01*
X163737996Y-65691704D01*
X163734396Y-65715973D01*
X163728435Y-65739771D01*
X163720170Y-65762871D01*
X163709680Y-65785049D01*
X163697067Y-65806093D01*
X163682453Y-65825798D01*
X163665977Y-65843977D01*
X163647798Y-65860453D01*
X163628093Y-65875067D01*
X163607049Y-65887680D01*
X163584871Y-65898170D01*
X163561771Y-65906435D01*
X163537973Y-65912396D01*
X163513704Y-65915996D01*
X163489200Y-65917200D01*
X162564200Y-65917200D01*
X162539696Y-65915996D01*
X162515427Y-65912396D01*
X162491629Y-65906435D01*
X162468529Y-65898170D01*
X162446351Y-65887680D01*
X162425307Y-65875067D01*
X162405602Y-65860453D01*
X162387423Y-65843977D01*
X162370947Y-65825798D01*
X162356333Y-65806093D01*
X162343720Y-65785049D01*
X162333230Y-65762871D01*
X162324965Y-65739771D01*
X162319004Y-65715973D01*
X162315404Y-65691704D01*
X162314200Y-65667200D01*
X162314200Y-63517200D01*
X162315404Y-63492696D01*
X162319004Y-63468427D01*
X162324965Y-63444629D01*
X162333230Y-63421529D01*
X162343720Y-63399351D01*
X162356333Y-63378307D01*
X162370947Y-63358602D01*
X162387423Y-63340423D01*
X162405602Y-63323947D01*
X162425307Y-63309333D01*
X162446351Y-63296720D01*
X162468529Y-63286230D01*
X162491629Y-63277965D01*
X162515427Y-63272004D01*
X162539696Y-63268404D01*
X162564200Y-63267200D01*
X163489200Y-63267200D01*
X163513704Y-63268404D01*
X163513704Y-63268404D01*
G37*
D11*
X163026700Y-64592200D03*
D10*
G36*
X160265905Y-70669504D02*
G01*
X160290173Y-70673104D01*
X160313972Y-70679065D01*
X160337071Y-70687330D01*
X160359250Y-70697820D01*
X160380293Y-70710432D01*
X160399999Y-70725047D01*
X160418177Y-70741523D01*
X160434653Y-70759701D01*
X160449268Y-70779407D01*
X160461880Y-70800450D01*
X160472370Y-70822629D01*
X160480635Y-70845728D01*
X160486596Y-70869527D01*
X160490196Y-70893795D01*
X160491400Y-70918299D01*
X160491400Y-71568301D01*
X160490196Y-71592805D01*
X160486596Y-71617073D01*
X160480635Y-71640872D01*
X160472370Y-71663971D01*
X160461880Y-71686150D01*
X160449268Y-71707193D01*
X160434653Y-71726899D01*
X160418177Y-71745077D01*
X160399999Y-71761553D01*
X160380293Y-71776168D01*
X160359250Y-71788780D01*
X160337071Y-71799270D01*
X160313972Y-71807535D01*
X160290173Y-71813496D01*
X160265905Y-71817096D01*
X160241401Y-71818300D01*
X159341399Y-71818300D01*
X159316895Y-71817096D01*
X159292627Y-71813496D01*
X159268828Y-71807535D01*
X159245729Y-71799270D01*
X159223550Y-71788780D01*
X159202507Y-71776168D01*
X159182801Y-71761553D01*
X159164623Y-71745077D01*
X159148147Y-71726899D01*
X159133532Y-71707193D01*
X159120920Y-71686150D01*
X159110430Y-71663971D01*
X159102165Y-71640872D01*
X159096204Y-71617073D01*
X159092604Y-71592805D01*
X159091400Y-71568301D01*
X159091400Y-70918299D01*
X159092604Y-70893795D01*
X159096204Y-70869527D01*
X159102165Y-70845728D01*
X159110430Y-70822629D01*
X159120920Y-70800450D01*
X159133532Y-70779407D01*
X159148147Y-70759701D01*
X159164623Y-70741523D01*
X159182801Y-70725047D01*
X159202507Y-70710432D01*
X159223550Y-70697820D01*
X159245729Y-70687330D01*
X159268828Y-70679065D01*
X159292627Y-70673104D01*
X159316895Y-70669504D01*
X159341399Y-70668300D01*
X160241401Y-70668300D01*
X160265905Y-70669504D01*
X160265905Y-70669504D01*
G37*
D12*
X159791400Y-71243300D03*
D10*
G36*
X160265905Y-68619504D02*
G01*
X160290173Y-68623104D01*
X160313972Y-68629065D01*
X160337071Y-68637330D01*
X160359250Y-68647820D01*
X160380293Y-68660432D01*
X160399999Y-68675047D01*
X160418177Y-68691523D01*
X160434653Y-68709701D01*
X160449268Y-68729407D01*
X160461880Y-68750450D01*
X160472370Y-68772629D01*
X160480635Y-68795728D01*
X160486596Y-68819527D01*
X160490196Y-68843795D01*
X160491400Y-68868299D01*
X160491400Y-69518301D01*
X160490196Y-69542805D01*
X160486596Y-69567073D01*
X160480635Y-69590872D01*
X160472370Y-69613971D01*
X160461880Y-69636150D01*
X160449268Y-69657193D01*
X160434653Y-69676899D01*
X160418177Y-69695077D01*
X160399999Y-69711553D01*
X160380293Y-69726168D01*
X160359250Y-69738780D01*
X160337071Y-69749270D01*
X160313972Y-69757535D01*
X160290173Y-69763496D01*
X160265905Y-69767096D01*
X160241401Y-69768300D01*
X159341399Y-69768300D01*
X159316895Y-69767096D01*
X159292627Y-69763496D01*
X159268828Y-69757535D01*
X159245729Y-69749270D01*
X159223550Y-69738780D01*
X159202507Y-69726168D01*
X159182801Y-69711553D01*
X159164623Y-69695077D01*
X159148147Y-69676899D01*
X159133532Y-69657193D01*
X159120920Y-69636150D01*
X159110430Y-69613971D01*
X159102165Y-69590872D01*
X159096204Y-69567073D01*
X159092604Y-69542805D01*
X159091400Y-69518301D01*
X159091400Y-68868299D01*
X159092604Y-68843795D01*
X159096204Y-68819527D01*
X159102165Y-68795728D01*
X159110430Y-68772629D01*
X159120920Y-68750450D01*
X159133532Y-68729407D01*
X159148147Y-68709701D01*
X159164623Y-68691523D01*
X159182801Y-68675047D01*
X159202507Y-68660432D01*
X159223550Y-68647820D01*
X159245729Y-68637330D01*
X159268828Y-68629065D01*
X159292627Y-68623104D01*
X159316895Y-68619504D01*
X159341399Y-68618300D01*
X160241401Y-68618300D01*
X160265905Y-68619504D01*
X160265905Y-68619504D01*
G37*
D12*
X159791400Y-69193300D03*
D10*
G36*
X171134304Y-72767704D02*
G01*
X171158573Y-72771304D01*
X171182371Y-72777265D01*
X171205471Y-72785530D01*
X171227649Y-72796020D01*
X171248693Y-72808633D01*
X171268398Y-72823247D01*
X171286577Y-72839723D01*
X171303053Y-72857902D01*
X171317667Y-72877607D01*
X171330280Y-72898651D01*
X171340770Y-72920829D01*
X171349035Y-72943929D01*
X171354996Y-72967727D01*
X171358596Y-72991996D01*
X171359800Y-73016500D01*
X171359800Y-73941500D01*
X171358596Y-73966004D01*
X171354996Y-73990273D01*
X171349035Y-74014071D01*
X171340770Y-74037171D01*
X171330280Y-74059349D01*
X171317667Y-74080393D01*
X171303053Y-74100098D01*
X171286577Y-74118277D01*
X171268398Y-74134753D01*
X171248693Y-74149367D01*
X171227649Y-74161980D01*
X171205471Y-74172470D01*
X171182371Y-74180735D01*
X171158573Y-74186696D01*
X171134304Y-74190296D01*
X171109800Y-74191500D01*
X169859800Y-74191500D01*
X169835296Y-74190296D01*
X169811027Y-74186696D01*
X169787229Y-74180735D01*
X169764129Y-74172470D01*
X169741951Y-74161980D01*
X169720907Y-74149367D01*
X169701202Y-74134753D01*
X169683023Y-74118277D01*
X169666547Y-74100098D01*
X169651933Y-74080393D01*
X169639320Y-74059349D01*
X169628830Y-74037171D01*
X169620565Y-74014071D01*
X169614604Y-73990273D01*
X169611004Y-73966004D01*
X169609800Y-73941500D01*
X169609800Y-73016500D01*
X169611004Y-72991996D01*
X169614604Y-72967727D01*
X169620565Y-72943929D01*
X169628830Y-72920829D01*
X169639320Y-72898651D01*
X169651933Y-72877607D01*
X169666547Y-72857902D01*
X169683023Y-72839723D01*
X169701202Y-72823247D01*
X169720907Y-72808633D01*
X169741951Y-72796020D01*
X169764129Y-72785530D01*
X169787229Y-72777265D01*
X169811027Y-72771304D01*
X169835296Y-72767704D01*
X169859800Y-72766500D01*
X171109800Y-72766500D01*
X171134304Y-72767704D01*
X171134304Y-72767704D01*
G37*
D11*
X170484800Y-73479000D03*
D10*
G36*
X171134304Y-75742704D02*
G01*
X171158573Y-75746304D01*
X171182371Y-75752265D01*
X171205471Y-75760530D01*
X171227649Y-75771020D01*
X171248693Y-75783633D01*
X171268398Y-75798247D01*
X171286577Y-75814723D01*
X171303053Y-75832902D01*
X171317667Y-75852607D01*
X171330280Y-75873651D01*
X171340770Y-75895829D01*
X171349035Y-75918929D01*
X171354996Y-75942727D01*
X171358596Y-75966996D01*
X171359800Y-75991500D01*
X171359800Y-76916500D01*
X171358596Y-76941004D01*
X171354996Y-76965273D01*
X171349035Y-76989071D01*
X171340770Y-77012171D01*
X171330280Y-77034349D01*
X171317667Y-77055393D01*
X171303053Y-77075098D01*
X171286577Y-77093277D01*
X171268398Y-77109753D01*
X171248693Y-77124367D01*
X171227649Y-77136980D01*
X171205471Y-77147470D01*
X171182371Y-77155735D01*
X171158573Y-77161696D01*
X171134304Y-77165296D01*
X171109800Y-77166500D01*
X169859800Y-77166500D01*
X169835296Y-77165296D01*
X169811027Y-77161696D01*
X169787229Y-77155735D01*
X169764129Y-77147470D01*
X169741951Y-77136980D01*
X169720907Y-77124367D01*
X169701202Y-77109753D01*
X169683023Y-77093277D01*
X169666547Y-77075098D01*
X169651933Y-77055393D01*
X169639320Y-77034349D01*
X169628830Y-77012171D01*
X169620565Y-76989071D01*
X169614604Y-76965273D01*
X169611004Y-76941004D01*
X169609800Y-76916500D01*
X169609800Y-75991500D01*
X169611004Y-75966996D01*
X169614604Y-75942727D01*
X169620565Y-75918929D01*
X169628830Y-75895829D01*
X169639320Y-75873651D01*
X169651933Y-75852607D01*
X169666547Y-75832902D01*
X169683023Y-75814723D01*
X169701202Y-75798247D01*
X169720907Y-75783633D01*
X169741951Y-75771020D01*
X169764129Y-75760530D01*
X169787229Y-75752265D01*
X169811027Y-75746304D01*
X169835296Y-75742704D01*
X169859800Y-75741500D01*
X171109800Y-75741500D01*
X171134304Y-75742704D01*
X171134304Y-75742704D01*
G37*
D11*
X170484800Y-76454000D03*
D10*
G36*
X165779104Y-72163484D02*
G01*
X165803373Y-72167084D01*
X165827171Y-72173045D01*
X165850271Y-72181310D01*
X165872449Y-72191800D01*
X165893493Y-72204413D01*
X165913198Y-72219027D01*
X165931377Y-72235503D01*
X165947853Y-72253682D01*
X165962467Y-72273387D01*
X165975080Y-72294431D01*
X165985570Y-72316609D01*
X165993835Y-72339709D01*
X165999796Y-72363507D01*
X166003396Y-72387776D01*
X166004600Y-72412280D01*
X166004600Y-74562280D01*
X166003396Y-74586784D01*
X165999796Y-74611053D01*
X165993835Y-74634851D01*
X165985570Y-74657951D01*
X165975080Y-74680129D01*
X165962467Y-74701173D01*
X165947853Y-74720878D01*
X165931377Y-74739057D01*
X165913198Y-74755533D01*
X165893493Y-74770147D01*
X165872449Y-74782760D01*
X165850271Y-74793250D01*
X165827171Y-74801515D01*
X165803373Y-74807476D01*
X165779104Y-74811076D01*
X165754600Y-74812280D01*
X164829600Y-74812280D01*
X164805096Y-74811076D01*
X164780827Y-74807476D01*
X164757029Y-74801515D01*
X164733929Y-74793250D01*
X164711751Y-74782760D01*
X164690707Y-74770147D01*
X164671002Y-74755533D01*
X164652823Y-74739057D01*
X164636347Y-74720878D01*
X164621733Y-74701173D01*
X164609120Y-74680129D01*
X164598630Y-74657951D01*
X164590365Y-74634851D01*
X164584404Y-74611053D01*
X164580804Y-74586784D01*
X164579600Y-74562280D01*
X164579600Y-72412280D01*
X164580804Y-72387776D01*
X164584404Y-72363507D01*
X164590365Y-72339709D01*
X164598630Y-72316609D01*
X164609120Y-72294431D01*
X164621733Y-72273387D01*
X164636347Y-72253682D01*
X164652823Y-72235503D01*
X164671002Y-72219027D01*
X164690707Y-72204413D01*
X164711751Y-72191800D01*
X164733929Y-72181310D01*
X164757029Y-72173045D01*
X164780827Y-72167084D01*
X164805096Y-72163484D01*
X164829600Y-72162280D01*
X165754600Y-72162280D01*
X165779104Y-72163484D01*
X165779104Y-72163484D01*
G37*
D11*
X165292100Y-73487280D03*
D10*
G36*
X162804104Y-72163484D02*
G01*
X162828373Y-72167084D01*
X162852171Y-72173045D01*
X162875271Y-72181310D01*
X162897449Y-72191800D01*
X162918493Y-72204413D01*
X162938198Y-72219027D01*
X162956377Y-72235503D01*
X162972853Y-72253682D01*
X162987467Y-72273387D01*
X163000080Y-72294431D01*
X163010570Y-72316609D01*
X163018835Y-72339709D01*
X163024796Y-72363507D01*
X163028396Y-72387776D01*
X163029600Y-72412280D01*
X163029600Y-74562280D01*
X163028396Y-74586784D01*
X163024796Y-74611053D01*
X163018835Y-74634851D01*
X163010570Y-74657951D01*
X163000080Y-74680129D01*
X162987467Y-74701173D01*
X162972853Y-74720878D01*
X162956377Y-74739057D01*
X162938198Y-74755533D01*
X162918493Y-74770147D01*
X162897449Y-74782760D01*
X162875271Y-74793250D01*
X162852171Y-74801515D01*
X162828373Y-74807476D01*
X162804104Y-74811076D01*
X162779600Y-74812280D01*
X161854600Y-74812280D01*
X161830096Y-74811076D01*
X161805827Y-74807476D01*
X161782029Y-74801515D01*
X161758929Y-74793250D01*
X161736751Y-74782760D01*
X161715707Y-74770147D01*
X161696002Y-74755533D01*
X161677823Y-74739057D01*
X161661347Y-74720878D01*
X161646733Y-74701173D01*
X161634120Y-74680129D01*
X161623630Y-74657951D01*
X161615365Y-74634851D01*
X161609404Y-74611053D01*
X161605804Y-74586784D01*
X161604600Y-74562280D01*
X161604600Y-72412280D01*
X161605804Y-72387776D01*
X161609404Y-72363507D01*
X161615365Y-72339709D01*
X161623630Y-72316609D01*
X161634120Y-72294431D01*
X161646733Y-72273387D01*
X161661347Y-72253682D01*
X161677823Y-72235503D01*
X161696002Y-72219027D01*
X161715707Y-72204413D01*
X161736751Y-72191800D01*
X161758929Y-72181310D01*
X161782029Y-72173045D01*
X161805827Y-72167084D01*
X161830096Y-72163484D01*
X161854600Y-72162280D01*
X162779600Y-72162280D01*
X162804104Y-72163484D01*
X162804104Y-72163484D01*
G37*
D11*
X162317100Y-73487280D03*
D10*
G36*
X135054024Y-127420604D02*
G01*
X135078293Y-127424204D01*
X135102091Y-127430165D01*
X135125191Y-127438430D01*
X135147369Y-127448920D01*
X135168413Y-127461533D01*
X135188118Y-127476147D01*
X135206297Y-127492623D01*
X135222773Y-127510802D01*
X135237387Y-127530507D01*
X135250000Y-127551551D01*
X135260490Y-127573729D01*
X135268755Y-127596829D01*
X135274716Y-127620627D01*
X135278316Y-127644896D01*
X135279520Y-127669400D01*
X135279520Y-128594400D01*
X135278316Y-128618904D01*
X135274716Y-128643173D01*
X135268755Y-128666971D01*
X135260490Y-128690071D01*
X135250000Y-128712249D01*
X135237387Y-128733293D01*
X135222773Y-128752998D01*
X135206297Y-128771177D01*
X135188118Y-128787653D01*
X135168413Y-128802267D01*
X135147369Y-128814880D01*
X135125191Y-128825370D01*
X135102091Y-128833635D01*
X135078293Y-128839596D01*
X135054024Y-128843196D01*
X135029520Y-128844400D01*
X132879520Y-128844400D01*
X132855016Y-128843196D01*
X132830747Y-128839596D01*
X132806949Y-128833635D01*
X132783849Y-128825370D01*
X132761671Y-128814880D01*
X132740627Y-128802267D01*
X132720922Y-128787653D01*
X132702743Y-128771177D01*
X132686267Y-128752998D01*
X132671653Y-128733293D01*
X132659040Y-128712249D01*
X132648550Y-128690071D01*
X132640285Y-128666971D01*
X132634324Y-128643173D01*
X132630724Y-128618904D01*
X132629520Y-128594400D01*
X132629520Y-127669400D01*
X132630724Y-127644896D01*
X132634324Y-127620627D01*
X132640285Y-127596829D01*
X132648550Y-127573729D01*
X132659040Y-127551551D01*
X132671653Y-127530507D01*
X132686267Y-127510802D01*
X132702743Y-127492623D01*
X132720922Y-127476147D01*
X132740627Y-127461533D01*
X132761671Y-127448920D01*
X132783849Y-127438430D01*
X132806949Y-127430165D01*
X132830747Y-127424204D01*
X132855016Y-127420604D01*
X132879520Y-127419400D01*
X135029520Y-127419400D01*
X135054024Y-127420604D01*
X135054024Y-127420604D01*
G37*
D11*
X133954520Y-128131900D03*
D10*
G36*
X135054024Y-124445604D02*
G01*
X135078293Y-124449204D01*
X135102091Y-124455165D01*
X135125191Y-124463430D01*
X135147369Y-124473920D01*
X135168413Y-124486533D01*
X135188118Y-124501147D01*
X135206297Y-124517623D01*
X135222773Y-124535802D01*
X135237387Y-124555507D01*
X135250000Y-124576551D01*
X135260490Y-124598729D01*
X135268755Y-124621829D01*
X135274716Y-124645627D01*
X135278316Y-124669896D01*
X135279520Y-124694400D01*
X135279520Y-125619400D01*
X135278316Y-125643904D01*
X135274716Y-125668173D01*
X135268755Y-125691971D01*
X135260490Y-125715071D01*
X135250000Y-125737249D01*
X135237387Y-125758293D01*
X135222773Y-125777998D01*
X135206297Y-125796177D01*
X135188118Y-125812653D01*
X135168413Y-125827267D01*
X135147369Y-125839880D01*
X135125191Y-125850370D01*
X135102091Y-125858635D01*
X135078293Y-125864596D01*
X135054024Y-125868196D01*
X135029520Y-125869400D01*
X132879520Y-125869400D01*
X132855016Y-125868196D01*
X132830747Y-125864596D01*
X132806949Y-125858635D01*
X132783849Y-125850370D01*
X132761671Y-125839880D01*
X132740627Y-125827267D01*
X132720922Y-125812653D01*
X132702743Y-125796177D01*
X132686267Y-125777998D01*
X132671653Y-125758293D01*
X132659040Y-125737249D01*
X132648550Y-125715071D01*
X132640285Y-125691971D01*
X132634324Y-125668173D01*
X132630724Y-125643904D01*
X132629520Y-125619400D01*
X132629520Y-124694400D01*
X132630724Y-124669896D01*
X132634324Y-124645627D01*
X132640285Y-124621829D01*
X132648550Y-124598729D01*
X132659040Y-124576551D01*
X132671653Y-124555507D01*
X132686267Y-124535802D01*
X132702743Y-124517623D01*
X132720922Y-124501147D01*
X132740627Y-124486533D01*
X132761671Y-124473920D01*
X132783849Y-124463430D01*
X132806949Y-124455165D01*
X132830747Y-124449204D01*
X132855016Y-124445604D01*
X132879520Y-124444400D01*
X135029520Y-124444400D01*
X135054024Y-124445604D01*
X135054024Y-124445604D01*
G37*
D11*
X133954520Y-125156900D03*
D10*
G36*
X146879739Y-129613044D02*
G01*
X146902794Y-129616463D01*
X146925403Y-129622127D01*
X146947347Y-129629979D01*
X146968417Y-129639944D01*
X146988408Y-129651926D01*
X147007128Y-129665810D01*
X147024398Y-129681462D01*
X147040050Y-129698732D01*
X147053934Y-129717452D01*
X147065916Y-129737443D01*
X147075881Y-129758513D01*
X147083733Y-129780457D01*
X147089397Y-129803066D01*
X147092816Y-129826121D01*
X147093960Y-129849400D01*
X147093960Y-130424400D01*
X147092816Y-130447679D01*
X147089397Y-130470734D01*
X147083733Y-130493343D01*
X147075881Y-130515287D01*
X147065916Y-130536357D01*
X147053934Y-130556348D01*
X147040050Y-130575068D01*
X147024398Y-130592338D01*
X147007128Y-130607990D01*
X146988408Y-130621874D01*
X146968417Y-130633856D01*
X146947347Y-130643821D01*
X146925403Y-130651673D01*
X146902794Y-130657337D01*
X146879739Y-130660756D01*
X146856460Y-130661900D01*
X146381460Y-130661900D01*
X146358181Y-130660756D01*
X146335126Y-130657337D01*
X146312517Y-130651673D01*
X146290573Y-130643821D01*
X146269503Y-130633856D01*
X146249512Y-130621874D01*
X146230792Y-130607990D01*
X146213522Y-130592338D01*
X146197870Y-130575068D01*
X146183986Y-130556348D01*
X146172004Y-130536357D01*
X146162039Y-130515287D01*
X146154187Y-130493343D01*
X146148523Y-130470734D01*
X146145104Y-130447679D01*
X146143960Y-130424400D01*
X146143960Y-129849400D01*
X146145104Y-129826121D01*
X146148523Y-129803066D01*
X146154187Y-129780457D01*
X146162039Y-129758513D01*
X146172004Y-129737443D01*
X146183986Y-129717452D01*
X146197870Y-129698732D01*
X146213522Y-129681462D01*
X146230792Y-129665810D01*
X146249512Y-129651926D01*
X146269503Y-129639944D01*
X146290573Y-129629979D01*
X146312517Y-129622127D01*
X146335126Y-129616463D01*
X146358181Y-129613044D01*
X146381460Y-129611900D01*
X146856460Y-129611900D01*
X146879739Y-129613044D01*
X146879739Y-129613044D01*
G37*
D13*
X146618960Y-130136900D03*
D10*
G36*
X146879739Y-131363044D02*
G01*
X146902794Y-131366463D01*
X146925403Y-131372127D01*
X146947347Y-131379979D01*
X146968417Y-131389944D01*
X146988408Y-131401926D01*
X147007128Y-131415810D01*
X147024398Y-131431462D01*
X147040050Y-131448732D01*
X147053934Y-131467452D01*
X147065916Y-131487443D01*
X147075881Y-131508513D01*
X147083733Y-131530457D01*
X147089397Y-131553066D01*
X147092816Y-131576121D01*
X147093960Y-131599400D01*
X147093960Y-132174400D01*
X147092816Y-132197679D01*
X147089397Y-132220734D01*
X147083733Y-132243343D01*
X147075881Y-132265287D01*
X147065916Y-132286357D01*
X147053934Y-132306348D01*
X147040050Y-132325068D01*
X147024398Y-132342338D01*
X147007128Y-132357990D01*
X146988408Y-132371874D01*
X146968417Y-132383856D01*
X146947347Y-132393821D01*
X146925403Y-132401673D01*
X146902794Y-132407337D01*
X146879739Y-132410756D01*
X146856460Y-132411900D01*
X146381460Y-132411900D01*
X146358181Y-132410756D01*
X146335126Y-132407337D01*
X146312517Y-132401673D01*
X146290573Y-132393821D01*
X146269503Y-132383856D01*
X146249512Y-132371874D01*
X146230792Y-132357990D01*
X146213522Y-132342338D01*
X146197870Y-132325068D01*
X146183986Y-132306348D01*
X146172004Y-132286357D01*
X146162039Y-132265287D01*
X146154187Y-132243343D01*
X146148523Y-132220734D01*
X146145104Y-132197679D01*
X146143960Y-132174400D01*
X146143960Y-131599400D01*
X146145104Y-131576121D01*
X146148523Y-131553066D01*
X146154187Y-131530457D01*
X146162039Y-131508513D01*
X146172004Y-131487443D01*
X146183986Y-131467452D01*
X146197870Y-131448732D01*
X146213522Y-131431462D01*
X146230792Y-131415810D01*
X146249512Y-131401926D01*
X146269503Y-131389944D01*
X146290573Y-131379979D01*
X146312517Y-131372127D01*
X146335126Y-131366463D01*
X146358181Y-131363044D01*
X146381460Y-131361900D01*
X146856460Y-131361900D01*
X146879739Y-131363044D01*
X146879739Y-131363044D01*
G37*
D13*
X146618960Y-131886900D03*
D10*
G36*
X145140339Y-119835784D02*
G01*
X145163394Y-119839203D01*
X145186003Y-119844867D01*
X145207947Y-119852719D01*
X145229017Y-119862684D01*
X145249008Y-119874666D01*
X145267728Y-119888550D01*
X145284998Y-119904202D01*
X145300650Y-119921472D01*
X145314534Y-119940192D01*
X145326516Y-119960183D01*
X145336481Y-119981253D01*
X145344333Y-120003197D01*
X145349997Y-120025806D01*
X145353416Y-120048861D01*
X145354560Y-120072140D01*
X145354560Y-120547140D01*
X145353416Y-120570419D01*
X145349997Y-120593474D01*
X145344333Y-120616083D01*
X145336481Y-120638027D01*
X145326516Y-120659097D01*
X145314534Y-120679088D01*
X145300650Y-120697808D01*
X145284998Y-120715078D01*
X145267728Y-120730730D01*
X145249008Y-120744614D01*
X145229017Y-120756596D01*
X145207947Y-120766561D01*
X145186003Y-120774413D01*
X145163394Y-120780077D01*
X145140339Y-120783496D01*
X145117060Y-120784640D01*
X144542060Y-120784640D01*
X144518781Y-120783496D01*
X144495726Y-120780077D01*
X144473117Y-120774413D01*
X144451173Y-120766561D01*
X144430103Y-120756596D01*
X144410112Y-120744614D01*
X144391392Y-120730730D01*
X144374122Y-120715078D01*
X144358470Y-120697808D01*
X144344586Y-120679088D01*
X144332604Y-120659097D01*
X144322639Y-120638027D01*
X144314787Y-120616083D01*
X144309123Y-120593474D01*
X144305704Y-120570419D01*
X144304560Y-120547140D01*
X144304560Y-120072140D01*
X144305704Y-120048861D01*
X144309123Y-120025806D01*
X144314787Y-120003197D01*
X144322639Y-119981253D01*
X144332604Y-119960183D01*
X144344586Y-119940192D01*
X144358470Y-119921472D01*
X144374122Y-119904202D01*
X144391392Y-119888550D01*
X144410112Y-119874666D01*
X144430103Y-119862684D01*
X144451173Y-119852719D01*
X144473117Y-119844867D01*
X144495726Y-119839203D01*
X144518781Y-119835784D01*
X144542060Y-119834640D01*
X145117060Y-119834640D01*
X145140339Y-119835784D01*
X145140339Y-119835784D01*
G37*
D13*
X144829560Y-120309640D03*
D10*
G36*
X146890339Y-119835784D02*
G01*
X146913394Y-119839203D01*
X146936003Y-119844867D01*
X146957947Y-119852719D01*
X146979017Y-119862684D01*
X146999008Y-119874666D01*
X147017728Y-119888550D01*
X147034998Y-119904202D01*
X147050650Y-119921472D01*
X147064534Y-119940192D01*
X147076516Y-119960183D01*
X147086481Y-119981253D01*
X147094333Y-120003197D01*
X147099997Y-120025806D01*
X147103416Y-120048861D01*
X147104560Y-120072140D01*
X147104560Y-120547140D01*
X147103416Y-120570419D01*
X147099997Y-120593474D01*
X147094333Y-120616083D01*
X147086481Y-120638027D01*
X147076516Y-120659097D01*
X147064534Y-120679088D01*
X147050650Y-120697808D01*
X147034998Y-120715078D01*
X147017728Y-120730730D01*
X146999008Y-120744614D01*
X146979017Y-120756596D01*
X146957947Y-120766561D01*
X146936003Y-120774413D01*
X146913394Y-120780077D01*
X146890339Y-120783496D01*
X146867060Y-120784640D01*
X146292060Y-120784640D01*
X146268781Y-120783496D01*
X146245726Y-120780077D01*
X146223117Y-120774413D01*
X146201173Y-120766561D01*
X146180103Y-120756596D01*
X146160112Y-120744614D01*
X146141392Y-120730730D01*
X146124122Y-120715078D01*
X146108470Y-120697808D01*
X146094586Y-120679088D01*
X146082604Y-120659097D01*
X146072639Y-120638027D01*
X146064787Y-120616083D01*
X146059123Y-120593474D01*
X146055704Y-120570419D01*
X146054560Y-120547140D01*
X146054560Y-120072140D01*
X146055704Y-120048861D01*
X146059123Y-120025806D01*
X146064787Y-120003197D01*
X146072639Y-119981253D01*
X146082604Y-119960183D01*
X146094586Y-119940192D01*
X146108470Y-119921472D01*
X146124122Y-119904202D01*
X146141392Y-119888550D01*
X146160112Y-119874666D01*
X146180103Y-119862684D01*
X146201173Y-119852719D01*
X146223117Y-119844867D01*
X146245726Y-119839203D01*
X146268781Y-119835784D01*
X146292060Y-119834640D01*
X146867060Y-119834640D01*
X146890339Y-119835784D01*
X146890339Y-119835784D01*
G37*
D13*
X146579560Y-120309640D03*
D10*
G36*
X160080384Y-121939084D02*
G01*
X160104653Y-121942684D01*
X160128451Y-121948645D01*
X160151551Y-121956910D01*
X160173729Y-121967400D01*
X160194773Y-121980013D01*
X160214478Y-121994627D01*
X160232657Y-122011103D01*
X160249133Y-122029282D01*
X160263747Y-122048987D01*
X160276360Y-122070031D01*
X160286850Y-122092209D01*
X160295115Y-122115309D01*
X160301076Y-122139107D01*
X160304676Y-122163376D01*
X160305880Y-122187880D01*
X160305880Y-123287880D01*
X160304676Y-123312384D01*
X160301076Y-123336653D01*
X160295115Y-123360451D01*
X160286850Y-123383551D01*
X160276360Y-123405729D01*
X160263747Y-123426773D01*
X160249133Y-123446478D01*
X160232657Y-123464657D01*
X160214478Y-123481133D01*
X160194773Y-123495747D01*
X160173729Y-123508360D01*
X160151551Y-123518850D01*
X160128451Y-123527115D01*
X160104653Y-123533076D01*
X160080384Y-123536676D01*
X160055880Y-123537880D01*
X157555880Y-123537880D01*
X157531376Y-123536676D01*
X157507107Y-123533076D01*
X157483309Y-123527115D01*
X157460209Y-123518850D01*
X157438031Y-123508360D01*
X157416987Y-123495747D01*
X157397282Y-123481133D01*
X157379103Y-123464657D01*
X157362627Y-123446478D01*
X157348013Y-123426773D01*
X157335400Y-123405729D01*
X157324910Y-123383551D01*
X157316645Y-123360451D01*
X157310684Y-123336653D01*
X157307084Y-123312384D01*
X157305880Y-123287880D01*
X157305880Y-122187880D01*
X157307084Y-122163376D01*
X157310684Y-122139107D01*
X157316645Y-122115309D01*
X157324910Y-122092209D01*
X157335400Y-122070031D01*
X157348013Y-122048987D01*
X157362627Y-122029282D01*
X157379103Y-122011103D01*
X157397282Y-121994627D01*
X157416987Y-121980013D01*
X157438031Y-121967400D01*
X157460209Y-121956910D01*
X157483309Y-121948645D01*
X157507107Y-121942684D01*
X157531376Y-121939084D01*
X157555880Y-121937880D01*
X160055880Y-121937880D01*
X160080384Y-121939084D01*
X160080384Y-121939084D01*
G37*
D14*
X158805880Y-122737880D03*
D10*
G36*
X164480384Y-121939084D02*
G01*
X164504653Y-121942684D01*
X164528451Y-121948645D01*
X164551551Y-121956910D01*
X164573729Y-121967400D01*
X164594773Y-121980013D01*
X164614478Y-121994627D01*
X164632657Y-122011103D01*
X164649133Y-122029282D01*
X164663747Y-122048987D01*
X164676360Y-122070031D01*
X164686850Y-122092209D01*
X164695115Y-122115309D01*
X164701076Y-122139107D01*
X164704676Y-122163376D01*
X164705880Y-122187880D01*
X164705880Y-123287880D01*
X164704676Y-123312384D01*
X164701076Y-123336653D01*
X164695115Y-123360451D01*
X164686850Y-123383551D01*
X164676360Y-123405729D01*
X164663747Y-123426773D01*
X164649133Y-123446478D01*
X164632657Y-123464657D01*
X164614478Y-123481133D01*
X164594773Y-123495747D01*
X164573729Y-123508360D01*
X164551551Y-123518850D01*
X164528451Y-123527115D01*
X164504653Y-123533076D01*
X164480384Y-123536676D01*
X164455880Y-123537880D01*
X161955880Y-123537880D01*
X161931376Y-123536676D01*
X161907107Y-123533076D01*
X161883309Y-123527115D01*
X161860209Y-123518850D01*
X161838031Y-123508360D01*
X161816987Y-123495747D01*
X161797282Y-123481133D01*
X161779103Y-123464657D01*
X161762627Y-123446478D01*
X161748013Y-123426773D01*
X161735400Y-123405729D01*
X161724910Y-123383551D01*
X161716645Y-123360451D01*
X161710684Y-123336653D01*
X161707084Y-123312384D01*
X161705880Y-123287880D01*
X161705880Y-122187880D01*
X161707084Y-122163376D01*
X161710684Y-122139107D01*
X161716645Y-122115309D01*
X161724910Y-122092209D01*
X161735400Y-122070031D01*
X161748013Y-122048987D01*
X161762627Y-122029282D01*
X161779103Y-122011103D01*
X161797282Y-121994627D01*
X161816987Y-121980013D01*
X161838031Y-121967400D01*
X161860209Y-121956910D01*
X161883309Y-121948645D01*
X161907107Y-121942684D01*
X161931376Y-121939084D01*
X161955880Y-121937880D01*
X164455880Y-121937880D01*
X164480384Y-121939084D01*
X164480384Y-121939084D01*
G37*
D14*
X163205880Y-122737880D03*
D10*
G36*
X181261179Y-109940744D02*
G01*
X181284234Y-109944163D01*
X181306843Y-109949827D01*
X181328787Y-109957679D01*
X181349857Y-109967644D01*
X181369848Y-109979626D01*
X181388568Y-109993510D01*
X181405838Y-110009162D01*
X181421490Y-110026432D01*
X181435374Y-110045152D01*
X181447356Y-110065143D01*
X181457321Y-110086213D01*
X181465173Y-110108157D01*
X181470837Y-110130766D01*
X181474256Y-110153821D01*
X181475400Y-110177100D01*
X181475400Y-110752100D01*
X181474256Y-110775379D01*
X181470837Y-110798434D01*
X181465173Y-110821043D01*
X181457321Y-110842987D01*
X181447356Y-110864057D01*
X181435374Y-110884048D01*
X181421490Y-110902768D01*
X181405838Y-110920038D01*
X181388568Y-110935690D01*
X181369848Y-110949574D01*
X181349857Y-110961556D01*
X181328787Y-110971521D01*
X181306843Y-110979373D01*
X181284234Y-110985037D01*
X181261179Y-110988456D01*
X181237900Y-110989600D01*
X180762900Y-110989600D01*
X180739621Y-110988456D01*
X180716566Y-110985037D01*
X180693957Y-110979373D01*
X180672013Y-110971521D01*
X180650943Y-110961556D01*
X180630952Y-110949574D01*
X180612232Y-110935690D01*
X180594962Y-110920038D01*
X180579310Y-110902768D01*
X180565426Y-110884048D01*
X180553444Y-110864057D01*
X180543479Y-110842987D01*
X180535627Y-110821043D01*
X180529963Y-110798434D01*
X180526544Y-110775379D01*
X180525400Y-110752100D01*
X180525400Y-110177100D01*
X180526544Y-110153821D01*
X180529963Y-110130766D01*
X180535627Y-110108157D01*
X180543479Y-110086213D01*
X180553444Y-110065143D01*
X180565426Y-110045152D01*
X180579310Y-110026432D01*
X180594962Y-110009162D01*
X180612232Y-109993510D01*
X180630952Y-109979626D01*
X180650943Y-109967644D01*
X180672013Y-109957679D01*
X180693957Y-109949827D01*
X180716566Y-109944163D01*
X180739621Y-109940744D01*
X180762900Y-109939600D01*
X181237900Y-109939600D01*
X181261179Y-109940744D01*
X181261179Y-109940744D01*
G37*
D13*
X181000400Y-110464600D03*
D10*
G36*
X181261179Y-108190744D02*
G01*
X181284234Y-108194163D01*
X181306843Y-108199827D01*
X181328787Y-108207679D01*
X181349857Y-108217644D01*
X181369848Y-108229626D01*
X181388568Y-108243510D01*
X181405838Y-108259162D01*
X181421490Y-108276432D01*
X181435374Y-108295152D01*
X181447356Y-108315143D01*
X181457321Y-108336213D01*
X181465173Y-108358157D01*
X181470837Y-108380766D01*
X181474256Y-108403821D01*
X181475400Y-108427100D01*
X181475400Y-109002100D01*
X181474256Y-109025379D01*
X181470837Y-109048434D01*
X181465173Y-109071043D01*
X181457321Y-109092987D01*
X181447356Y-109114057D01*
X181435374Y-109134048D01*
X181421490Y-109152768D01*
X181405838Y-109170038D01*
X181388568Y-109185690D01*
X181369848Y-109199574D01*
X181349857Y-109211556D01*
X181328787Y-109221521D01*
X181306843Y-109229373D01*
X181284234Y-109235037D01*
X181261179Y-109238456D01*
X181237900Y-109239600D01*
X180762900Y-109239600D01*
X180739621Y-109238456D01*
X180716566Y-109235037D01*
X180693957Y-109229373D01*
X180672013Y-109221521D01*
X180650943Y-109211556D01*
X180630952Y-109199574D01*
X180612232Y-109185690D01*
X180594962Y-109170038D01*
X180579310Y-109152768D01*
X180565426Y-109134048D01*
X180553444Y-109114057D01*
X180543479Y-109092987D01*
X180535627Y-109071043D01*
X180529963Y-109048434D01*
X180526544Y-109025379D01*
X180525400Y-109002100D01*
X180525400Y-108427100D01*
X180526544Y-108403821D01*
X180529963Y-108380766D01*
X180535627Y-108358157D01*
X180543479Y-108336213D01*
X180553444Y-108315143D01*
X180565426Y-108295152D01*
X180579310Y-108276432D01*
X180594962Y-108259162D01*
X180612232Y-108243510D01*
X180630952Y-108229626D01*
X180650943Y-108217644D01*
X180672013Y-108207679D01*
X180693957Y-108199827D01*
X180716566Y-108194163D01*
X180739621Y-108190744D01*
X180762900Y-108189600D01*
X181237900Y-108189600D01*
X181261179Y-108190744D01*
X181261179Y-108190744D01*
G37*
D13*
X181000400Y-108714600D03*
D10*
G36*
X198014858Y-127107310D02*
G01*
X198029176Y-127109434D01*
X198043217Y-127112951D01*
X198056846Y-127117828D01*
X198069931Y-127124017D01*
X198082347Y-127131458D01*
X198093973Y-127140081D01*
X198104698Y-127149802D01*
X198114419Y-127160527D01*
X198123042Y-127172153D01*
X198130483Y-127184569D01*
X198136672Y-127197654D01*
X198141549Y-127211283D01*
X198145066Y-127225324D01*
X198147190Y-127239642D01*
X198147900Y-127254100D01*
X198147900Y-127549100D01*
X198147190Y-127563558D01*
X198145066Y-127577876D01*
X198141549Y-127591917D01*
X198136672Y-127605546D01*
X198130483Y-127618631D01*
X198123042Y-127631047D01*
X198114419Y-127642673D01*
X198104698Y-127653398D01*
X198093973Y-127663119D01*
X198082347Y-127671742D01*
X198069931Y-127679183D01*
X198056846Y-127685372D01*
X198043217Y-127690249D01*
X198029176Y-127693766D01*
X198014858Y-127695890D01*
X198000400Y-127696600D01*
X197655400Y-127696600D01*
X197640942Y-127695890D01*
X197626624Y-127693766D01*
X197612583Y-127690249D01*
X197598954Y-127685372D01*
X197585869Y-127679183D01*
X197573453Y-127671742D01*
X197561827Y-127663119D01*
X197551102Y-127653398D01*
X197541381Y-127642673D01*
X197532758Y-127631047D01*
X197525317Y-127618631D01*
X197519128Y-127605546D01*
X197514251Y-127591917D01*
X197510734Y-127577876D01*
X197508610Y-127563558D01*
X197507900Y-127549100D01*
X197507900Y-127254100D01*
X197508610Y-127239642D01*
X197510734Y-127225324D01*
X197514251Y-127211283D01*
X197519128Y-127197654D01*
X197525317Y-127184569D01*
X197532758Y-127172153D01*
X197541381Y-127160527D01*
X197551102Y-127149802D01*
X197561827Y-127140081D01*
X197573453Y-127131458D01*
X197585869Y-127124017D01*
X197598954Y-127117828D01*
X197612583Y-127112951D01*
X197626624Y-127109434D01*
X197640942Y-127107310D01*
X197655400Y-127106600D01*
X198000400Y-127106600D01*
X198014858Y-127107310D01*
X198014858Y-127107310D01*
G37*
D15*
X197827900Y-127401600D03*
D10*
G36*
X198014858Y-128077310D02*
G01*
X198029176Y-128079434D01*
X198043217Y-128082951D01*
X198056846Y-128087828D01*
X198069931Y-128094017D01*
X198082347Y-128101458D01*
X198093973Y-128110081D01*
X198104698Y-128119802D01*
X198114419Y-128130527D01*
X198123042Y-128142153D01*
X198130483Y-128154569D01*
X198136672Y-128167654D01*
X198141549Y-128181283D01*
X198145066Y-128195324D01*
X198147190Y-128209642D01*
X198147900Y-128224100D01*
X198147900Y-128519100D01*
X198147190Y-128533558D01*
X198145066Y-128547876D01*
X198141549Y-128561917D01*
X198136672Y-128575546D01*
X198130483Y-128588631D01*
X198123042Y-128601047D01*
X198114419Y-128612673D01*
X198104698Y-128623398D01*
X198093973Y-128633119D01*
X198082347Y-128641742D01*
X198069931Y-128649183D01*
X198056846Y-128655372D01*
X198043217Y-128660249D01*
X198029176Y-128663766D01*
X198014858Y-128665890D01*
X198000400Y-128666600D01*
X197655400Y-128666600D01*
X197640942Y-128665890D01*
X197626624Y-128663766D01*
X197612583Y-128660249D01*
X197598954Y-128655372D01*
X197585869Y-128649183D01*
X197573453Y-128641742D01*
X197561827Y-128633119D01*
X197551102Y-128623398D01*
X197541381Y-128612673D01*
X197532758Y-128601047D01*
X197525317Y-128588631D01*
X197519128Y-128575546D01*
X197514251Y-128561917D01*
X197510734Y-128547876D01*
X197508610Y-128533558D01*
X197507900Y-128519100D01*
X197507900Y-128224100D01*
X197508610Y-128209642D01*
X197510734Y-128195324D01*
X197514251Y-128181283D01*
X197519128Y-128167654D01*
X197525317Y-128154569D01*
X197532758Y-128142153D01*
X197541381Y-128130527D01*
X197551102Y-128119802D01*
X197561827Y-128110081D01*
X197573453Y-128101458D01*
X197585869Y-128094017D01*
X197598954Y-128087828D01*
X197612583Y-128082951D01*
X197626624Y-128079434D01*
X197640942Y-128077310D01*
X197655400Y-128076600D01*
X198000400Y-128076600D01*
X198014858Y-128077310D01*
X198014858Y-128077310D01*
G37*
D15*
X197827900Y-128371600D03*
D10*
G36*
X173996779Y-108188144D02*
G01*
X174019834Y-108191563D01*
X174042443Y-108197227D01*
X174064387Y-108205079D01*
X174085457Y-108215044D01*
X174105448Y-108227026D01*
X174124168Y-108240910D01*
X174141438Y-108256562D01*
X174157090Y-108273832D01*
X174170974Y-108292552D01*
X174182956Y-108312543D01*
X174192921Y-108333613D01*
X174200773Y-108355557D01*
X174206437Y-108378166D01*
X174209856Y-108401221D01*
X174211000Y-108424500D01*
X174211000Y-108999500D01*
X174209856Y-109022779D01*
X174206437Y-109045834D01*
X174200773Y-109068443D01*
X174192921Y-109090387D01*
X174182956Y-109111457D01*
X174170974Y-109131448D01*
X174157090Y-109150168D01*
X174141438Y-109167438D01*
X174124168Y-109183090D01*
X174105448Y-109196974D01*
X174085457Y-109208956D01*
X174064387Y-109218921D01*
X174042443Y-109226773D01*
X174019834Y-109232437D01*
X173996779Y-109235856D01*
X173973500Y-109237000D01*
X173498500Y-109237000D01*
X173475221Y-109235856D01*
X173452166Y-109232437D01*
X173429557Y-109226773D01*
X173407613Y-109218921D01*
X173386543Y-109208956D01*
X173366552Y-109196974D01*
X173347832Y-109183090D01*
X173330562Y-109167438D01*
X173314910Y-109150168D01*
X173301026Y-109131448D01*
X173289044Y-109111457D01*
X173279079Y-109090387D01*
X173271227Y-109068443D01*
X173265563Y-109045834D01*
X173262144Y-109022779D01*
X173261000Y-108999500D01*
X173261000Y-108424500D01*
X173262144Y-108401221D01*
X173265563Y-108378166D01*
X173271227Y-108355557D01*
X173279079Y-108333613D01*
X173289044Y-108312543D01*
X173301026Y-108292552D01*
X173314910Y-108273832D01*
X173330562Y-108256562D01*
X173347832Y-108240910D01*
X173366552Y-108227026D01*
X173386543Y-108215044D01*
X173407613Y-108205079D01*
X173429557Y-108197227D01*
X173452166Y-108191563D01*
X173475221Y-108188144D01*
X173498500Y-108187000D01*
X173973500Y-108187000D01*
X173996779Y-108188144D01*
X173996779Y-108188144D01*
G37*
D13*
X173736000Y-108712000D03*
D10*
G36*
X173996779Y-109938144D02*
G01*
X174019834Y-109941563D01*
X174042443Y-109947227D01*
X174064387Y-109955079D01*
X174085457Y-109965044D01*
X174105448Y-109977026D01*
X174124168Y-109990910D01*
X174141438Y-110006562D01*
X174157090Y-110023832D01*
X174170974Y-110042552D01*
X174182956Y-110062543D01*
X174192921Y-110083613D01*
X174200773Y-110105557D01*
X174206437Y-110128166D01*
X174209856Y-110151221D01*
X174211000Y-110174500D01*
X174211000Y-110749500D01*
X174209856Y-110772779D01*
X174206437Y-110795834D01*
X174200773Y-110818443D01*
X174192921Y-110840387D01*
X174182956Y-110861457D01*
X174170974Y-110881448D01*
X174157090Y-110900168D01*
X174141438Y-110917438D01*
X174124168Y-110933090D01*
X174105448Y-110946974D01*
X174085457Y-110958956D01*
X174064387Y-110968921D01*
X174042443Y-110976773D01*
X174019834Y-110982437D01*
X173996779Y-110985856D01*
X173973500Y-110987000D01*
X173498500Y-110987000D01*
X173475221Y-110985856D01*
X173452166Y-110982437D01*
X173429557Y-110976773D01*
X173407613Y-110968921D01*
X173386543Y-110958956D01*
X173366552Y-110946974D01*
X173347832Y-110933090D01*
X173330562Y-110917438D01*
X173314910Y-110900168D01*
X173301026Y-110881448D01*
X173289044Y-110861457D01*
X173279079Y-110840387D01*
X173271227Y-110818443D01*
X173265563Y-110795834D01*
X173262144Y-110772779D01*
X173261000Y-110749500D01*
X173261000Y-110174500D01*
X173262144Y-110151221D01*
X173265563Y-110128166D01*
X173271227Y-110105557D01*
X173279079Y-110083613D01*
X173289044Y-110062543D01*
X173301026Y-110042552D01*
X173314910Y-110023832D01*
X173330562Y-110006562D01*
X173347832Y-109990910D01*
X173366552Y-109977026D01*
X173386543Y-109965044D01*
X173407613Y-109955079D01*
X173429557Y-109947227D01*
X173452166Y-109941563D01*
X173475221Y-109938144D01*
X173498500Y-109937000D01*
X173973500Y-109937000D01*
X173996779Y-109938144D01*
X173996779Y-109938144D01*
G37*
D13*
X173736000Y-110462000D03*
D10*
G36*
X170451305Y-110188204D02*
G01*
X170475573Y-110191804D01*
X170499372Y-110197765D01*
X170522471Y-110206030D01*
X170544650Y-110216520D01*
X170565693Y-110229132D01*
X170585399Y-110243747D01*
X170603577Y-110260223D01*
X170620053Y-110278401D01*
X170634668Y-110298107D01*
X170647280Y-110319150D01*
X170657770Y-110341329D01*
X170666035Y-110364428D01*
X170671996Y-110388227D01*
X170675596Y-110412495D01*
X170676800Y-110436999D01*
X170676800Y-111087001D01*
X170675596Y-111111505D01*
X170671996Y-111135773D01*
X170666035Y-111159572D01*
X170657770Y-111182671D01*
X170647280Y-111204850D01*
X170634668Y-111225893D01*
X170620053Y-111245599D01*
X170603577Y-111263777D01*
X170585399Y-111280253D01*
X170565693Y-111294868D01*
X170544650Y-111307480D01*
X170522471Y-111317970D01*
X170499372Y-111326235D01*
X170475573Y-111332196D01*
X170451305Y-111335796D01*
X170426801Y-111337000D01*
X169526799Y-111337000D01*
X169502295Y-111335796D01*
X169478027Y-111332196D01*
X169454228Y-111326235D01*
X169431129Y-111317970D01*
X169408950Y-111307480D01*
X169387907Y-111294868D01*
X169368201Y-111280253D01*
X169350023Y-111263777D01*
X169333547Y-111245599D01*
X169318932Y-111225893D01*
X169306320Y-111204850D01*
X169295830Y-111182671D01*
X169287565Y-111159572D01*
X169281604Y-111135773D01*
X169278004Y-111111505D01*
X169276800Y-111087001D01*
X169276800Y-110436999D01*
X169278004Y-110412495D01*
X169281604Y-110388227D01*
X169287565Y-110364428D01*
X169295830Y-110341329D01*
X169306320Y-110319150D01*
X169318932Y-110298107D01*
X169333547Y-110278401D01*
X169350023Y-110260223D01*
X169368201Y-110243747D01*
X169387907Y-110229132D01*
X169408950Y-110216520D01*
X169431129Y-110206030D01*
X169454228Y-110197765D01*
X169478027Y-110191804D01*
X169502295Y-110188204D01*
X169526799Y-110187000D01*
X170426801Y-110187000D01*
X170451305Y-110188204D01*
X170451305Y-110188204D01*
G37*
D12*
X169976800Y-110762000D03*
D10*
G36*
X170451305Y-108138204D02*
G01*
X170475573Y-108141804D01*
X170499372Y-108147765D01*
X170522471Y-108156030D01*
X170544650Y-108166520D01*
X170565693Y-108179132D01*
X170585399Y-108193747D01*
X170603577Y-108210223D01*
X170620053Y-108228401D01*
X170634668Y-108248107D01*
X170647280Y-108269150D01*
X170657770Y-108291329D01*
X170666035Y-108314428D01*
X170671996Y-108338227D01*
X170675596Y-108362495D01*
X170676800Y-108386999D01*
X170676800Y-109037001D01*
X170675596Y-109061505D01*
X170671996Y-109085773D01*
X170666035Y-109109572D01*
X170657770Y-109132671D01*
X170647280Y-109154850D01*
X170634668Y-109175893D01*
X170620053Y-109195599D01*
X170603577Y-109213777D01*
X170585399Y-109230253D01*
X170565693Y-109244868D01*
X170544650Y-109257480D01*
X170522471Y-109267970D01*
X170499372Y-109276235D01*
X170475573Y-109282196D01*
X170451305Y-109285796D01*
X170426801Y-109287000D01*
X169526799Y-109287000D01*
X169502295Y-109285796D01*
X169478027Y-109282196D01*
X169454228Y-109276235D01*
X169431129Y-109267970D01*
X169408950Y-109257480D01*
X169387907Y-109244868D01*
X169368201Y-109230253D01*
X169350023Y-109213777D01*
X169333547Y-109195599D01*
X169318932Y-109175893D01*
X169306320Y-109154850D01*
X169295830Y-109132671D01*
X169287565Y-109109572D01*
X169281604Y-109085773D01*
X169278004Y-109061505D01*
X169276800Y-109037001D01*
X169276800Y-108386999D01*
X169278004Y-108362495D01*
X169281604Y-108338227D01*
X169287565Y-108314428D01*
X169295830Y-108291329D01*
X169306320Y-108269150D01*
X169318932Y-108248107D01*
X169333547Y-108228401D01*
X169350023Y-108210223D01*
X169368201Y-108193747D01*
X169387907Y-108179132D01*
X169408950Y-108166520D01*
X169431129Y-108156030D01*
X169454228Y-108147765D01*
X169478027Y-108141804D01*
X169502295Y-108138204D01*
X169526799Y-108137000D01*
X170426801Y-108137000D01*
X170451305Y-108138204D01*
X170451305Y-108138204D01*
G37*
D12*
X169976800Y-108712000D03*
D10*
G36*
X172726779Y-118376144D02*
G01*
X172749834Y-118379563D01*
X172772443Y-118385227D01*
X172794387Y-118393079D01*
X172815457Y-118403044D01*
X172835448Y-118415026D01*
X172854168Y-118428910D01*
X172871438Y-118444562D01*
X172887090Y-118461832D01*
X172900974Y-118480552D01*
X172912956Y-118500543D01*
X172922921Y-118521613D01*
X172930773Y-118543557D01*
X172936437Y-118566166D01*
X172939856Y-118589221D01*
X172941000Y-118612500D01*
X172941000Y-119187500D01*
X172939856Y-119210779D01*
X172936437Y-119233834D01*
X172930773Y-119256443D01*
X172922921Y-119278387D01*
X172912956Y-119299457D01*
X172900974Y-119319448D01*
X172887090Y-119338168D01*
X172871438Y-119355438D01*
X172854168Y-119371090D01*
X172835448Y-119384974D01*
X172815457Y-119396956D01*
X172794387Y-119406921D01*
X172772443Y-119414773D01*
X172749834Y-119420437D01*
X172726779Y-119423856D01*
X172703500Y-119425000D01*
X172228500Y-119425000D01*
X172205221Y-119423856D01*
X172182166Y-119420437D01*
X172159557Y-119414773D01*
X172137613Y-119406921D01*
X172116543Y-119396956D01*
X172096552Y-119384974D01*
X172077832Y-119371090D01*
X172060562Y-119355438D01*
X172044910Y-119338168D01*
X172031026Y-119319448D01*
X172019044Y-119299457D01*
X172009079Y-119278387D01*
X172001227Y-119256443D01*
X171995563Y-119233834D01*
X171992144Y-119210779D01*
X171991000Y-119187500D01*
X171991000Y-118612500D01*
X171992144Y-118589221D01*
X171995563Y-118566166D01*
X172001227Y-118543557D01*
X172009079Y-118521613D01*
X172019044Y-118500543D01*
X172031026Y-118480552D01*
X172044910Y-118461832D01*
X172060562Y-118444562D01*
X172077832Y-118428910D01*
X172096552Y-118415026D01*
X172116543Y-118403044D01*
X172137613Y-118393079D01*
X172159557Y-118385227D01*
X172182166Y-118379563D01*
X172205221Y-118376144D01*
X172228500Y-118375000D01*
X172703500Y-118375000D01*
X172726779Y-118376144D01*
X172726779Y-118376144D01*
G37*
D13*
X172466000Y-118900000D03*
D10*
G36*
X172726779Y-120126144D02*
G01*
X172749834Y-120129563D01*
X172772443Y-120135227D01*
X172794387Y-120143079D01*
X172815457Y-120153044D01*
X172835448Y-120165026D01*
X172854168Y-120178910D01*
X172871438Y-120194562D01*
X172887090Y-120211832D01*
X172900974Y-120230552D01*
X172912956Y-120250543D01*
X172922921Y-120271613D01*
X172930773Y-120293557D01*
X172936437Y-120316166D01*
X172939856Y-120339221D01*
X172941000Y-120362500D01*
X172941000Y-120937500D01*
X172939856Y-120960779D01*
X172936437Y-120983834D01*
X172930773Y-121006443D01*
X172922921Y-121028387D01*
X172912956Y-121049457D01*
X172900974Y-121069448D01*
X172887090Y-121088168D01*
X172871438Y-121105438D01*
X172854168Y-121121090D01*
X172835448Y-121134974D01*
X172815457Y-121146956D01*
X172794387Y-121156921D01*
X172772443Y-121164773D01*
X172749834Y-121170437D01*
X172726779Y-121173856D01*
X172703500Y-121175000D01*
X172228500Y-121175000D01*
X172205221Y-121173856D01*
X172182166Y-121170437D01*
X172159557Y-121164773D01*
X172137613Y-121156921D01*
X172116543Y-121146956D01*
X172096552Y-121134974D01*
X172077832Y-121121090D01*
X172060562Y-121105438D01*
X172044910Y-121088168D01*
X172031026Y-121069448D01*
X172019044Y-121049457D01*
X172009079Y-121028387D01*
X172001227Y-121006443D01*
X171995563Y-120983834D01*
X171992144Y-120960779D01*
X171991000Y-120937500D01*
X171991000Y-120362500D01*
X171992144Y-120339221D01*
X171995563Y-120316166D01*
X172001227Y-120293557D01*
X172009079Y-120271613D01*
X172019044Y-120250543D01*
X172031026Y-120230552D01*
X172044910Y-120211832D01*
X172060562Y-120194562D01*
X172077832Y-120178910D01*
X172096552Y-120165026D01*
X172116543Y-120153044D01*
X172137613Y-120143079D01*
X172159557Y-120135227D01*
X172182166Y-120129563D01*
X172205221Y-120126144D01*
X172228500Y-120125000D01*
X172703500Y-120125000D01*
X172726779Y-120126144D01*
X172726779Y-120126144D01*
G37*
D13*
X172466000Y-120650000D03*
D10*
G36*
X206711979Y-111337744D02*
G01*
X206735034Y-111341163D01*
X206757643Y-111346827D01*
X206779587Y-111354679D01*
X206800657Y-111364644D01*
X206820648Y-111376626D01*
X206839368Y-111390510D01*
X206856638Y-111406162D01*
X206872290Y-111423432D01*
X206886174Y-111442152D01*
X206898156Y-111462143D01*
X206908121Y-111483213D01*
X206915973Y-111505157D01*
X206921637Y-111527766D01*
X206925056Y-111550821D01*
X206926200Y-111574100D01*
X206926200Y-112149100D01*
X206925056Y-112172379D01*
X206921637Y-112195434D01*
X206915973Y-112218043D01*
X206908121Y-112239987D01*
X206898156Y-112261057D01*
X206886174Y-112281048D01*
X206872290Y-112299768D01*
X206856638Y-112317038D01*
X206839368Y-112332690D01*
X206820648Y-112346574D01*
X206800657Y-112358556D01*
X206779587Y-112368521D01*
X206757643Y-112376373D01*
X206735034Y-112382037D01*
X206711979Y-112385456D01*
X206688700Y-112386600D01*
X206213700Y-112386600D01*
X206190421Y-112385456D01*
X206167366Y-112382037D01*
X206144757Y-112376373D01*
X206122813Y-112368521D01*
X206101743Y-112358556D01*
X206081752Y-112346574D01*
X206063032Y-112332690D01*
X206045762Y-112317038D01*
X206030110Y-112299768D01*
X206016226Y-112281048D01*
X206004244Y-112261057D01*
X205994279Y-112239987D01*
X205986427Y-112218043D01*
X205980763Y-112195434D01*
X205977344Y-112172379D01*
X205976200Y-112149100D01*
X205976200Y-111574100D01*
X205977344Y-111550821D01*
X205980763Y-111527766D01*
X205986427Y-111505157D01*
X205994279Y-111483213D01*
X206004244Y-111462143D01*
X206016226Y-111442152D01*
X206030110Y-111423432D01*
X206045762Y-111406162D01*
X206063032Y-111390510D01*
X206081752Y-111376626D01*
X206101743Y-111364644D01*
X206122813Y-111354679D01*
X206144757Y-111346827D01*
X206167366Y-111341163D01*
X206190421Y-111337744D01*
X206213700Y-111336600D01*
X206688700Y-111336600D01*
X206711979Y-111337744D01*
X206711979Y-111337744D01*
G37*
D13*
X206451200Y-111861600D03*
D10*
G36*
X206711979Y-109587744D02*
G01*
X206735034Y-109591163D01*
X206757643Y-109596827D01*
X206779587Y-109604679D01*
X206800657Y-109614644D01*
X206820648Y-109626626D01*
X206839368Y-109640510D01*
X206856638Y-109656162D01*
X206872290Y-109673432D01*
X206886174Y-109692152D01*
X206898156Y-109712143D01*
X206908121Y-109733213D01*
X206915973Y-109755157D01*
X206921637Y-109777766D01*
X206925056Y-109800821D01*
X206926200Y-109824100D01*
X206926200Y-110399100D01*
X206925056Y-110422379D01*
X206921637Y-110445434D01*
X206915973Y-110468043D01*
X206908121Y-110489987D01*
X206898156Y-110511057D01*
X206886174Y-110531048D01*
X206872290Y-110549768D01*
X206856638Y-110567038D01*
X206839368Y-110582690D01*
X206820648Y-110596574D01*
X206800657Y-110608556D01*
X206779587Y-110618521D01*
X206757643Y-110626373D01*
X206735034Y-110632037D01*
X206711979Y-110635456D01*
X206688700Y-110636600D01*
X206213700Y-110636600D01*
X206190421Y-110635456D01*
X206167366Y-110632037D01*
X206144757Y-110626373D01*
X206122813Y-110618521D01*
X206101743Y-110608556D01*
X206081752Y-110596574D01*
X206063032Y-110582690D01*
X206045762Y-110567038D01*
X206030110Y-110549768D01*
X206016226Y-110531048D01*
X206004244Y-110511057D01*
X205994279Y-110489987D01*
X205986427Y-110468043D01*
X205980763Y-110445434D01*
X205977344Y-110422379D01*
X205976200Y-110399100D01*
X205976200Y-109824100D01*
X205977344Y-109800821D01*
X205980763Y-109777766D01*
X205986427Y-109755157D01*
X205994279Y-109733213D01*
X206004244Y-109712143D01*
X206016226Y-109692152D01*
X206030110Y-109673432D01*
X206045762Y-109656162D01*
X206063032Y-109640510D01*
X206081752Y-109626626D01*
X206101743Y-109614644D01*
X206122813Y-109604679D01*
X206144757Y-109596827D01*
X206167366Y-109591163D01*
X206190421Y-109587744D01*
X206213700Y-109586600D01*
X206688700Y-109586600D01*
X206711979Y-109587744D01*
X206711979Y-109587744D01*
G37*
D13*
X206451200Y-110111600D03*
D10*
G36*
X146727705Y-100449404D02*
G01*
X146751973Y-100453004D01*
X146775772Y-100458965D01*
X146798871Y-100467230D01*
X146821050Y-100477720D01*
X146842093Y-100490332D01*
X146861799Y-100504947D01*
X146879977Y-100521423D01*
X146896453Y-100539601D01*
X146911068Y-100559307D01*
X146923680Y-100580350D01*
X146934170Y-100602529D01*
X146942435Y-100625628D01*
X146948396Y-100649427D01*
X146951996Y-100673695D01*
X146953200Y-100698199D01*
X146953200Y-101348201D01*
X146951996Y-101372705D01*
X146948396Y-101396973D01*
X146942435Y-101420772D01*
X146934170Y-101443871D01*
X146923680Y-101466050D01*
X146911068Y-101487093D01*
X146896453Y-101506799D01*
X146879977Y-101524977D01*
X146861799Y-101541453D01*
X146842093Y-101556068D01*
X146821050Y-101568680D01*
X146798871Y-101579170D01*
X146775772Y-101587435D01*
X146751973Y-101593396D01*
X146727705Y-101596996D01*
X146703201Y-101598200D01*
X145803199Y-101598200D01*
X145778695Y-101596996D01*
X145754427Y-101593396D01*
X145730628Y-101587435D01*
X145707529Y-101579170D01*
X145685350Y-101568680D01*
X145664307Y-101556068D01*
X145644601Y-101541453D01*
X145626423Y-101524977D01*
X145609947Y-101506799D01*
X145595332Y-101487093D01*
X145582720Y-101466050D01*
X145572230Y-101443871D01*
X145563965Y-101420772D01*
X145558004Y-101396973D01*
X145554404Y-101372705D01*
X145553200Y-101348201D01*
X145553200Y-100698199D01*
X145554404Y-100673695D01*
X145558004Y-100649427D01*
X145563965Y-100625628D01*
X145572230Y-100602529D01*
X145582720Y-100580350D01*
X145595332Y-100559307D01*
X145609947Y-100539601D01*
X145626423Y-100521423D01*
X145644601Y-100504947D01*
X145664307Y-100490332D01*
X145685350Y-100477720D01*
X145707529Y-100467230D01*
X145730628Y-100458965D01*
X145754427Y-100453004D01*
X145778695Y-100449404D01*
X145803199Y-100448200D01*
X146703201Y-100448200D01*
X146727705Y-100449404D01*
X146727705Y-100449404D01*
G37*
D12*
X146253200Y-101023200D03*
D10*
G36*
X146727705Y-102499404D02*
G01*
X146751973Y-102503004D01*
X146775772Y-102508965D01*
X146798871Y-102517230D01*
X146821050Y-102527720D01*
X146842093Y-102540332D01*
X146861799Y-102554947D01*
X146879977Y-102571423D01*
X146896453Y-102589601D01*
X146911068Y-102609307D01*
X146923680Y-102630350D01*
X146934170Y-102652529D01*
X146942435Y-102675628D01*
X146948396Y-102699427D01*
X146951996Y-102723695D01*
X146953200Y-102748199D01*
X146953200Y-103398201D01*
X146951996Y-103422705D01*
X146948396Y-103446973D01*
X146942435Y-103470772D01*
X146934170Y-103493871D01*
X146923680Y-103516050D01*
X146911068Y-103537093D01*
X146896453Y-103556799D01*
X146879977Y-103574977D01*
X146861799Y-103591453D01*
X146842093Y-103606068D01*
X146821050Y-103618680D01*
X146798871Y-103629170D01*
X146775772Y-103637435D01*
X146751973Y-103643396D01*
X146727705Y-103646996D01*
X146703201Y-103648200D01*
X145803199Y-103648200D01*
X145778695Y-103646996D01*
X145754427Y-103643396D01*
X145730628Y-103637435D01*
X145707529Y-103629170D01*
X145685350Y-103618680D01*
X145664307Y-103606068D01*
X145644601Y-103591453D01*
X145626423Y-103574977D01*
X145609947Y-103556799D01*
X145595332Y-103537093D01*
X145582720Y-103516050D01*
X145572230Y-103493871D01*
X145563965Y-103470772D01*
X145558004Y-103446973D01*
X145554404Y-103422705D01*
X145553200Y-103398201D01*
X145553200Y-102748199D01*
X145554404Y-102723695D01*
X145558004Y-102699427D01*
X145563965Y-102675628D01*
X145572230Y-102652529D01*
X145582720Y-102630350D01*
X145595332Y-102609307D01*
X145609947Y-102589601D01*
X145626423Y-102571423D01*
X145644601Y-102554947D01*
X145664307Y-102540332D01*
X145685350Y-102527720D01*
X145707529Y-102517230D01*
X145730628Y-102508965D01*
X145754427Y-102503004D01*
X145778695Y-102499404D01*
X145803199Y-102498200D01*
X146703201Y-102498200D01*
X146727705Y-102499404D01*
X146727705Y-102499404D01*
G37*
D12*
X146253200Y-103073200D03*
D10*
G36*
X144390905Y-102508404D02*
G01*
X144415173Y-102512004D01*
X144438972Y-102517965D01*
X144462071Y-102526230D01*
X144484250Y-102536720D01*
X144505293Y-102549332D01*
X144524999Y-102563947D01*
X144543177Y-102580423D01*
X144559653Y-102598601D01*
X144574268Y-102618307D01*
X144586880Y-102639350D01*
X144597370Y-102661529D01*
X144605635Y-102684628D01*
X144611596Y-102708427D01*
X144615196Y-102732695D01*
X144616400Y-102757199D01*
X144616400Y-103407201D01*
X144615196Y-103431705D01*
X144611596Y-103455973D01*
X144605635Y-103479772D01*
X144597370Y-103502871D01*
X144586880Y-103525050D01*
X144574268Y-103546093D01*
X144559653Y-103565799D01*
X144543177Y-103583977D01*
X144524999Y-103600453D01*
X144505293Y-103615068D01*
X144484250Y-103627680D01*
X144462071Y-103638170D01*
X144438972Y-103646435D01*
X144415173Y-103652396D01*
X144390905Y-103655996D01*
X144366401Y-103657200D01*
X143466399Y-103657200D01*
X143441895Y-103655996D01*
X143417627Y-103652396D01*
X143393828Y-103646435D01*
X143370729Y-103638170D01*
X143348550Y-103627680D01*
X143327507Y-103615068D01*
X143307801Y-103600453D01*
X143289623Y-103583977D01*
X143273147Y-103565799D01*
X143258532Y-103546093D01*
X143245920Y-103525050D01*
X143235430Y-103502871D01*
X143227165Y-103479772D01*
X143221204Y-103455973D01*
X143217604Y-103431705D01*
X143216400Y-103407201D01*
X143216400Y-102757199D01*
X143217604Y-102732695D01*
X143221204Y-102708427D01*
X143227165Y-102684628D01*
X143235430Y-102661529D01*
X143245920Y-102639350D01*
X143258532Y-102618307D01*
X143273147Y-102598601D01*
X143289623Y-102580423D01*
X143307801Y-102563947D01*
X143327507Y-102549332D01*
X143348550Y-102536720D01*
X143370729Y-102526230D01*
X143393828Y-102517965D01*
X143417627Y-102512004D01*
X143441895Y-102508404D01*
X143466399Y-102507200D01*
X144366401Y-102507200D01*
X144390905Y-102508404D01*
X144390905Y-102508404D01*
G37*
D12*
X143916400Y-103082200D03*
D10*
G36*
X144390905Y-100458404D02*
G01*
X144415173Y-100462004D01*
X144438972Y-100467965D01*
X144462071Y-100476230D01*
X144484250Y-100486720D01*
X144505293Y-100499332D01*
X144524999Y-100513947D01*
X144543177Y-100530423D01*
X144559653Y-100548601D01*
X144574268Y-100568307D01*
X144586880Y-100589350D01*
X144597370Y-100611529D01*
X144605635Y-100634628D01*
X144611596Y-100658427D01*
X144615196Y-100682695D01*
X144616400Y-100707199D01*
X144616400Y-101357201D01*
X144615196Y-101381705D01*
X144611596Y-101405973D01*
X144605635Y-101429772D01*
X144597370Y-101452871D01*
X144586880Y-101475050D01*
X144574268Y-101496093D01*
X144559653Y-101515799D01*
X144543177Y-101533977D01*
X144524999Y-101550453D01*
X144505293Y-101565068D01*
X144484250Y-101577680D01*
X144462071Y-101588170D01*
X144438972Y-101596435D01*
X144415173Y-101602396D01*
X144390905Y-101605996D01*
X144366401Y-101607200D01*
X143466399Y-101607200D01*
X143441895Y-101605996D01*
X143417627Y-101602396D01*
X143393828Y-101596435D01*
X143370729Y-101588170D01*
X143348550Y-101577680D01*
X143327507Y-101565068D01*
X143307801Y-101550453D01*
X143289623Y-101533977D01*
X143273147Y-101515799D01*
X143258532Y-101496093D01*
X143245920Y-101475050D01*
X143235430Y-101452871D01*
X143227165Y-101429772D01*
X143221204Y-101405973D01*
X143217604Y-101381705D01*
X143216400Y-101357201D01*
X143216400Y-100707199D01*
X143217604Y-100682695D01*
X143221204Y-100658427D01*
X143227165Y-100634628D01*
X143235430Y-100611529D01*
X143245920Y-100589350D01*
X143258532Y-100568307D01*
X143273147Y-100548601D01*
X143289623Y-100530423D01*
X143307801Y-100513947D01*
X143327507Y-100499332D01*
X143348550Y-100486720D01*
X143370729Y-100476230D01*
X143393828Y-100467965D01*
X143417627Y-100462004D01*
X143441895Y-100458404D01*
X143466399Y-100457200D01*
X144366401Y-100457200D01*
X144390905Y-100458404D01*
X144390905Y-100458404D01*
G37*
D12*
X143916400Y-101032200D03*
D10*
G36*
X150542785Y-131501344D02*
G01*
X150567053Y-131504944D01*
X150590852Y-131510905D01*
X150613951Y-131519170D01*
X150636130Y-131529660D01*
X150657173Y-131542272D01*
X150676879Y-131556887D01*
X150695057Y-131573363D01*
X150711533Y-131591541D01*
X150726148Y-131611247D01*
X150738760Y-131632290D01*
X150749250Y-131654469D01*
X150757515Y-131677568D01*
X150763476Y-131701367D01*
X150767076Y-131725635D01*
X150768280Y-131750139D01*
X150768280Y-132400141D01*
X150767076Y-132424645D01*
X150763476Y-132448913D01*
X150757515Y-132472712D01*
X150749250Y-132495811D01*
X150738760Y-132517990D01*
X150726148Y-132539033D01*
X150711533Y-132558739D01*
X150695057Y-132576917D01*
X150676879Y-132593393D01*
X150657173Y-132608008D01*
X150636130Y-132620620D01*
X150613951Y-132631110D01*
X150590852Y-132639375D01*
X150567053Y-132645336D01*
X150542785Y-132648936D01*
X150518281Y-132650140D01*
X149618279Y-132650140D01*
X149593775Y-132648936D01*
X149569507Y-132645336D01*
X149545708Y-132639375D01*
X149522609Y-132631110D01*
X149500430Y-132620620D01*
X149479387Y-132608008D01*
X149459681Y-132593393D01*
X149441503Y-132576917D01*
X149425027Y-132558739D01*
X149410412Y-132539033D01*
X149397800Y-132517990D01*
X149387310Y-132495811D01*
X149379045Y-132472712D01*
X149373084Y-132448913D01*
X149369484Y-132424645D01*
X149368280Y-132400141D01*
X149368280Y-131750139D01*
X149369484Y-131725635D01*
X149373084Y-131701367D01*
X149379045Y-131677568D01*
X149387310Y-131654469D01*
X149397800Y-131632290D01*
X149410412Y-131611247D01*
X149425027Y-131591541D01*
X149441503Y-131573363D01*
X149459681Y-131556887D01*
X149479387Y-131542272D01*
X149500430Y-131529660D01*
X149522609Y-131519170D01*
X149545708Y-131510905D01*
X149569507Y-131504944D01*
X149593775Y-131501344D01*
X149618279Y-131500140D01*
X150518281Y-131500140D01*
X150542785Y-131501344D01*
X150542785Y-131501344D01*
G37*
D12*
X150068280Y-132075140D03*
D10*
G36*
X150542785Y-129451344D02*
G01*
X150567053Y-129454944D01*
X150590852Y-129460905D01*
X150613951Y-129469170D01*
X150636130Y-129479660D01*
X150657173Y-129492272D01*
X150676879Y-129506887D01*
X150695057Y-129523363D01*
X150711533Y-129541541D01*
X150726148Y-129561247D01*
X150738760Y-129582290D01*
X150749250Y-129604469D01*
X150757515Y-129627568D01*
X150763476Y-129651367D01*
X150767076Y-129675635D01*
X150768280Y-129700139D01*
X150768280Y-130350141D01*
X150767076Y-130374645D01*
X150763476Y-130398913D01*
X150757515Y-130422712D01*
X150749250Y-130445811D01*
X150738760Y-130467990D01*
X150726148Y-130489033D01*
X150711533Y-130508739D01*
X150695057Y-130526917D01*
X150676879Y-130543393D01*
X150657173Y-130558008D01*
X150636130Y-130570620D01*
X150613951Y-130581110D01*
X150590852Y-130589375D01*
X150567053Y-130595336D01*
X150542785Y-130598936D01*
X150518281Y-130600140D01*
X149618279Y-130600140D01*
X149593775Y-130598936D01*
X149569507Y-130595336D01*
X149545708Y-130589375D01*
X149522609Y-130581110D01*
X149500430Y-130570620D01*
X149479387Y-130558008D01*
X149459681Y-130543393D01*
X149441503Y-130526917D01*
X149425027Y-130508739D01*
X149410412Y-130489033D01*
X149397800Y-130467990D01*
X149387310Y-130445811D01*
X149379045Y-130422712D01*
X149373084Y-130398913D01*
X149369484Y-130374645D01*
X149368280Y-130350141D01*
X149368280Y-129700139D01*
X149369484Y-129675635D01*
X149373084Y-129651367D01*
X149379045Y-129627568D01*
X149387310Y-129604469D01*
X149397800Y-129582290D01*
X149410412Y-129561247D01*
X149425027Y-129541541D01*
X149441503Y-129523363D01*
X149459681Y-129506887D01*
X149479387Y-129492272D01*
X149500430Y-129479660D01*
X149522609Y-129469170D01*
X149545708Y-129460905D01*
X149569507Y-129454944D01*
X149593775Y-129451344D01*
X149618279Y-129450140D01*
X150518281Y-129450140D01*
X150542785Y-129451344D01*
X150542785Y-129451344D01*
G37*
D12*
X150068280Y-130025140D03*
D16*
X172074840Y-69716400D03*
X172074840Y-65716400D03*
D10*
G36*
X173996779Y-104428944D02*
G01*
X174019834Y-104432363D01*
X174042443Y-104438027D01*
X174064387Y-104445879D01*
X174085457Y-104455844D01*
X174105448Y-104467826D01*
X174124168Y-104481710D01*
X174141438Y-104497362D01*
X174157090Y-104514632D01*
X174170974Y-104533352D01*
X174182956Y-104553343D01*
X174192921Y-104574413D01*
X174200773Y-104596357D01*
X174206437Y-104618966D01*
X174209856Y-104642021D01*
X174211000Y-104665300D01*
X174211000Y-105240300D01*
X174209856Y-105263579D01*
X174206437Y-105286634D01*
X174200773Y-105309243D01*
X174192921Y-105331187D01*
X174182956Y-105352257D01*
X174170974Y-105372248D01*
X174157090Y-105390968D01*
X174141438Y-105408238D01*
X174124168Y-105423890D01*
X174105448Y-105437774D01*
X174085457Y-105449756D01*
X174064387Y-105459721D01*
X174042443Y-105467573D01*
X174019834Y-105473237D01*
X173996779Y-105476656D01*
X173973500Y-105477800D01*
X173498500Y-105477800D01*
X173475221Y-105476656D01*
X173452166Y-105473237D01*
X173429557Y-105467573D01*
X173407613Y-105459721D01*
X173386543Y-105449756D01*
X173366552Y-105437774D01*
X173347832Y-105423890D01*
X173330562Y-105408238D01*
X173314910Y-105390968D01*
X173301026Y-105372248D01*
X173289044Y-105352257D01*
X173279079Y-105331187D01*
X173271227Y-105309243D01*
X173265563Y-105286634D01*
X173262144Y-105263579D01*
X173261000Y-105240300D01*
X173261000Y-104665300D01*
X173262144Y-104642021D01*
X173265563Y-104618966D01*
X173271227Y-104596357D01*
X173279079Y-104574413D01*
X173289044Y-104553343D01*
X173301026Y-104533352D01*
X173314910Y-104514632D01*
X173330562Y-104497362D01*
X173347832Y-104481710D01*
X173366552Y-104467826D01*
X173386543Y-104455844D01*
X173407613Y-104445879D01*
X173429557Y-104438027D01*
X173452166Y-104432363D01*
X173475221Y-104428944D01*
X173498500Y-104427800D01*
X173973500Y-104427800D01*
X173996779Y-104428944D01*
X173996779Y-104428944D01*
G37*
D13*
X173736000Y-104952800D03*
D10*
G36*
X173996779Y-106178944D02*
G01*
X174019834Y-106182363D01*
X174042443Y-106188027D01*
X174064387Y-106195879D01*
X174085457Y-106205844D01*
X174105448Y-106217826D01*
X174124168Y-106231710D01*
X174141438Y-106247362D01*
X174157090Y-106264632D01*
X174170974Y-106283352D01*
X174182956Y-106303343D01*
X174192921Y-106324413D01*
X174200773Y-106346357D01*
X174206437Y-106368966D01*
X174209856Y-106392021D01*
X174211000Y-106415300D01*
X174211000Y-106990300D01*
X174209856Y-107013579D01*
X174206437Y-107036634D01*
X174200773Y-107059243D01*
X174192921Y-107081187D01*
X174182956Y-107102257D01*
X174170974Y-107122248D01*
X174157090Y-107140968D01*
X174141438Y-107158238D01*
X174124168Y-107173890D01*
X174105448Y-107187774D01*
X174085457Y-107199756D01*
X174064387Y-107209721D01*
X174042443Y-107217573D01*
X174019834Y-107223237D01*
X173996779Y-107226656D01*
X173973500Y-107227800D01*
X173498500Y-107227800D01*
X173475221Y-107226656D01*
X173452166Y-107223237D01*
X173429557Y-107217573D01*
X173407613Y-107209721D01*
X173386543Y-107199756D01*
X173366552Y-107187774D01*
X173347832Y-107173890D01*
X173330562Y-107158238D01*
X173314910Y-107140968D01*
X173301026Y-107122248D01*
X173289044Y-107102257D01*
X173279079Y-107081187D01*
X173271227Y-107059243D01*
X173265563Y-107036634D01*
X173262144Y-107013579D01*
X173261000Y-106990300D01*
X173261000Y-106415300D01*
X173262144Y-106392021D01*
X173265563Y-106368966D01*
X173271227Y-106346357D01*
X173279079Y-106324413D01*
X173289044Y-106303343D01*
X173301026Y-106283352D01*
X173314910Y-106264632D01*
X173330562Y-106247362D01*
X173347832Y-106231710D01*
X173366552Y-106217826D01*
X173386543Y-106205844D01*
X173407613Y-106195879D01*
X173429557Y-106188027D01*
X173452166Y-106182363D01*
X173475221Y-106178944D01*
X173498500Y-106177800D01*
X173973500Y-106177800D01*
X173996779Y-106178944D01*
X173996779Y-106178944D01*
G37*
D13*
X173736000Y-106702800D03*
D10*
G36*
X170288379Y-119516544D02*
G01*
X170311434Y-119519963D01*
X170334043Y-119525627D01*
X170355987Y-119533479D01*
X170377057Y-119543444D01*
X170397048Y-119555426D01*
X170415768Y-119569310D01*
X170433038Y-119584962D01*
X170448690Y-119602232D01*
X170462574Y-119620952D01*
X170474556Y-119640943D01*
X170484521Y-119662013D01*
X170492373Y-119683957D01*
X170498037Y-119706566D01*
X170501456Y-119729621D01*
X170502600Y-119752900D01*
X170502600Y-120327900D01*
X170501456Y-120351179D01*
X170498037Y-120374234D01*
X170492373Y-120396843D01*
X170484521Y-120418787D01*
X170474556Y-120439857D01*
X170462574Y-120459848D01*
X170448690Y-120478568D01*
X170433038Y-120495838D01*
X170415768Y-120511490D01*
X170397048Y-120525374D01*
X170377057Y-120537356D01*
X170355987Y-120547321D01*
X170334043Y-120555173D01*
X170311434Y-120560837D01*
X170288379Y-120564256D01*
X170265100Y-120565400D01*
X169790100Y-120565400D01*
X169766821Y-120564256D01*
X169743766Y-120560837D01*
X169721157Y-120555173D01*
X169699213Y-120547321D01*
X169678143Y-120537356D01*
X169658152Y-120525374D01*
X169639432Y-120511490D01*
X169622162Y-120495838D01*
X169606510Y-120478568D01*
X169592626Y-120459848D01*
X169580644Y-120439857D01*
X169570679Y-120418787D01*
X169562827Y-120396843D01*
X169557163Y-120374234D01*
X169553744Y-120351179D01*
X169552600Y-120327900D01*
X169552600Y-119752900D01*
X169553744Y-119729621D01*
X169557163Y-119706566D01*
X169562827Y-119683957D01*
X169570679Y-119662013D01*
X169580644Y-119640943D01*
X169592626Y-119620952D01*
X169606510Y-119602232D01*
X169622162Y-119584962D01*
X169639432Y-119569310D01*
X169658152Y-119555426D01*
X169678143Y-119543444D01*
X169699213Y-119533479D01*
X169721157Y-119525627D01*
X169743766Y-119519963D01*
X169766821Y-119516544D01*
X169790100Y-119515400D01*
X170265100Y-119515400D01*
X170288379Y-119516544D01*
X170288379Y-119516544D01*
G37*
D13*
X170027600Y-120040400D03*
D10*
G36*
X170288379Y-121266544D02*
G01*
X170311434Y-121269963D01*
X170334043Y-121275627D01*
X170355987Y-121283479D01*
X170377057Y-121293444D01*
X170397048Y-121305426D01*
X170415768Y-121319310D01*
X170433038Y-121334962D01*
X170448690Y-121352232D01*
X170462574Y-121370952D01*
X170474556Y-121390943D01*
X170484521Y-121412013D01*
X170492373Y-121433957D01*
X170498037Y-121456566D01*
X170501456Y-121479621D01*
X170502600Y-121502900D01*
X170502600Y-122077900D01*
X170501456Y-122101179D01*
X170498037Y-122124234D01*
X170492373Y-122146843D01*
X170484521Y-122168787D01*
X170474556Y-122189857D01*
X170462574Y-122209848D01*
X170448690Y-122228568D01*
X170433038Y-122245838D01*
X170415768Y-122261490D01*
X170397048Y-122275374D01*
X170377057Y-122287356D01*
X170355987Y-122297321D01*
X170334043Y-122305173D01*
X170311434Y-122310837D01*
X170288379Y-122314256D01*
X170265100Y-122315400D01*
X169790100Y-122315400D01*
X169766821Y-122314256D01*
X169743766Y-122310837D01*
X169721157Y-122305173D01*
X169699213Y-122297321D01*
X169678143Y-122287356D01*
X169658152Y-122275374D01*
X169639432Y-122261490D01*
X169622162Y-122245838D01*
X169606510Y-122228568D01*
X169592626Y-122209848D01*
X169580644Y-122189857D01*
X169570679Y-122168787D01*
X169562827Y-122146843D01*
X169557163Y-122124234D01*
X169553744Y-122101179D01*
X169552600Y-122077900D01*
X169552600Y-121502900D01*
X169553744Y-121479621D01*
X169557163Y-121456566D01*
X169562827Y-121433957D01*
X169570679Y-121412013D01*
X169580644Y-121390943D01*
X169592626Y-121370952D01*
X169606510Y-121352232D01*
X169622162Y-121334962D01*
X169639432Y-121319310D01*
X169658152Y-121305426D01*
X169678143Y-121293444D01*
X169699213Y-121283479D01*
X169721157Y-121275627D01*
X169743766Y-121269963D01*
X169766821Y-121266544D01*
X169790100Y-121265400D01*
X170265100Y-121265400D01*
X170288379Y-121266544D01*
X170288379Y-121266544D01*
G37*
D13*
X170027600Y-121790400D03*
D10*
G36*
X172726779Y-124240944D02*
G01*
X172749834Y-124244363D01*
X172772443Y-124250027D01*
X172794387Y-124257879D01*
X172815457Y-124267844D01*
X172835448Y-124279826D01*
X172854168Y-124293710D01*
X172871438Y-124309362D01*
X172887090Y-124326632D01*
X172900974Y-124345352D01*
X172912956Y-124365343D01*
X172922921Y-124386413D01*
X172930773Y-124408357D01*
X172936437Y-124430966D01*
X172939856Y-124454021D01*
X172941000Y-124477300D01*
X172941000Y-125052300D01*
X172939856Y-125075579D01*
X172936437Y-125098634D01*
X172930773Y-125121243D01*
X172922921Y-125143187D01*
X172912956Y-125164257D01*
X172900974Y-125184248D01*
X172887090Y-125202968D01*
X172871438Y-125220238D01*
X172854168Y-125235890D01*
X172835448Y-125249774D01*
X172815457Y-125261756D01*
X172794387Y-125271721D01*
X172772443Y-125279573D01*
X172749834Y-125285237D01*
X172726779Y-125288656D01*
X172703500Y-125289800D01*
X172228500Y-125289800D01*
X172205221Y-125288656D01*
X172182166Y-125285237D01*
X172159557Y-125279573D01*
X172137613Y-125271721D01*
X172116543Y-125261756D01*
X172096552Y-125249774D01*
X172077832Y-125235890D01*
X172060562Y-125220238D01*
X172044910Y-125202968D01*
X172031026Y-125184248D01*
X172019044Y-125164257D01*
X172009079Y-125143187D01*
X172001227Y-125121243D01*
X171995563Y-125098634D01*
X171992144Y-125075579D01*
X171991000Y-125052300D01*
X171991000Y-124477300D01*
X171992144Y-124454021D01*
X171995563Y-124430966D01*
X172001227Y-124408357D01*
X172009079Y-124386413D01*
X172019044Y-124365343D01*
X172031026Y-124345352D01*
X172044910Y-124326632D01*
X172060562Y-124309362D01*
X172077832Y-124293710D01*
X172096552Y-124279826D01*
X172116543Y-124267844D01*
X172137613Y-124257879D01*
X172159557Y-124250027D01*
X172182166Y-124244363D01*
X172205221Y-124240944D01*
X172228500Y-124239800D01*
X172703500Y-124239800D01*
X172726779Y-124240944D01*
X172726779Y-124240944D01*
G37*
D13*
X172466000Y-124764800D03*
D10*
G36*
X172726779Y-122490944D02*
G01*
X172749834Y-122494363D01*
X172772443Y-122500027D01*
X172794387Y-122507879D01*
X172815457Y-122517844D01*
X172835448Y-122529826D01*
X172854168Y-122543710D01*
X172871438Y-122559362D01*
X172887090Y-122576632D01*
X172900974Y-122595352D01*
X172912956Y-122615343D01*
X172922921Y-122636413D01*
X172930773Y-122658357D01*
X172936437Y-122680966D01*
X172939856Y-122704021D01*
X172941000Y-122727300D01*
X172941000Y-123302300D01*
X172939856Y-123325579D01*
X172936437Y-123348634D01*
X172930773Y-123371243D01*
X172922921Y-123393187D01*
X172912956Y-123414257D01*
X172900974Y-123434248D01*
X172887090Y-123452968D01*
X172871438Y-123470238D01*
X172854168Y-123485890D01*
X172835448Y-123499774D01*
X172815457Y-123511756D01*
X172794387Y-123521721D01*
X172772443Y-123529573D01*
X172749834Y-123535237D01*
X172726779Y-123538656D01*
X172703500Y-123539800D01*
X172228500Y-123539800D01*
X172205221Y-123538656D01*
X172182166Y-123535237D01*
X172159557Y-123529573D01*
X172137613Y-123521721D01*
X172116543Y-123511756D01*
X172096552Y-123499774D01*
X172077832Y-123485890D01*
X172060562Y-123470238D01*
X172044910Y-123452968D01*
X172031026Y-123434248D01*
X172019044Y-123414257D01*
X172009079Y-123393187D01*
X172001227Y-123371243D01*
X171995563Y-123348634D01*
X171992144Y-123325579D01*
X171991000Y-123302300D01*
X171991000Y-122727300D01*
X171992144Y-122704021D01*
X171995563Y-122680966D01*
X172001227Y-122658357D01*
X172009079Y-122636413D01*
X172019044Y-122615343D01*
X172031026Y-122595352D01*
X172044910Y-122576632D01*
X172060562Y-122559362D01*
X172077832Y-122543710D01*
X172096552Y-122529826D01*
X172116543Y-122517844D01*
X172137613Y-122507879D01*
X172159557Y-122500027D01*
X172182166Y-122494363D01*
X172205221Y-122490944D01*
X172228500Y-122489800D01*
X172703500Y-122489800D01*
X172726779Y-122490944D01*
X172726779Y-122490944D01*
G37*
D13*
X172466000Y-123014800D03*
D10*
G36*
X206711979Y-113702544D02*
G01*
X206735034Y-113705963D01*
X206757643Y-113711627D01*
X206779587Y-113719479D01*
X206800657Y-113729444D01*
X206820648Y-113741426D01*
X206839368Y-113755310D01*
X206856638Y-113770962D01*
X206872290Y-113788232D01*
X206886174Y-113806952D01*
X206898156Y-113826943D01*
X206908121Y-113848013D01*
X206915973Y-113869957D01*
X206921637Y-113892566D01*
X206925056Y-113915621D01*
X206926200Y-113938900D01*
X206926200Y-114513900D01*
X206925056Y-114537179D01*
X206921637Y-114560234D01*
X206915973Y-114582843D01*
X206908121Y-114604787D01*
X206898156Y-114625857D01*
X206886174Y-114645848D01*
X206872290Y-114664568D01*
X206856638Y-114681838D01*
X206839368Y-114697490D01*
X206820648Y-114711374D01*
X206800657Y-114723356D01*
X206779587Y-114733321D01*
X206757643Y-114741173D01*
X206735034Y-114746837D01*
X206711979Y-114750256D01*
X206688700Y-114751400D01*
X206213700Y-114751400D01*
X206190421Y-114750256D01*
X206167366Y-114746837D01*
X206144757Y-114741173D01*
X206122813Y-114733321D01*
X206101743Y-114723356D01*
X206081752Y-114711374D01*
X206063032Y-114697490D01*
X206045762Y-114681838D01*
X206030110Y-114664568D01*
X206016226Y-114645848D01*
X206004244Y-114625857D01*
X205994279Y-114604787D01*
X205986427Y-114582843D01*
X205980763Y-114560234D01*
X205977344Y-114537179D01*
X205976200Y-114513900D01*
X205976200Y-113938900D01*
X205977344Y-113915621D01*
X205980763Y-113892566D01*
X205986427Y-113869957D01*
X205994279Y-113848013D01*
X206004244Y-113826943D01*
X206016226Y-113806952D01*
X206030110Y-113788232D01*
X206045762Y-113770962D01*
X206063032Y-113755310D01*
X206081752Y-113741426D01*
X206101743Y-113729444D01*
X206122813Y-113719479D01*
X206144757Y-113711627D01*
X206167366Y-113705963D01*
X206190421Y-113702544D01*
X206213700Y-113701400D01*
X206688700Y-113701400D01*
X206711979Y-113702544D01*
X206711979Y-113702544D01*
G37*
D13*
X206451200Y-114226400D03*
D10*
G36*
X206711979Y-115452544D02*
G01*
X206735034Y-115455963D01*
X206757643Y-115461627D01*
X206779587Y-115469479D01*
X206800657Y-115479444D01*
X206820648Y-115491426D01*
X206839368Y-115505310D01*
X206856638Y-115520962D01*
X206872290Y-115538232D01*
X206886174Y-115556952D01*
X206898156Y-115576943D01*
X206908121Y-115598013D01*
X206915973Y-115619957D01*
X206921637Y-115642566D01*
X206925056Y-115665621D01*
X206926200Y-115688900D01*
X206926200Y-116263900D01*
X206925056Y-116287179D01*
X206921637Y-116310234D01*
X206915973Y-116332843D01*
X206908121Y-116354787D01*
X206898156Y-116375857D01*
X206886174Y-116395848D01*
X206872290Y-116414568D01*
X206856638Y-116431838D01*
X206839368Y-116447490D01*
X206820648Y-116461374D01*
X206800657Y-116473356D01*
X206779587Y-116483321D01*
X206757643Y-116491173D01*
X206735034Y-116496837D01*
X206711979Y-116500256D01*
X206688700Y-116501400D01*
X206213700Y-116501400D01*
X206190421Y-116500256D01*
X206167366Y-116496837D01*
X206144757Y-116491173D01*
X206122813Y-116483321D01*
X206101743Y-116473356D01*
X206081752Y-116461374D01*
X206063032Y-116447490D01*
X206045762Y-116431838D01*
X206030110Y-116414568D01*
X206016226Y-116395848D01*
X206004244Y-116375857D01*
X205994279Y-116354787D01*
X205986427Y-116332843D01*
X205980763Y-116310234D01*
X205977344Y-116287179D01*
X205976200Y-116263900D01*
X205976200Y-115688900D01*
X205977344Y-115665621D01*
X205980763Y-115642566D01*
X205986427Y-115619957D01*
X205994279Y-115598013D01*
X206004244Y-115576943D01*
X206016226Y-115556952D01*
X206030110Y-115538232D01*
X206045762Y-115520962D01*
X206063032Y-115505310D01*
X206081752Y-115491426D01*
X206101743Y-115479444D01*
X206122813Y-115469479D01*
X206144757Y-115461627D01*
X206167366Y-115455963D01*
X206190421Y-115452544D01*
X206213700Y-115451400D01*
X206688700Y-115451400D01*
X206711979Y-115452544D01*
X206711979Y-115452544D01*
G37*
D13*
X206451200Y-115976400D03*
D17*
X152110440Y-125201680D03*
X147792440Y-125201680D03*
D10*
G36*
X168490425Y-66093364D02*
G01*
X168514693Y-66096964D01*
X168538492Y-66102925D01*
X168561591Y-66111190D01*
X168583770Y-66121680D01*
X168604813Y-66134292D01*
X168624519Y-66148907D01*
X168642697Y-66165383D01*
X168659173Y-66183561D01*
X168673788Y-66203267D01*
X168686400Y-66224310D01*
X168696890Y-66246489D01*
X168705155Y-66269588D01*
X168711116Y-66293387D01*
X168714716Y-66317655D01*
X168715920Y-66342159D01*
X168715920Y-66992161D01*
X168714716Y-67016665D01*
X168711116Y-67040933D01*
X168705155Y-67064732D01*
X168696890Y-67087831D01*
X168686400Y-67110010D01*
X168673788Y-67131053D01*
X168659173Y-67150759D01*
X168642697Y-67168937D01*
X168624519Y-67185413D01*
X168604813Y-67200028D01*
X168583770Y-67212640D01*
X168561591Y-67223130D01*
X168538492Y-67231395D01*
X168514693Y-67237356D01*
X168490425Y-67240956D01*
X168465921Y-67242160D01*
X167565919Y-67242160D01*
X167541415Y-67240956D01*
X167517147Y-67237356D01*
X167493348Y-67231395D01*
X167470249Y-67223130D01*
X167448070Y-67212640D01*
X167427027Y-67200028D01*
X167407321Y-67185413D01*
X167389143Y-67168937D01*
X167372667Y-67150759D01*
X167358052Y-67131053D01*
X167345440Y-67110010D01*
X167334950Y-67087831D01*
X167326685Y-67064732D01*
X167320724Y-67040933D01*
X167317124Y-67016665D01*
X167315920Y-66992161D01*
X167315920Y-66342159D01*
X167317124Y-66317655D01*
X167320724Y-66293387D01*
X167326685Y-66269588D01*
X167334950Y-66246489D01*
X167345440Y-66224310D01*
X167358052Y-66203267D01*
X167372667Y-66183561D01*
X167389143Y-66165383D01*
X167407321Y-66148907D01*
X167427027Y-66134292D01*
X167448070Y-66121680D01*
X167470249Y-66111190D01*
X167493348Y-66102925D01*
X167517147Y-66096964D01*
X167541415Y-66093364D01*
X167565919Y-66092160D01*
X168465921Y-66092160D01*
X168490425Y-66093364D01*
X168490425Y-66093364D01*
G37*
D12*
X168015920Y-66667160D03*
D10*
G36*
X168490425Y-68143364D02*
G01*
X168514693Y-68146964D01*
X168538492Y-68152925D01*
X168561591Y-68161190D01*
X168583770Y-68171680D01*
X168604813Y-68184292D01*
X168624519Y-68198907D01*
X168642697Y-68215383D01*
X168659173Y-68233561D01*
X168673788Y-68253267D01*
X168686400Y-68274310D01*
X168696890Y-68296489D01*
X168705155Y-68319588D01*
X168711116Y-68343387D01*
X168714716Y-68367655D01*
X168715920Y-68392159D01*
X168715920Y-69042161D01*
X168714716Y-69066665D01*
X168711116Y-69090933D01*
X168705155Y-69114732D01*
X168696890Y-69137831D01*
X168686400Y-69160010D01*
X168673788Y-69181053D01*
X168659173Y-69200759D01*
X168642697Y-69218937D01*
X168624519Y-69235413D01*
X168604813Y-69250028D01*
X168583770Y-69262640D01*
X168561591Y-69273130D01*
X168538492Y-69281395D01*
X168514693Y-69287356D01*
X168490425Y-69290956D01*
X168465921Y-69292160D01*
X167565919Y-69292160D01*
X167541415Y-69290956D01*
X167517147Y-69287356D01*
X167493348Y-69281395D01*
X167470249Y-69273130D01*
X167448070Y-69262640D01*
X167427027Y-69250028D01*
X167407321Y-69235413D01*
X167389143Y-69218937D01*
X167372667Y-69200759D01*
X167358052Y-69181053D01*
X167345440Y-69160010D01*
X167334950Y-69137831D01*
X167326685Y-69114732D01*
X167320724Y-69090933D01*
X167317124Y-69066665D01*
X167315920Y-69042161D01*
X167315920Y-68392159D01*
X167317124Y-68367655D01*
X167320724Y-68343387D01*
X167326685Y-68319588D01*
X167334950Y-68296489D01*
X167345440Y-68274310D01*
X167358052Y-68253267D01*
X167372667Y-68233561D01*
X167389143Y-68215383D01*
X167407321Y-68198907D01*
X167427027Y-68184292D01*
X167448070Y-68171680D01*
X167470249Y-68161190D01*
X167493348Y-68152925D01*
X167517147Y-68146964D01*
X167541415Y-68143364D01*
X167565919Y-68142160D01*
X168465921Y-68142160D01*
X168490425Y-68143364D01*
X168490425Y-68143364D01*
G37*
D12*
X168015920Y-68717160D03*
D10*
G36*
X168470105Y-70190604D02*
G01*
X168494373Y-70194204D01*
X168518172Y-70200165D01*
X168541271Y-70208430D01*
X168563450Y-70218920D01*
X168584493Y-70231532D01*
X168604199Y-70246147D01*
X168622377Y-70262623D01*
X168638853Y-70280801D01*
X168653468Y-70300507D01*
X168666080Y-70321550D01*
X168676570Y-70343729D01*
X168684835Y-70366828D01*
X168690796Y-70390627D01*
X168694396Y-70414895D01*
X168695600Y-70439399D01*
X168695600Y-71089401D01*
X168694396Y-71113905D01*
X168690796Y-71138173D01*
X168684835Y-71161972D01*
X168676570Y-71185071D01*
X168666080Y-71207250D01*
X168653468Y-71228293D01*
X168638853Y-71247999D01*
X168622377Y-71266177D01*
X168604199Y-71282653D01*
X168584493Y-71297268D01*
X168563450Y-71309880D01*
X168541271Y-71320370D01*
X168518172Y-71328635D01*
X168494373Y-71334596D01*
X168470105Y-71338196D01*
X168445601Y-71339400D01*
X167545599Y-71339400D01*
X167521095Y-71338196D01*
X167496827Y-71334596D01*
X167473028Y-71328635D01*
X167449929Y-71320370D01*
X167427750Y-71309880D01*
X167406707Y-71297268D01*
X167387001Y-71282653D01*
X167368823Y-71266177D01*
X167352347Y-71247999D01*
X167337732Y-71228293D01*
X167325120Y-71207250D01*
X167314630Y-71185071D01*
X167306365Y-71161972D01*
X167300404Y-71138173D01*
X167296804Y-71113905D01*
X167295600Y-71089401D01*
X167295600Y-70439399D01*
X167296804Y-70414895D01*
X167300404Y-70390627D01*
X167306365Y-70366828D01*
X167314630Y-70343729D01*
X167325120Y-70321550D01*
X167337732Y-70300507D01*
X167352347Y-70280801D01*
X167368823Y-70262623D01*
X167387001Y-70246147D01*
X167406707Y-70231532D01*
X167427750Y-70218920D01*
X167449929Y-70208430D01*
X167473028Y-70200165D01*
X167496827Y-70194204D01*
X167521095Y-70190604D01*
X167545599Y-70189400D01*
X168445601Y-70189400D01*
X168470105Y-70190604D01*
X168470105Y-70190604D01*
G37*
D12*
X167995600Y-70764400D03*
D10*
G36*
X168470105Y-72240604D02*
G01*
X168494373Y-72244204D01*
X168518172Y-72250165D01*
X168541271Y-72258430D01*
X168563450Y-72268920D01*
X168584493Y-72281532D01*
X168604199Y-72296147D01*
X168622377Y-72312623D01*
X168638853Y-72330801D01*
X168653468Y-72350507D01*
X168666080Y-72371550D01*
X168676570Y-72393729D01*
X168684835Y-72416828D01*
X168690796Y-72440627D01*
X168694396Y-72464895D01*
X168695600Y-72489399D01*
X168695600Y-73139401D01*
X168694396Y-73163905D01*
X168690796Y-73188173D01*
X168684835Y-73211972D01*
X168676570Y-73235071D01*
X168666080Y-73257250D01*
X168653468Y-73278293D01*
X168638853Y-73297999D01*
X168622377Y-73316177D01*
X168604199Y-73332653D01*
X168584493Y-73347268D01*
X168563450Y-73359880D01*
X168541271Y-73370370D01*
X168518172Y-73378635D01*
X168494373Y-73384596D01*
X168470105Y-73388196D01*
X168445601Y-73389400D01*
X167545599Y-73389400D01*
X167521095Y-73388196D01*
X167496827Y-73384596D01*
X167473028Y-73378635D01*
X167449929Y-73370370D01*
X167427750Y-73359880D01*
X167406707Y-73347268D01*
X167387001Y-73332653D01*
X167368823Y-73316177D01*
X167352347Y-73297999D01*
X167337732Y-73278293D01*
X167325120Y-73257250D01*
X167314630Y-73235071D01*
X167306365Y-73211972D01*
X167300404Y-73188173D01*
X167296804Y-73163905D01*
X167295600Y-73139401D01*
X167295600Y-72489399D01*
X167296804Y-72464895D01*
X167300404Y-72440627D01*
X167306365Y-72416828D01*
X167314630Y-72393729D01*
X167325120Y-72371550D01*
X167337732Y-72350507D01*
X167352347Y-72330801D01*
X167368823Y-72312623D01*
X167387001Y-72296147D01*
X167406707Y-72281532D01*
X167427750Y-72268920D01*
X167449929Y-72258430D01*
X167473028Y-72250165D01*
X167496827Y-72244204D01*
X167521095Y-72240604D01*
X167545599Y-72239400D01*
X168445601Y-72239400D01*
X168470105Y-72240604D01*
X168470105Y-72240604D01*
G37*
D12*
X167995600Y-72814400D03*
D10*
G36*
X155871444Y-128793144D02*
G01*
X155895713Y-128796744D01*
X155919511Y-128802705D01*
X155942611Y-128810970D01*
X155964789Y-128821460D01*
X155985833Y-128834073D01*
X156005538Y-128848687D01*
X156023717Y-128865163D01*
X156040193Y-128883342D01*
X156054807Y-128903047D01*
X156067420Y-128924091D01*
X156077910Y-128946269D01*
X156086175Y-128969369D01*
X156092136Y-128993167D01*
X156095736Y-129017436D01*
X156096940Y-129041940D01*
X156096940Y-129966940D01*
X156095736Y-129991444D01*
X156092136Y-130015713D01*
X156086175Y-130039511D01*
X156077910Y-130062611D01*
X156067420Y-130084789D01*
X156054807Y-130105833D01*
X156040193Y-130125538D01*
X156023717Y-130143717D01*
X156005538Y-130160193D01*
X155985833Y-130174807D01*
X155964789Y-130187420D01*
X155942611Y-130197910D01*
X155919511Y-130206175D01*
X155895713Y-130212136D01*
X155871444Y-130215736D01*
X155846940Y-130216940D01*
X154596940Y-130216940D01*
X154572436Y-130215736D01*
X154548167Y-130212136D01*
X154524369Y-130206175D01*
X154501269Y-130197910D01*
X154479091Y-130187420D01*
X154458047Y-130174807D01*
X154438342Y-130160193D01*
X154420163Y-130143717D01*
X154403687Y-130125538D01*
X154389073Y-130105833D01*
X154376460Y-130084789D01*
X154365970Y-130062611D01*
X154357705Y-130039511D01*
X154351744Y-130015713D01*
X154348144Y-129991444D01*
X154346940Y-129966940D01*
X154346940Y-129041940D01*
X154348144Y-129017436D01*
X154351744Y-128993167D01*
X154357705Y-128969369D01*
X154365970Y-128946269D01*
X154376460Y-128924091D01*
X154389073Y-128903047D01*
X154403687Y-128883342D01*
X154420163Y-128865163D01*
X154438342Y-128848687D01*
X154458047Y-128834073D01*
X154479091Y-128821460D01*
X154501269Y-128810970D01*
X154524369Y-128802705D01*
X154548167Y-128796744D01*
X154572436Y-128793144D01*
X154596940Y-128791940D01*
X155846940Y-128791940D01*
X155871444Y-128793144D01*
X155871444Y-128793144D01*
G37*
D11*
X155221940Y-129504440D03*
D10*
G36*
X155871444Y-125818144D02*
G01*
X155895713Y-125821744D01*
X155919511Y-125827705D01*
X155942611Y-125835970D01*
X155964789Y-125846460D01*
X155985833Y-125859073D01*
X156005538Y-125873687D01*
X156023717Y-125890163D01*
X156040193Y-125908342D01*
X156054807Y-125928047D01*
X156067420Y-125949091D01*
X156077910Y-125971269D01*
X156086175Y-125994369D01*
X156092136Y-126018167D01*
X156095736Y-126042436D01*
X156096940Y-126066940D01*
X156096940Y-126991940D01*
X156095736Y-127016444D01*
X156092136Y-127040713D01*
X156086175Y-127064511D01*
X156077910Y-127087611D01*
X156067420Y-127109789D01*
X156054807Y-127130833D01*
X156040193Y-127150538D01*
X156023717Y-127168717D01*
X156005538Y-127185193D01*
X155985833Y-127199807D01*
X155964789Y-127212420D01*
X155942611Y-127222910D01*
X155919511Y-127231175D01*
X155895713Y-127237136D01*
X155871444Y-127240736D01*
X155846940Y-127241940D01*
X154596940Y-127241940D01*
X154572436Y-127240736D01*
X154548167Y-127237136D01*
X154524369Y-127231175D01*
X154501269Y-127222910D01*
X154479091Y-127212420D01*
X154458047Y-127199807D01*
X154438342Y-127185193D01*
X154420163Y-127168717D01*
X154403687Y-127150538D01*
X154389073Y-127130833D01*
X154376460Y-127109789D01*
X154365970Y-127087611D01*
X154357705Y-127064511D01*
X154351744Y-127040713D01*
X154348144Y-127016444D01*
X154346940Y-126991940D01*
X154346940Y-126066940D01*
X154348144Y-126042436D01*
X154351744Y-126018167D01*
X154357705Y-125994369D01*
X154365970Y-125971269D01*
X154376460Y-125949091D01*
X154389073Y-125928047D01*
X154403687Y-125908342D01*
X154420163Y-125890163D01*
X154438342Y-125873687D01*
X154458047Y-125859073D01*
X154479091Y-125846460D01*
X154501269Y-125835970D01*
X154524369Y-125827705D01*
X154548167Y-125821744D01*
X154572436Y-125818144D01*
X154596940Y-125816940D01*
X155846940Y-125816940D01*
X155871444Y-125818144D01*
X155871444Y-125818144D01*
G37*
D11*
X155221940Y-126529440D03*
D10*
G36*
X154007084Y-135044744D02*
G01*
X154031353Y-135048344D01*
X154055151Y-135054305D01*
X154078251Y-135062570D01*
X154100429Y-135073060D01*
X154121473Y-135085673D01*
X154141178Y-135100287D01*
X154159357Y-135116763D01*
X154175833Y-135134942D01*
X154190447Y-135154647D01*
X154203060Y-135175691D01*
X154213550Y-135197869D01*
X154221815Y-135220969D01*
X154227776Y-135244767D01*
X154231376Y-135269036D01*
X154232580Y-135293540D01*
X154232580Y-136218540D01*
X154231376Y-136243044D01*
X154227776Y-136267313D01*
X154221815Y-136291111D01*
X154213550Y-136314211D01*
X154203060Y-136336389D01*
X154190447Y-136357433D01*
X154175833Y-136377138D01*
X154159357Y-136395317D01*
X154141178Y-136411793D01*
X154121473Y-136426407D01*
X154100429Y-136439020D01*
X154078251Y-136449510D01*
X154055151Y-136457775D01*
X154031353Y-136463736D01*
X154007084Y-136467336D01*
X153982580Y-136468540D01*
X152732580Y-136468540D01*
X152708076Y-136467336D01*
X152683807Y-136463736D01*
X152660009Y-136457775D01*
X152636909Y-136449510D01*
X152614731Y-136439020D01*
X152593687Y-136426407D01*
X152573982Y-136411793D01*
X152555803Y-136395317D01*
X152539327Y-136377138D01*
X152524713Y-136357433D01*
X152512100Y-136336389D01*
X152501610Y-136314211D01*
X152493345Y-136291111D01*
X152487384Y-136267313D01*
X152483784Y-136243044D01*
X152482580Y-136218540D01*
X152482580Y-135293540D01*
X152483784Y-135269036D01*
X152487384Y-135244767D01*
X152493345Y-135220969D01*
X152501610Y-135197869D01*
X152512100Y-135175691D01*
X152524713Y-135154647D01*
X152539327Y-135134942D01*
X152555803Y-135116763D01*
X152573982Y-135100287D01*
X152593687Y-135085673D01*
X152614731Y-135073060D01*
X152636909Y-135062570D01*
X152660009Y-135054305D01*
X152683807Y-135048344D01*
X152708076Y-135044744D01*
X152732580Y-135043540D01*
X153982580Y-135043540D01*
X154007084Y-135044744D01*
X154007084Y-135044744D01*
G37*
D11*
X153357580Y-135756040D03*
D10*
G36*
X154007084Y-132069744D02*
G01*
X154031353Y-132073344D01*
X154055151Y-132079305D01*
X154078251Y-132087570D01*
X154100429Y-132098060D01*
X154121473Y-132110673D01*
X154141178Y-132125287D01*
X154159357Y-132141763D01*
X154175833Y-132159942D01*
X154190447Y-132179647D01*
X154203060Y-132200691D01*
X154213550Y-132222869D01*
X154221815Y-132245969D01*
X154227776Y-132269767D01*
X154231376Y-132294036D01*
X154232580Y-132318540D01*
X154232580Y-133243540D01*
X154231376Y-133268044D01*
X154227776Y-133292313D01*
X154221815Y-133316111D01*
X154213550Y-133339211D01*
X154203060Y-133361389D01*
X154190447Y-133382433D01*
X154175833Y-133402138D01*
X154159357Y-133420317D01*
X154141178Y-133436793D01*
X154121473Y-133451407D01*
X154100429Y-133464020D01*
X154078251Y-133474510D01*
X154055151Y-133482775D01*
X154031353Y-133488736D01*
X154007084Y-133492336D01*
X153982580Y-133493540D01*
X152732580Y-133493540D01*
X152708076Y-133492336D01*
X152683807Y-133488736D01*
X152660009Y-133482775D01*
X152636909Y-133474510D01*
X152614731Y-133464020D01*
X152593687Y-133451407D01*
X152573982Y-133436793D01*
X152555803Y-133420317D01*
X152539327Y-133402138D01*
X152524713Y-133382433D01*
X152512100Y-133361389D01*
X152501610Y-133339211D01*
X152493345Y-133316111D01*
X152487384Y-133292313D01*
X152483784Y-133268044D01*
X152482580Y-133243540D01*
X152482580Y-132318540D01*
X152483784Y-132294036D01*
X152487384Y-132269767D01*
X152493345Y-132245969D01*
X152501610Y-132222869D01*
X152512100Y-132200691D01*
X152524713Y-132179647D01*
X152539327Y-132159942D01*
X152555803Y-132141763D01*
X152573982Y-132125287D01*
X152593687Y-132110673D01*
X152614731Y-132098060D01*
X152636909Y-132087570D01*
X152660009Y-132079305D01*
X152683807Y-132073344D01*
X152708076Y-132069744D01*
X152732580Y-132068540D01*
X153982580Y-132068540D01*
X154007084Y-132069744D01*
X154007084Y-132069744D01*
G37*
D11*
X153357580Y-132781040D03*
D10*
G36*
X216646905Y-72554804D02*
G01*
X216671173Y-72558404D01*
X216694972Y-72564365D01*
X216718071Y-72572630D01*
X216740250Y-72583120D01*
X216761293Y-72595732D01*
X216780999Y-72610347D01*
X216799177Y-72626823D01*
X216815653Y-72645001D01*
X216830268Y-72664707D01*
X216842880Y-72685750D01*
X216853370Y-72707929D01*
X216861635Y-72731028D01*
X216867596Y-72754827D01*
X216871196Y-72779095D01*
X216872400Y-72803599D01*
X216872400Y-73703601D01*
X216871196Y-73728105D01*
X216867596Y-73752373D01*
X216861635Y-73776172D01*
X216853370Y-73799271D01*
X216842880Y-73821450D01*
X216830268Y-73842493D01*
X216815653Y-73862199D01*
X216799177Y-73880377D01*
X216780999Y-73896853D01*
X216761293Y-73911468D01*
X216740250Y-73924080D01*
X216718071Y-73934570D01*
X216694972Y-73942835D01*
X216671173Y-73948796D01*
X216646905Y-73952396D01*
X216622401Y-73953600D01*
X215972399Y-73953600D01*
X215947895Y-73952396D01*
X215923627Y-73948796D01*
X215899828Y-73942835D01*
X215876729Y-73934570D01*
X215854550Y-73924080D01*
X215833507Y-73911468D01*
X215813801Y-73896853D01*
X215795623Y-73880377D01*
X215779147Y-73862199D01*
X215764532Y-73842493D01*
X215751920Y-73821450D01*
X215741430Y-73799271D01*
X215733165Y-73776172D01*
X215727204Y-73752373D01*
X215723604Y-73728105D01*
X215722400Y-73703601D01*
X215722400Y-72803599D01*
X215723604Y-72779095D01*
X215727204Y-72754827D01*
X215733165Y-72731028D01*
X215741430Y-72707929D01*
X215751920Y-72685750D01*
X215764532Y-72664707D01*
X215779147Y-72645001D01*
X215795623Y-72626823D01*
X215813801Y-72610347D01*
X215833507Y-72595732D01*
X215854550Y-72583120D01*
X215876729Y-72572630D01*
X215899828Y-72564365D01*
X215923627Y-72558404D01*
X215947895Y-72554804D01*
X215972399Y-72553600D01*
X216622401Y-72553600D01*
X216646905Y-72554804D01*
X216646905Y-72554804D01*
G37*
D12*
X216297400Y-73253600D03*
D10*
G36*
X218696905Y-72554804D02*
G01*
X218721173Y-72558404D01*
X218744972Y-72564365D01*
X218768071Y-72572630D01*
X218790250Y-72583120D01*
X218811293Y-72595732D01*
X218830999Y-72610347D01*
X218849177Y-72626823D01*
X218865653Y-72645001D01*
X218880268Y-72664707D01*
X218892880Y-72685750D01*
X218903370Y-72707929D01*
X218911635Y-72731028D01*
X218917596Y-72754827D01*
X218921196Y-72779095D01*
X218922400Y-72803599D01*
X218922400Y-73703601D01*
X218921196Y-73728105D01*
X218917596Y-73752373D01*
X218911635Y-73776172D01*
X218903370Y-73799271D01*
X218892880Y-73821450D01*
X218880268Y-73842493D01*
X218865653Y-73862199D01*
X218849177Y-73880377D01*
X218830999Y-73896853D01*
X218811293Y-73911468D01*
X218790250Y-73924080D01*
X218768071Y-73934570D01*
X218744972Y-73942835D01*
X218721173Y-73948796D01*
X218696905Y-73952396D01*
X218672401Y-73953600D01*
X218022399Y-73953600D01*
X217997895Y-73952396D01*
X217973627Y-73948796D01*
X217949828Y-73942835D01*
X217926729Y-73934570D01*
X217904550Y-73924080D01*
X217883507Y-73911468D01*
X217863801Y-73896853D01*
X217845623Y-73880377D01*
X217829147Y-73862199D01*
X217814532Y-73842493D01*
X217801920Y-73821450D01*
X217791430Y-73799271D01*
X217783165Y-73776172D01*
X217777204Y-73752373D01*
X217773604Y-73728105D01*
X217772400Y-73703601D01*
X217772400Y-72803599D01*
X217773604Y-72779095D01*
X217777204Y-72754827D01*
X217783165Y-72731028D01*
X217791430Y-72707929D01*
X217801920Y-72685750D01*
X217814532Y-72664707D01*
X217829147Y-72645001D01*
X217845623Y-72626823D01*
X217863801Y-72610347D01*
X217883507Y-72595732D01*
X217904550Y-72583120D01*
X217926729Y-72572630D01*
X217949828Y-72564365D01*
X217973627Y-72558404D01*
X217997895Y-72554804D01*
X218022399Y-72553600D01*
X218672401Y-72553600D01*
X218696905Y-72554804D01*
X218696905Y-72554804D01*
G37*
D12*
X218347400Y-73253600D03*
D10*
G36*
X194682905Y-129354604D02*
G01*
X194707173Y-129358204D01*
X194730972Y-129364165D01*
X194754071Y-129372430D01*
X194776250Y-129382920D01*
X194797293Y-129395532D01*
X194816999Y-129410147D01*
X194835177Y-129426623D01*
X194851653Y-129444801D01*
X194866268Y-129464507D01*
X194878880Y-129485550D01*
X194889370Y-129507729D01*
X194897635Y-129530828D01*
X194903596Y-129554627D01*
X194907196Y-129578895D01*
X194908400Y-129603399D01*
X194908400Y-130253401D01*
X194907196Y-130277905D01*
X194903596Y-130302173D01*
X194897635Y-130325972D01*
X194889370Y-130349071D01*
X194878880Y-130371250D01*
X194866268Y-130392293D01*
X194851653Y-130411999D01*
X194835177Y-130430177D01*
X194816999Y-130446653D01*
X194797293Y-130461268D01*
X194776250Y-130473880D01*
X194754071Y-130484370D01*
X194730972Y-130492635D01*
X194707173Y-130498596D01*
X194682905Y-130502196D01*
X194658401Y-130503400D01*
X193758399Y-130503400D01*
X193733895Y-130502196D01*
X193709627Y-130498596D01*
X193685828Y-130492635D01*
X193662729Y-130484370D01*
X193640550Y-130473880D01*
X193619507Y-130461268D01*
X193599801Y-130446653D01*
X193581623Y-130430177D01*
X193565147Y-130411999D01*
X193550532Y-130392293D01*
X193537920Y-130371250D01*
X193527430Y-130349071D01*
X193519165Y-130325972D01*
X193513204Y-130302173D01*
X193509604Y-130277905D01*
X193508400Y-130253401D01*
X193508400Y-129603399D01*
X193509604Y-129578895D01*
X193513204Y-129554627D01*
X193519165Y-129530828D01*
X193527430Y-129507729D01*
X193537920Y-129485550D01*
X193550532Y-129464507D01*
X193565147Y-129444801D01*
X193581623Y-129426623D01*
X193599801Y-129410147D01*
X193619507Y-129395532D01*
X193640550Y-129382920D01*
X193662729Y-129372430D01*
X193685828Y-129364165D01*
X193709627Y-129358204D01*
X193733895Y-129354604D01*
X193758399Y-129353400D01*
X194658401Y-129353400D01*
X194682905Y-129354604D01*
X194682905Y-129354604D01*
G37*
D12*
X194208400Y-129928400D03*
D10*
G36*
X194682905Y-131404604D02*
G01*
X194707173Y-131408204D01*
X194730972Y-131414165D01*
X194754071Y-131422430D01*
X194776250Y-131432920D01*
X194797293Y-131445532D01*
X194816999Y-131460147D01*
X194835177Y-131476623D01*
X194851653Y-131494801D01*
X194866268Y-131514507D01*
X194878880Y-131535550D01*
X194889370Y-131557729D01*
X194897635Y-131580828D01*
X194903596Y-131604627D01*
X194907196Y-131628895D01*
X194908400Y-131653399D01*
X194908400Y-132303401D01*
X194907196Y-132327905D01*
X194903596Y-132352173D01*
X194897635Y-132375972D01*
X194889370Y-132399071D01*
X194878880Y-132421250D01*
X194866268Y-132442293D01*
X194851653Y-132461999D01*
X194835177Y-132480177D01*
X194816999Y-132496653D01*
X194797293Y-132511268D01*
X194776250Y-132523880D01*
X194754071Y-132534370D01*
X194730972Y-132542635D01*
X194707173Y-132548596D01*
X194682905Y-132552196D01*
X194658401Y-132553400D01*
X193758399Y-132553400D01*
X193733895Y-132552196D01*
X193709627Y-132548596D01*
X193685828Y-132542635D01*
X193662729Y-132534370D01*
X193640550Y-132523880D01*
X193619507Y-132511268D01*
X193599801Y-132496653D01*
X193581623Y-132480177D01*
X193565147Y-132461999D01*
X193550532Y-132442293D01*
X193537920Y-132421250D01*
X193527430Y-132399071D01*
X193519165Y-132375972D01*
X193513204Y-132352173D01*
X193509604Y-132327905D01*
X193508400Y-132303401D01*
X193508400Y-131653399D01*
X193509604Y-131628895D01*
X193513204Y-131604627D01*
X193519165Y-131580828D01*
X193527430Y-131557729D01*
X193537920Y-131535550D01*
X193550532Y-131514507D01*
X193565147Y-131494801D01*
X193581623Y-131476623D01*
X193599801Y-131460147D01*
X193619507Y-131445532D01*
X193640550Y-131432920D01*
X193662729Y-131422430D01*
X193685828Y-131414165D01*
X193709627Y-131408204D01*
X193733895Y-131404604D01*
X193758399Y-131403400D01*
X194658401Y-131403400D01*
X194682905Y-131404604D01*
X194682905Y-131404604D01*
G37*
D12*
X194208400Y-131978400D03*
D10*
G36*
X170677104Y-116535104D02*
G01*
X170701373Y-116538704D01*
X170725171Y-116544665D01*
X170748271Y-116552930D01*
X170770449Y-116563420D01*
X170791493Y-116576033D01*
X170811198Y-116590647D01*
X170829377Y-116607123D01*
X170845853Y-116625302D01*
X170860467Y-116645007D01*
X170873080Y-116666051D01*
X170883570Y-116688229D01*
X170891835Y-116711329D01*
X170897796Y-116735127D01*
X170901396Y-116759396D01*
X170902600Y-116783900D01*
X170902600Y-117708900D01*
X170901396Y-117733404D01*
X170897796Y-117757673D01*
X170891835Y-117781471D01*
X170883570Y-117804571D01*
X170873080Y-117826749D01*
X170860467Y-117847793D01*
X170845853Y-117867498D01*
X170829377Y-117885677D01*
X170811198Y-117902153D01*
X170791493Y-117916767D01*
X170770449Y-117929380D01*
X170748271Y-117939870D01*
X170725171Y-117948135D01*
X170701373Y-117954096D01*
X170677104Y-117957696D01*
X170652600Y-117958900D01*
X169402600Y-117958900D01*
X169378096Y-117957696D01*
X169353827Y-117954096D01*
X169330029Y-117948135D01*
X169306929Y-117939870D01*
X169284751Y-117929380D01*
X169263707Y-117916767D01*
X169244002Y-117902153D01*
X169225823Y-117885677D01*
X169209347Y-117867498D01*
X169194733Y-117847793D01*
X169182120Y-117826749D01*
X169171630Y-117804571D01*
X169163365Y-117781471D01*
X169157404Y-117757673D01*
X169153804Y-117733404D01*
X169152600Y-117708900D01*
X169152600Y-116783900D01*
X169153804Y-116759396D01*
X169157404Y-116735127D01*
X169163365Y-116711329D01*
X169171630Y-116688229D01*
X169182120Y-116666051D01*
X169194733Y-116645007D01*
X169209347Y-116625302D01*
X169225823Y-116607123D01*
X169244002Y-116590647D01*
X169263707Y-116576033D01*
X169284751Y-116563420D01*
X169306929Y-116552930D01*
X169330029Y-116544665D01*
X169353827Y-116538704D01*
X169378096Y-116535104D01*
X169402600Y-116533900D01*
X170652600Y-116533900D01*
X170677104Y-116535104D01*
X170677104Y-116535104D01*
G37*
D11*
X170027600Y-117246400D03*
D10*
G36*
X170677104Y-113560104D02*
G01*
X170701373Y-113563704D01*
X170725171Y-113569665D01*
X170748271Y-113577930D01*
X170770449Y-113588420D01*
X170791493Y-113601033D01*
X170811198Y-113615647D01*
X170829377Y-113632123D01*
X170845853Y-113650302D01*
X170860467Y-113670007D01*
X170873080Y-113691051D01*
X170883570Y-113713229D01*
X170891835Y-113736329D01*
X170897796Y-113760127D01*
X170901396Y-113784396D01*
X170902600Y-113808900D01*
X170902600Y-114733900D01*
X170901396Y-114758404D01*
X170897796Y-114782673D01*
X170891835Y-114806471D01*
X170883570Y-114829571D01*
X170873080Y-114851749D01*
X170860467Y-114872793D01*
X170845853Y-114892498D01*
X170829377Y-114910677D01*
X170811198Y-114927153D01*
X170791493Y-114941767D01*
X170770449Y-114954380D01*
X170748271Y-114964870D01*
X170725171Y-114973135D01*
X170701373Y-114979096D01*
X170677104Y-114982696D01*
X170652600Y-114983900D01*
X169402600Y-114983900D01*
X169378096Y-114982696D01*
X169353827Y-114979096D01*
X169330029Y-114973135D01*
X169306929Y-114964870D01*
X169284751Y-114954380D01*
X169263707Y-114941767D01*
X169244002Y-114927153D01*
X169225823Y-114910677D01*
X169209347Y-114892498D01*
X169194733Y-114872793D01*
X169182120Y-114851749D01*
X169171630Y-114829571D01*
X169163365Y-114806471D01*
X169157404Y-114782673D01*
X169153804Y-114758404D01*
X169152600Y-114733900D01*
X169152600Y-113808900D01*
X169153804Y-113784396D01*
X169157404Y-113760127D01*
X169163365Y-113736329D01*
X169171630Y-113713229D01*
X169182120Y-113691051D01*
X169194733Y-113670007D01*
X169209347Y-113650302D01*
X169225823Y-113632123D01*
X169244002Y-113615647D01*
X169263707Y-113601033D01*
X169284751Y-113588420D01*
X169306929Y-113577930D01*
X169330029Y-113569665D01*
X169353827Y-113563704D01*
X169378096Y-113560104D01*
X169402600Y-113558900D01*
X170652600Y-113558900D01*
X170677104Y-113560104D01*
X170677104Y-113560104D01*
G37*
D11*
X170027600Y-114271400D03*
D10*
G36*
X168511027Y-78420142D02*
G01*
X168521948Y-78421762D01*
X168532657Y-78424444D01*
X168543052Y-78428164D01*
X168553032Y-78432884D01*
X168562502Y-78438560D01*
X168571369Y-78445136D01*
X168579550Y-78452550D01*
X168586964Y-78460731D01*
X168593540Y-78469598D01*
X168599216Y-78479068D01*
X168603936Y-78489048D01*
X168607656Y-78499443D01*
X168610338Y-78510152D01*
X168611958Y-78521073D01*
X168612500Y-78532100D01*
X168612500Y-78757100D01*
X168611958Y-78768127D01*
X168610338Y-78779048D01*
X168607656Y-78789757D01*
X168603936Y-78800152D01*
X168599216Y-78810132D01*
X168593540Y-78819602D01*
X168586964Y-78828469D01*
X168579550Y-78836650D01*
X168571369Y-78844064D01*
X168562502Y-78850640D01*
X168553032Y-78856316D01*
X168543052Y-78861036D01*
X168532657Y-78864756D01*
X168521948Y-78867438D01*
X168511027Y-78869058D01*
X168500000Y-78869600D01*
X167925000Y-78869600D01*
X167913973Y-78869058D01*
X167903052Y-78867438D01*
X167892343Y-78864756D01*
X167881948Y-78861036D01*
X167871968Y-78856316D01*
X167862498Y-78850640D01*
X167853631Y-78844064D01*
X167845450Y-78836650D01*
X167838036Y-78828469D01*
X167831460Y-78819602D01*
X167825784Y-78810132D01*
X167821064Y-78800152D01*
X167817344Y-78789757D01*
X167814662Y-78779048D01*
X167813042Y-78768127D01*
X167812500Y-78757100D01*
X167812500Y-78532100D01*
X167813042Y-78521073D01*
X167814662Y-78510152D01*
X167817344Y-78499443D01*
X167821064Y-78489048D01*
X167825784Y-78479068D01*
X167831460Y-78469598D01*
X167838036Y-78460731D01*
X167845450Y-78452550D01*
X167853631Y-78445136D01*
X167862498Y-78438560D01*
X167871968Y-78432884D01*
X167881948Y-78428164D01*
X167892343Y-78424444D01*
X167903052Y-78421762D01*
X167913973Y-78420142D01*
X167925000Y-78419600D01*
X168500000Y-78419600D01*
X168511027Y-78420142D01*
X168511027Y-78420142D01*
G37*
D18*
X168212500Y-78644600D03*
D10*
G36*
X168511027Y-77820142D02*
G01*
X168521948Y-77821762D01*
X168532657Y-77824444D01*
X168543052Y-77828164D01*
X168553032Y-77832884D01*
X168562502Y-77838560D01*
X168571369Y-77845136D01*
X168579550Y-77852550D01*
X168586964Y-77860731D01*
X168593540Y-77869598D01*
X168599216Y-77879068D01*
X168603936Y-77889048D01*
X168607656Y-77899443D01*
X168610338Y-77910152D01*
X168611958Y-77921073D01*
X168612500Y-77932100D01*
X168612500Y-78157100D01*
X168611958Y-78168127D01*
X168610338Y-78179048D01*
X168607656Y-78189757D01*
X168603936Y-78200152D01*
X168599216Y-78210132D01*
X168593540Y-78219602D01*
X168586964Y-78228469D01*
X168579550Y-78236650D01*
X168571369Y-78244064D01*
X168562502Y-78250640D01*
X168553032Y-78256316D01*
X168543052Y-78261036D01*
X168532657Y-78264756D01*
X168521948Y-78267438D01*
X168511027Y-78269058D01*
X168500000Y-78269600D01*
X167925000Y-78269600D01*
X167913973Y-78269058D01*
X167903052Y-78267438D01*
X167892343Y-78264756D01*
X167881948Y-78261036D01*
X167871968Y-78256316D01*
X167862498Y-78250640D01*
X167853631Y-78244064D01*
X167845450Y-78236650D01*
X167838036Y-78228469D01*
X167831460Y-78219602D01*
X167825784Y-78210132D01*
X167821064Y-78200152D01*
X167817344Y-78189757D01*
X167814662Y-78179048D01*
X167813042Y-78168127D01*
X167812500Y-78157100D01*
X167812500Y-77932100D01*
X167813042Y-77921073D01*
X167814662Y-77910152D01*
X167817344Y-77899443D01*
X167821064Y-77889048D01*
X167825784Y-77879068D01*
X167831460Y-77869598D01*
X167838036Y-77860731D01*
X167845450Y-77852550D01*
X167853631Y-77845136D01*
X167862498Y-77838560D01*
X167871968Y-77832884D01*
X167881948Y-77828164D01*
X167892343Y-77824444D01*
X167903052Y-77821762D01*
X167913973Y-77820142D01*
X167925000Y-77819600D01*
X168500000Y-77819600D01*
X168511027Y-77820142D01*
X168511027Y-77820142D01*
G37*
D18*
X168212500Y-78044600D03*
D10*
G36*
X168511027Y-77220142D02*
G01*
X168521948Y-77221762D01*
X168532657Y-77224444D01*
X168543052Y-77228164D01*
X168553032Y-77232884D01*
X168562502Y-77238560D01*
X168571369Y-77245136D01*
X168579550Y-77252550D01*
X168586964Y-77260731D01*
X168593540Y-77269598D01*
X168599216Y-77279068D01*
X168603936Y-77289048D01*
X168607656Y-77299443D01*
X168610338Y-77310152D01*
X168611958Y-77321073D01*
X168612500Y-77332100D01*
X168612500Y-77557100D01*
X168611958Y-77568127D01*
X168610338Y-77579048D01*
X168607656Y-77589757D01*
X168603936Y-77600152D01*
X168599216Y-77610132D01*
X168593540Y-77619602D01*
X168586964Y-77628469D01*
X168579550Y-77636650D01*
X168571369Y-77644064D01*
X168562502Y-77650640D01*
X168553032Y-77656316D01*
X168543052Y-77661036D01*
X168532657Y-77664756D01*
X168521948Y-77667438D01*
X168511027Y-77669058D01*
X168500000Y-77669600D01*
X167925000Y-77669600D01*
X167913973Y-77669058D01*
X167903052Y-77667438D01*
X167892343Y-77664756D01*
X167881948Y-77661036D01*
X167871968Y-77656316D01*
X167862498Y-77650640D01*
X167853631Y-77644064D01*
X167845450Y-77636650D01*
X167838036Y-77628469D01*
X167831460Y-77619602D01*
X167825784Y-77610132D01*
X167821064Y-77600152D01*
X167817344Y-77589757D01*
X167814662Y-77579048D01*
X167813042Y-77568127D01*
X167812500Y-77557100D01*
X167812500Y-77332100D01*
X167813042Y-77321073D01*
X167814662Y-77310152D01*
X167817344Y-77299443D01*
X167821064Y-77289048D01*
X167825784Y-77279068D01*
X167831460Y-77269598D01*
X167838036Y-77260731D01*
X167845450Y-77252550D01*
X167853631Y-77245136D01*
X167862498Y-77238560D01*
X167871968Y-77232884D01*
X167881948Y-77228164D01*
X167892343Y-77224444D01*
X167903052Y-77221762D01*
X167913973Y-77220142D01*
X167925000Y-77219600D01*
X168500000Y-77219600D01*
X168511027Y-77220142D01*
X168511027Y-77220142D01*
G37*
D18*
X168212500Y-77444600D03*
D10*
G36*
X168511027Y-76620142D02*
G01*
X168521948Y-76621762D01*
X168532657Y-76624444D01*
X168543052Y-76628164D01*
X168553032Y-76632884D01*
X168562502Y-76638560D01*
X168571369Y-76645136D01*
X168579550Y-76652550D01*
X168586964Y-76660731D01*
X168593540Y-76669598D01*
X168599216Y-76679068D01*
X168603936Y-76689048D01*
X168607656Y-76699443D01*
X168610338Y-76710152D01*
X168611958Y-76721073D01*
X168612500Y-76732100D01*
X168612500Y-76957100D01*
X168611958Y-76968127D01*
X168610338Y-76979048D01*
X168607656Y-76989757D01*
X168603936Y-77000152D01*
X168599216Y-77010132D01*
X168593540Y-77019602D01*
X168586964Y-77028469D01*
X168579550Y-77036650D01*
X168571369Y-77044064D01*
X168562502Y-77050640D01*
X168553032Y-77056316D01*
X168543052Y-77061036D01*
X168532657Y-77064756D01*
X168521948Y-77067438D01*
X168511027Y-77069058D01*
X168500000Y-77069600D01*
X167925000Y-77069600D01*
X167913973Y-77069058D01*
X167903052Y-77067438D01*
X167892343Y-77064756D01*
X167881948Y-77061036D01*
X167871968Y-77056316D01*
X167862498Y-77050640D01*
X167853631Y-77044064D01*
X167845450Y-77036650D01*
X167838036Y-77028469D01*
X167831460Y-77019602D01*
X167825784Y-77010132D01*
X167821064Y-77000152D01*
X167817344Y-76989757D01*
X167814662Y-76979048D01*
X167813042Y-76968127D01*
X167812500Y-76957100D01*
X167812500Y-76732100D01*
X167813042Y-76721073D01*
X167814662Y-76710152D01*
X167817344Y-76699443D01*
X167821064Y-76689048D01*
X167825784Y-76679068D01*
X167831460Y-76669598D01*
X167838036Y-76660731D01*
X167845450Y-76652550D01*
X167853631Y-76645136D01*
X167862498Y-76638560D01*
X167871968Y-76632884D01*
X167881948Y-76628164D01*
X167892343Y-76624444D01*
X167903052Y-76621762D01*
X167913973Y-76620142D01*
X167925000Y-76619600D01*
X168500000Y-76619600D01*
X168511027Y-76620142D01*
X168511027Y-76620142D01*
G37*
D18*
X168212500Y-76844600D03*
D10*
G36*
X168511027Y-76020142D02*
G01*
X168521948Y-76021762D01*
X168532657Y-76024444D01*
X168543052Y-76028164D01*
X168553032Y-76032884D01*
X168562502Y-76038560D01*
X168571369Y-76045136D01*
X168579550Y-76052550D01*
X168586964Y-76060731D01*
X168593540Y-76069598D01*
X168599216Y-76079068D01*
X168603936Y-76089048D01*
X168607656Y-76099443D01*
X168610338Y-76110152D01*
X168611958Y-76121073D01*
X168612500Y-76132100D01*
X168612500Y-76357100D01*
X168611958Y-76368127D01*
X168610338Y-76379048D01*
X168607656Y-76389757D01*
X168603936Y-76400152D01*
X168599216Y-76410132D01*
X168593540Y-76419602D01*
X168586964Y-76428469D01*
X168579550Y-76436650D01*
X168571369Y-76444064D01*
X168562502Y-76450640D01*
X168553032Y-76456316D01*
X168543052Y-76461036D01*
X168532657Y-76464756D01*
X168521948Y-76467438D01*
X168511027Y-76469058D01*
X168500000Y-76469600D01*
X167925000Y-76469600D01*
X167913973Y-76469058D01*
X167903052Y-76467438D01*
X167892343Y-76464756D01*
X167881948Y-76461036D01*
X167871968Y-76456316D01*
X167862498Y-76450640D01*
X167853631Y-76444064D01*
X167845450Y-76436650D01*
X167838036Y-76428469D01*
X167831460Y-76419602D01*
X167825784Y-76410132D01*
X167821064Y-76400152D01*
X167817344Y-76389757D01*
X167814662Y-76379048D01*
X167813042Y-76368127D01*
X167812500Y-76357100D01*
X167812500Y-76132100D01*
X167813042Y-76121073D01*
X167814662Y-76110152D01*
X167817344Y-76099443D01*
X167821064Y-76089048D01*
X167825784Y-76079068D01*
X167831460Y-76069598D01*
X167838036Y-76060731D01*
X167845450Y-76052550D01*
X167853631Y-76045136D01*
X167862498Y-76038560D01*
X167871968Y-76032884D01*
X167881948Y-76028164D01*
X167892343Y-76024444D01*
X167903052Y-76021762D01*
X167913973Y-76020142D01*
X167925000Y-76019600D01*
X168500000Y-76019600D01*
X168511027Y-76020142D01*
X168511027Y-76020142D01*
G37*
D18*
X168212500Y-76244600D03*
D10*
G36*
X165461027Y-76020142D02*
G01*
X165471948Y-76021762D01*
X165482657Y-76024444D01*
X165493052Y-76028164D01*
X165503032Y-76032884D01*
X165512502Y-76038560D01*
X165521369Y-76045136D01*
X165529550Y-76052550D01*
X165536964Y-76060731D01*
X165543540Y-76069598D01*
X165549216Y-76079068D01*
X165553936Y-76089048D01*
X165557656Y-76099443D01*
X165560338Y-76110152D01*
X165561958Y-76121073D01*
X165562500Y-76132100D01*
X165562500Y-76357100D01*
X165561958Y-76368127D01*
X165560338Y-76379048D01*
X165557656Y-76389757D01*
X165553936Y-76400152D01*
X165549216Y-76410132D01*
X165543540Y-76419602D01*
X165536964Y-76428469D01*
X165529550Y-76436650D01*
X165521369Y-76444064D01*
X165512502Y-76450640D01*
X165503032Y-76456316D01*
X165493052Y-76461036D01*
X165482657Y-76464756D01*
X165471948Y-76467438D01*
X165461027Y-76469058D01*
X165450000Y-76469600D01*
X164875000Y-76469600D01*
X164863973Y-76469058D01*
X164853052Y-76467438D01*
X164842343Y-76464756D01*
X164831948Y-76461036D01*
X164821968Y-76456316D01*
X164812498Y-76450640D01*
X164803631Y-76444064D01*
X164795450Y-76436650D01*
X164788036Y-76428469D01*
X164781460Y-76419602D01*
X164775784Y-76410132D01*
X164771064Y-76400152D01*
X164767344Y-76389757D01*
X164764662Y-76379048D01*
X164763042Y-76368127D01*
X164762500Y-76357100D01*
X164762500Y-76132100D01*
X164763042Y-76121073D01*
X164764662Y-76110152D01*
X164767344Y-76099443D01*
X164771064Y-76089048D01*
X164775784Y-76079068D01*
X164781460Y-76069598D01*
X164788036Y-76060731D01*
X164795450Y-76052550D01*
X164803631Y-76045136D01*
X164812498Y-76038560D01*
X164821968Y-76032884D01*
X164831948Y-76028164D01*
X164842343Y-76024444D01*
X164853052Y-76021762D01*
X164863973Y-76020142D01*
X164875000Y-76019600D01*
X165450000Y-76019600D01*
X165461027Y-76020142D01*
X165461027Y-76020142D01*
G37*
D18*
X165162500Y-76244600D03*
D10*
G36*
X165461027Y-76620142D02*
G01*
X165471948Y-76621762D01*
X165482657Y-76624444D01*
X165493052Y-76628164D01*
X165503032Y-76632884D01*
X165512502Y-76638560D01*
X165521369Y-76645136D01*
X165529550Y-76652550D01*
X165536964Y-76660731D01*
X165543540Y-76669598D01*
X165549216Y-76679068D01*
X165553936Y-76689048D01*
X165557656Y-76699443D01*
X165560338Y-76710152D01*
X165561958Y-76721073D01*
X165562500Y-76732100D01*
X165562500Y-76957100D01*
X165561958Y-76968127D01*
X165560338Y-76979048D01*
X165557656Y-76989757D01*
X165553936Y-77000152D01*
X165549216Y-77010132D01*
X165543540Y-77019602D01*
X165536964Y-77028469D01*
X165529550Y-77036650D01*
X165521369Y-77044064D01*
X165512502Y-77050640D01*
X165503032Y-77056316D01*
X165493052Y-77061036D01*
X165482657Y-77064756D01*
X165471948Y-77067438D01*
X165461027Y-77069058D01*
X165450000Y-77069600D01*
X164875000Y-77069600D01*
X164863973Y-77069058D01*
X164853052Y-77067438D01*
X164842343Y-77064756D01*
X164831948Y-77061036D01*
X164821968Y-77056316D01*
X164812498Y-77050640D01*
X164803631Y-77044064D01*
X164795450Y-77036650D01*
X164788036Y-77028469D01*
X164781460Y-77019602D01*
X164775784Y-77010132D01*
X164771064Y-77000152D01*
X164767344Y-76989757D01*
X164764662Y-76979048D01*
X164763042Y-76968127D01*
X164762500Y-76957100D01*
X164762500Y-76732100D01*
X164763042Y-76721073D01*
X164764662Y-76710152D01*
X164767344Y-76699443D01*
X164771064Y-76689048D01*
X164775784Y-76679068D01*
X164781460Y-76669598D01*
X164788036Y-76660731D01*
X164795450Y-76652550D01*
X164803631Y-76645136D01*
X164812498Y-76638560D01*
X164821968Y-76632884D01*
X164831948Y-76628164D01*
X164842343Y-76624444D01*
X164853052Y-76621762D01*
X164863973Y-76620142D01*
X164875000Y-76619600D01*
X165450000Y-76619600D01*
X165461027Y-76620142D01*
X165461027Y-76620142D01*
G37*
D18*
X165162500Y-76844600D03*
D10*
G36*
X165461027Y-77220142D02*
G01*
X165471948Y-77221762D01*
X165482657Y-77224444D01*
X165493052Y-77228164D01*
X165503032Y-77232884D01*
X165512502Y-77238560D01*
X165521369Y-77245136D01*
X165529550Y-77252550D01*
X165536964Y-77260731D01*
X165543540Y-77269598D01*
X165549216Y-77279068D01*
X165553936Y-77289048D01*
X165557656Y-77299443D01*
X165560338Y-77310152D01*
X165561958Y-77321073D01*
X165562500Y-77332100D01*
X165562500Y-77557100D01*
X165561958Y-77568127D01*
X165560338Y-77579048D01*
X165557656Y-77589757D01*
X165553936Y-77600152D01*
X165549216Y-77610132D01*
X165543540Y-77619602D01*
X165536964Y-77628469D01*
X165529550Y-77636650D01*
X165521369Y-77644064D01*
X165512502Y-77650640D01*
X165503032Y-77656316D01*
X165493052Y-77661036D01*
X165482657Y-77664756D01*
X165471948Y-77667438D01*
X165461027Y-77669058D01*
X165450000Y-77669600D01*
X164875000Y-77669600D01*
X164863973Y-77669058D01*
X164853052Y-77667438D01*
X164842343Y-77664756D01*
X164831948Y-77661036D01*
X164821968Y-77656316D01*
X164812498Y-77650640D01*
X164803631Y-77644064D01*
X164795450Y-77636650D01*
X164788036Y-77628469D01*
X164781460Y-77619602D01*
X164775784Y-77610132D01*
X164771064Y-77600152D01*
X164767344Y-77589757D01*
X164764662Y-77579048D01*
X164763042Y-77568127D01*
X164762500Y-77557100D01*
X164762500Y-77332100D01*
X164763042Y-77321073D01*
X164764662Y-77310152D01*
X164767344Y-77299443D01*
X164771064Y-77289048D01*
X164775784Y-77279068D01*
X164781460Y-77269598D01*
X164788036Y-77260731D01*
X164795450Y-77252550D01*
X164803631Y-77245136D01*
X164812498Y-77238560D01*
X164821968Y-77232884D01*
X164831948Y-77228164D01*
X164842343Y-77224444D01*
X164853052Y-77221762D01*
X164863973Y-77220142D01*
X164875000Y-77219600D01*
X165450000Y-77219600D01*
X165461027Y-77220142D01*
X165461027Y-77220142D01*
G37*
D18*
X165162500Y-77444600D03*
D10*
G36*
X165461027Y-77820142D02*
G01*
X165471948Y-77821762D01*
X165482657Y-77824444D01*
X165493052Y-77828164D01*
X165503032Y-77832884D01*
X165512502Y-77838560D01*
X165521369Y-77845136D01*
X165529550Y-77852550D01*
X165536964Y-77860731D01*
X165543540Y-77869598D01*
X165549216Y-77879068D01*
X165553936Y-77889048D01*
X165557656Y-77899443D01*
X165560338Y-77910152D01*
X165561958Y-77921073D01*
X165562500Y-77932100D01*
X165562500Y-78157100D01*
X165561958Y-78168127D01*
X165560338Y-78179048D01*
X165557656Y-78189757D01*
X165553936Y-78200152D01*
X165549216Y-78210132D01*
X165543540Y-78219602D01*
X165536964Y-78228469D01*
X165529550Y-78236650D01*
X165521369Y-78244064D01*
X165512502Y-78250640D01*
X165503032Y-78256316D01*
X165493052Y-78261036D01*
X165482657Y-78264756D01*
X165471948Y-78267438D01*
X165461027Y-78269058D01*
X165450000Y-78269600D01*
X164875000Y-78269600D01*
X164863973Y-78269058D01*
X164853052Y-78267438D01*
X164842343Y-78264756D01*
X164831948Y-78261036D01*
X164821968Y-78256316D01*
X164812498Y-78250640D01*
X164803631Y-78244064D01*
X164795450Y-78236650D01*
X164788036Y-78228469D01*
X164781460Y-78219602D01*
X164775784Y-78210132D01*
X164771064Y-78200152D01*
X164767344Y-78189757D01*
X164764662Y-78179048D01*
X164763042Y-78168127D01*
X164762500Y-78157100D01*
X164762500Y-77932100D01*
X164763042Y-77921073D01*
X164764662Y-77910152D01*
X164767344Y-77899443D01*
X164771064Y-77889048D01*
X164775784Y-77879068D01*
X164781460Y-77869598D01*
X164788036Y-77860731D01*
X164795450Y-77852550D01*
X164803631Y-77845136D01*
X164812498Y-77838560D01*
X164821968Y-77832884D01*
X164831948Y-77828164D01*
X164842343Y-77824444D01*
X164853052Y-77821762D01*
X164863973Y-77820142D01*
X164875000Y-77819600D01*
X165450000Y-77819600D01*
X165461027Y-77820142D01*
X165461027Y-77820142D01*
G37*
D18*
X165162500Y-78044600D03*
D10*
G36*
X165461027Y-78420142D02*
G01*
X165471948Y-78421762D01*
X165482657Y-78424444D01*
X165493052Y-78428164D01*
X165503032Y-78432884D01*
X165512502Y-78438560D01*
X165521369Y-78445136D01*
X165529550Y-78452550D01*
X165536964Y-78460731D01*
X165543540Y-78469598D01*
X165549216Y-78479068D01*
X165553936Y-78489048D01*
X165557656Y-78499443D01*
X165560338Y-78510152D01*
X165561958Y-78521073D01*
X165562500Y-78532100D01*
X165562500Y-78757100D01*
X165561958Y-78768127D01*
X165560338Y-78779048D01*
X165557656Y-78789757D01*
X165553936Y-78800152D01*
X165549216Y-78810132D01*
X165543540Y-78819602D01*
X165536964Y-78828469D01*
X165529550Y-78836650D01*
X165521369Y-78844064D01*
X165512502Y-78850640D01*
X165503032Y-78856316D01*
X165493052Y-78861036D01*
X165482657Y-78864756D01*
X165471948Y-78867438D01*
X165461027Y-78869058D01*
X165450000Y-78869600D01*
X164875000Y-78869600D01*
X164863973Y-78869058D01*
X164853052Y-78867438D01*
X164842343Y-78864756D01*
X164831948Y-78861036D01*
X164821968Y-78856316D01*
X164812498Y-78850640D01*
X164803631Y-78844064D01*
X164795450Y-78836650D01*
X164788036Y-78828469D01*
X164781460Y-78819602D01*
X164775784Y-78810132D01*
X164771064Y-78800152D01*
X164767344Y-78789757D01*
X164764662Y-78779048D01*
X164763042Y-78768127D01*
X164762500Y-78757100D01*
X164762500Y-78532100D01*
X164763042Y-78521073D01*
X164764662Y-78510152D01*
X164767344Y-78499443D01*
X164771064Y-78489048D01*
X164775784Y-78479068D01*
X164781460Y-78469598D01*
X164788036Y-78460731D01*
X164795450Y-78452550D01*
X164803631Y-78445136D01*
X164812498Y-78438560D01*
X164821968Y-78432884D01*
X164831948Y-78428164D01*
X164842343Y-78424444D01*
X164853052Y-78421762D01*
X164863973Y-78420142D01*
X164875000Y-78419600D01*
X165450000Y-78419600D01*
X165461027Y-78420142D01*
X165461027Y-78420142D01*
G37*
D18*
X165162500Y-78644600D03*
D10*
G36*
X166690928Y-76025382D02*
G01*
X166706702Y-76027722D01*
X166722171Y-76031597D01*
X166737186Y-76036970D01*
X166751602Y-76043788D01*
X166765280Y-76051986D01*
X166778089Y-76061486D01*
X166789905Y-76072195D01*
X166800614Y-76084011D01*
X166810114Y-76096820D01*
X166818312Y-76110498D01*
X166825130Y-76124914D01*
X166830503Y-76139929D01*
X166834378Y-76155398D01*
X166836718Y-76171172D01*
X166837500Y-76187100D01*
X166837500Y-76762100D01*
X166836718Y-76778028D01*
X166834378Y-76793802D01*
X166830503Y-76809271D01*
X166825130Y-76824286D01*
X166818312Y-76838702D01*
X166810114Y-76852380D01*
X166800614Y-76865189D01*
X166789905Y-76877005D01*
X166778089Y-76887714D01*
X166765280Y-76897214D01*
X166751602Y-76905412D01*
X166737186Y-76912230D01*
X166722171Y-76917603D01*
X166706702Y-76921478D01*
X166690928Y-76923818D01*
X166675000Y-76924600D01*
X166350000Y-76924600D01*
X166334072Y-76923818D01*
X166318298Y-76921478D01*
X166302829Y-76917603D01*
X166287814Y-76912230D01*
X166273398Y-76905412D01*
X166259720Y-76897214D01*
X166246911Y-76887714D01*
X166235095Y-76877005D01*
X166224386Y-76865189D01*
X166214886Y-76852380D01*
X166206688Y-76838702D01*
X166199870Y-76824286D01*
X166194497Y-76809271D01*
X166190622Y-76793802D01*
X166188282Y-76778028D01*
X166187500Y-76762100D01*
X166187500Y-76187100D01*
X166188282Y-76171172D01*
X166190622Y-76155398D01*
X166194497Y-76139929D01*
X166199870Y-76124914D01*
X166206688Y-76110498D01*
X166214886Y-76096820D01*
X166224386Y-76084011D01*
X166235095Y-76072195D01*
X166246911Y-76061486D01*
X166259720Y-76051986D01*
X166273398Y-76043788D01*
X166287814Y-76036970D01*
X166302829Y-76031597D01*
X166318298Y-76027722D01*
X166334072Y-76025382D01*
X166350000Y-76024600D01*
X166675000Y-76024600D01*
X166690928Y-76025382D01*
X166690928Y-76025382D01*
G37*
D19*
X166512500Y-76474600D03*
D10*
G36*
X166690928Y-76995382D02*
G01*
X166706702Y-76997722D01*
X166722171Y-77001597D01*
X166737186Y-77006970D01*
X166751602Y-77013788D01*
X166765280Y-77021986D01*
X166778089Y-77031486D01*
X166789905Y-77042195D01*
X166800614Y-77054011D01*
X166810114Y-77066820D01*
X166818312Y-77080498D01*
X166825130Y-77094914D01*
X166830503Y-77109929D01*
X166834378Y-77125398D01*
X166836718Y-77141172D01*
X166837500Y-77157100D01*
X166837500Y-77732100D01*
X166836718Y-77748028D01*
X166834378Y-77763802D01*
X166830503Y-77779271D01*
X166825130Y-77794286D01*
X166818312Y-77808702D01*
X166810114Y-77822380D01*
X166800614Y-77835189D01*
X166789905Y-77847005D01*
X166778089Y-77857714D01*
X166765280Y-77867214D01*
X166751602Y-77875412D01*
X166737186Y-77882230D01*
X166722171Y-77887603D01*
X166706702Y-77891478D01*
X166690928Y-77893818D01*
X166675000Y-77894600D01*
X166350000Y-77894600D01*
X166334072Y-77893818D01*
X166318298Y-77891478D01*
X166302829Y-77887603D01*
X166287814Y-77882230D01*
X166273398Y-77875412D01*
X166259720Y-77867214D01*
X166246911Y-77857714D01*
X166235095Y-77847005D01*
X166224386Y-77835189D01*
X166214886Y-77822380D01*
X166206688Y-77808702D01*
X166199870Y-77794286D01*
X166194497Y-77779271D01*
X166190622Y-77763802D01*
X166188282Y-77748028D01*
X166187500Y-77732100D01*
X166187500Y-77157100D01*
X166188282Y-77141172D01*
X166190622Y-77125398D01*
X166194497Y-77109929D01*
X166199870Y-77094914D01*
X166206688Y-77080498D01*
X166214886Y-77066820D01*
X166224386Y-77054011D01*
X166235095Y-77042195D01*
X166246911Y-77031486D01*
X166259720Y-77021986D01*
X166273398Y-77013788D01*
X166287814Y-77006970D01*
X166302829Y-77001597D01*
X166318298Y-76997722D01*
X166334072Y-76995382D01*
X166350000Y-76994600D01*
X166675000Y-76994600D01*
X166690928Y-76995382D01*
X166690928Y-76995382D01*
G37*
D19*
X166512500Y-77444600D03*
D10*
G36*
X166690928Y-77965382D02*
G01*
X166706702Y-77967722D01*
X166722171Y-77971597D01*
X166737186Y-77976970D01*
X166751602Y-77983788D01*
X166765280Y-77991986D01*
X166778089Y-78001486D01*
X166789905Y-78012195D01*
X166800614Y-78024011D01*
X166810114Y-78036820D01*
X166818312Y-78050498D01*
X166825130Y-78064914D01*
X166830503Y-78079929D01*
X166834378Y-78095398D01*
X166836718Y-78111172D01*
X166837500Y-78127100D01*
X166837500Y-78702100D01*
X166836718Y-78718028D01*
X166834378Y-78733802D01*
X166830503Y-78749271D01*
X166825130Y-78764286D01*
X166818312Y-78778702D01*
X166810114Y-78792380D01*
X166800614Y-78805189D01*
X166789905Y-78817005D01*
X166778089Y-78827714D01*
X166765280Y-78837214D01*
X166751602Y-78845412D01*
X166737186Y-78852230D01*
X166722171Y-78857603D01*
X166706702Y-78861478D01*
X166690928Y-78863818D01*
X166675000Y-78864600D01*
X166350000Y-78864600D01*
X166334072Y-78863818D01*
X166318298Y-78861478D01*
X166302829Y-78857603D01*
X166287814Y-78852230D01*
X166273398Y-78845412D01*
X166259720Y-78837214D01*
X166246911Y-78827714D01*
X166235095Y-78817005D01*
X166224386Y-78805189D01*
X166214886Y-78792380D01*
X166206688Y-78778702D01*
X166199870Y-78764286D01*
X166194497Y-78749271D01*
X166190622Y-78733802D01*
X166188282Y-78718028D01*
X166187500Y-78702100D01*
X166187500Y-78127100D01*
X166188282Y-78111172D01*
X166190622Y-78095398D01*
X166194497Y-78079929D01*
X166199870Y-78064914D01*
X166206688Y-78050498D01*
X166214886Y-78036820D01*
X166224386Y-78024011D01*
X166235095Y-78012195D01*
X166246911Y-78001486D01*
X166259720Y-77991986D01*
X166273398Y-77983788D01*
X166287814Y-77976970D01*
X166302829Y-77971597D01*
X166318298Y-77967722D01*
X166334072Y-77965382D01*
X166350000Y-77964600D01*
X166675000Y-77964600D01*
X166690928Y-77965382D01*
X166690928Y-77965382D01*
G37*
D19*
X166512500Y-78414600D03*
D10*
G36*
X164582728Y-69176982D02*
G01*
X164598502Y-69179322D01*
X164613971Y-69183197D01*
X164628986Y-69188570D01*
X164643402Y-69195388D01*
X164657080Y-69203586D01*
X164669889Y-69213086D01*
X164681705Y-69223795D01*
X164692414Y-69235611D01*
X164701914Y-69248420D01*
X164710112Y-69262098D01*
X164716930Y-69276514D01*
X164722303Y-69291529D01*
X164726178Y-69306998D01*
X164728518Y-69322772D01*
X164729300Y-69338700D01*
X164729300Y-69913700D01*
X164728518Y-69929628D01*
X164726178Y-69945402D01*
X164722303Y-69960871D01*
X164716930Y-69975886D01*
X164710112Y-69990302D01*
X164701914Y-70003980D01*
X164692414Y-70016789D01*
X164681705Y-70028605D01*
X164669889Y-70039314D01*
X164657080Y-70048814D01*
X164643402Y-70057012D01*
X164628986Y-70063830D01*
X164613971Y-70069203D01*
X164598502Y-70073078D01*
X164582728Y-70075418D01*
X164566800Y-70076200D01*
X164241800Y-70076200D01*
X164225872Y-70075418D01*
X164210098Y-70073078D01*
X164194629Y-70069203D01*
X164179614Y-70063830D01*
X164165198Y-70057012D01*
X164151520Y-70048814D01*
X164138711Y-70039314D01*
X164126895Y-70028605D01*
X164116186Y-70016789D01*
X164106686Y-70003980D01*
X164098488Y-69990302D01*
X164091670Y-69975886D01*
X164086297Y-69960871D01*
X164082422Y-69945402D01*
X164080082Y-69929628D01*
X164079300Y-69913700D01*
X164079300Y-69338700D01*
X164080082Y-69322772D01*
X164082422Y-69306998D01*
X164086297Y-69291529D01*
X164091670Y-69276514D01*
X164098488Y-69262098D01*
X164106686Y-69248420D01*
X164116186Y-69235611D01*
X164126895Y-69223795D01*
X164138711Y-69213086D01*
X164151520Y-69203586D01*
X164165198Y-69195388D01*
X164179614Y-69188570D01*
X164194629Y-69183197D01*
X164210098Y-69179322D01*
X164225872Y-69176982D01*
X164241800Y-69176200D01*
X164566800Y-69176200D01*
X164582728Y-69176982D01*
X164582728Y-69176982D01*
G37*
D19*
X164404300Y-69626200D03*
D10*
G36*
X164582728Y-68206982D02*
G01*
X164598502Y-68209322D01*
X164613971Y-68213197D01*
X164628986Y-68218570D01*
X164643402Y-68225388D01*
X164657080Y-68233586D01*
X164669889Y-68243086D01*
X164681705Y-68253795D01*
X164692414Y-68265611D01*
X164701914Y-68278420D01*
X164710112Y-68292098D01*
X164716930Y-68306514D01*
X164722303Y-68321529D01*
X164726178Y-68336998D01*
X164728518Y-68352772D01*
X164729300Y-68368700D01*
X164729300Y-68943700D01*
X164728518Y-68959628D01*
X164726178Y-68975402D01*
X164722303Y-68990871D01*
X164716930Y-69005886D01*
X164710112Y-69020302D01*
X164701914Y-69033980D01*
X164692414Y-69046789D01*
X164681705Y-69058605D01*
X164669889Y-69069314D01*
X164657080Y-69078814D01*
X164643402Y-69087012D01*
X164628986Y-69093830D01*
X164613971Y-69099203D01*
X164598502Y-69103078D01*
X164582728Y-69105418D01*
X164566800Y-69106200D01*
X164241800Y-69106200D01*
X164225872Y-69105418D01*
X164210098Y-69103078D01*
X164194629Y-69099203D01*
X164179614Y-69093830D01*
X164165198Y-69087012D01*
X164151520Y-69078814D01*
X164138711Y-69069314D01*
X164126895Y-69058605D01*
X164116186Y-69046789D01*
X164106686Y-69033980D01*
X164098488Y-69020302D01*
X164091670Y-69005886D01*
X164086297Y-68990871D01*
X164082422Y-68975402D01*
X164080082Y-68959628D01*
X164079300Y-68943700D01*
X164079300Y-68368700D01*
X164080082Y-68352772D01*
X164082422Y-68336998D01*
X164086297Y-68321529D01*
X164091670Y-68306514D01*
X164098488Y-68292098D01*
X164106686Y-68278420D01*
X164116186Y-68265611D01*
X164126895Y-68253795D01*
X164138711Y-68243086D01*
X164151520Y-68233586D01*
X164165198Y-68225388D01*
X164179614Y-68218570D01*
X164194629Y-68213197D01*
X164210098Y-68209322D01*
X164225872Y-68206982D01*
X164241800Y-68206200D01*
X164566800Y-68206200D01*
X164582728Y-68206982D01*
X164582728Y-68206982D01*
G37*
D19*
X164404300Y-68656200D03*
D10*
G36*
X164582728Y-67236982D02*
G01*
X164598502Y-67239322D01*
X164613971Y-67243197D01*
X164628986Y-67248570D01*
X164643402Y-67255388D01*
X164657080Y-67263586D01*
X164669889Y-67273086D01*
X164681705Y-67283795D01*
X164692414Y-67295611D01*
X164701914Y-67308420D01*
X164710112Y-67322098D01*
X164716930Y-67336514D01*
X164722303Y-67351529D01*
X164726178Y-67366998D01*
X164728518Y-67382772D01*
X164729300Y-67398700D01*
X164729300Y-67973700D01*
X164728518Y-67989628D01*
X164726178Y-68005402D01*
X164722303Y-68020871D01*
X164716930Y-68035886D01*
X164710112Y-68050302D01*
X164701914Y-68063980D01*
X164692414Y-68076789D01*
X164681705Y-68088605D01*
X164669889Y-68099314D01*
X164657080Y-68108814D01*
X164643402Y-68117012D01*
X164628986Y-68123830D01*
X164613971Y-68129203D01*
X164598502Y-68133078D01*
X164582728Y-68135418D01*
X164566800Y-68136200D01*
X164241800Y-68136200D01*
X164225872Y-68135418D01*
X164210098Y-68133078D01*
X164194629Y-68129203D01*
X164179614Y-68123830D01*
X164165198Y-68117012D01*
X164151520Y-68108814D01*
X164138711Y-68099314D01*
X164126895Y-68088605D01*
X164116186Y-68076789D01*
X164106686Y-68063980D01*
X164098488Y-68050302D01*
X164091670Y-68035886D01*
X164086297Y-68020871D01*
X164082422Y-68005402D01*
X164080082Y-67989628D01*
X164079300Y-67973700D01*
X164079300Y-67398700D01*
X164080082Y-67382772D01*
X164082422Y-67366998D01*
X164086297Y-67351529D01*
X164091670Y-67336514D01*
X164098488Y-67322098D01*
X164106686Y-67308420D01*
X164116186Y-67295611D01*
X164126895Y-67283795D01*
X164138711Y-67273086D01*
X164151520Y-67263586D01*
X164165198Y-67255388D01*
X164179614Y-67248570D01*
X164194629Y-67243197D01*
X164210098Y-67239322D01*
X164225872Y-67236982D01*
X164241800Y-67236200D01*
X164566800Y-67236200D01*
X164582728Y-67236982D01*
X164582728Y-67236982D01*
G37*
D19*
X164404300Y-67686200D03*
D10*
G36*
X163352827Y-69631742D02*
G01*
X163363748Y-69633362D01*
X163374457Y-69636044D01*
X163384852Y-69639764D01*
X163394832Y-69644484D01*
X163404302Y-69650160D01*
X163413169Y-69656736D01*
X163421350Y-69664150D01*
X163428764Y-69672331D01*
X163435340Y-69681198D01*
X163441016Y-69690668D01*
X163445736Y-69700648D01*
X163449456Y-69711043D01*
X163452138Y-69721752D01*
X163453758Y-69732673D01*
X163454300Y-69743700D01*
X163454300Y-69968700D01*
X163453758Y-69979727D01*
X163452138Y-69990648D01*
X163449456Y-70001357D01*
X163445736Y-70011752D01*
X163441016Y-70021732D01*
X163435340Y-70031202D01*
X163428764Y-70040069D01*
X163421350Y-70048250D01*
X163413169Y-70055664D01*
X163404302Y-70062240D01*
X163394832Y-70067916D01*
X163384852Y-70072636D01*
X163374457Y-70076356D01*
X163363748Y-70079038D01*
X163352827Y-70080658D01*
X163341800Y-70081200D01*
X162766800Y-70081200D01*
X162755773Y-70080658D01*
X162744852Y-70079038D01*
X162734143Y-70076356D01*
X162723748Y-70072636D01*
X162713768Y-70067916D01*
X162704298Y-70062240D01*
X162695431Y-70055664D01*
X162687250Y-70048250D01*
X162679836Y-70040069D01*
X162673260Y-70031202D01*
X162667584Y-70021732D01*
X162662864Y-70011752D01*
X162659144Y-70001357D01*
X162656462Y-69990648D01*
X162654842Y-69979727D01*
X162654300Y-69968700D01*
X162654300Y-69743700D01*
X162654842Y-69732673D01*
X162656462Y-69721752D01*
X162659144Y-69711043D01*
X162662864Y-69700648D01*
X162667584Y-69690668D01*
X162673260Y-69681198D01*
X162679836Y-69672331D01*
X162687250Y-69664150D01*
X162695431Y-69656736D01*
X162704298Y-69650160D01*
X162713768Y-69644484D01*
X162723748Y-69639764D01*
X162734143Y-69636044D01*
X162744852Y-69633362D01*
X162755773Y-69631742D01*
X162766800Y-69631200D01*
X163341800Y-69631200D01*
X163352827Y-69631742D01*
X163352827Y-69631742D01*
G37*
D18*
X163054300Y-69856200D03*
D10*
G36*
X163352827Y-69031742D02*
G01*
X163363748Y-69033362D01*
X163374457Y-69036044D01*
X163384852Y-69039764D01*
X163394832Y-69044484D01*
X163404302Y-69050160D01*
X163413169Y-69056736D01*
X163421350Y-69064150D01*
X163428764Y-69072331D01*
X163435340Y-69081198D01*
X163441016Y-69090668D01*
X163445736Y-69100648D01*
X163449456Y-69111043D01*
X163452138Y-69121752D01*
X163453758Y-69132673D01*
X163454300Y-69143700D01*
X163454300Y-69368700D01*
X163453758Y-69379727D01*
X163452138Y-69390648D01*
X163449456Y-69401357D01*
X163445736Y-69411752D01*
X163441016Y-69421732D01*
X163435340Y-69431202D01*
X163428764Y-69440069D01*
X163421350Y-69448250D01*
X163413169Y-69455664D01*
X163404302Y-69462240D01*
X163394832Y-69467916D01*
X163384852Y-69472636D01*
X163374457Y-69476356D01*
X163363748Y-69479038D01*
X163352827Y-69480658D01*
X163341800Y-69481200D01*
X162766800Y-69481200D01*
X162755773Y-69480658D01*
X162744852Y-69479038D01*
X162734143Y-69476356D01*
X162723748Y-69472636D01*
X162713768Y-69467916D01*
X162704298Y-69462240D01*
X162695431Y-69455664D01*
X162687250Y-69448250D01*
X162679836Y-69440069D01*
X162673260Y-69431202D01*
X162667584Y-69421732D01*
X162662864Y-69411752D01*
X162659144Y-69401357D01*
X162656462Y-69390648D01*
X162654842Y-69379727D01*
X162654300Y-69368700D01*
X162654300Y-69143700D01*
X162654842Y-69132673D01*
X162656462Y-69121752D01*
X162659144Y-69111043D01*
X162662864Y-69100648D01*
X162667584Y-69090668D01*
X162673260Y-69081198D01*
X162679836Y-69072331D01*
X162687250Y-69064150D01*
X162695431Y-69056736D01*
X162704298Y-69050160D01*
X162713768Y-69044484D01*
X162723748Y-69039764D01*
X162734143Y-69036044D01*
X162744852Y-69033362D01*
X162755773Y-69031742D01*
X162766800Y-69031200D01*
X163341800Y-69031200D01*
X163352827Y-69031742D01*
X163352827Y-69031742D01*
G37*
D18*
X163054300Y-69256200D03*
D10*
G36*
X163352827Y-68431742D02*
G01*
X163363748Y-68433362D01*
X163374457Y-68436044D01*
X163384852Y-68439764D01*
X163394832Y-68444484D01*
X163404302Y-68450160D01*
X163413169Y-68456736D01*
X163421350Y-68464150D01*
X163428764Y-68472331D01*
X163435340Y-68481198D01*
X163441016Y-68490668D01*
X163445736Y-68500648D01*
X163449456Y-68511043D01*
X163452138Y-68521752D01*
X163453758Y-68532673D01*
X163454300Y-68543700D01*
X163454300Y-68768700D01*
X163453758Y-68779727D01*
X163452138Y-68790648D01*
X163449456Y-68801357D01*
X163445736Y-68811752D01*
X163441016Y-68821732D01*
X163435340Y-68831202D01*
X163428764Y-68840069D01*
X163421350Y-68848250D01*
X163413169Y-68855664D01*
X163404302Y-68862240D01*
X163394832Y-68867916D01*
X163384852Y-68872636D01*
X163374457Y-68876356D01*
X163363748Y-68879038D01*
X163352827Y-68880658D01*
X163341800Y-68881200D01*
X162766800Y-68881200D01*
X162755773Y-68880658D01*
X162744852Y-68879038D01*
X162734143Y-68876356D01*
X162723748Y-68872636D01*
X162713768Y-68867916D01*
X162704298Y-68862240D01*
X162695431Y-68855664D01*
X162687250Y-68848250D01*
X162679836Y-68840069D01*
X162673260Y-68831202D01*
X162667584Y-68821732D01*
X162662864Y-68811752D01*
X162659144Y-68801357D01*
X162656462Y-68790648D01*
X162654842Y-68779727D01*
X162654300Y-68768700D01*
X162654300Y-68543700D01*
X162654842Y-68532673D01*
X162656462Y-68521752D01*
X162659144Y-68511043D01*
X162662864Y-68500648D01*
X162667584Y-68490668D01*
X162673260Y-68481198D01*
X162679836Y-68472331D01*
X162687250Y-68464150D01*
X162695431Y-68456736D01*
X162704298Y-68450160D01*
X162713768Y-68444484D01*
X162723748Y-68439764D01*
X162734143Y-68436044D01*
X162744852Y-68433362D01*
X162755773Y-68431742D01*
X162766800Y-68431200D01*
X163341800Y-68431200D01*
X163352827Y-68431742D01*
X163352827Y-68431742D01*
G37*
D18*
X163054300Y-68656200D03*
D10*
G36*
X163352827Y-67831742D02*
G01*
X163363748Y-67833362D01*
X163374457Y-67836044D01*
X163384852Y-67839764D01*
X163394832Y-67844484D01*
X163404302Y-67850160D01*
X163413169Y-67856736D01*
X163421350Y-67864150D01*
X163428764Y-67872331D01*
X163435340Y-67881198D01*
X163441016Y-67890668D01*
X163445736Y-67900648D01*
X163449456Y-67911043D01*
X163452138Y-67921752D01*
X163453758Y-67932673D01*
X163454300Y-67943700D01*
X163454300Y-68168700D01*
X163453758Y-68179727D01*
X163452138Y-68190648D01*
X163449456Y-68201357D01*
X163445736Y-68211752D01*
X163441016Y-68221732D01*
X163435340Y-68231202D01*
X163428764Y-68240069D01*
X163421350Y-68248250D01*
X163413169Y-68255664D01*
X163404302Y-68262240D01*
X163394832Y-68267916D01*
X163384852Y-68272636D01*
X163374457Y-68276356D01*
X163363748Y-68279038D01*
X163352827Y-68280658D01*
X163341800Y-68281200D01*
X162766800Y-68281200D01*
X162755773Y-68280658D01*
X162744852Y-68279038D01*
X162734143Y-68276356D01*
X162723748Y-68272636D01*
X162713768Y-68267916D01*
X162704298Y-68262240D01*
X162695431Y-68255664D01*
X162687250Y-68248250D01*
X162679836Y-68240069D01*
X162673260Y-68231202D01*
X162667584Y-68221732D01*
X162662864Y-68211752D01*
X162659144Y-68201357D01*
X162656462Y-68190648D01*
X162654842Y-68179727D01*
X162654300Y-68168700D01*
X162654300Y-67943700D01*
X162654842Y-67932673D01*
X162656462Y-67921752D01*
X162659144Y-67911043D01*
X162662864Y-67900648D01*
X162667584Y-67890668D01*
X162673260Y-67881198D01*
X162679836Y-67872331D01*
X162687250Y-67864150D01*
X162695431Y-67856736D01*
X162704298Y-67850160D01*
X162713768Y-67844484D01*
X162723748Y-67839764D01*
X162734143Y-67836044D01*
X162744852Y-67833362D01*
X162755773Y-67831742D01*
X162766800Y-67831200D01*
X163341800Y-67831200D01*
X163352827Y-67831742D01*
X163352827Y-67831742D01*
G37*
D18*
X163054300Y-68056200D03*
D10*
G36*
X163352827Y-67231742D02*
G01*
X163363748Y-67233362D01*
X163374457Y-67236044D01*
X163384852Y-67239764D01*
X163394832Y-67244484D01*
X163404302Y-67250160D01*
X163413169Y-67256736D01*
X163421350Y-67264150D01*
X163428764Y-67272331D01*
X163435340Y-67281198D01*
X163441016Y-67290668D01*
X163445736Y-67300648D01*
X163449456Y-67311043D01*
X163452138Y-67321752D01*
X163453758Y-67332673D01*
X163454300Y-67343700D01*
X163454300Y-67568700D01*
X163453758Y-67579727D01*
X163452138Y-67590648D01*
X163449456Y-67601357D01*
X163445736Y-67611752D01*
X163441016Y-67621732D01*
X163435340Y-67631202D01*
X163428764Y-67640069D01*
X163421350Y-67648250D01*
X163413169Y-67655664D01*
X163404302Y-67662240D01*
X163394832Y-67667916D01*
X163384852Y-67672636D01*
X163374457Y-67676356D01*
X163363748Y-67679038D01*
X163352827Y-67680658D01*
X163341800Y-67681200D01*
X162766800Y-67681200D01*
X162755773Y-67680658D01*
X162744852Y-67679038D01*
X162734143Y-67676356D01*
X162723748Y-67672636D01*
X162713768Y-67667916D01*
X162704298Y-67662240D01*
X162695431Y-67655664D01*
X162687250Y-67648250D01*
X162679836Y-67640069D01*
X162673260Y-67631202D01*
X162667584Y-67621732D01*
X162662864Y-67611752D01*
X162659144Y-67601357D01*
X162656462Y-67590648D01*
X162654842Y-67579727D01*
X162654300Y-67568700D01*
X162654300Y-67343700D01*
X162654842Y-67332673D01*
X162656462Y-67321752D01*
X162659144Y-67311043D01*
X162662864Y-67300648D01*
X162667584Y-67290668D01*
X162673260Y-67281198D01*
X162679836Y-67272331D01*
X162687250Y-67264150D01*
X162695431Y-67256736D01*
X162704298Y-67250160D01*
X162713768Y-67244484D01*
X162723748Y-67239764D01*
X162734143Y-67236044D01*
X162744852Y-67233362D01*
X162755773Y-67231742D01*
X162766800Y-67231200D01*
X163341800Y-67231200D01*
X163352827Y-67231742D01*
X163352827Y-67231742D01*
G37*
D18*
X163054300Y-67456200D03*
D10*
G36*
X166402827Y-67231742D02*
G01*
X166413748Y-67233362D01*
X166424457Y-67236044D01*
X166434852Y-67239764D01*
X166444832Y-67244484D01*
X166454302Y-67250160D01*
X166463169Y-67256736D01*
X166471350Y-67264150D01*
X166478764Y-67272331D01*
X166485340Y-67281198D01*
X166491016Y-67290668D01*
X166495736Y-67300648D01*
X166499456Y-67311043D01*
X166502138Y-67321752D01*
X166503758Y-67332673D01*
X166504300Y-67343700D01*
X166504300Y-67568700D01*
X166503758Y-67579727D01*
X166502138Y-67590648D01*
X166499456Y-67601357D01*
X166495736Y-67611752D01*
X166491016Y-67621732D01*
X166485340Y-67631202D01*
X166478764Y-67640069D01*
X166471350Y-67648250D01*
X166463169Y-67655664D01*
X166454302Y-67662240D01*
X166444832Y-67667916D01*
X166434852Y-67672636D01*
X166424457Y-67676356D01*
X166413748Y-67679038D01*
X166402827Y-67680658D01*
X166391800Y-67681200D01*
X165816800Y-67681200D01*
X165805773Y-67680658D01*
X165794852Y-67679038D01*
X165784143Y-67676356D01*
X165773748Y-67672636D01*
X165763768Y-67667916D01*
X165754298Y-67662240D01*
X165745431Y-67655664D01*
X165737250Y-67648250D01*
X165729836Y-67640069D01*
X165723260Y-67631202D01*
X165717584Y-67621732D01*
X165712864Y-67611752D01*
X165709144Y-67601357D01*
X165706462Y-67590648D01*
X165704842Y-67579727D01*
X165704300Y-67568700D01*
X165704300Y-67343700D01*
X165704842Y-67332673D01*
X165706462Y-67321752D01*
X165709144Y-67311043D01*
X165712864Y-67300648D01*
X165717584Y-67290668D01*
X165723260Y-67281198D01*
X165729836Y-67272331D01*
X165737250Y-67264150D01*
X165745431Y-67256736D01*
X165754298Y-67250160D01*
X165763768Y-67244484D01*
X165773748Y-67239764D01*
X165784143Y-67236044D01*
X165794852Y-67233362D01*
X165805773Y-67231742D01*
X165816800Y-67231200D01*
X166391800Y-67231200D01*
X166402827Y-67231742D01*
X166402827Y-67231742D01*
G37*
D18*
X166104300Y-67456200D03*
D10*
G36*
X166402827Y-67831742D02*
G01*
X166413748Y-67833362D01*
X166424457Y-67836044D01*
X166434852Y-67839764D01*
X166444832Y-67844484D01*
X166454302Y-67850160D01*
X166463169Y-67856736D01*
X166471350Y-67864150D01*
X166478764Y-67872331D01*
X166485340Y-67881198D01*
X166491016Y-67890668D01*
X166495736Y-67900648D01*
X166499456Y-67911043D01*
X166502138Y-67921752D01*
X166503758Y-67932673D01*
X166504300Y-67943700D01*
X166504300Y-68168700D01*
X166503758Y-68179727D01*
X166502138Y-68190648D01*
X166499456Y-68201357D01*
X166495736Y-68211752D01*
X166491016Y-68221732D01*
X166485340Y-68231202D01*
X166478764Y-68240069D01*
X166471350Y-68248250D01*
X166463169Y-68255664D01*
X166454302Y-68262240D01*
X166444832Y-68267916D01*
X166434852Y-68272636D01*
X166424457Y-68276356D01*
X166413748Y-68279038D01*
X166402827Y-68280658D01*
X166391800Y-68281200D01*
X165816800Y-68281200D01*
X165805773Y-68280658D01*
X165794852Y-68279038D01*
X165784143Y-68276356D01*
X165773748Y-68272636D01*
X165763768Y-68267916D01*
X165754298Y-68262240D01*
X165745431Y-68255664D01*
X165737250Y-68248250D01*
X165729836Y-68240069D01*
X165723260Y-68231202D01*
X165717584Y-68221732D01*
X165712864Y-68211752D01*
X165709144Y-68201357D01*
X165706462Y-68190648D01*
X165704842Y-68179727D01*
X165704300Y-68168700D01*
X165704300Y-67943700D01*
X165704842Y-67932673D01*
X165706462Y-67921752D01*
X165709144Y-67911043D01*
X165712864Y-67900648D01*
X165717584Y-67890668D01*
X165723260Y-67881198D01*
X165729836Y-67872331D01*
X165737250Y-67864150D01*
X165745431Y-67856736D01*
X165754298Y-67850160D01*
X165763768Y-67844484D01*
X165773748Y-67839764D01*
X165784143Y-67836044D01*
X165794852Y-67833362D01*
X165805773Y-67831742D01*
X165816800Y-67831200D01*
X166391800Y-67831200D01*
X166402827Y-67831742D01*
X166402827Y-67831742D01*
G37*
D18*
X166104300Y-68056200D03*
D10*
G36*
X166402827Y-68431742D02*
G01*
X166413748Y-68433362D01*
X166424457Y-68436044D01*
X166434852Y-68439764D01*
X166444832Y-68444484D01*
X166454302Y-68450160D01*
X166463169Y-68456736D01*
X166471350Y-68464150D01*
X166478764Y-68472331D01*
X166485340Y-68481198D01*
X166491016Y-68490668D01*
X166495736Y-68500648D01*
X166499456Y-68511043D01*
X166502138Y-68521752D01*
X166503758Y-68532673D01*
X166504300Y-68543700D01*
X166504300Y-68768700D01*
X166503758Y-68779727D01*
X166502138Y-68790648D01*
X166499456Y-68801357D01*
X166495736Y-68811752D01*
X166491016Y-68821732D01*
X166485340Y-68831202D01*
X166478764Y-68840069D01*
X166471350Y-68848250D01*
X166463169Y-68855664D01*
X166454302Y-68862240D01*
X166444832Y-68867916D01*
X166434852Y-68872636D01*
X166424457Y-68876356D01*
X166413748Y-68879038D01*
X166402827Y-68880658D01*
X166391800Y-68881200D01*
X165816800Y-68881200D01*
X165805773Y-68880658D01*
X165794852Y-68879038D01*
X165784143Y-68876356D01*
X165773748Y-68872636D01*
X165763768Y-68867916D01*
X165754298Y-68862240D01*
X165745431Y-68855664D01*
X165737250Y-68848250D01*
X165729836Y-68840069D01*
X165723260Y-68831202D01*
X165717584Y-68821732D01*
X165712864Y-68811752D01*
X165709144Y-68801357D01*
X165706462Y-68790648D01*
X165704842Y-68779727D01*
X165704300Y-68768700D01*
X165704300Y-68543700D01*
X165704842Y-68532673D01*
X165706462Y-68521752D01*
X165709144Y-68511043D01*
X165712864Y-68500648D01*
X165717584Y-68490668D01*
X165723260Y-68481198D01*
X165729836Y-68472331D01*
X165737250Y-68464150D01*
X165745431Y-68456736D01*
X165754298Y-68450160D01*
X165763768Y-68444484D01*
X165773748Y-68439764D01*
X165784143Y-68436044D01*
X165794852Y-68433362D01*
X165805773Y-68431742D01*
X165816800Y-68431200D01*
X166391800Y-68431200D01*
X166402827Y-68431742D01*
X166402827Y-68431742D01*
G37*
D18*
X166104300Y-68656200D03*
D10*
G36*
X166402827Y-69031742D02*
G01*
X166413748Y-69033362D01*
X166424457Y-69036044D01*
X166434852Y-69039764D01*
X166444832Y-69044484D01*
X166454302Y-69050160D01*
X166463169Y-69056736D01*
X166471350Y-69064150D01*
X166478764Y-69072331D01*
X166485340Y-69081198D01*
X166491016Y-69090668D01*
X166495736Y-69100648D01*
X166499456Y-69111043D01*
X166502138Y-69121752D01*
X166503758Y-69132673D01*
X166504300Y-69143700D01*
X166504300Y-69368700D01*
X166503758Y-69379727D01*
X166502138Y-69390648D01*
X166499456Y-69401357D01*
X166495736Y-69411752D01*
X166491016Y-69421732D01*
X166485340Y-69431202D01*
X166478764Y-69440069D01*
X166471350Y-69448250D01*
X166463169Y-69455664D01*
X166454302Y-69462240D01*
X166444832Y-69467916D01*
X166434852Y-69472636D01*
X166424457Y-69476356D01*
X166413748Y-69479038D01*
X166402827Y-69480658D01*
X166391800Y-69481200D01*
X165816800Y-69481200D01*
X165805773Y-69480658D01*
X165794852Y-69479038D01*
X165784143Y-69476356D01*
X165773748Y-69472636D01*
X165763768Y-69467916D01*
X165754298Y-69462240D01*
X165745431Y-69455664D01*
X165737250Y-69448250D01*
X165729836Y-69440069D01*
X165723260Y-69431202D01*
X165717584Y-69421732D01*
X165712864Y-69411752D01*
X165709144Y-69401357D01*
X165706462Y-69390648D01*
X165704842Y-69379727D01*
X165704300Y-69368700D01*
X165704300Y-69143700D01*
X165704842Y-69132673D01*
X165706462Y-69121752D01*
X165709144Y-69111043D01*
X165712864Y-69100648D01*
X165717584Y-69090668D01*
X165723260Y-69081198D01*
X165729836Y-69072331D01*
X165737250Y-69064150D01*
X165745431Y-69056736D01*
X165754298Y-69050160D01*
X165763768Y-69044484D01*
X165773748Y-69039764D01*
X165784143Y-69036044D01*
X165794852Y-69033362D01*
X165805773Y-69031742D01*
X165816800Y-69031200D01*
X166391800Y-69031200D01*
X166402827Y-69031742D01*
X166402827Y-69031742D01*
G37*
D18*
X166104300Y-69256200D03*
D10*
G36*
X166402827Y-69631742D02*
G01*
X166413748Y-69633362D01*
X166424457Y-69636044D01*
X166434852Y-69639764D01*
X166444832Y-69644484D01*
X166454302Y-69650160D01*
X166463169Y-69656736D01*
X166471350Y-69664150D01*
X166478764Y-69672331D01*
X166485340Y-69681198D01*
X166491016Y-69690668D01*
X166495736Y-69700648D01*
X166499456Y-69711043D01*
X166502138Y-69721752D01*
X166503758Y-69732673D01*
X166504300Y-69743700D01*
X166504300Y-69968700D01*
X166503758Y-69979727D01*
X166502138Y-69990648D01*
X166499456Y-70001357D01*
X166495736Y-70011752D01*
X166491016Y-70021732D01*
X166485340Y-70031202D01*
X166478764Y-70040069D01*
X166471350Y-70048250D01*
X166463169Y-70055664D01*
X166454302Y-70062240D01*
X166444832Y-70067916D01*
X166434852Y-70072636D01*
X166424457Y-70076356D01*
X166413748Y-70079038D01*
X166402827Y-70080658D01*
X166391800Y-70081200D01*
X165816800Y-70081200D01*
X165805773Y-70080658D01*
X165794852Y-70079038D01*
X165784143Y-70076356D01*
X165773748Y-70072636D01*
X165763768Y-70067916D01*
X165754298Y-70062240D01*
X165745431Y-70055664D01*
X165737250Y-70048250D01*
X165729836Y-70040069D01*
X165723260Y-70031202D01*
X165717584Y-70021732D01*
X165712864Y-70011752D01*
X165709144Y-70001357D01*
X165706462Y-69990648D01*
X165704842Y-69979727D01*
X165704300Y-69968700D01*
X165704300Y-69743700D01*
X165704842Y-69732673D01*
X165706462Y-69721752D01*
X165709144Y-69711043D01*
X165712864Y-69700648D01*
X165717584Y-69690668D01*
X165723260Y-69681198D01*
X165729836Y-69672331D01*
X165737250Y-69664150D01*
X165745431Y-69656736D01*
X165754298Y-69650160D01*
X165763768Y-69644484D01*
X165773748Y-69639764D01*
X165784143Y-69636044D01*
X165794852Y-69633362D01*
X165805773Y-69631742D01*
X165816800Y-69631200D01*
X166391800Y-69631200D01*
X166402827Y-69631742D01*
X166402827Y-69631742D01*
G37*
D18*
X166104300Y-69856200D03*
D20*
X143510000Y-125028960D03*
X143510000Y-126298960D03*
X143510000Y-127568960D03*
X143510000Y-128838960D03*
X138379200Y-128838960D03*
X138379200Y-127568960D03*
X138379200Y-126298960D03*
X138379200Y-125028960D03*
M02*
