G04 #@! TF.GenerationSoftware,KiCad,Pcbnew,(5.1.2)-1*
G04 #@! TF.CreationDate,2019-08-13T15:01:43-05:00*
G04 #@! TF.ProjectId,EMI_sensor_control_Rev1.0,454d495f-7365-46e7-936f-725f636f6e74,rev?*
G04 #@! TF.SameCoordinates,Original*
G04 #@! TF.FileFunction,Legend,Bot*
G04 #@! TF.FilePolarity,Positive*
%FSLAX46Y46*%
G04 Gerber Fmt 4.6, Leading zero omitted, Abs format (unit mm)*
G04 Created by KiCad (PCBNEW (5.1.2)-1) date 2019-08-13 15:01:43*
%MOMM*%
%LPD*%
G04 APERTURE LIST*
%ADD10C,0.150000*%
%ADD11C,0.120000*%
%ADD12C,0.100000*%
%ADD13C,0.152400*%
G04 APERTURE END LIST*
D10*
X92176666Y-60524380D02*
X92176666Y-59524380D01*
X91795714Y-59524380D01*
X91700476Y-59572000D01*
X91652857Y-59619619D01*
X91605238Y-59714857D01*
X91605238Y-59857714D01*
X91652857Y-59952952D01*
X91700476Y-60000571D01*
X91795714Y-60048190D01*
X92176666Y-60048190D01*
X90748095Y-60524380D02*
X90748095Y-60000571D01*
X90795714Y-59905333D01*
X90890952Y-59857714D01*
X91081428Y-59857714D01*
X91176666Y-59905333D01*
X90748095Y-60476761D02*
X90843333Y-60524380D01*
X91081428Y-60524380D01*
X91176666Y-60476761D01*
X91224285Y-60381523D01*
X91224285Y-60286285D01*
X91176666Y-60191047D01*
X91081428Y-60143428D01*
X90843333Y-60143428D01*
X90748095Y-60095809D01*
X90271904Y-59857714D02*
X90271904Y-60524380D01*
X90271904Y-59952952D02*
X90224285Y-59905333D01*
X90129047Y-59857714D01*
X89986190Y-59857714D01*
X89890952Y-59905333D01*
X89843333Y-60000571D01*
X89843333Y-60524380D01*
X88938571Y-60476761D02*
X89033809Y-60524380D01*
X89224285Y-60524380D01*
X89319523Y-60476761D01*
X89367142Y-60429142D01*
X89414761Y-60333904D01*
X89414761Y-60048190D01*
X89367142Y-59952952D01*
X89319523Y-59905333D01*
X89224285Y-59857714D01*
X89033809Y-59857714D01*
X88938571Y-59905333D01*
X88510000Y-60524380D02*
X88510000Y-59857714D01*
X88510000Y-60048190D02*
X88462380Y-59952952D01*
X88414761Y-59905333D01*
X88319523Y-59857714D01*
X88224285Y-59857714D01*
X87510000Y-60476761D02*
X87605238Y-60524380D01*
X87795714Y-60524380D01*
X87890952Y-60476761D01*
X87938571Y-60381523D01*
X87938571Y-60000571D01*
X87890952Y-59905333D01*
X87795714Y-59857714D01*
X87605238Y-59857714D01*
X87510000Y-59905333D01*
X87462380Y-60000571D01*
X87462380Y-60095809D01*
X87938571Y-60191047D01*
X86605238Y-60524380D02*
X86605238Y-60000571D01*
X86652857Y-59905333D01*
X86748095Y-59857714D01*
X86938571Y-59857714D01*
X87033809Y-59905333D01*
X86605238Y-60476761D02*
X86700476Y-60524380D01*
X86938571Y-60524380D01*
X87033809Y-60476761D01*
X87081428Y-60381523D01*
X87081428Y-60286285D01*
X87033809Y-60191047D01*
X86938571Y-60143428D01*
X86700476Y-60143428D01*
X86605238Y-60095809D01*
X86176666Y-60476761D02*
X86081428Y-60524380D01*
X85890952Y-60524380D01*
X85795714Y-60476761D01*
X85748095Y-60381523D01*
X85748095Y-60333904D01*
X85795714Y-60238666D01*
X85890952Y-60191047D01*
X86033809Y-60191047D01*
X86129047Y-60143428D01*
X86176666Y-60048190D01*
X86176666Y-60000571D01*
X86129047Y-59905333D01*
X86033809Y-59857714D01*
X85890952Y-59857714D01*
X85795714Y-59905333D01*
X84557619Y-60000571D02*
X84224285Y-60000571D01*
X84081428Y-60524380D02*
X84557619Y-60524380D01*
X84557619Y-59524380D01*
X84081428Y-59524380D01*
X83652857Y-60524380D02*
X83652857Y-59524380D01*
X83319523Y-60238666D01*
X82986190Y-59524380D01*
X82986190Y-60524380D01*
X82510000Y-60524380D02*
X82510000Y-59524380D01*
X80700476Y-60429142D02*
X80748095Y-60476761D01*
X80890952Y-60524380D01*
X80986190Y-60524380D01*
X81129047Y-60476761D01*
X81224285Y-60381523D01*
X81271904Y-60286285D01*
X81319523Y-60095809D01*
X81319523Y-59952952D01*
X81271904Y-59762476D01*
X81224285Y-59667238D01*
X81129047Y-59572000D01*
X80986190Y-59524380D01*
X80890952Y-59524380D01*
X80748095Y-59572000D01*
X80700476Y-59619619D01*
X80129047Y-60524380D02*
X80224285Y-60476761D01*
X80271904Y-60429142D01*
X80319523Y-60333904D01*
X80319523Y-60048190D01*
X80271904Y-59952952D01*
X80224285Y-59905333D01*
X80129047Y-59857714D01*
X79986190Y-59857714D01*
X79890952Y-59905333D01*
X79843333Y-59952952D01*
X79795714Y-60048190D01*
X79795714Y-60333904D01*
X79843333Y-60429142D01*
X79890952Y-60476761D01*
X79986190Y-60524380D01*
X80129047Y-60524380D01*
X79367142Y-59857714D02*
X79367142Y-60524380D01*
X79367142Y-59952952D02*
X79319523Y-59905333D01*
X79224285Y-59857714D01*
X79081428Y-59857714D01*
X78986190Y-59905333D01*
X78938571Y-60000571D01*
X78938571Y-60524380D01*
X78033809Y-60524380D02*
X78033809Y-59524380D01*
X78033809Y-60476761D02*
X78129047Y-60524380D01*
X78319523Y-60524380D01*
X78414761Y-60476761D01*
X78462380Y-60429142D01*
X78510000Y-60333904D01*
X78510000Y-60048190D01*
X78462380Y-59952952D01*
X78414761Y-59905333D01*
X78319523Y-59857714D01*
X78129047Y-59857714D01*
X78033809Y-59905333D01*
X77129047Y-59857714D02*
X77129047Y-60524380D01*
X77557619Y-59857714D02*
X77557619Y-60381523D01*
X77510000Y-60476761D01*
X77414761Y-60524380D01*
X77271904Y-60524380D01*
X77176666Y-60476761D01*
X77129047Y-60429142D01*
X76224285Y-60476761D02*
X76319523Y-60524380D01*
X76510000Y-60524380D01*
X76605238Y-60476761D01*
X76652857Y-60429142D01*
X76700476Y-60333904D01*
X76700476Y-60048190D01*
X76652857Y-59952952D01*
X76605238Y-59905333D01*
X76510000Y-59857714D01*
X76319523Y-59857714D01*
X76224285Y-59905333D01*
X75938571Y-59857714D02*
X75557619Y-59857714D01*
X75795714Y-59524380D02*
X75795714Y-60381523D01*
X75748095Y-60476761D01*
X75652857Y-60524380D01*
X75557619Y-60524380D01*
X75224285Y-60524380D02*
X75224285Y-59857714D01*
X75224285Y-59524380D02*
X75271904Y-59572000D01*
X75224285Y-59619619D01*
X75176666Y-59572000D01*
X75224285Y-59524380D01*
X75224285Y-59619619D01*
X74843333Y-59857714D02*
X74605238Y-60524380D01*
X74367142Y-59857714D01*
X73986190Y-60524380D02*
X73986190Y-59857714D01*
X73986190Y-59524380D02*
X74033809Y-59572000D01*
X73986190Y-59619619D01*
X73938571Y-59572000D01*
X73986190Y-59524380D01*
X73986190Y-59619619D01*
X73652857Y-59857714D02*
X73271904Y-59857714D01*
X73510000Y-59524380D02*
X73510000Y-60381523D01*
X73462380Y-60476761D01*
X73367142Y-60524380D01*
X73271904Y-60524380D01*
X73033809Y-59857714D02*
X72795714Y-60524380D01*
X72557619Y-59857714D02*
X72795714Y-60524380D01*
X72890952Y-60762476D01*
X72938571Y-60810095D01*
X73033809Y-60857714D01*
X71414761Y-60524380D02*
X71414761Y-59524380D01*
X71081428Y-60238666D01*
X70748095Y-59524380D01*
X70748095Y-60524380D01*
X69890952Y-60476761D02*
X69986190Y-60524380D01*
X70176666Y-60524380D01*
X70271904Y-60476761D01*
X70319523Y-60381523D01*
X70319523Y-60000571D01*
X70271904Y-59905333D01*
X70176666Y-59857714D01*
X69986190Y-59857714D01*
X69890952Y-59905333D01*
X69843333Y-60000571D01*
X69843333Y-60095809D01*
X70319523Y-60191047D01*
X69557619Y-59857714D02*
X69176666Y-59857714D01*
X69414761Y-59524380D02*
X69414761Y-60381523D01*
X69367142Y-60476761D01*
X69271904Y-60524380D01*
X69176666Y-60524380D01*
X68462380Y-60476761D02*
X68557619Y-60524380D01*
X68748095Y-60524380D01*
X68843333Y-60476761D01*
X68890952Y-60381523D01*
X68890952Y-60000571D01*
X68843333Y-59905333D01*
X68748095Y-59857714D01*
X68557619Y-59857714D01*
X68462380Y-59905333D01*
X68414761Y-60000571D01*
X68414761Y-60095809D01*
X68890952Y-60191047D01*
X67986190Y-60524380D02*
X67986190Y-59857714D01*
X67986190Y-60048190D02*
X67938571Y-59952952D01*
X67890952Y-59905333D01*
X67795714Y-59857714D01*
X67700476Y-59857714D01*
X88771904Y-62174380D02*
X88771904Y-61174380D01*
X88200476Y-62174380D02*
X88629047Y-61602952D01*
X88200476Y-61174380D02*
X88771904Y-61745809D01*
X87343333Y-62174380D02*
X87343333Y-61650571D01*
X87390952Y-61555333D01*
X87486190Y-61507714D01*
X87676666Y-61507714D01*
X87771904Y-61555333D01*
X87343333Y-62126761D02*
X87438571Y-62174380D01*
X87676666Y-62174380D01*
X87771904Y-62126761D01*
X87819523Y-62031523D01*
X87819523Y-61936285D01*
X87771904Y-61841047D01*
X87676666Y-61793428D01*
X87438571Y-61793428D01*
X87343333Y-61745809D01*
X86867142Y-61507714D02*
X86867142Y-62174380D01*
X86867142Y-61602952D02*
X86819523Y-61555333D01*
X86724285Y-61507714D01*
X86581428Y-61507714D01*
X86486190Y-61555333D01*
X86438571Y-61650571D01*
X86438571Y-62174380D01*
X86010000Y-62126761D02*
X85914761Y-62174380D01*
X85724285Y-62174380D01*
X85629047Y-62126761D01*
X85581428Y-62031523D01*
X85581428Y-61983904D01*
X85629047Y-61888666D01*
X85724285Y-61841047D01*
X85867142Y-61841047D01*
X85962380Y-61793428D01*
X86010000Y-61698190D01*
X86010000Y-61650571D01*
X85962380Y-61555333D01*
X85867142Y-61507714D01*
X85724285Y-61507714D01*
X85629047Y-61555333D01*
X84724285Y-62174380D02*
X84724285Y-61650571D01*
X84771904Y-61555333D01*
X84867142Y-61507714D01*
X85057619Y-61507714D01*
X85152857Y-61555333D01*
X84724285Y-62126761D02*
X84819523Y-62174380D01*
X85057619Y-62174380D01*
X85152857Y-62126761D01*
X85200476Y-62031523D01*
X85200476Y-61936285D01*
X85152857Y-61841047D01*
X85057619Y-61793428D01*
X84819523Y-61793428D01*
X84724285Y-61745809D01*
X84295714Y-62126761D02*
X84200476Y-62174380D01*
X84010000Y-62174380D01*
X83914761Y-62126761D01*
X83867142Y-62031523D01*
X83867142Y-61983904D01*
X83914761Y-61888666D01*
X84010000Y-61841047D01*
X84152857Y-61841047D01*
X84248095Y-61793428D01*
X84295714Y-61698190D01*
X84295714Y-61650571D01*
X84248095Y-61555333D01*
X84152857Y-61507714D01*
X84010000Y-61507714D01*
X83914761Y-61555333D01*
X82724285Y-62126761D02*
X82581428Y-62174380D01*
X82343333Y-62174380D01*
X82248095Y-62126761D01*
X82200476Y-62079142D01*
X82152857Y-61983904D01*
X82152857Y-61888666D01*
X82200476Y-61793428D01*
X82248095Y-61745809D01*
X82343333Y-61698190D01*
X82533809Y-61650571D01*
X82629047Y-61602952D01*
X82676666Y-61555333D01*
X82724285Y-61460095D01*
X82724285Y-61364857D01*
X82676666Y-61269619D01*
X82629047Y-61222000D01*
X82533809Y-61174380D01*
X82295714Y-61174380D01*
X82152857Y-61222000D01*
X81867142Y-61507714D02*
X81486190Y-61507714D01*
X81724285Y-61174380D02*
X81724285Y-62031523D01*
X81676666Y-62126761D01*
X81581428Y-62174380D01*
X81486190Y-62174380D01*
X80724285Y-62174380D02*
X80724285Y-61650571D01*
X80771904Y-61555333D01*
X80867142Y-61507714D01*
X81057619Y-61507714D01*
X81152857Y-61555333D01*
X80724285Y-62126761D02*
X80819523Y-62174380D01*
X81057619Y-62174380D01*
X81152857Y-62126761D01*
X81200476Y-62031523D01*
X81200476Y-61936285D01*
X81152857Y-61841047D01*
X81057619Y-61793428D01*
X80819523Y-61793428D01*
X80724285Y-61745809D01*
X80390952Y-61507714D02*
X80010000Y-61507714D01*
X80248095Y-61174380D02*
X80248095Y-62031523D01*
X80200476Y-62126761D01*
X80105238Y-62174380D01*
X80010000Y-62174380D01*
X79295714Y-62126761D02*
X79390952Y-62174380D01*
X79581428Y-62174380D01*
X79676666Y-62126761D01*
X79724285Y-62031523D01*
X79724285Y-61650571D01*
X79676666Y-61555333D01*
X79581428Y-61507714D01*
X79390952Y-61507714D01*
X79295714Y-61555333D01*
X79248095Y-61650571D01*
X79248095Y-61745809D01*
X79724285Y-61841047D01*
X78057619Y-61174380D02*
X78057619Y-61983904D01*
X78010000Y-62079142D01*
X77962380Y-62126761D01*
X77867142Y-62174380D01*
X77676666Y-62174380D01*
X77581428Y-62126761D01*
X77533809Y-62079142D01*
X77486190Y-61983904D01*
X77486190Y-61174380D01*
X77010000Y-61507714D02*
X77010000Y-62174380D01*
X77010000Y-61602952D02*
X76962380Y-61555333D01*
X76867142Y-61507714D01*
X76724285Y-61507714D01*
X76629047Y-61555333D01*
X76581428Y-61650571D01*
X76581428Y-62174380D01*
X76105238Y-62174380D02*
X76105238Y-61507714D01*
X76105238Y-61174380D02*
X76152857Y-61222000D01*
X76105238Y-61269619D01*
X76057619Y-61222000D01*
X76105238Y-61174380D01*
X76105238Y-61269619D01*
X75724285Y-61507714D02*
X75486190Y-62174380D01*
X75248095Y-61507714D01*
X74486190Y-62126761D02*
X74581428Y-62174380D01*
X74771904Y-62174380D01*
X74867142Y-62126761D01*
X74914761Y-62031523D01*
X74914761Y-61650571D01*
X74867142Y-61555333D01*
X74771904Y-61507714D01*
X74581428Y-61507714D01*
X74486190Y-61555333D01*
X74438571Y-61650571D01*
X74438571Y-61745809D01*
X74914761Y-61841047D01*
X74010000Y-62174380D02*
X74010000Y-61507714D01*
X74010000Y-61698190D02*
X73962380Y-61602952D01*
X73914761Y-61555333D01*
X73819523Y-61507714D01*
X73724285Y-61507714D01*
X73438571Y-62126761D02*
X73343333Y-62174380D01*
X73152857Y-62174380D01*
X73057619Y-62126761D01*
X73010000Y-62031523D01*
X73010000Y-61983904D01*
X73057619Y-61888666D01*
X73152857Y-61841047D01*
X73295714Y-61841047D01*
X73390952Y-61793428D01*
X73438571Y-61698190D01*
X73438571Y-61650571D01*
X73390952Y-61555333D01*
X73295714Y-61507714D01*
X73152857Y-61507714D01*
X73057619Y-61555333D01*
X72581428Y-62174380D02*
X72581428Y-61507714D01*
X72581428Y-61174380D02*
X72629047Y-61222000D01*
X72581428Y-61269619D01*
X72533809Y-61222000D01*
X72581428Y-61174380D01*
X72581428Y-61269619D01*
X72248095Y-61507714D02*
X71867142Y-61507714D01*
X72105238Y-61174380D02*
X72105238Y-62031523D01*
X72057619Y-62126761D01*
X71962380Y-62174380D01*
X71867142Y-62174380D01*
X71629047Y-61507714D02*
X71390952Y-62174380D01*
X71152857Y-61507714D02*
X71390952Y-62174380D01*
X71486190Y-62412476D01*
X71533809Y-62460095D01*
X71629047Y-62507714D01*
X82557619Y-63824380D02*
X82890952Y-63348190D01*
X83129047Y-63824380D02*
X83129047Y-62824380D01*
X82748095Y-62824380D01*
X82652857Y-62872000D01*
X82605238Y-62919619D01*
X82557619Y-63014857D01*
X82557619Y-63157714D01*
X82605238Y-63252952D01*
X82652857Y-63300571D01*
X82748095Y-63348190D01*
X83129047Y-63348190D01*
X81748095Y-63776761D02*
X81843333Y-63824380D01*
X82033809Y-63824380D01*
X82129047Y-63776761D01*
X82176666Y-63681523D01*
X82176666Y-63300571D01*
X82129047Y-63205333D01*
X82033809Y-63157714D01*
X81843333Y-63157714D01*
X81748095Y-63205333D01*
X81700476Y-63300571D01*
X81700476Y-63395809D01*
X82176666Y-63491047D01*
X81367142Y-63157714D02*
X81129047Y-63824380D01*
X80890952Y-63157714D01*
X79224285Y-63824380D02*
X79795714Y-63824380D01*
X79510000Y-63824380D02*
X79510000Y-62824380D01*
X79605238Y-62967238D01*
X79700476Y-63062476D01*
X79795714Y-63110095D01*
X78795714Y-63729142D02*
X78748095Y-63776761D01*
X78795714Y-63824380D01*
X78843333Y-63776761D01*
X78795714Y-63729142D01*
X78795714Y-63824380D01*
X78129047Y-62824380D02*
X78033809Y-62824380D01*
X77938571Y-62872000D01*
X77890952Y-62919619D01*
X77843333Y-63014857D01*
X77795714Y-63205333D01*
X77795714Y-63443428D01*
X77843333Y-63633904D01*
X77890952Y-63729142D01*
X77938571Y-63776761D01*
X78033809Y-63824380D01*
X78129047Y-63824380D01*
X78224285Y-63776761D01*
X78271904Y-63729142D01*
X78319523Y-63633904D01*
X78367142Y-63443428D01*
X78367142Y-63205333D01*
X78319523Y-63014857D01*
X78271904Y-62919619D01*
X78224285Y-62872000D01*
X78129047Y-62824380D01*
X77414761Y-62919619D02*
X77367142Y-62872000D01*
X77271904Y-62824380D01*
X77033809Y-62824380D01*
X76938571Y-62872000D01*
X76890952Y-62919619D01*
X76843333Y-63014857D01*
X76843333Y-63110095D01*
X76890952Y-63252952D01*
X77462380Y-63824380D01*
X76843333Y-63824380D01*
D11*
X161250800Y-78304636D02*
X161250800Y-79508764D01*
X163970800Y-78304636D02*
X163970800Y-79508764D01*
X163912136Y-63232200D02*
X165116264Y-63232200D01*
X163912136Y-65952200D02*
X165116264Y-65952200D01*
X160501400Y-69957048D02*
X160501400Y-70479552D01*
X159081400Y-69957048D02*
X159081400Y-70479552D01*
X169574800Y-74364436D02*
X169574800Y-75568564D01*
X171394800Y-74364436D02*
X171394800Y-75568564D01*
X163202536Y-72127280D02*
X164406664Y-72127280D01*
X163202536Y-74847280D02*
X164406664Y-74847280D01*
X135314520Y-127246464D02*
X135314520Y-126042336D01*
X132594520Y-127246464D02*
X132594520Y-126042336D01*
X146108960Y-130840633D02*
X146108960Y-131183167D01*
X147128960Y-130840633D02*
X147128960Y-131183167D01*
X145875827Y-120819640D02*
X145533293Y-120819640D01*
X145875827Y-119799640D02*
X145533293Y-119799640D01*
X163765880Y-119977880D02*
X163765880Y-121677880D01*
X163765880Y-125497880D02*
X163765880Y-123797880D01*
X159310317Y-125497880D02*
X163765880Y-125497880D01*
X159310317Y-119977880D02*
X163765880Y-119977880D01*
X158245880Y-121042317D02*
X158245880Y-121677880D01*
X158245880Y-124433443D02*
X158245880Y-123797880D01*
X158245880Y-124433443D02*
X159310317Y-125497880D01*
X158245880Y-121042317D02*
X159310317Y-119977880D01*
X157380880Y-124422880D02*
X158005880Y-124422880D01*
X157693380Y-124735380D02*
X157693380Y-124110380D01*
X181510400Y-109760867D02*
X181510400Y-109418333D01*
X180490400Y-109760867D02*
X180490400Y-109418333D01*
X173226000Y-109415733D02*
X173226000Y-109758267D01*
X174246000Y-109415733D02*
X174246000Y-109758267D01*
X170686800Y-109998252D02*
X170686800Y-109475748D01*
X169266800Y-109998252D02*
X169266800Y-109475748D01*
X171956000Y-119946267D02*
X171956000Y-119603733D01*
X172976000Y-119946267D02*
X172976000Y-119603733D01*
X206961200Y-111157867D02*
X206961200Y-110815333D01*
X205941200Y-111157867D02*
X205941200Y-110815333D01*
X145543200Y-101786948D02*
X145543200Y-102309452D01*
X146963200Y-101786948D02*
X146963200Y-102309452D01*
X144626400Y-101795948D02*
X144626400Y-102318452D01*
X143206400Y-101795948D02*
X143206400Y-102318452D01*
X150778280Y-130788888D02*
X150778280Y-131311392D01*
X149358280Y-130788888D02*
X149358280Y-131311392D01*
D12*
X173476920Y-66276220D02*
X173017180Y-66276220D01*
X173017180Y-66276220D02*
X173017180Y-66352420D01*
X173017180Y-66352420D02*
X173476920Y-66352420D01*
X173476920Y-66352420D02*
X173476920Y-66276220D01*
X170675300Y-66276220D02*
X171140120Y-66276220D01*
X171140120Y-66276220D02*
X171140120Y-66352420D01*
X171140120Y-66352420D02*
X170675300Y-66352420D01*
X170675300Y-66352420D02*
X170675300Y-66276220D01*
X173474840Y-69966400D02*
X173474840Y-69566400D01*
X173474840Y-69966400D02*
X173074840Y-69966400D01*
X173474840Y-65466400D02*
X173474840Y-65866400D01*
X173474840Y-65466400D02*
X173074840Y-65466400D01*
X170674840Y-65466400D02*
X171074840Y-65466400D01*
X170674840Y-65466400D02*
X170674840Y-65866400D01*
X170674840Y-69966400D02*
X170674840Y-69566400D01*
X170674840Y-69966400D02*
X171074840Y-69966400D01*
D11*
X173226000Y-105656533D02*
X173226000Y-105999067D01*
X174246000Y-105656533D02*
X174246000Y-105999067D01*
X169517600Y-121086667D02*
X169517600Y-120744133D01*
X170537600Y-121086667D02*
X170537600Y-120744133D01*
X172976000Y-124061067D02*
X172976000Y-123718533D01*
X171956000Y-124061067D02*
X171956000Y-123718533D01*
X205941200Y-115272667D02*
X205941200Y-114930133D01*
X206961200Y-115272667D02*
X206961200Y-114930133D01*
D13*
X150865359Y-128427480D02*
X149037521Y-128427480D01*
X149037521Y-121975880D02*
X150865359Y-121975880D01*
D11*
X167305920Y-67430908D02*
X167305920Y-67953412D01*
X168725920Y-67430908D02*
X168725920Y-67953412D01*
X167285600Y-71528148D02*
X167285600Y-72050652D01*
X168705600Y-71528148D02*
X168705600Y-72050652D01*
X156131940Y-127414876D02*
X156131940Y-128619004D01*
X154311940Y-127414876D02*
X154311940Y-128619004D01*
X154267580Y-133666476D02*
X154267580Y-134870604D01*
X152447580Y-133666476D02*
X152447580Y-134870604D01*
X217061148Y-73963600D02*
X217583652Y-73963600D01*
X217061148Y-72543600D02*
X217583652Y-72543600D01*
X193498400Y-130692148D02*
X193498400Y-131214652D01*
X194918400Y-130692148D02*
X194918400Y-131214652D01*
X170937600Y-116360964D02*
X170937600Y-115156836D01*
X169117600Y-116360964D02*
X169117600Y-115156836D01*
X164787500Y-75834600D02*
X168587500Y-75834600D01*
X166687500Y-79054600D02*
X168587500Y-79054600D01*
X164579300Y-70266200D02*
X166479300Y-70266200D01*
X162679300Y-67046200D02*
X166479300Y-67046200D01*
D13*
X143065500Y-129550160D02*
X138823700Y-129550160D01*
X138823700Y-124317760D02*
X143065500Y-124317760D01*
D10*
X160687942Y-78740033D02*
X160735561Y-78692414D01*
X160783180Y-78549557D01*
X160783180Y-78454319D01*
X160735561Y-78311461D01*
X160640323Y-78216223D01*
X160545085Y-78168604D01*
X160354609Y-78120985D01*
X160211752Y-78120985D01*
X160021276Y-78168604D01*
X159926038Y-78216223D01*
X159830800Y-78311461D01*
X159783180Y-78454319D01*
X159783180Y-78549557D01*
X159830800Y-78692414D01*
X159878419Y-78740033D01*
X159878419Y-79120985D02*
X159830800Y-79168604D01*
X159783180Y-79263842D01*
X159783180Y-79501938D01*
X159830800Y-79597176D01*
X159878419Y-79644795D01*
X159973657Y-79692414D01*
X160068895Y-79692414D01*
X160211752Y-79644795D01*
X160783180Y-79073366D01*
X160783180Y-79692414D01*
X164646906Y-62673502D02*
X164694525Y-62721121D01*
X164837382Y-62768740D01*
X164932620Y-62768740D01*
X165075478Y-62721121D01*
X165170716Y-62625883D01*
X165218335Y-62530645D01*
X165265954Y-62340169D01*
X165265954Y-62197312D01*
X165218335Y-62006836D01*
X165170716Y-61911598D01*
X165075478Y-61816360D01*
X164932620Y-61768740D01*
X164837382Y-61768740D01*
X164694525Y-61816360D01*
X164646906Y-61863979D01*
X164313573Y-61768740D02*
X163694525Y-61768740D01*
X164027859Y-62149693D01*
X163885001Y-62149693D01*
X163789763Y-62197312D01*
X163742144Y-62244931D01*
X163694525Y-62340169D01*
X163694525Y-62578264D01*
X163742144Y-62673502D01*
X163789763Y-62721121D01*
X163885001Y-62768740D01*
X164170716Y-62768740D01*
X164265954Y-62721121D01*
X164313573Y-62673502D01*
X158498542Y-70051633D02*
X158546161Y-70004014D01*
X158593780Y-69861157D01*
X158593780Y-69765919D01*
X158546161Y-69623061D01*
X158450923Y-69527823D01*
X158355685Y-69480204D01*
X158165209Y-69432585D01*
X158022352Y-69432585D01*
X157831876Y-69480204D01*
X157736638Y-69527823D01*
X157641400Y-69623061D01*
X157593780Y-69765919D01*
X157593780Y-69861157D01*
X157641400Y-70004014D01*
X157689019Y-70051633D01*
X157593780Y-70956395D02*
X157593780Y-70480204D01*
X158069971Y-70432585D01*
X158022352Y-70480204D01*
X157974733Y-70575442D01*
X157974733Y-70813538D01*
X158022352Y-70908776D01*
X158069971Y-70956395D01*
X158165209Y-71004014D01*
X158403304Y-71004014D01*
X158498542Y-70956395D01*
X158546161Y-70908776D01*
X158593780Y-70813538D01*
X158593780Y-70575442D01*
X158546161Y-70480204D01*
X158498542Y-70432585D01*
X172721542Y-74814133D02*
X172769161Y-74766514D01*
X172816780Y-74623657D01*
X172816780Y-74528419D01*
X172769161Y-74385561D01*
X172673923Y-74290323D01*
X172578685Y-74242704D01*
X172388209Y-74195085D01*
X172245352Y-74195085D01*
X172054876Y-74242704D01*
X171959638Y-74290323D01*
X171864400Y-74385561D01*
X171816780Y-74528419D01*
X171816780Y-74623657D01*
X171864400Y-74766514D01*
X171912019Y-74814133D01*
X171816780Y-75671276D02*
X171816780Y-75480800D01*
X171864400Y-75385561D01*
X171912019Y-75337942D01*
X172054876Y-75242704D01*
X172245352Y-75195085D01*
X172626304Y-75195085D01*
X172721542Y-75242704D01*
X172769161Y-75290323D01*
X172816780Y-75385561D01*
X172816780Y-75576038D01*
X172769161Y-75671276D01*
X172721542Y-75718895D01*
X172626304Y-75766514D01*
X172388209Y-75766514D01*
X172292971Y-75718895D01*
X172245352Y-75671276D01*
X172197733Y-75576038D01*
X172197733Y-75385561D01*
X172245352Y-75290323D01*
X172292971Y-75242704D01*
X172388209Y-75195085D01*
X160951182Y-73335853D02*
X160998801Y-73288234D01*
X161046420Y-73145377D01*
X161046420Y-73050139D01*
X160998801Y-72907281D01*
X160903563Y-72812043D01*
X160808325Y-72764424D01*
X160617849Y-72716805D01*
X160474992Y-72716805D01*
X160284516Y-72764424D01*
X160189278Y-72812043D01*
X160094040Y-72907281D01*
X160046420Y-73050139D01*
X160046420Y-73145377D01*
X160094040Y-73288234D01*
X160141659Y-73335853D01*
X161046420Y-73812043D02*
X161046420Y-74002520D01*
X160998801Y-74097758D01*
X160951182Y-74145377D01*
X160808325Y-74240615D01*
X160617849Y-74288234D01*
X160236897Y-74288234D01*
X160141659Y-74240615D01*
X160094040Y-74192996D01*
X160046420Y-74097758D01*
X160046420Y-73907281D01*
X160094040Y-73812043D01*
X160141659Y-73764424D01*
X160236897Y-73716805D01*
X160474992Y-73716805D01*
X160570230Y-73764424D01*
X160617849Y-73812043D01*
X160665468Y-73907281D01*
X160665468Y-74097758D01*
X160617849Y-74192996D01*
X160570230Y-74240615D01*
X160474992Y-74288234D01*
X131781822Y-126001542D02*
X131829441Y-125953923D01*
X131877060Y-125811066D01*
X131877060Y-125715828D01*
X131829441Y-125572971D01*
X131734203Y-125477733D01*
X131638965Y-125430114D01*
X131448489Y-125382495D01*
X131305632Y-125382495D01*
X131115156Y-125430114D01*
X131019918Y-125477733D01*
X130924680Y-125572971D01*
X130877060Y-125715828D01*
X130877060Y-125811066D01*
X130924680Y-125953923D01*
X130972299Y-126001542D01*
X131877060Y-126953923D02*
X131877060Y-126382495D01*
X131877060Y-126668209D02*
X130877060Y-126668209D01*
X131019918Y-126572971D01*
X131115156Y-126477733D01*
X131162775Y-126382495D01*
X130877060Y-127572971D02*
X130877060Y-127668209D01*
X130924680Y-127763447D01*
X130972299Y-127811066D01*
X131067537Y-127858685D01*
X131258013Y-127906304D01*
X131496108Y-127906304D01*
X131686584Y-127858685D01*
X131781822Y-127811066D01*
X131829441Y-127763447D01*
X131877060Y-127668209D01*
X131877060Y-127572971D01*
X131829441Y-127477733D01*
X131781822Y-127430114D01*
X131686584Y-127382495D01*
X131496108Y-127334876D01*
X131258013Y-127334876D01*
X131067537Y-127382495D01*
X130972299Y-127430114D01*
X130924680Y-127477733D01*
X130877060Y-127572971D01*
X145546102Y-130369042D02*
X145593721Y-130321423D01*
X145641340Y-130178566D01*
X145641340Y-130083328D01*
X145593721Y-129940471D01*
X145498483Y-129845233D01*
X145403245Y-129797614D01*
X145212769Y-129749995D01*
X145069912Y-129749995D01*
X144879436Y-129797614D01*
X144784198Y-129845233D01*
X144688960Y-129940471D01*
X144641340Y-130083328D01*
X144641340Y-130178566D01*
X144688960Y-130321423D01*
X144736579Y-130369042D01*
X145641340Y-131321423D02*
X145641340Y-130749995D01*
X145641340Y-131035709D02*
X144641340Y-131035709D01*
X144784198Y-130940471D01*
X144879436Y-130845233D01*
X144927055Y-130749995D01*
X144736579Y-131702376D02*
X144688960Y-131749995D01*
X144641340Y-131845233D01*
X144641340Y-132083328D01*
X144688960Y-132178566D01*
X144736579Y-132226185D01*
X144831817Y-132273804D01*
X144927055Y-132273804D01*
X145069912Y-132226185D01*
X145641340Y-131654757D01*
X145641340Y-132273804D01*
X146347417Y-119236782D02*
X146395036Y-119284401D01*
X146537893Y-119332020D01*
X146633131Y-119332020D01*
X146775988Y-119284401D01*
X146871226Y-119189163D01*
X146918845Y-119093925D01*
X146966464Y-118903449D01*
X146966464Y-118760592D01*
X146918845Y-118570116D01*
X146871226Y-118474878D01*
X146775988Y-118379640D01*
X146633131Y-118332020D01*
X146537893Y-118332020D01*
X146395036Y-118379640D01*
X146347417Y-118427259D01*
X145395036Y-119332020D02*
X145966464Y-119332020D01*
X145680750Y-119332020D02*
X145680750Y-118332020D01*
X145775988Y-118474878D01*
X145871226Y-118570116D01*
X145966464Y-118617735D01*
X144537893Y-118665354D02*
X144537893Y-119332020D01*
X144775988Y-118284401D02*
X145014083Y-118998687D01*
X144395036Y-118998687D01*
X161648737Y-126795022D02*
X161696356Y-126842641D01*
X161839213Y-126890260D01*
X161934451Y-126890260D01*
X162077308Y-126842641D01*
X162172546Y-126747403D01*
X162220165Y-126652165D01*
X162267784Y-126461689D01*
X162267784Y-126318832D01*
X162220165Y-126128356D01*
X162172546Y-126033118D01*
X162077308Y-125937880D01*
X161934451Y-125890260D01*
X161839213Y-125890260D01*
X161696356Y-125937880D01*
X161648737Y-125985499D01*
X160696356Y-126890260D02*
X161267784Y-126890260D01*
X160982070Y-126890260D02*
X160982070Y-125890260D01*
X161077308Y-126033118D01*
X161172546Y-126128356D01*
X161267784Y-126175975D01*
X159839213Y-125890260D02*
X160029689Y-125890260D01*
X160124927Y-125937880D01*
X160172546Y-125985499D01*
X160267784Y-126128356D01*
X160315403Y-126318832D01*
X160315403Y-126699784D01*
X160267784Y-126795022D01*
X160220165Y-126842641D01*
X160124927Y-126890260D01*
X159934451Y-126890260D01*
X159839213Y-126842641D01*
X159791594Y-126795022D01*
X159743975Y-126699784D01*
X159743975Y-126461689D01*
X159791594Y-126366451D01*
X159839213Y-126318832D01*
X159934451Y-126271213D01*
X160124927Y-126271213D01*
X160220165Y-126318832D01*
X160267784Y-126366451D01*
X160315403Y-126461689D01*
X179897042Y-108666042D02*
X179944661Y-108618423D01*
X179992280Y-108475566D01*
X179992280Y-108380328D01*
X179944661Y-108237471D01*
X179849423Y-108142233D01*
X179754185Y-108094614D01*
X179563709Y-108046995D01*
X179420852Y-108046995D01*
X179230376Y-108094614D01*
X179135138Y-108142233D01*
X179039900Y-108237471D01*
X178992280Y-108380328D01*
X178992280Y-108475566D01*
X179039900Y-108618423D01*
X179087519Y-108666042D01*
X179325614Y-109523185D02*
X179992280Y-109523185D01*
X178944661Y-109285090D02*
X179658947Y-109046995D01*
X179658947Y-109666042D01*
X179325614Y-110475566D02*
X179992280Y-110475566D01*
X178944661Y-110237471D02*
X179658947Y-109999376D01*
X179658947Y-110618423D01*
X199505842Y-127195342D02*
X199553461Y-127147723D01*
X199601080Y-127004866D01*
X199601080Y-126909628D01*
X199553461Y-126766771D01*
X199458223Y-126671533D01*
X199362985Y-126623914D01*
X199172509Y-126576295D01*
X199029652Y-126576295D01*
X198839176Y-126623914D01*
X198743938Y-126671533D01*
X198648700Y-126766771D01*
X198601080Y-126909628D01*
X198601080Y-127004866D01*
X198648700Y-127147723D01*
X198696319Y-127195342D01*
X198934414Y-128052485D02*
X199601080Y-128052485D01*
X198553461Y-127814390D02*
X199267747Y-127576295D01*
X199267747Y-128195342D01*
X198601080Y-129052485D02*
X198601080Y-128576295D01*
X199077271Y-128528676D01*
X199029652Y-128576295D01*
X198982033Y-128671533D01*
X198982033Y-128909628D01*
X199029652Y-129004866D01*
X199077271Y-129052485D01*
X199172509Y-129100104D01*
X199410604Y-129100104D01*
X199505842Y-129052485D01*
X199553461Y-129004866D01*
X199601080Y-128909628D01*
X199601080Y-128671533D01*
X199553461Y-128576295D01*
X199505842Y-128528676D01*
X172663142Y-108944142D02*
X172710761Y-108896523D01*
X172758380Y-108753666D01*
X172758380Y-108658428D01*
X172710761Y-108515571D01*
X172615523Y-108420333D01*
X172520285Y-108372714D01*
X172329809Y-108325095D01*
X172186952Y-108325095D01*
X171996476Y-108372714D01*
X171901238Y-108420333D01*
X171806000Y-108515571D01*
X171758380Y-108658428D01*
X171758380Y-108753666D01*
X171806000Y-108896523D01*
X171853619Y-108944142D01*
X171758380Y-109848904D02*
X171758380Y-109372714D01*
X172234571Y-109325095D01*
X172186952Y-109372714D01*
X172139333Y-109467952D01*
X172139333Y-109706047D01*
X172186952Y-109801285D01*
X172234571Y-109848904D01*
X172329809Y-109896523D01*
X172567904Y-109896523D01*
X172663142Y-109848904D01*
X172710761Y-109801285D01*
X172758380Y-109706047D01*
X172758380Y-109467952D01*
X172710761Y-109372714D01*
X172663142Y-109325095D01*
X171758380Y-110229857D02*
X171758380Y-110848904D01*
X172139333Y-110515571D01*
X172139333Y-110658428D01*
X172186952Y-110753666D01*
X172234571Y-110801285D01*
X172329809Y-110848904D01*
X172567904Y-110848904D01*
X172663142Y-110801285D01*
X172710761Y-110753666D01*
X172758380Y-110658428D01*
X172758380Y-110372714D01*
X172710761Y-110277476D01*
X172663142Y-110229857D01*
X168606742Y-109085142D02*
X168654361Y-109037523D01*
X168701980Y-108894666D01*
X168701980Y-108799428D01*
X168654361Y-108656571D01*
X168559123Y-108561333D01*
X168463885Y-108513714D01*
X168273409Y-108466095D01*
X168130552Y-108466095D01*
X167940076Y-108513714D01*
X167844838Y-108561333D01*
X167749600Y-108656571D01*
X167701980Y-108799428D01*
X167701980Y-108894666D01*
X167749600Y-109037523D01*
X167797219Y-109085142D01*
X167701980Y-109989904D02*
X167701980Y-109513714D01*
X168178171Y-109466095D01*
X168130552Y-109513714D01*
X168082933Y-109608952D01*
X168082933Y-109847047D01*
X168130552Y-109942285D01*
X168178171Y-109989904D01*
X168273409Y-110037523D01*
X168511504Y-110037523D01*
X168606742Y-109989904D01*
X168654361Y-109942285D01*
X168701980Y-109847047D01*
X168701980Y-109608952D01*
X168654361Y-109513714D01*
X168606742Y-109466095D01*
X168701980Y-110513714D02*
X168701980Y-110704190D01*
X168654361Y-110799428D01*
X168606742Y-110847047D01*
X168463885Y-110942285D01*
X168273409Y-110989904D01*
X167892457Y-110989904D01*
X167797219Y-110942285D01*
X167749600Y-110894666D01*
X167701980Y-110799428D01*
X167701980Y-110608952D01*
X167749600Y-110513714D01*
X167797219Y-110466095D01*
X167892457Y-110418476D01*
X168130552Y-110418476D01*
X168225790Y-110466095D01*
X168273409Y-110513714D01*
X168321028Y-110608952D01*
X168321028Y-110799428D01*
X168273409Y-110894666D01*
X168225790Y-110942285D01*
X168130552Y-110989904D01*
X174253142Y-119132142D02*
X174300761Y-119084523D01*
X174348380Y-118941666D01*
X174348380Y-118846428D01*
X174300761Y-118703571D01*
X174205523Y-118608333D01*
X174110285Y-118560714D01*
X173919809Y-118513095D01*
X173776952Y-118513095D01*
X173586476Y-118560714D01*
X173491238Y-118608333D01*
X173396000Y-118703571D01*
X173348380Y-118846428D01*
X173348380Y-118941666D01*
X173396000Y-119084523D01*
X173443619Y-119132142D01*
X173348380Y-119989285D02*
X173348380Y-119798809D01*
X173396000Y-119703571D01*
X173443619Y-119655952D01*
X173586476Y-119560714D01*
X173776952Y-119513095D01*
X174157904Y-119513095D01*
X174253142Y-119560714D01*
X174300761Y-119608333D01*
X174348380Y-119703571D01*
X174348380Y-119894047D01*
X174300761Y-119989285D01*
X174253142Y-120036904D01*
X174157904Y-120084523D01*
X173919809Y-120084523D01*
X173824571Y-120036904D01*
X173776952Y-119989285D01*
X173729333Y-119894047D01*
X173729333Y-119703571D01*
X173776952Y-119608333D01*
X173824571Y-119560714D01*
X173919809Y-119513095D01*
X173348380Y-120703571D02*
X173348380Y-120798809D01*
X173396000Y-120894047D01*
X173443619Y-120941666D01*
X173538857Y-120989285D01*
X173729333Y-121036904D01*
X173967428Y-121036904D01*
X174157904Y-120989285D01*
X174253142Y-120941666D01*
X174300761Y-120894047D01*
X174348380Y-120798809D01*
X174348380Y-120703571D01*
X174300761Y-120608333D01*
X174253142Y-120560714D01*
X174157904Y-120513095D01*
X173967428Y-120465476D01*
X173729333Y-120465476D01*
X173538857Y-120513095D01*
X173443619Y-120560714D01*
X173396000Y-120608333D01*
X173348380Y-120703571D01*
X208238342Y-110343742D02*
X208285961Y-110296123D01*
X208333580Y-110153266D01*
X208333580Y-110058028D01*
X208285961Y-109915171D01*
X208190723Y-109819933D01*
X208095485Y-109772314D01*
X207905009Y-109724695D01*
X207762152Y-109724695D01*
X207571676Y-109772314D01*
X207476438Y-109819933D01*
X207381200Y-109915171D01*
X207333580Y-110058028D01*
X207333580Y-110153266D01*
X207381200Y-110296123D01*
X207428819Y-110343742D01*
X207333580Y-111200885D02*
X207333580Y-111010409D01*
X207381200Y-110915171D01*
X207428819Y-110867552D01*
X207571676Y-110772314D01*
X207762152Y-110724695D01*
X208143104Y-110724695D01*
X208238342Y-110772314D01*
X208285961Y-110819933D01*
X208333580Y-110915171D01*
X208333580Y-111105647D01*
X208285961Y-111200885D01*
X208238342Y-111248504D01*
X208143104Y-111296123D01*
X207905009Y-111296123D01*
X207809771Y-111248504D01*
X207762152Y-111200885D01*
X207714533Y-111105647D01*
X207714533Y-110915171D01*
X207762152Y-110819933D01*
X207809771Y-110772314D01*
X207905009Y-110724695D01*
X208333580Y-112248504D02*
X208333580Y-111677076D01*
X208333580Y-111962790D02*
X207333580Y-111962790D01*
X207476438Y-111867552D01*
X207571676Y-111772314D01*
X207619295Y-111677076D01*
X148489942Y-100753942D02*
X148537561Y-100706323D01*
X148585180Y-100563466D01*
X148585180Y-100468228D01*
X148537561Y-100325371D01*
X148442323Y-100230133D01*
X148347085Y-100182514D01*
X148156609Y-100134895D01*
X148013752Y-100134895D01*
X147823276Y-100182514D01*
X147728038Y-100230133D01*
X147632800Y-100325371D01*
X147585180Y-100468228D01*
X147585180Y-100563466D01*
X147632800Y-100706323D01*
X147680419Y-100753942D01*
X147585180Y-101087276D02*
X147585180Y-101753942D01*
X148585180Y-101325371D01*
X148585180Y-102658704D02*
X148585180Y-102087276D01*
X148585180Y-102372990D02*
X147585180Y-102372990D01*
X147728038Y-102277752D01*
X147823276Y-102182514D01*
X147870895Y-102087276D01*
X142623542Y-101414342D02*
X142671161Y-101366723D01*
X142718780Y-101223866D01*
X142718780Y-101128628D01*
X142671161Y-100985771D01*
X142575923Y-100890533D01*
X142480685Y-100842914D01*
X142290209Y-100795295D01*
X142147352Y-100795295D01*
X141956876Y-100842914D01*
X141861638Y-100890533D01*
X141766400Y-100985771D01*
X141718780Y-101128628D01*
X141718780Y-101223866D01*
X141766400Y-101366723D01*
X141814019Y-101414342D01*
X141718780Y-101747676D02*
X141718780Y-102414342D01*
X142718780Y-101985771D01*
X141814019Y-102747676D02*
X141766400Y-102795295D01*
X141718780Y-102890533D01*
X141718780Y-103128628D01*
X141766400Y-103223866D01*
X141814019Y-103271485D01*
X141909257Y-103319104D01*
X142004495Y-103319104D01*
X142147352Y-103271485D01*
X142718780Y-102700057D01*
X142718780Y-103319104D01*
X148775422Y-130407282D02*
X148823041Y-130359663D01*
X148870660Y-130216806D01*
X148870660Y-130121568D01*
X148823041Y-129978711D01*
X148727803Y-129883473D01*
X148632565Y-129835854D01*
X148442089Y-129788235D01*
X148299232Y-129788235D01*
X148108756Y-129835854D01*
X148013518Y-129883473D01*
X147918280Y-129978711D01*
X147870660Y-130121568D01*
X147870660Y-130216806D01*
X147918280Y-130359663D01*
X147965899Y-130407282D01*
X148299232Y-130978711D02*
X148251613Y-130883473D01*
X148203994Y-130835854D01*
X148108756Y-130788235D01*
X148061137Y-130788235D01*
X147965899Y-130835854D01*
X147918280Y-130883473D01*
X147870660Y-130978711D01*
X147870660Y-131169187D01*
X147918280Y-131264425D01*
X147965899Y-131312044D01*
X148061137Y-131359663D01*
X148108756Y-131359663D01*
X148203994Y-131312044D01*
X148251613Y-131264425D01*
X148299232Y-131169187D01*
X148299232Y-130978711D01*
X148346851Y-130883473D01*
X148394470Y-130835854D01*
X148489708Y-130788235D01*
X148680184Y-130788235D01*
X148775422Y-130835854D01*
X148823041Y-130883473D01*
X148870660Y-130978711D01*
X148870660Y-131169187D01*
X148823041Y-131264425D01*
X148775422Y-131312044D01*
X148680184Y-131359663D01*
X148489708Y-131359663D01*
X148394470Y-131312044D01*
X148346851Y-131264425D01*
X148299232Y-131169187D01*
X147870660Y-131692997D02*
X147870660Y-132359663D01*
X148870660Y-131931092D01*
X174991020Y-67029104D02*
X173991020Y-67029104D01*
X173991020Y-67267200D01*
X174038640Y-67410057D01*
X174133878Y-67505295D01*
X174229116Y-67552914D01*
X174419592Y-67600533D01*
X174562449Y-67600533D01*
X174752925Y-67552914D01*
X174848163Y-67505295D01*
X174943401Y-67410057D01*
X174991020Y-67267200D01*
X174991020Y-67029104D01*
X174991020Y-68552914D02*
X174991020Y-67981485D01*
X174991020Y-68267200D02*
X173991020Y-68267200D01*
X174133878Y-68171961D01*
X174229116Y-68076723D01*
X174276735Y-67981485D01*
X172234571Y-104518276D02*
X172234571Y-104184942D01*
X172758380Y-104184942D02*
X171758380Y-104184942D01*
X171758380Y-104661133D01*
X172234571Y-105375419D02*
X172282190Y-105518276D01*
X172329809Y-105565895D01*
X172425047Y-105613514D01*
X172567904Y-105613514D01*
X172663142Y-105565895D01*
X172710761Y-105518276D01*
X172758380Y-105423038D01*
X172758380Y-105042085D01*
X171758380Y-105042085D01*
X171758380Y-105375419D01*
X171806000Y-105470657D01*
X171853619Y-105518276D01*
X171948857Y-105565895D01*
X172044095Y-105565895D01*
X172139333Y-105518276D01*
X172186952Y-105470657D01*
X172234571Y-105375419D01*
X172234571Y-105042085D01*
X172758380Y-106565895D02*
X172758380Y-105994466D01*
X172758380Y-106280180D02*
X171758380Y-106280180D01*
X171901238Y-106184942D01*
X171996476Y-106089704D01*
X172044095Y-105994466D01*
X171853619Y-106946847D02*
X171806000Y-106994466D01*
X171758380Y-107089704D01*
X171758380Y-107327800D01*
X171806000Y-107423038D01*
X171853619Y-107470657D01*
X171948857Y-107518276D01*
X172044095Y-107518276D01*
X172186952Y-107470657D01*
X172758380Y-106899228D01*
X172758380Y-107518276D01*
X168279771Y-119594476D02*
X168279771Y-119261142D01*
X168803580Y-119261142D02*
X167803580Y-119261142D01*
X167803580Y-119737333D01*
X168279771Y-120451619D02*
X168327390Y-120594476D01*
X168375009Y-120642095D01*
X168470247Y-120689714D01*
X168613104Y-120689714D01*
X168708342Y-120642095D01*
X168755961Y-120594476D01*
X168803580Y-120499238D01*
X168803580Y-120118285D01*
X167803580Y-120118285D01*
X167803580Y-120451619D01*
X167851200Y-120546857D01*
X167898819Y-120594476D01*
X167994057Y-120642095D01*
X168089295Y-120642095D01*
X168184533Y-120594476D01*
X168232152Y-120546857D01*
X168279771Y-120451619D01*
X168279771Y-120118285D01*
X168803580Y-121642095D02*
X168803580Y-121070666D01*
X168803580Y-121356380D02*
X167803580Y-121356380D01*
X167946438Y-121261142D01*
X168041676Y-121165904D01*
X168089295Y-121070666D01*
X168232152Y-122213523D02*
X168184533Y-122118285D01*
X168136914Y-122070666D01*
X168041676Y-122023047D01*
X167994057Y-122023047D01*
X167898819Y-122070666D01*
X167851200Y-122118285D01*
X167803580Y-122213523D01*
X167803580Y-122404000D01*
X167851200Y-122499238D01*
X167898819Y-122546857D01*
X167994057Y-122594476D01*
X168041676Y-122594476D01*
X168136914Y-122546857D01*
X168184533Y-122499238D01*
X168232152Y-122404000D01*
X168232152Y-122213523D01*
X168279771Y-122118285D01*
X168327390Y-122070666D01*
X168422628Y-122023047D01*
X168613104Y-122023047D01*
X168708342Y-122070666D01*
X168755961Y-122118285D01*
X168803580Y-122213523D01*
X168803580Y-122404000D01*
X168755961Y-122499238D01*
X168708342Y-122546857D01*
X168613104Y-122594476D01*
X168422628Y-122594476D01*
X168327390Y-122546857D01*
X168279771Y-122499238D01*
X168232152Y-122404000D01*
X173824571Y-122580276D02*
X173824571Y-122246942D01*
X174348380Y-122246942D02*
X173348380Y-122246942D01*
X173348380Y-122723133D01*
X173824571Y-123437419D02*
X173872190Y-123580276D01*
X173919809Y-123627895D01*
X174015047Y-123675514D01*
X174157904Y-123675514D01*
X174253142Y-123627895D01*
X174300761Y-123580276D01*
X174348380Y-123485038D01*
X174348380Y-123104085D01*
X173348380Y-123104085D01*
X173348380Y-123437419D01*
X173396000Y-123532657D01*
X173443619Y-123580276D01*
X173538857Y-123627895D01*
X173634095Y-123627895D01*
X173729333Y-123580276D01*
X173776952Y-123532657D01*
X173824571Y-123437419D01*
X173824571Y-123104085D01*
X174348380Y-124627895D02*
X174348380Y-124056466D01*
X174348380Y-124342180D02*
X173348380Y-124342180D01*
X173491238Y-124246942D01*
X173586476Y-124151704D01*
X173634095Y-124056466D01*
X174348380Y-125104085D02*
X174348380Y-125294561D01*
X174300761Y-125389800D01*
X174253142Y-125437419D01*
X174110285Y-125532657D01*
X173919809Y-125580276D01*
X173538857Y-125580276D01*
X173443619Y-125532657D01*
X173396000Y-125485038D01*
X173348380Y-125389800D01*
X173348380Y-125199323D01*
X173396000Y-125104085D01*
X173443619Y-125056466D01*
X173538857Y-125008847D01*
X173776952Y-125008847D01*
X173872190Y-125056466D01*
X173919809Y-125104085D01*
X173967428Y-125199323D01*
X173967428Y-125389800D01*
X173919809Y-125485038D01*
X173872190Y-125532657D01*
X173776952Y-125580276D01*
X207809771Y-113791876D02*
X207809771Y-113458542D01*
X208333580Y-113458542D02*
X207333580Y-113458542D01*
X207333580Y-113934733D01*
X207809771Y-114649019D02*
X207857390Y-114791876D01*
X207905009Y-114839495D01*
X208000247Y-114887114D01*
X208143104Y-114887114D01*
X208238342Y-114839495D01*
X208285961Y-114791876D01*
X208333580Y-114696638D01*
X208333580Y-114315685D01*
X207333580Y-114315685D01*
X207333580Y-114649019D01*
X207381200Y-114744257D01*
X207428819Y-114791876D01*
X207524057Y-114839495D01*
X207619295Y-114839495D01*
X207714533Y-114791876D01*
X207762152Y-114744257D01*
X207809771Y-114649019D01*
X207809771Y-114315685D01*
X207428819Y-115268066D02*
X207381200Y-115315685D01*
X207333580Y-115410923D01*
X207333580Y-115649019D01*
X207381200Y-115744257D01*
X207428819Y-115791876D01*
X207524057Y-115839495D01*
X207619295Y-115839495D01*
X207762152Y-115791876D01*
X208333580Y-115220447D01*
X208333580Y-115839495D01*
X207333580Y-116458542D02*
X207333580Y-116553780D01*
X207381200Y-116649019D01*
X207428819Y-116696638D01*
X207524057Y-116744257D01*
X207714533Y-116791876D01*
X207952628Y-116791876D01*
X208143104Y-116744257D01*
X208238342Y-116696638D01*
X208285961Y-116649019D01*
X208333580Y-116553780D01*
X208333580Y-116458542D01*
X208285961Y-116363304D01*
X208238342Y-116315685D01*
X208143104Y-116268066D01*
X207952628Y-116220447D01*
X207714533Y-116220447D01*
X207524057Y-116268066D01*
X207428819Y-116315685D01*
X207381200Y-116363304D01*
X207333580Y-116458542D01*
X149983486Y-120922040D02*
X150459677Y-120922040D01*
X150459677Y-119922040D01*
X149126343Y-120922040D02*
X149697772Y-120922040D01*
X149412058Y-120922040D02*
X149412058Y-119922040D01*
X149507296Y-120064898D01*
X149602534Y-120160136D01*
X149697772Y-120207755D01*
X154066240Y-124654060D02*
X154066240Y-124892156D01*
X154304335Y-124796918D02*
X154066240Y-124892156D01*
X153828144Y-124796918D01*
X154209097Y-125082632D02*
X154066240Y-124892156D01*
X153923382Y-125082632D01*
X170292020Y-67498933D02*
X169815830Y-67165600D01*
X170292020Y-66927504D02*
X169292020Y-66927504D01*
X169292020Y-67308457D01*
X169339640Y-67403695D01*
X169387259Y-67451314D01*
X169482497Y-67498933D01*
X169625354Y-67498933D01*
X169720592Y-67451314D01*
X169768211Y-67403695D01*
X169815830Y-67308457D01*
X169815830Y-66927504D01*
X170292020Y-67975123D02*
X170292020Y-68165600D01*
X170244401Y-68260838D01*
X170196782Y-68308457D01*
X170053925Y-68403695D01*
X169863449Y-68451314D01*
X169482497Y-68451314D01*
X169387259Y-68403695D01*
X169339640Y-68356076D01*
X169292020Y-68260838D01*
X169292020Y-68070361D01*
X169339640Y-67975123D01*
X169387259Y-67927504D01*
X169482497Y-67879885D01*
X169720592Y-67879885D01*
X169815830Y-67927504D01*
X169863449Y-67975123D01*
X169911068Y-68070361D01*
X169911068Y-68260838D01*
X169863449Y-68356076D01*
X169815830Y-68403695D01*
X169720592Y-68451314D01*
X168526697Y-74859140D02*
X168860030Y-74382950D01*
X169098125Y-74859140D02*
X169098125Y-73859140D01*
X168717173Y-73859140D01*
X168621935Y-73906760D01*
X168574316Y-73954379D01*
X168526697Y-74049617D01*
X168526697Y-74192474D01*
X168574316Y-74287712D01*
X168621935Y-74335331D01*
X168717173Y-74382950D01*
X169098125Y-74382950D01*
X167574316Y-74859140D02*
X168145744Y-74859140D01*
X167860030Y-74859140D02*
X167860030Y-73859140D01*
X167955268Y-74001998D01*
X168050506Y-74097236D01*
X168145744Y-74144855D01*
X166955268Y-73859140D02*
X166860030Y-73859140D01*
X166764792Y-73906760D01*
X166717173Y-73954379D01*
X166669554Y-74049617D01*
X166621935Y-74240093D01*
X166621935Y-74478188D01*
X166669554Y-74668664D01*
X166717173Y-74763902D01*
X166764792Y-74811521D01*
X166860030Y-74859140D01*
X166955268Y-74859140D01*
X167050506Y-74811521D01*
X167098125Y-74763902D01*
X167145744Y-74668664D01*
X167193363Y-74478188D01*
X167193363Y-74240093D01*
X167145744Y-74049617D01*
X167098125Y-73954379D01*
X167050506Y-73906760D01*
X166955268Y-73859140D01*
X157665680Y-128160542D02*
X157189490Y-127827209D01*
X157665680Y-127589114D02*
X156665680Y-127589114D01*
X156665680Y-127970066D01*
X156713300Y-128065304D01*
X156760919Y-128112923D01*
X156856157Y-128160542D01*
X156999014Y-128160542D01*
X157094252Y-128112923D01*
X157141871Y-128065304D01*
X157189490Y-127970066D01*
X157189490Y-127589114D01*
X157665680Y-129112923D02*
X157665680Y-128541495D01*
X157665680Y-128827209D02*
X156665680Y-128827209D01*
X156808538Y-128731971D01*
X156903776Y-128636733D01*
X156951395Y-128541495D01*
X156665680Y-130017685D02*
X156665680Y-129541495D01*
X157141871Y-129493876D01*
X157094252Y-129541495D01*
X157046633Y-129636733D01*
X157046633Y-129874828D01*
X157094252Y-129970066D01*
X157141871Y-130017685D01*
X157237109Y-130065304D01*
X157475204Y-130065304D01*
X157570442Y-130017685D01*
X157618061Y-129970066D01*
X157665680Y-129874828D01*
X157665680Y-129636733D01*
X157618061Y-129541495D01*
X157570442Y-129493876D01*
X151989960Y-133625682D02*
X151513770Y-133292349D01*
X151989960Y-133054254D02*
X150989960Y-133054254D01*
X150989960Y-133435206D01*
X151037580Y-133530444D01*
X151085199Y-133578063D01*
X151180437Y-133625682D01*
X151323294Y-133625682D01*
X151418532Y-133578063D01*
X151466151Y-133530444D01*
X151513770Y-133435206D01*
X151513770Y-133054254D01*
X151989960Y-134578063D02*
X151989960Y-134006635D01*
X151989960Y-134292349D02*
X150989960Y-134292349D01*
X151132818Y-134197111D01*
X151228056Y-134101873D01*
X151275675Y-134006635D01*
X150989960Y-135435206D02*
X150989960Y-135244730D01*
X151037580Y-135149492D01*
X151085199Y-135101873D01*
X151228056Y-135006635D01*
X151418532Y-134959016D01*
X151799484Y-134959016D01*
X151894722Y-135006635D01*
X151942341Y-135054254D01*
X151989960Y-135149492D01*
X151989960Y-135339968D01*
X151942341Y-135435206D01*
X151894722Y-135482825D01*
X151799484Y-135530444D01*
X151561389Y-135530444D01*
X151466151Y-135482825D01*
X151418532Y-135435206D01*
X151370913Y-135339968D01*
X151370913Y-135149492D01*
X151418532Y-135054254D01*
X151466151Y-135006635D01*
X151561389Y-134959016D01*
X217965257Y-75355980D02*
X218298590Y-74879790D01*
X218536685Y-75355980D02*
X218536685Y-74355980D01*
X218155733Y-74355980D01*
X218060495Y-74403600D01*
X218012876Y-74451219D01*
X217965257Y-74546457D01*
X217965257Y-74689314D01*
X218012876Y-74784552D01*
X218060495Y-74832171D01*
X218155733Y-74879790D01*
X218536685Y-74879790D01*
X217012876Y-75355980D02*
X217584304Y-75355980D01*
X217298590Y-75355980D02*
X217298590Y-74355980D01*
X217393828Y-74498838D01*
X217489066Y-74594076D01*
X217584304Y-74641695D01*
X216536685Y-75355980D02*
X216346209Y-75355980D01*
X216250971Y-75308361D01*
X216203352Y-75260742D01*
X216108114Y-75117885D01*
X216060495Y-74927409D01*
X216060495Y-74546457D01*
X216108114Y-74451219D01*
X216155733Y-74403600D01*
X216250971Y-74355980D01*
X216441447Y-74355980D01*
X216536685Y-74403600D01*
X216584304Y-74451219D01*
X216631923Y-74546457D01*
X216631923Y-74784552D01*
X216584304Y-74879790D01*
X216536685Y-74927409D01*
X216441447Y-74975028D01*
X216250971Y-74975028D01*
X216155733Y-74927409D01*
X216108114Y-74879790D01*
X216060495Y-74784552D01*
X193010780Y-130310542D02*
X192534590Y-129977209D01*
X193010780Y-129739114D02*
X192010780Y-129739114D01*
X192010780Y-130120066D01*
X192058400Y-130215304D01*
X192106019Y-130262923D01*
X192201257Y-130310542D01*
X192344114Y-130310542D01*
X192439352Y-130262923D01*
X192486971Y-130215304D01*
X192534590Y-130120066D01*
X192534590Y-129739114D01*
X192010780Y-131215304D02*
X192010780Y-130739114D01*
X192486971Y-130691495D01*
X192439352Y-130739114D01*
X192391733Y-130834352D01*
X192391733Y-131072447D01*
X192439352Y-131167685D01*
X192486971Y-131215304D01*
X192582209Y-131262923D01*
X192820304Y-131262923D01*
X192915542Y-131215304D01*
X192963161Y-131167685D01*
X193010780Y-131072447D01*
X193010780Y-130834352D01*
X192963161Y-130739114D01*
X192915542Y-130691495D01*
X192010780Y-132120066D02*
X192010780Y-131929590D01*
X192058400Y-131834352D01*
X192106019Y-131786733D01*
X192248876Y-131691495D01*
X192439352Y-131643876D01*
X192820304Y-131643876D01*
X192915542Y-131691495D01*
X192963161Y-131739114D01*
X193010780Y-131834352D01*
X193010780Y-132024828D01*
X192963161Y-132120066D01*
X192915542Y-132167685D01*
X192820304Y-132215304D01*
X192582209Y-132215304D01*
X192486971Y-132167685D01*
X192439352Y-132120066D01*
X192391733Y-132024828D01*
X192391733Y-131834352D01*
X192439352Y-131739114D01*
X192486971Y-131691495D01*
X192582209Y-131643876D01*
X172299980Y-115116042D02*
X171823790Y-114782709D01*
X172299980Y-114544614D02*
X171299980Y-114544614D01*
X171299980Y-114925566D01*
X171347600Y-115020804D01*
X171395219Y-115068423D01*
X171490457Y-115116042D01*
X171633314Y-115116042D01*
X171728552Y-115068423D01*
X171776171Y-115020804D01*
X171823790Y-114925566D01*
X171823790Y-114544614D01*
X171299980Y-115973185D02*
X171299980Y-115782709D01*
X171347600Y-115687471D01*
X171395219Y-115639852D01*
X171538076Y-115544614D01*
X171728552Y-115496995D01*
X172109504Y-115496995D01*
X172204742Y-115544614D01*
X172252361Y-115592233D01*
X172299980Y-115687471D01*
X172299980Y-115877947D01*
X172252361Y-115973185D01*
X172204742Y-116020804D01*
X172109504Y-116068423D01*
X171871409Y-116068423D01*
X171776171Y-116020804D01*
X171728552Y-115973185D01*
X171680933Y-115877947D01*
X171680933Y-115687471D01*
X171728552Y-115592233D01*
X171776171Y-115544614D01*
X171871409Y-115496995D01*
X172299980Y-117020804D02*
X172299980Y-116449376D01*
X172299980Y-116735090D02*
X171299980Y-116735090D01*
X171442838Y-116639852D01*
X171538076Y-116544614D01*
X171585695Y-116449376D01*
X167449404Y-79346980D02*
X167449404Y-80156504D01*
X167401785Y-80251742D01*
X167354166Y-80299361D01*
X167258928Y-80346980D01*
X167068452Y-80346980D01*
X166973214Y-80299361D01*
X166925595Y-80251742D01*
X166877976Y-80156504D01*
X166877976Y-79346980D01*
X166449404Y-79442219D02*
X166401785Y-79394600D01*
X166306547Y-79346980D01*
X166068452Y-79346980D01*
X165973214Y-79394600D01*
X165925595Y-79442219D01*
X165877976Y-79537457D01*
X165877976Y-79632695D01*
X165925595Y-79775552D01*
X166497023Y-80346980D01*
X165877976Y-80346980D01*
X165341204Y-70558580D02*
X165341204Y-71368104D01*
X165293585Y-71463342D01*
X165245966Y-71510961D01*
X165150728Y-71558580D01*
X164960252Y-71558580D01*
X164865014Y-71510961D01*
X164817395Y-71463342D01*
X164769776Y-71368104D01*
X164769776Y-70558580D01*
X164388823Y-70558580D02*
X163769776Y-70558580D01*
X164103109Y-70939533D01*
X163960252Y-70939533D01*
X163865014Y-70987152D01*
X163817395Y-71034771D01*
X163769776Y-71130009D01*
X163769776Y-71368104D01*
X163817395Y-71463342D01*
X163865014Y-71510961D01*
X163960252Y-71558580D01*
X164245966Y-71558580D01*
X164341204Y-71510961D01*
X164388823Y-71463342D01*
X141528704Y-122309640D02*
X141528704Y-123119164D01*
X141481085Y-123214402D01*
X141433466Y-123262021D01*
X141338228Y-123309640D01*
X141147752Y-123309640D01*
X141052514Y-123262021D01*
X141004895Y-123214402D01*
X140957276Y-123119164D01*
X140957276Y-122309640D01*
X140052514Y-122309640D02*
X140242990Y-122309640D01*
X140338228Y-122357260D01*
X140385847Y-122404879D01*
X140481085Y-122547736D01*
X140528704Y-122738212D01*
X140528704Y-123119164D01*
X140481085Y-123214402D01*
X140433466Y-123262021D01*
X140338228Y-123309640D01*
X140147752Y-123309640D01*
X140052514Y-123262021D01*
X140004895Y-123214402D01*
X139957276Y-123119164D01*
X139957276Y-122881069D01*
X140004895Y-122785831D01*
X140052514Y-122738212D01*
X140147752Y-122690593D01*
X140338228Y-122690593D01*
X140433466Y-122738212D01*
X140481085Y-122785831D01*
X140528704Y-122881069D01*
X143764000Y-122804940D02*
X143764000Y-123043036D01*
X144002095Y-122947798D02*
X143764000Y-123043036D01*
X143525904Y-122947798D01*
X143906857Y-123233512D02*
X143764000Y-123043036D01*
X143621142Y-123233512D01*
M02*
